<svg id="Layer_1" data-name="Layer 1" xmlns="http://www.w3.org/2000/svg" viewBox="0 0 670.41 424.49"><defs><style>.cls-1{fill:#23c0ba;}.cls-2{fill:#4da9e8;}.cls-3{fill:#efa770;}</style></defs><title>usa-background</title><circle class="cls-1" cx="85.6" cy="8.22" r="4.99"/><circle class="cls-1" cx="108.61" cy="8.22" r="4.99"/><circle class="cls-1" cx="131.62" cy="8.22" r="4.99"/><circle class="cls-1" cx="154.62" cy="8.22" r="4.99"/><circle class="cls-1" cx="177.63" cy="8.22" r="4.99"/><circle class="cls-1" cx="662.08" cy="8.22" r="4.99"/><circle class="cls-1" cx="62.59" cy="31.23" r="4.99"/><circle class="cls-1" cx="85.6" cy="31.23" r="4.99"/><circle class="cls-1" cx="108.61" cy="31.23" r="4.99"/><circle class="cls-1" cx="131.62" cy="31.23" r="4.99"/><circle class="cls-1" cx="154.62" cy="31.23" r="4.99"/><circle class="cls-2" cx="177.63" cy="31.23" r="4.99"/><circle class="cls-2" cx="200.64" cy="31.23" r="4.99"/><circle class="cls-2" cx="223.65" cy="31.23" r="4.99"/><circle class="cls-1" cx="247.3" cy="31.23" r="4.99"/><circle class="cls-1" cx="270.3" cy="31.23" r="4.99"/><circle class="cls-1" cx="293.31" cy="31.23" r="4.99"/><circle class="cls-1" cx="316.32" cy="31.23" r="4.99"/><circle class="cls-1" cx="339.33" cy="31.23" r="4.99"/><circle class="cls-1" cx="362.34" cy="31.23" r="4.99"/><circle class="cls-2" cx="385.35" cy="31.23" r="4.99"/><circle class="cls-1" cx="408.35" cy="31.23" r="4.99"/><circle class="cls-1" cx="431.36" cy="31.23" r="4.99"/><circle class="cls-1" cx="639.08" cy="31.23" r="4.99"/><circle class="cls-1" cx="662.08" cy="31.23" r="4.99"/><circle class="cls-1" cx="62.59" cy="54.23" r="4.99"/><circle class="cls-1" cx="85.6" cy="54.23" r="4.99"/><circle class="cls-1" cx="108.61" cy="54.23" r="4.99"/><circle class="cls-3" cx="131.62" cy="54.23" r="4.99"/><circle class="cls-3" cx="154.62" cy="54.23" r="4.99"/><circle class="cls-2" cx="177.63" cy="54.23" r="4.99"/><circle class="cls-3" cx="200.64" cy="54.23" r="4.99"/><circle class="cls-2" cx="223.65" cy="54.23" r="4.99"/><circle class="cls-2" cx="247.3" cy="54.23" r="4.99"/><circle class="cls-2" cx="270.3" cy="54.23" r="4.99"/><circle class="cls-1" cx="293.31" cy="54.23" r="4.99"/><circle class="cls-1" cx="316.32" cy="54.23" r="4.99"/><circle class="cls-1" cx="339.33" cy="54.23" r="4.99"/><circle class="cls-1" cx="362.34" cy="54.23" r="4.99"/><circle class="cls-1" cx="385.35" cy="54.23" r="4.99"/><circle class="cls-1" cx="408.35" cy="54.23" r="4.99"/><circle class="cls-1" cx="431.36" cy="54.23" r="4.99"/><circle class="cls-2" cx="454.37" cy="54.23" r="4.99"/><circle class="cls-1" cx="478.02" cy="54.23" r="4.99"/><circle class="cls-1" cx="593.06" cy="54.23" r="4.99"/><circle class="cls-1" cx="616.07" cy="54.23" r="4.99"/><circle class="cls-1" cx="639.08" cy="54.23" r="4.99"/><circle class="cls-1" cx="62.59" cy="77.88" r="4.99"/><circle class="cls-1" cx="85.6" cy="77.88" r="4.99"/><circle class="cls-1" cx="108.61" cy="77.88" r="4.99"/><circle class="cls-1" cx="131.62" cy="77.88" r="4.99"/><circle class="cls-2" cx="154.62" cy="77.88" r="4.99"/><circle class="cls-1" cx="177.63" cy="77.88" r="4.99"/><circle class="cls-2" cx="200.64" cy="77.88" r="4.99"/><circle class="cls-1" cx="223.65" cy="77.88" r="4.99"/><circle class="cls-3" cx="247.3" cy="77.88" r="4.99"/><circle class="cls-2" cx="270.3" cy="77.88" r="4.99"/><circle class="cls-2" cx="293.31" cy="77.88" r="4.99"/><circle class="cls-1" cx="316.32" cy="77.88" r="4.99"/><circle class="cls-1" cx="339.33" cy="77.88" r="4.99"/><circle class="cls-1" cx="362.34" cy="77.88" r="4.99"/><circle class="cls-1" cx="385.35" cy="77.88" r="4.99"/><circle class="cls-1" cx="408.35" cy="77.88" r="4.99"/><circle class="cls-3" cx="431.36" cy="77.88" r="4.99"/><circle class="cls-3" cx="454.37" cy="77.88" r="4.99"/><circle class="cls-2" cx="501.03" cy="77.88" r="4.99"/><circle class="cls-1" cx="593.06" cy="77.88" r="4.99"/><circle class="cls-1" cx="616.07" cy="77.88" r="4.99"/><circle class="cls-1" cx="639.08" cy="77.88" r="4.99"/><circle class="cls-1" cx="39.58" cy="100.89" r="4.99"/><circle class="cls-1" cx="62.59" cy="100.89" r="4.99"/><circle class="cls-1" cx="85.6" cy="100.89" r="4.99"/><circle class="cls-2" cx="108.61" cy="100.89" r="4.99"/><circle class="cls-1" cx="131.62" cy="100.89" r="4.99"/><circle class="cls-3" cx="154.62" cy="100.89" r="4.99"/><circle class="cls-2" cx="177.63" cy="100.89" r="4.99"/><circle class="cls-3" cx="200.64" cy="100.89" r="4.99"/><circle class="cls-2" cx="223.65" cy="100.89" r="4.99"/><circle class="cls-2" cx="247.3" cy="100.89" r="4.99"/><circle class="cls-3" cx="270.3" cy="100.89" r="4.99"/><circle class="cls-2" cx="293.31" cy="100.89" r="4.99"/><circle class="cls-1" cx="316.32" cy="100.89" r="4.99"/><circle class="cls-1" cx="339.33" cy="100.89" r="4.99"/><circle class="cls-1" cx="362.34" cy="100.89" r="4.99"/><circle class="cls-1" cx="385.35" cy="100.89" r="4.99"/><circle class="cls-1" cx="408.35" cy="100.89" r="4.99"/><circle class="cls-1" cx="431.36" cy="100.89" r="4.99"/><circle class="cls-2" cx="454.37" cy="100.89" r="4.99"/><circle class="cls-2" cx="478.02" cy="100.89" r="4.99"/><circle class="cls-1" cx="501.03" cy="100.89" r="4.99"/><circle class="cls-1" cx="524.03" cy="100.89" r="4.99"/><circle class="cls-2" cx="570.05" cy="100.89" r="4.99"/><circle class="cls-1" cx="593.06" cy="100.89" r="4.99"/><circle class="cls-1" cx="616.07" cy="100.89" r="4.99"/><circle class="cls-1" cx="639.08" cy="100.89" r="4.99"/><circle class="cls-1" cx="39.58" cy="123.9" r="4.99"/><circle class="cls-1" cx="62.59" cy="123.9" r="4.99"/><circle class="cls-1" cx="85.6" cy="123.9" r="4.99"/><circle class="cls-3" cx="108.61" cy="123.9" r="4.99"/><circle class="cls-3" cx="131.62" cy="123.9" r="4.99"/><circle class="cls-2" cx="154.62" cy="123.9" r="4.99"/><circle class="cls-2" cx="177.63" cy="123.9" r="4.99"/><circle class="cls-3" cx="200.64" cy="123.9" r="4.99"/><circle class="cls-2" cx="223.65" cy="123.9" r="4.99"/><circle class="cls-1" cx="247.3" cy="123.9" r="4.99"/><circle class="cls-1" cx="270.3" cy="123.9" r="4.99"/><circle class="cls-2" cx="293.31" cy="123.9" r="4.99"/><circle class="cls-1" cx="316.32" cy="123.9" r="4.99"/><circle class="cls-1" cx="339.33" cy="123.9" r="4.99"/><circle class="cls-1" cx="362.34" cy="123.9" r="4.99"/><circle class="cls-1" cx="385.35" cy="123.9" r="4.99"/><circle class="cls-1" cx="408.35" cy="123.9" r="4.99"/><circle class="cls-1" cx="431.36" cy="123.9" r="4.99"/><circle class="cls-3" cx="454.37" cy="123.9" r="4.99"/><circle class="cls-2" cx="478.02" cy="123.9" r="4.99"/><circle class="cls-2" cx="501.03" cy="123.9" r="4.99"/><circle class="cls-1" cx="524.03" cy="123.9" r="4.99"/><circle class="cls-2" cx="547.04" cy="123.9" r="4.99"/><circle class="cls-2" cx="570.05" cy="123.9" r="4.99"/><circle class="cls-1" cx="593.06" cy="123.9" r="4.99"/><circle class="cls-1" cx="616.07" cy="123.9" r="4.99"/><circle class="cls-1" cx="39.58" cy="146.91" r="4.99"/><circle class="cls-1" cx="62.59" cy="146.91" r="4.99"/><circle class="cls-1" cx="85.6" cy="146.91" r="4.99"/><circle class="cls-2" cx="108.61" cy="146.91" r="4.99"/><circle class="cls-3" cx="131.62" cy="146.91" r="4.99"/><circle class="cls-1" cx="154.62" cy="146.91" r="4.99"/><circle class="cls-3" cx="177.63" cy="146.91" r="4.99"/><circle class="cls-2" cx="200.64" cy="146.91" r="4.99"/><circle class="cls-2" cx="223.65" cy="146.91" r="4.99"/><circle class="cls-2" cx="247.3" cy="146.91" r="4.99"/><circle class="cls-2" cx="270.3" cy="146.91" r="4.99"/><circle class="cls-1" cx="293.31" cy="146.91" r="4.99"/><circle class="cls-1" cx="316.32" cy="146.91" r="4.99"/><circle class="cls-1" cx="339.33" cy="146.91" r="4.99"/><circle class="cls-1" cx="362.34" cy="146.91" r="4.99"/><circle class="cls-1" cx="385.35" cy="146.91" r="4.99"/><circle class="cls-1" cx="408.35" cy="146.91" r="4.99"/><circle class="cls-1" cx="431.36" cy="146.91" r="4.99"/><circle class="cls-1" cx="454.37" cy="146.91" r="4.99"/><circle class="cls-1" cx="478.02" cy="146.91" r="4.99"/><circle class="cls-3" cx="501.03" cy="146.91" r="4.99"/><circle class="cls-2" cx="524.03" cy="146.91" r="4.99"/><circle class="cls-1" cx="547.04" cy="146.91" r="4.99"/><circle class="cls-1" cx="570.05" cy="146.91" r="4.99"/><circle class="cls-1" cx="593.06" cy="146.91" r="4.99"/><circle class="cls-1" cx="616.07" cy="146.91" r="4.99"/><circle class="cls-1" cx="62.59" cy="169.91" r="4.99"/><circle class="cls-1" cx="85.6" cy="169.91" r="4.99"/><circle class="cls-3" cx="108.61" cy="169.91" r="4.99"/><circle class="cls-1" cx="131.62" cy="169.91" r="4.99"/><circle class="cls-1" cx="154.62" cy="169.91" r="4.99"/><circle class="cls-3" cx="177.63" cy="169.91" r="4.99"/><circle class="cls-3" cx="200.64" cy="169.91" r="4.99"/><circle class="cls-2" cx="223.65" cy="169.91" r="4.99"/><circle class="cls-1" cx="247.3" cy="169.91" r="4.99"/><circle class="cls-1" cx="270.3" cy="169.91" r="4.99"/><circle class="cls-1" cx="293.31" cy="169.91" r="4.99"/><circle class="cls-1" cx="316.32" cy="169.91" r="4.99"/><circle class="cls-1" cx="339.33" cy="169.91" r="4.99"/><circle class="cls-2" cx="362.34" cy="169.91" r="4.99"/><circle class="cls-1" cx="385.35" cy="169.91" r="4.99"/><circle class="cls-1" cx="408.35" cy="169.91" r="4.99"/><circle class="cls-1" cx="431.36" cy="169.91" r="4.99"/><circle class="cls-1" cx="454.37" cy="169.91" r="4.99"/><circle class="cls-1" cx="478.02" cy="169.91" r="4.99"/><circle class="cls-1" cx="501.03" cy="169.91" r="4.99"/><circle class="cls-1" cx="524.03" cy="169.91" r="4.99"/><circle class="cls-1" cx="547.04" cy="169.91" r="4.99"/><circle class="cls-1" cx="570.05" cy="169.91" r="4.99"/><circle class="cls-1" cx="593.06" cy="169.91" r="4.99"/><circle class="cls-2" cx="616.07" cy="169.91" r="4.99"/><circle class="cls-1" cx="62.59" cy="192.92" r="4.99"/><circle class="cls-1" cx="85.6" cy="192.92" r="4.99"/><circle class="cls-2" cx="108.61" cy="192.92" r="4.99"/><circle class="cls-1" cx="131.62" cy="192.92" r="4.99"/><circle class="cls-2" cx="154.62" cy="192.92" r="4.99"/><circle class="cls-3" cx="177.63" cy="192.92" r="4.99"/><circle class="cls-1" cx="200.64" cy="192.92" r="4.99"/><circle class="cls-1" cx="223.65" cy="192.92" r="4.99"/><circle class="cls-1" cx="247.3" cy="192.92" r="4.99"/><circle class="cls-1" cx="270.3" cy="192.92" r="4.99"/><circle class="cls-1" cx="293.31" cy="192.92" r="4.99"/><circle class="cls-3" cx="316.32" cy="192.92" r="4.99"/><circle class="cls-2" cx="339.33" cy="192.92" r="4.99"/><circle class="cls-2" cx="362.34" cy="192.92" r="4.99"/><circle class="cls-3" cx="385.35" cy="192.92" r="4.99"/><circle class="cls-2" cx="408.35" cy="192.92" r="4.99"/><circle class="cls-1" cx="431.36" cy="192.92" r="4.99"/><circle class="cls-1" cx="454.37" cy="192.92" r="4.99"/><circle class="cls-1" cx="478.02" cy="192.92" r="4.99"/><circle class="cls-1" cx="501.03" cy="192.92" r="4.99"/><circle class="cls-1" cx="524.03" cy="192.92" r="4.99"/><circle class="cls-1" cx="547.04" cy="192.92" r="4.99"/><circle class="cls-2" cx="570.05" cy="192.92" r="4.99"/><circle class="cls-3" cx="593.06" cy="192.92" r="4.99"/><circle class="cls-2" cx="616.07" cy="192.92" r="4.99"/><circle class="cls-2" cx="85.6" cy="215.93" r="4.99"/><circle class="cls-2" cx="108.61" cy="215.93" r="4.99"/><circle class="cls-3" cx="131.62" cy="215.93" r="4.99"/><circle class="cls-3" cx="154.62" cy="215.93" r="4.99"/><circle class="cls-1" cx="177.63" cy="215.93" r="4.99"/><circle class="cls-1" cx="200.64" cy="215.93" r="4.99"/><circle class="cls-1" cx="223.65" cy="215.93" r="4.99"/><circle class="cls-1" cx="247.3" cy="215.93" r="4.99"/><circle class="cls-1" cx="270.3" cy="215.93" r="4.99"/><circle class="cls-1" cx="293.31" cy="215.93" r="4.99"/><circle class="cls-1" cx="316.32" cy="215.93" r="4.99"/><circle class="cls-1" cx="339.33" cy="215.93" r="4.99"/><circle class="cls-2" cx="362.34" cy="215.93" r="4.99"/><circle class="cls-2" cx="385.35" cy="215.93" r="4.99"/><circle class="cls-1" cx="408.35" cy="215.93" r="4.99"/><circle class="cls-3" cx="431.36" cy="215.93" r="4.99"/><circle class="cls-1" cx="454.37" cy="215.93" r="4.99"/><circle class="cls-1" cx="478.02" cy="215.93" r="4.99"/><circle class="cls-1" cx="501.03" cy="215.93" r="4.99"/><circle class="cls-1" cx="524.03" cy="215.93" r="4.99"/><circle class="cls-2" cx="547.04" cy="215.93" r="4.99"/><circle class="cls-2" cx="570.05" cy="215.93" r="4.99"/><circle class="cls-2" cx="593.06" cy="215.93" r="4.99"/><circle class="cls-1" cx="616.07" cy="215.93" r="4.99"/><circle class="cls-2" cx="85.6" cy="238.94" r="4.99"/><circle class="cls-2" cx="108.61" cy="238.94" r="4.99"/><circle class="cls-2" cx="131.62" cy="238.94" r="4.99"/><circle class="cls-1" cx="154.62" cy="238.94" r="4.99"/><circle class="cls-1" cx="177.63" cy="238.94" r="4.99"/><circle class="cls-1" cx="200.64" cy="238.94" r="4.99"/><circle class="cls-1" cx="223.65" cy="238.94" r="4.99"/><circle class="cls-1" cx="247.3" cy="238.94" r="4.99"/><circle class="cls-1" cx="270.3" cy="238.94" r="4.99"/><circle class="cls-1" cx="293.31" cy="238.94" r="4.99"/><circle class="cls-2" cx="316.32" cy="238.94" r="4.99"/><circle class="cls-2" cx="339.33" cy="238.94" r="4.99"/><circle class="cls-2" cx="362.34" cy="238.94" r="4.99"/><circle class="cls-2" cx="385.35" cy="238.94" r="4.99"/><circle class="cls-3" cx="408.35" cy="238.94" r="4.99"/><circle class="cls-1" cx="431.36" cy="238.94" r="4.99"/><circle class="cls-1" cx="454.37" cy="238.94" r="4.99"/><circle class="cls-1" cx="478.02" cy="238.94" r="4.99"/><circle class="cls-1" cx="501.03" cy="238.94" r="4.99"/><circle class="cls-1" cx="524.03" cy="238.94" r="4.99"/><circle class="cls-1" cx="547.04" cy="238.94" r="4.99"/><circle class="cls-2" cx="570.05" cy="238.94" r="4.99"/><circle class="cls-2" cx="593.06" cy="238.94" r="4.99"/><circle class="cls-2" cx="108.61" cy="261.95" r="4.99"/><circle class="cls-2" cx="131.62" cy="261.95" r="4.99"/><circle class="cls-3" cx="154.62" cy="261.95" r="4.99"/><circle class="cls-3" cx="177.63" cy="261.95" r="4.99"/><circle class="cls-1" cx="200.64" cy="261.95" r="4.99"/><circle class="cls-1" cx="223.65" cy="261.95" r="4.99"/><circle class="cls-1" cx="247.3" cy="261.95" r="4.99"/><circle class="cls-1" cx="270.3" cy="261.95" r="4.99"/><circle class="cls-1" cx="293.31" cy="261.95" r="4.99"/><circle class="cls-1" cx="316.32" cy="261.95" r="4.99"/><circle class="cls-2" cx="339.33" cy="261.95" r="4.99"/><circle class="cls-2" cx="362.34" cy="261.95" r="4.99"/><circle class="cls-1" cx="385.35" cy="261.95" r="4.99"/><circle class="cls-2" cx="408.35" cy="261.95" r="4.99"/><circle class="cls-2" cx="431.36" cy="261.95" r="4.99"/><circle class="cls-1" cx="454.37" cy="261.95" r="4.99"/><circle class="cls-1" cx="478.02" cy="261.95" r="4.99"/><circle class="cls-1" cx="501.03" cy="261.95" r="4.99"/><circle class="cls-1" cx="524.03" cy="261.95" r="4.99"/><circle class="cls-1" cx="547.04" cy="261.95" r="4.99"/><circle class="cls-1" cx="570.05" cy="261.95" r="4.99"/><circle class="cls-3" cx="177.63" cy="284.95" r="4.99"/><circle class="cls-1" cx="200.64" cy="284.95" r="4.99"/><circle class="cls-1" cx="223.65" cy="284.95" r="4.99"/><circle class="cls-1" cx="247.3" cy="284.95" r="4.99"/><circle class="cls-1" cx="270.3" cy="284.95" r="4.99"/><circle class="cls-1" cx="293.31" cy="284.95" r="4.99"/><circle class="cls-3" cx="316.32" cy="284.95" r="4.99"/><circle class="cls-3" cx="339.33" cy="284.95" r="4.99"/><circle class="cls-1" cx="362.34" cy="284.95" r="4.99"/><circle class="cls-1" cx="385.35" cy="284.95" r="4.99"/><circle class="cls-2" cx="408.35" cy="284.95" r="4.99"/><circle class="cls-2" cx="431.36" cy="284.95" r="4.99"/><circle class="cls-2" cx="454.37" cy="284.95" r="4.99"/><circle class="cls-1" cx="478.02" cy="284.95" r="4.99"/><circle class="cls-1" cx="501.03" cy="284.95" r="4.99"/><circle class="cls-1" cx="524.03" cy="284.95" r="4.99"/><circle class="cls-1" cx="547.04" cy="284.95" r="4.99"/><circle class="cls-1" cx="570.05" cy="284.95" r="4.99"/><circle class="cls-1" cx="270.3" cy="307.96" r="4.99"/><circle class="cls-2" cx="293.31" cy="307.96" r="4.99"/><circle class="cls-2" cx="316.32" cy="307.96" r="4.99"/><circle class="cls-2" cx="339.33" cy="307.96" r="4.99"/><circle class="cls-2" cx="362.34" cy="307.96" r="4.99"/><circle class="cls-2" cx="385.35" cy="307.96" r="4.99"/><circle class="cls-3" cx="408.35" cy="307.96" r="4.99"/><circle class="cls-2" cx="431.36" cy="307.96" r="4.99"/><circle class="cls-3" cx="454.37" cy="307.96" r="4.99"/><circle class="cls-1" cx="478.02" cy="307.96" r="4.99"/><circle class="cls-1" cx="524.03" cy="307.96" r="4.99"/><circle class="cls-1" cx="547.04" cy="307.96" r="4.99"/><circle class="cls-1" cx="570.05" cy="307.96" r="4.99"/><circle class="cls-1" cx="316.32" cy="331.61" r="4.99"/><circle class="cls-3" cx="339.33" cy="331.61" r="4.99"/><circle class="cls-3" cx="362.34" cy="331.61" r="4.99"/><circle class="cls-2" cx="385.35" cy="331.61" r="4.99"/><circle class="cls-2" cx="454.37" cy="331.61" r="4.99"/><circle class="cls-1" cx="570.05" cy="331.61" r="4.99"/><circle class="cls-1" cx="593.06" cy="331.61" r="4.99"/><circle class="cls-1" cx="339.33" cy="354.62" r="4.99"/><circle class="cls-3" cx="362.34" cy="354.62" r="4.99"/><circle class="cls-2" cx="593.06" cy="354.62" r="4.99"/><circle class="cls-3" cx="362.34" cy="377.63" r="4.99"/><circle class="cls-1" cx="90.82" cy="324.24" r="4.99"/><circle class="cls-1" cx="113.32" cy="324.24" r="4.99"/><circle class="cls-1" cx="68.32" cy="342.65" r="4.99"/><circle class="cls-3" cx="90.82" cy="342.65" r="4.99"/><circle class="cls-1" cx="113.32" cy="342.65" r="4.99"/><circle class="cls-2" cx="136.83" cy="342.65" r="4.99"/><circle class="cls-2" cx="68.32" cy="361.56" r="4.99"/><circle class="cls-2" cx="90.82" cy="361.56" r="4.99"/><circle class="cls-2" cx="113.32" cy="361.56" r="4.99"/><circle class="cls-2" cx="136.83" cy="361.56" r="4.99"/><circle class="cls-3" cx="159.33" cy="361.56" r="4.99"/><circle class="cls-1" cx="90.82" cy="379.97" r="4.99"/><circle class="cls-1" cx="113.32" cy="379.97" r="4.99"/><circle class="cls-3" cx="180.81" cy="379.97" r="4.99"/><circle class="cls-1" cx="7.99" cy="398.38" r="4.99"/><circle class="cls-1" cx="68.32" cy="398.38" r="4.99"/><circle class="cls-1" cx="90.82" cy="398.38" r="4.99"/><circle class="cls-1" cx="26.4" cy="416.78" r="4.99"/><circle class="cls-1" cx="47.87" cy="416.78" r="4.99"/><circle class="cls-1" cx="240.32" cy="365.1" r="4.99"/><circle class="cls-1" cx="263.33" cy="365.1" r="4.99"/><circle class="cls-2" cx="286.34" cy="388.74" r="4.99"/></svg>