<?xml version="1.0" encoding="utf-8"?>
<!-- Generator: Adobe Illustrator 12.0.1, SVG Export Plug-In . SVG Version: 6.00 Build 51448)  -->
<!DOCTYPE svg PUBLIC "-//W3C//DTD SVG 1.1//EN" "http://www.w3.org/Graphics/SVG/1.1/DTD/svg11.dtd" [
	<!ENTITY ns_svg "http://www.w3.org/2000/svg">
	<!ENTITY ns_xlink "http://www.w3.org/1999/xlink">
	<!ENTITY st0 "fill:url(#XMLID_1_);">
	<!ENTITY st1 "fill:url(#XMLID_2_);">
	<!ENTITY st2 "fill:url(#XMLID_3_);">
	<!ENTITY st3 "fill:url(#XMLID_4_);">
	<!ENTITY st4 "fill:url(#XMLID_5_);">
	<!ENTITY st5 "fill:url(#XMLID_6_);">
	<!ENTITY st6 "fill:url(#XMLID_7_);">
	<!ENTITY st7 "fill:url(#XMLID_8_);">
	<!ENTITY st8 "fill:url(#XMLID_9_);">
	<!ENTITY st9 "fill:#FFFFFF;stroke:#000000;">
]>
<svg  version="1.1" xmlns="&ns_svg;" xmlns:xlink="&ns_xlink;" width="120.3" height="120.3" viewBox="0 0 120.3 120.3"
	 style="overflow:visible;enable-background:new 0 0 120.3 120.3;" xml:space="preserve">
<g id="Layer_1">
</g>
<g id="Layer_2">
	<g>
		<circle style="&st9;" cx="60.2" cy="60.2" r="59.7"/>
		<g>
			<path d="M12.2,71.5l0.4,1.2l-3.3,1c-0.5,0.2-0.9,0.3-1,0.3c-0.2,0.1-0.4,0.3-0.5,0.6c-0.1,0.2-0.1,0.5,0,0.9
				c0.1,0.4,0.3,0.6,0.5,0.7c0.2,0.1,0.4,0.2,0.6,0.2s0.6-0.1,1.1-0.3l3.4-1l0.4,1.2l-3.2,1c-0.7,0.2-1.3,0.3-1.6,0.4
				s-0.6,0-0.9-0.1c-0.3-0.1-0.5-0.3-0.7-0.6c-0.2-0.3-0.4-0.6-0.5-1.1c-0.2-0.6-0.2-1.1-0.2-1.4c0-0.3,0.2-0.6,0.3-0.9
				s0.4-0.4,0.6-0.6c0.3-0.2,0.8-0.4,1.5-0.6L12.2,71.5z"/>
			<path d="M8.2,80.3l5.9-2.6l0.5,1.2L11.7,83l3.9-1.7l0.5,1.1L10.3,85l-0.5-1.2l2.8-4.1l-3.8,1.7L8.2,80.3z"/>
			<path d="M11.3,86.9l5.6-3.2l0.6,1.1L12,88L11.3,86.9z"/>
			<path d="M13.8,91l4.4-3l-1.1-1.6l0.9-0.6l2.9,4.2L20,90.6L19,89.1l-4.4,3L13.8,91z"/>
			<path d="M16.6,95l4.9-4.2l3.1,3.6L23.8,95l-2.3-2.6l-1.1,0.9l2.1,2.4l-0.8,0.7l-2.1-2.4l-1.3,1.2l2.4,2.7l-0.8,0.7L16.6,95z"/>
			<path d="M25.5,95.2l1.8,1.6c0.4,0.4,0.7,0.7,0.8,0.9c0.2,0.3,0.3,0.7,0.3,1.1c0,0.4-0.1,0.8-0.2,1.2c-0.2,0.4-0.5,0.8-0.9,1.3
				c-0.4,0.4-0.7,0.7-1.1,0.9c-0.4,0.2-0.9,0.4-1.3,0.4c-0.3,0-0.7-0.1-1-0.2c-0.3-0.1-0.6-0.3-1-0.7l-1.8-1.6L25.5,95.2z
				 M25.7,96.9l-2.8,3.2l0.7,0.6c0.3,0.2,0.5,0.4,0.6,0.5c0.2,0.1,0.4,0.2,0.6,0.1c0.2,0,0.4-0.1,0.7-0.2c0.3-0.2,0.6-0.4,0.9-0.8
				c0.3-0.4,0.6-0.7,0.7-0.9c0.1-0.3,0.2-0.5,0.1-0.7s-0.1-0.4-0.2-0.6c-0.1-0.2-0.4-0.4-0.8-0.8L25.7,96.9z"/>
			<path d="M30.3,104.7l1.1,0.5c-0.2,0.4-0.2,0.8-0.1,1s0.3,0.5,0.7,0.7c0.4,0.2,0.7,0.3,0.9,0.3s0.5-0.2,0.6-0.4
				c0.1-0.1,0.1-0.3,0.1-0.4c0-0.1-0.1-0.3-0.3-0.5c-0.1-0.1-0.4-0.4-0.7-0.8c-0.5-0.5-0.8-0.9-0.9-1.3c-0.2-0.5-0.1-1,0.2-1.4
				c0.2-0.3,0.4-0.5,0.7-0.6c0.3-0.1,0.6-0.2,1-0.1s0.8,0.2,1.2,0.5c0.7,0.4,1.1,0.9,1.3,1.4c0.2,0.5,0.1,1-0.2,1.5l-1.1-0.6
				c0.1-0.3,0.1-0.6,0.1-0.8s-0.3-0.4-0.6-0.6c-0.3-0.2-0.6-0.3-0.9-0.3c-0.2,0-0.3,0.1-0.4,0.2c-0.1,0.1-0.1,0.3,0,0.4
				c0.1,0.2,0.3,0.5,0.8,1c0.5,0.5,0.8,0.8,1,1.1c0.2,0.3,0.3,0.6,0.3,0.9c0,0.3-0.1,0.7-0.3,1c-0.2,0.3-0.5,0.6-0.8,0.7
				c-0.3,0.2-0.7,0.2-1.1,0.2c-0.4-0.1-0.8-0.2-1.3-0.5c-0.7-0.4-1.1-0.9-1.3-1.5S30,105.4,30.3,104.7z"/>
			<path d="M36.7,110.7l2.2-4.9l-1.7-0.8l0.4-1l4.7,2.1l-0.4,1l-1.7-0.8l-2.2,4.9L36.7,110.7z"/>
			<path d="M46.1,114.1l-1.3-0.4l-0.1-1.6l-2.5-0.8l-1,1.2l-1.3-0.4l4.4-5.4l1.3,0.4L46.1,114.1z M44.6,111l-0.1-2.5l-1.6,2
				L44.6,111z"/>
			<path d="M48.3,114.6l1.1-5.2l-1.9-0.4l0.2-1.1l5,1l-0.2,1.1l-1.9-0.4l-1.1,5.2L48.3,114.6z"/>
			<path d="M53.1,115.4l0.5-6.4l4.8,0.4l-0.1,1.1l-3.5-0.3l-0.1,1.4l3.2,0.3l-0.1,1.1l-3.2-0.3l-0.1,1.7l3.6,0.3l-0.1,1.1
				L53.1,115.4z"/>
			<path d="M59.5,113.8l1.3-0.2c0.1,0.4,0.3,0.7,0.5,0.9c0.2,0.2,0.6,0.3,1,0.3c0.4,0,0.7-0.1,0.9-0.3c0.2-0.2,0.3-0.4,0.3-0.6
				c0-0.2-0.1-0.3-0.1-0.4c-0.1-0.1-0.3-0.2-0.5-0.3c-0.2,0-0.5-0.1-1.1-0.2c-0.7-0.1-1.2-0.3-1.5-0.6c-0.4-0.3-0.6-0.8-0.6-1.3
				c0-0.3,0.1-0.6,0.2-0.9s0.4-0.5,0.8-0.7c0.3-0.2,0.8-0.3,1.3-0.3c0.8,0,1.4,0.1,1.8,0.5c0.4,0.3,0.7,0.8,0.7,1.4l-1.3,0.1
				c-0.1-0.3-0.2-0.6-0.4-0.7c-0.2-0.1-0.5-0.2-0.8-0.2c-0.4,0-0.7,0.1-0.9,0.3c-0.1,0.1-0.2,0.2-0.2,0.4c0,0.2,0.1,0.3,0.2,0.4
				c0.2,0.1,0.6,0.3,1.2,0.4c0.6,0.1,1.1,0.3,1.4,0.4s0.6,0.4,0.7,0.6c0.2,0.3,0.3,0.6,0.3,1c0,0.4-0.1,0.7-0.3,1
				c-0.2,0.3-0.5,0.6-0.8,0.8c-0.4,0.2-0.8,0.3-1.4,0.3c-0.8,0-1.4-0.1-1.9-0.5C59.9,115.1,59.6,114.5,59.5,113.8z"/>
			<path d="M69,112c-0.1-0.6-0.2-1.2-0.1-1.7c0.1-0.4,0.2-0.7,0.4-1c0.2-0.3,0.4-0.6,0.7-0.8c0.4-0.3,0.8-0.4,1.3-0.6
				c0.9-0.2,1.7-0.1,2.4,0.3c0.7,0.4,1.1,1.2,1.4,2.2c0.2,1,0.1,1.9-0.3,2.6c-0.4,0.7-1.1,1.2-2,1.4c-0.9,0.2-1.7,0.1-2.4-0.3
				C69.7,113.7,69.2,113,69,112z M70.3,111.7c0.2,0.7,0.5,1.2,0.9,1.5c0.4,0.3,0.9,0.4,1.4,0.3c0.5-0.1,0.9-0.4,1.1-0.8
				c0.2-0.4,0.3-1,0.1-1.8c-0.2-0.7-0.4-1.2-0.8-1.5c-0.4-0.3-0.9-0.4-1.4-0.2c-0.5,0.1-0.9,0.4-1.1,0.8
				C70.2,110.4,70.1,110.9,70.3,111.7z"/>
			<path d="M77.6,113.1l-2.2-6l4.1-1.5l0.4,1l-2.9,1.1l0.5,1.4l2.5-0.9l0.4,1l-2.5,0.9l1,2.6L77.6,113.1z"/>
			<path d="M91.1,106.6l-1.2,0.7l-1.2-1l-2.2,1.3l0.3,1.5l-1.2,0.7l-1.1-6.8l1.2-0.7L91.1,106.6z M87.8,105.6l-2-1.6l0.5,2.5
				L87.8,105.6z"/>
			<path d="M92.3,105.7l-4-5l1.5-1.2l3.6,2.7L91.7,98l1.5-1.2l4,5l-0.9,0.8l-3.2-4l2.2,4.8l-1,0.8l-4.2-3.2l3.2,4L92.3,105.7z"/>
			<path d="M98.7,100.4l-4.6-4.5l3.3-3.4l0.8,0.8l-2.4,2.5l1,1l2.2-2.3l0.8,0.8l-2.2,2.3l1.3,1.2l2.5-2.6l0.8,0.8L98.7,100.4z"/>
			<path d="M103.4,95.4l-5.2-3.8l1.6-2.2c0.4-0.6,0.8-0.9,1-1.1c0.3-0.2,0.6-0.3,0.9-0.2c0.3,0,0.7,0.2,1,0.4
				c0.4,0.3,0.6,0.6,0.7,1.1c0.1,0.4,0,0.9-0.3,1.4c0.3-0.1,0.6-0.2,0.8-0.2c0.3,0,0.7,0,1.3,0l1.5,0.1l-0.9,1.2l-1.7-0.1
				c-0.6,0-1,0-1.2,0c-0.2,0-0.3,0.1-0.4,0.2c-0.1,0.1-0.3,0.2-0.4,0.5l-0.2,0.2l2.2,1.6L103.4,95.4z M101.1,92.1l0.6-0.8
				c0.4-0.5,0.6-0.8,0.6-1c0.1-0.2,0-0.3,0-0.5s-0.2-0.3-0.3-0.4c-0.2-0.1-0.3-0.2-0.5-0.2s-0.3,0.1-0.5,0.2
				c-0.1,0.1-0.3,0.3-0.6,0.7l-0.6,0.8L101.1,92.1z"/>
			<path d="M107.5,89.4l-5.5-3.3l0.7-1.1l5.5,3.3L107.5,89.4z"/>
			<path d="M108.9,81.8l0.9-1c0.6,0.5,0.9,1,1,1.5c0.1,0.6,0,1.1-0.3,1.8c-0.4,0.8-0.9,1.3-1.7,1.5c-0.8,0.2-1.6,0.1-2.5-0.3
				c-1-0.5-1.6-1.1-1.9-1.8c-0.3-0.8-0.2-1.5,0.1-2.4c0.3-0.7,0.8-1.2,1.5-1.4c0.4-0.1,0.8-0.2,1.4-0.1l-0.3,1.3
				c-0.3-0.1-0.6,0-0.9,0.1c-0.3,0.1-0.5,0.4-0.6,0.7c-0.2,0.4-0.2,0.9,0,1.3s0.6,0.8,1.3,1.1c0.7,0.4,1.3,0.5,1.8,0.4
				c0.4-0.1,0.8-0.4,1-0.8c0.1-0.3,0.2-0.6,0.1-0.9C109.5,82.4,109.3,82.1,108.9,81.8z"/>
			<path d="M114.1,74.4l-0.4,1.3l-1.6,0.1l-0.8,2.4l1.2,1l-0.4,1.3l-5.3-4.4l0.4-1.3L114.1,74.4z M110.9,75.9l-2.5,0.1l2,1.6
				L110.9,75.9z"/>
		</g>
		<g>
			<path d="M4.7,59.9l0.1-2.4c0-0.5,0.1-0.9,0.2-1.2c0.1-0.4,0.3-0.7,0.6-0.9c0.3-0.3,0.7-0.4,1.1-0.6c0.4-0.1,0.9-0.2,1.5-0.1
				c0.5,0,1,0.1,1.4,0.3c0.5,0.2,0.8,0.4,1.1,0.7c0.2,0.2,0.4,0.5,0.5,0.9c0.1,0.3,0.1,0.7,0.1,1.2l-0.1,2.4L4.7,59.9z M5.8,58.7
				l4.3,0.2l0-1c0-0.4,0-0.6,0-0.8c0-0.2-0.1-0.4-0.2-0.5c-0.1-0.1-0.3-0.3-0.6-0.4C9,56.1,8.6,56.1,8.1,56c-0.5,0-0.9,0-1.2,0.1
				c-0.3,0.1-0.5,0.2-0.6,0.3S6,56.8,6,57c-0.1,0.2-0.1,0.5-0.1,1.1L5.8,58.7z"/>
			<path d="M11.5,53.9l-6.3-1.1L6,48.1l1.1,0.2l-0.6,3.4L7.9,52l0.6-3.2L9.5,49l-0.6,3.2l1.7,0.3l0.6-3.5l1.1,0.2L11.5,53.9z"/>
			<path d="M12.6,48.2l-6.2-1.9l0.6-2c0.2-0.8,0.4-1.2,0.5-1.5c0.2-0.3,0.5-0.6,0.9-0.7s0.8-0.1,1.3,0c0.4,0.1,0.7,0.3,0.9,0.5
				c0.2,0.2,0.4,0.5,0.4,0.7c0.1,0.3,0.1,0.5,0.1,0.7c0,0.3-0.1,0.8-0.3,1.3l-0.2,0.8L13,47L12.6,48.2z M7.8,45.4l1.8,0.5l0.2-0.7
				c0.1-0.5,0.2-0.8,0.2-1c0-0.2-0.1-0.3-0.2-0.5c-0.1-0.1-0.3-0.2-0.4-0.3c-0.2-0.1-0.4-0.1-0.6,0c-0.2,0.1-0.3,0.2-0.4,0.4
				c-0.1,0.1-0.2,0.4-0.3,0.9L7.8,45.4z"/>
			<path d="M16.4,37.9l-0.6,1.3l-1.6-0.1l-1,2.4l1.1,1.1l-0.5,1.3L8.9,39l0.5-1.3L16.4,37.9z M13.1,39.1L10.5,39l1.9,1.7L13.1,39.1z
				"/>
			<path d="M16.7,37.5l-5.5-3.3l1.4-2.4c0.4-0.6,0.7-1,0.9-1.2s0.6-0.3,0.9-0.3c0.4,0,0.7,0.1,1,0.3c0.4,0.2,0.7,0.6,0.8,1
				c0.1,0.4,0.1,0.9-0.1,1.4c0.3-0.2,0.6-0.3,0.8-0.3c0.3-0.1,0.7-0.1,1.3-0.1l1.5,0l-0.8,1.3l-1.7,0.1c-0.6,0-1,0.1-1.2,0.1
				s-0.3,0.1-0.4,0.2c-0.1,0.1-0.2,0.3-0.4,0.5L15,35l2.3,1.4L16.7,37.5z M14.1,34.4l0.5-0.8c0.3-0.5,0.5-0.9,0.5-1
				c0-0.2,0-0.3,0-0.5c-0.1-0.1-0.2-0.3-0.3-0.4c-0.2-0.1-0.4-0.1-0.5-0.1c-0.2,0-0.3,0.1-0.5,0.3c-0.1,0.1-0.2,0.4-0.5,0.8
				l-0.5,0.9L14.1,34.4z"/>
			<path d="M20.8,30.9l-4.3-3.3l-1.2,1.5l-0.9-0.7l3.1-4.1l0.9,0.7l-1.2,1.5l4.3,3.3L20.8,30.9z"/>
			<path d="M23.2,27.9l-4.6-4.5L20,22l3.9,2.3l-2.3-3.9l1.4-1.4l4.6,4.5l-0.9,0.9l-3.6-3.6l2.7,4.5l-0.9,0.9l-4.5-2.7L24,27
				L23.2,27.9z"/>
			<path d="M28.4,22.8l-3.9-5.1l3.8-2.9l0.7,0.9l-2.8,2.1l0.9,1.1l2.6-2l0.7,0.9l-2.6,2l1.1,1.4l2.9-2.2l0.7,0.9L28.4,22.8z"/>
			<path d="M33.1,19.2l-3.3-5.6l1.1-0.6l4.5,2.4l-2.2-3.7l1-0.6l3.3,5.6l-1.1,0.7L32,15l2.1,3.6L33.1,19.2z"/>
			<path d="M39.9,15.5l-2.2-4.9L36,11.4l-0.4-1l4.7-2.1l0.4,1l-1.7,0.8l2.2,4.9L39.9,15.5z"/>
			<path d="M44.7,10.2c-0.2-0.6-0.2-1.2-0.1-1.7c0.1-0.4,0.2-0.7,0.4-1c0.2-0.3,0.4-0.6,0.7-0.8c0.3-0.3,0.8-0.5,1.3-0.6
				c0.9-0.2,1.7-0.1,2.4,0.3C50,7,50.5,7.7,50.7,8.7c0.2,1,0.2,1.9-0.2,2.6s-1.1,1.2-2,1.4c-0.9,0.2-1.7,0.1-2.4-0.3
				C45.4,11.9,44.9,11.2,44.7,10.2z M45.9,9.9c0.2,0.7,0.5,1.2,0.9,1.5s0.9,0.4,1.4,0.2c0.5-0.1,0.9-0.4,1.1-0.8s0.3-1,0.1-1.8
				c-0.2-0.7-0.5-1.2-0.9-1.5c-0.4-0.3-0.9-0.3-1.4-0.2c-0.5,0.1-0.9,0.4-1.1,0.8S45.8,9.1,45.9,9.9z"/>
			<path d="M52.3,11.7l-0.8-6.4l4.4-0.5l0.1,1.1L53,6.3l0.2,1.5l2.7-0.3L56,8.6l-2.7,0.3l0.3,2.7L52.3,11.7z"/>
			<path d="M61.4,11.2l0.2-5.3l-1.9-0.1l0-1.1l5.1,0.2l0,1.1l-1.9-0.1l-0.2,5.3L61.4,11.2z"/>
			<path d="M65.3,11.4l1-6.4L69,5.4c0.7,0.1,1.2,0.2,1.5,0.4s0.5,0.4,0.6,0.7c0.1,0.3,0.2,0.7,0.1,1c-0.1,0.5-0.3,0.9-0.6,1.1
				c-0.3,0.3-0.8,0.4-1.4,0.4c0.3,0.2,0.5,0.4,0.6,0.6c0.2,0.2,0.3,0.6,0.6,1.1l0.6,1.4L69.4,12l-0.7-1.5c-0.3-0.5-0.4-0.9-0.5-1
				S68,9.2,67.9,9.1C67.7,9,67.5,9,67.2,8.9l-0.3,0l-0.4,2.7L65.3,11.4z M67.1,7.9l1,0.1c0.6,0.1,1,0.1,1.2,0.1
				c0.2,0,0.3-0.1,0.4-0.2s0.2-0.3,0.2-0.5c0-0.2,0-0.4-0.1-0.5c-0.1-0.1-0.2-0.3-0.4-0.3c-0.1,0-0.4-0.1-0.9-0.2l-1-0.2L67.1,7.9z"
				/>
			<path d="M77.1,14l-1.4-0.4l-0.1-1.6l-2.5-0.7l-0.9,1.3l-1.3-0.4l4.2-5.5l1.3,0.4L77.1,14z M75.5,10.9l-0.2-2.5l-1.5,2L75.5,10.9z
				"/>
			<path d="M77.5,14.3l2.6-5.9l1.2,0.5l0.7,5l1.7-3.9l1.1,0.5l-2.6,5.9L81,15.8l-0.7-4.9l-1.7,3.8L77.5,14.3z"/>
			<path d="M84.1,14.9l1.1,0.5c-0.2,0.4-0.2,0.8-0.1,1s0.3,0.5,0.7,0.7c0.4,0.2,0.7,0.3,0.9,0.3s0.5-0.2,0.6-0.4
				c0.1-0.1,0.1-0.3,0.1-0.4c0-0.1-0.1-0.3-0.3-0.5c-0.1-0.1-0.4-0.4-0.7-0.8c-0.5-0.5-0.8-0.9-0.9-1.3c-0.2-0.5-0.1-1,0.2-1.4
				c0.2-0.3,0.4-0.5,0.7-0.6c0.3-0.1,0.6-0.2,1-0.1c0.4,0.1,0.8,0.2,1.2,0.5c0.7,0.4,1.1,0.9,1.3,1.4s0.1,1-0.2,1.5l-1.1-0.6
				c0.1-0.3,0.1-0.6,0.1-0.8c-0.1-0.2-0.3-0.4-0.6-0.6c-0.3-0.2-0.6-0.3-0.9-0.3c-0.2,0-0.3,0.1-0.4,0.2c-0.1,0.1-0.1,0.3,0,0.4
				c0.1,0.2,0.3,0.5,0.8,1c0.5,0.5,0.8,0.8,1,1.1c0.2,0.3,0.3,0.6,0.3,0.9s-0.1,0.7-0.3,1c-0.2,0.3-0.5,0.6-0.8,0.7
				c-0.3,0.2-0.7,0.2-1.1,0.2s-0.8-0.2-1.3-0.5c-0.7-0.4-1.1-0.9-1.3-1.4C83.7,16.2,83.8,15.6,84.1,14.9z"/>
			<path d="M88.2,19.9l3.9-5.1l1.7,1.3c0.6,0.5,1,0.8,1.2,1c0.2,0.3,0.3,0.7,0.3,1.1s-0.2,0.8-0.5,1.2c-0.2,0.3-0.5,0.5-0.8,0.7
				s-0.6,0.2-0.8,0.2c-0.3,0-0.5-0.1-0.7-0.2c-0.3-0.1-0.7-0.4-1.1-0.8l-0.7-0.5l-1.5,1.9L88.2,19.9z M92.5,16.5l-1.1,1.4l0.6,0.4
				c0.4,0.3,0.7,0.5,0.9,0.5s0.3,0.1,0.5,0c0.2-0.1,0.3-0.2,0.4-0.3c0.1-0.2,0.2-0.4,0.2-0.6c0-0.2-0.1-0.4-0.2-0.5
				c-0.1-0.1-0.3-0.3-0.7-0.6L92.5,16.5z"/>
			<path d="M94.9,21.1c0.5-0.5,0.9-0.8,1.4-1c0.3-0.1,0.7-0.2,1-0.2c0.4,0,0.7,0.1,1,0.2c0.4,0.2,0.8,0.4,1.2,0.8
				c0.7,0.7,1,1.4,1,2.2c0,0.8-0.4,1.6-1.1,2.3c-0.7,0.7-1.5,1.1-2.3,1.1c-0.8,0-1.6-0.3-2.2-1c-0.7-0.7-1-1.4-1-2.2
				C93.8,22.6,94.2,21.8,94.9,21.1z M95.9,22c-0.5,0.5-0.8,1-0.8,1.5c0,0.5,0.1,0.9,0.5,1.3c0.4,0.4,0.8,0.5,1.3,0.5
				c0.5,0,1-0.3,1.5-0.8c0.5-0.5,0.8-1,0.8-1.5c0-0.5-0.1-0.9-0.5-1.3c-0.4-0.4-0.8-0.6-1.3-0.5C96.9,21.2,96.4,21.5,95.9,22z"/>
			<path d="M97.6,28.4l5.1-3.9l1.7,2.2c0.4,0.5,0.7,1,0.8,1.3c0.1,0.3,0.1,0.6,0,1c-0.1,0.3-0.3,0.6-0.6,0.8
				c-0.4,0.3-0.8,0.4-1.2,0.4s-0.8-0.3-1.2-0.7c0,0.3,0,0.6,0,0.9c0,0.3-0.2,0.7-0.4,1.2l-0.5,1.4l-0.9-1.2l0.5-1.6
				c0.2-0.6,0.3-0.9,0.3-1.1s0-0.3,0-0.5s-0.2-0.3-0.3-0.6l-0.2-0.2l-2.1,1.6L97.6,28.4z M101.3,27.2l0.6,0.8
				c0.4,0.5,0.6,0.8,0.8,0.9c0.1,0.1,0.3,0.1,0.4,0.1c0.2,0,0.3-0.1,0.5-0.2c0.2-0.1,0.3-0.3,0.3-0.5s0-0.4-0.1-0.5
				c-0.1-0.1-0.2-0.3-0.6-0.8l-0.6-0.8L101.3,27.2z"/>
			<path d="M102.1,34.8l4.6-2.7l-1-1.6l0.9-0.6l2.6,4.4l-0.9,0.6l-1-1.6l-4.6,2.7L102.1,34.8z"/>
			<path d="M106.1,42.8l-0.6-1.3l1.1-1.1l-1.1-2.3l-1.6,0.1l-0.6-1.3l6.9-0.4l0.6,1.3L106.1,42.8z M107.4,39.6l1.8-1.8l-2.5,0.2
				L107.4,39.6z"/>
			<path d="M106.5,44.1l5.1-1.7l-0.6-1.8l1-0.3l1.6,4.9l-1,0.3l-0.6-1.8l-5.1,1.7L106.5,44.1z"/>
			<path d="M107.6,47.7l6.3-1.5l0.3,1.3l-6.3,1.5L107.6,47.7z"/>
			<path d="M111.3,49.3c0.6-0.1,1.2-0.1,1.7,0c0.3,0.1,0.7,0.2,1,0.5c0.3,0.2,0.5,0.5,0.7,0.7c0.2,0.4,0.4,0.8,0.5,1.3
				c0.1,0.9,0,1.7-0.5,2.4c-0.5,0.7-1.3,1.1-2.3,1.2c-1,0.2-1.9,0-2.5-0.5c-0.7-0.5-1.1-1.2-1.2-2.1c-0.1-0.9,0-1.7,0.5-2.4
				S110.3,49.4,111.3,49.3z M111.5,50.6c-0.7,0.1-1.2,0.4-1.6,0.7c-0.3,0.4-0.4,0.8-0.4,1.4s0.3,0.9,0.7,1.2c0.4,0.3,1,0.4,1.7,0.2
				c0.7-0.1,1.2-0.4,1.6-0.7c0.3-0.4,0.4-0.8,0.3-1.4c-0.1-0.5-0.3-0.9-0.7-1.2C112.9,50.6,112.3,50.5,111.5,50.6z"/>
			<path d="M109.1,56.8l6.4-0.1l0,1.3l-4.3,2.7l4.3-0.1l0,1.2l-6.4,0.1l0-1.3l4.2-2.7l-4.2,0.1L109.1,56.8z"/>
		</g>
		<g>
			<g>
				<linearGradient id="XMLID_10_" gradientUnits="userSpaceOnUse" x1="37.167" y1="43.667" x2="86.501" y2="43.667">
					<stop  offset="0.3202" style="stop-color:#CDE1FF"/>
					<stop  offset="0.4354" style="stop-color:#C9DDFB"/>
					<stop  offset="0.5534" style="stop-color:#BDD1F1"/>
					<stop  offset="0.6726" style="stop-color:#A8BDDF"/>
					<stop  offset="0.7928" style="stop-color:#8BA2C7"/>
					<stop  offset="0.9125" style="stop-color:#677FA7"/>
					<stop  offset="1" style="stop-color:#47608C"/>
				</linearGradient>
				<path style="fill:url(#XMLID_10_);" d="M101.6,43.3C101.6,43.3,101.6,43.3,101.6,43.3L101.6,43.3c-6.7-16.4-22.7-27.9-41.5-27.9
					c-9.5,0-18.2,2.9-25.5,7.9c2.5-0.8,5.3-1.2,8.1-1.2c17.5,0,26.8,10.6,26.8,25.9c0,1.1-0.1,2.1-0.2,3.1l0,0
					c-0.2,1.3-0.3,2.7-0.3,4.1c0,8.7,8,16.7,17.6,16.7C98.3,71.9,107.3,56,101.6,43.3z"/>
				<linearGradient id="XMLID_11_" gradientUnits="userSpaceOnUse" x1="86.834" y1="45.479" x2="36.5005" y2="45.479">
					<stop  offset="0" style="stop-color:#47608C"/>
					<stop  offset="1" style="stop-color:#07284D"/>
				</linearGradient>
				<path style="fill:url(#XMLID_11_);" d="M89.7,63l-9-28.8L51.5,19l-9.4,1.8l-7.4,2.6c2.5-0.8,5.3-1.2,8.1-1.2
					c17.5,0,26.8,10.6,26.8,25.9c0,1.1-0.1,2.1-0.2,3.1l0,0c-0.2,1.3-0.3,2.7-0.3,4.1c0,8.7,8,16.7,17.6,16.7v-0.6L89.7,63z"/>
			</g>
			<g>
				<linearGradient id="XMLID_12_" gradientUnits="userSpaceOnUse" x1="42.1191" y1="44.063" x2="102.7715" y2="44.063">
					<stop  offset="0" style="stop-color:#93ABD2"/>
					<stop  offset="1" style="stop-color:#39699D"/>
				</linearGradient>
				<path style="fill:url(#XMLID_12_);" d="M45,20.3c16.3,0.8,26,10.9,26,27.3c0,0-0.2,3.3-0.2,3.3c-0.2,1.3-0.3,2.6-0.3,3.9
					c0,8.4,7.7,16,16.1,16c4.1,0,8.8-2.9,11.9-7.5c4.1-5.9,4.8-12.9,2-19.2c-6.7-16.5-22.2-26.7-40.3-26.7
					C54.9,17.4,49.9,18.4,45,20.3z"/>
			</g>
		</g>
		<g>
			<g>
				
					<linearGradient id="XMLID_13_" gradientUnits="userSpaceOnUse" x1="239.667" y1="-73.2466" x2="289.0003" y2="-73.2466" gradientTransform="matrix(-0.5 -0.866 0.866 -0.5 240.6447 259.2691)">
					<stop  offset="0.3202" style="stop-color:#CDE1FF"/>
					<stop  offset="0.4354" style="stop-color:#C9DDFB"/>
					<stop  offset="0.5534" style="stop-color:#BDD1F1"/>
					<stop  offset="0.6726" style="stop-color:#A8BDDF"/>
					<stop  offset="0.7928" style="stop-color:#8BA2C7"/>
					<stop  offset="0.9125" style="stop-color:#677FA7"/>
					<stop  offset="1" style="stop-color:#47608C"/>
				</linearGradient>
				<path style="fill:url(#XMLID_13_);" d="M24.8,32.7C24.8,32.7,24.8,32.7,24.8,32.7L24.8,32.7C14,46.7,12,66.3,21.4,82.5
					c4.7,8.2,11.7,14.3,19.6,18.1c-1.9-1.8-3.7-4-5.1-6.4c-8.8-15.2-4.2-28.5,9-36.1c0.9-0.5,1.9-1,2.8-1.4l0,0
					c1.2-0.5,2.5-1.1,3.7-1.8c7.5-4.3,10.5-15.2,5.6-23.6C51.3,21.3,33,21.4,24.8,32.7z"/>
				
					<linearGradient id="XMLID_14_" gradientUnits="userSpaceOnUse" x1="289.335" y1="-71.4346" x2="239.0019" y2="-71.4346" gradientTransform="matrix(-0.5 -0.866 0.866 -0.5 240.6447 259.2691)">
					<stop  offset="0" style="stop-color:#47608C"/>
					<stop  offset="1" style="stop-color:#07284D"/>
				</linearGradient>
				<path style="fill:url(#XMLID_14_);" d="M47.9,33.2L27.5,55.4l1.4,32.8l6.2,7.3l5.9,5.1c-1.9-1.8-3.7-4-5.1-6.4
					c-8.8-15.2-4.2-28.5,9-36.1c0.9-0.5,1.9-1,2.8-1.4l0,0c1.2-0.5,2.5-1.1,3.7-1.8c7.5-4.3,10.5-15.2,5.6-23.6l-0.5,0.3L47.9,33.2z
					"/>
			</g>
			<g>
				
					<linearGradient id="XMLID_15_" gradientUnits="userSpaceOnUse" x1="244.6182" y1="-72.8516" x2="305.2705" y2="-72.8516" gradientTransform="matrix(-0.5 -0.866 0.866 -0.5 240.6447 259.2691)">
					<stop  offset="0" style="stop-color:#93ABD2"/>
					<stop  offset="1" style="stop-color:#39699D"/>
				</linearGradient>
				<path style="fill:url(#XMLID_15_);" d="M33.2,93.3c-7.4-14.6-3.6-28,10.6-36.2c0,0,3-1.5,3-1.5c1.2-0.5,2.4-1.1,3.5-1.7
					c7.2-4.2,10-14.7,5.8-22c-2.1-3.6-6.9-6.1-12.4-6.5c-7.2-0.5-13.6,2.3-17.6,7.9c-10.9,14.1-12,32.6-3,48.3
					C25.7,86.1,29.1,90,33.2,93.3z"/>
			</g>
		</g>
		<g>
			<g>
				
					<linearGradient id="XMLID_16_" gradientUnits="userSpaceOnUse" x1="239.667" y1="160.582" x2="289.0003" y2="160.582" gradientTransform="matrix(-0.5 0.866 -0.866 -0.5 344.8562 -78.7688)">
					<stop  offset="0.3202" style="stop-color:#CDE1FF"/>
					<stop  offset="0.4354" style="stop-color:#C9DDFB"/>
					<stop  offset="0.5534" style="stop-color:#BDD1F1"/>
					<stop  offset="0.6726" style="stop-color:#A8BDDF"/>
					<stop  offset="0.7928" style="stop-color:#8BA2C7"/>
					<stop  offset="0.9125" style="stop-color:#677FA7"/>
					<stop  offset="1" style="stop-color:#47608C"/>
				</linearGradient>
				<path style="fill:url(#XMLID_16_);" d="M54,104.5C54.1,104.5,54.1,104.5,54,104.5L54,104.5c17.5,2.4,35.5-5.8,44.9-22
					c4.7-8.2,6.6-17.3,5.8-26c-0.6,2.6-1.6,5.1-3,7.6C93,79.3,79.2,82,66,74.3c-0.9-0.5-1.8-1.1-2.6-1.7l0,0
					c-1.1-0.8-2.2-1.6-3.4-2.3c-7.5-4.3-18.4-1.4-23.2,6.9C30.9,87.3,40.2,103.1,54,104.5z"/>
				
					<linearGradient id="XMLID_17_" gradientUnits="userSpaceOnUse" x1="289.334" y1="162.3926" x2="239.0014" y2="162.3926" gradientTransform="matrix(-0.5 0.866 -0.866 -0.5 344.8562 -78.7688)">
					<stop  offset="0" style="stop-color:#47608C"/>
					<stop  offset="1" style="stop-color:#07284D"/>
				</linearGradient>
				<path style="fill:url(#XMLID_17_);" d="M42.9,84.3l29.4,6.6l27.8-17.6l3.2-9l1.5-7.7c-0.6,2.6-1.6,5.1-3,7.6
					C93,79.3,79.2,82,66,74.3c-0.9-0.5-1.8-1.1-2.6-1.7l0,0c-1.1-0.8-2.2-1.6-3.4-2.3c-7.5-4.3-18.4-1.4-23.2,6.9l0.5,0.3L42.9,84.3
					z"/>
			</g>
			<g>
				
					<linearGradient id="XMLID_18_" gradientUnits="userSpaceOnUse" x1="244.6182" y1="160.9785" x2="305.2715" y2="160.9785" gradientTransform="matrix(-0.5 0.866 -0.866 -0.5 344.8562 -78.7688)">
					<stop  offset="0" style="stop-color:#93ABD2"/>
					<stop  offset="1" style="stop-color:#39699D"/>
				</linearGradient>
				<path style="fill:url(#XMLID_18_);" d="M102.3,67c-8.9,13.7-22.4,17.1-36.6,8.9c0,0-2.8-1.8-2.8-1.8c-1.1-0.8-2.1-1.5-3.2-2.2
					c-7.2-4.2-17.7-1.3-21.9,6c-2.1,3.6-1.8,9,0.5,14c3.1,6.5,8.8,10.6,15.6,11.3c17.6,2.4,34.2-5.9,43.3-21.6
					C99.8,77,101.5,72.1,102.3,67z"/>
			</g>
		</g>
	</g>
</g>
</svg>
