<?xml version="1.0" encoding="UTF-8" standalone="no"?>
<!-- Created with Inkscape (http://www.inkscape.org/) -->

<svg
   xmlns:dc="http://purl.org/dc/elements/1.1/"
   xmlns:cc="http://creativecommons.org/ns#"
   xmlns:rdf="http://www.w3.org/1999/02/22-rdf-syntax-ns#"
   xmlns:svg="http://www.w3.org/2000/svg"
   xmlns="http://www.w3.org/2000/svg"
   xmlns:sodipodi="http://sodipodi.sourceforge.net/DTD/sodipodi-0.dtd"
   xmlns:inkscape="http://www.inkscape.org/namespaces/inkscape"
   version="1.0"
   width="804"
   height="796.21313"
   viewBox="0 0 796.21313 804"
   id="svg1923"
   inkscape:version="0.48.1 "
   sodipodi:docname="AJAX.svg">
  <metadata
     id="metadata9">
    <rdf:RDF>
      <cc:Work
         rdf:about="">
        <dc:format>image/svg+xml</dc:format>
        <dc:type
           rdf:resource="http://purl.org/dc/dcmitype/StillImage" />
      </cc:Work>
    </rdf:RDF>
  </metadata>
  <sodipodi:namedview
     pagecolor="#ffffff"
     bordercolor="#666666"
     borderopacity="1"
     objecttolerance="10"
     gridtolerance="10"
     guidetolerance="10"
     inkscape:pageopacity="0"
     inkscape:pageshadow="2"
     inkscape:window-width="1280"
     inkscape:window-height="1004"
     id="namedview7"
     showgrid="false"
     fit-margin-top="0"
     fit-margin-left="0"
     fit-margin-right="0"
     fit-margin-bottom="0"
     inkscape:zoom="0.29032258"
     inkscape:cx="405.5"
     inkscape:cy="406.5"
     inkscape:window-x="-8"
     inkscape:window-y="-8"
     inkscape:window-maximized="1"
     inkscape:current-layer="svg1923" />
  <defs
     id="defs1926" />
  <path
     d="m 397.81015,144.58746 c -40.0447,0.41675 -77.7456,16.6628 -105.8125,46.34375 -18.3796,19.43645 -29.9049,40.91235 -36.1563,67.34375 -2.884,12.19347 -3.6674,41.96543 -1.4375,54.8125 3.4749,20.01785 12.3866,41.89124 23.4688,57.6875 8.0469,11.46992 7.6614,11.04933 18.625,22 22.0276,22.00163 50.0333,35.92929 82.375,40.96875 17.0264,2.65307 40.1577,1.43559 57.625,-3.0625 53.8637,-13.87077 94.64,-55.54778 107.0937,-109.40625 6.4344,-27.82676 3.3152,-61.27292 -8.2187,-87.90625 -8.2743,-19.10611 -17.4695,-32.09841 -34.1563,-48.28125 -20.8134,-20.18483 -46.618,-33.26214 -75.375,-38.21875 -9.3997,-1.62013 -18.7902,-2.37742 -28.0312,-2.28125 z m 2.5,67.75 c 4.6328,0.0388 9.2066,0.57145 12.25,1.59375 8.5297,2.86521 17.3346,10.18052 22.3125,18.53125 2.9973,5.02837 5.3727,16.93484 4.5312,22.71875 -2.4702,16.97621 -14.4546,30.31532 -30.2187,33.65625 -17.65,3.74059 -33.1346,-2.0976 -42,-15.8125 -5.8512,-9.05152 -7.5844,-15.18829 -6.9375,-24.625 1.0965,-15.99955 12.2506,-30.00961 27.5625,-34.65625 3.1964,-0.97001 7.8671,-1.44507 12.5,-1.40625 z m -247.2188,139.9375 c -1.682,0 -0.3302,9.59533 3.5,24.75 7.5575,29.90245 19.098,56.47587 35.9375,82.78125 9.6478,15.07107 16.9427,23.97553 32.4375,39.59375 12.8557,12.95808 22.8413,21.34648 33.7813,28.375 3.4243,2.2 6.2451,4.29331 6.25,4.625 0.005,0.33172 -6.4125,0.86623 -14.25,1.1875 -22.8407,0.93622 -46.4186,5.3193 -69.75,13 -14.3844,4.73532 -31.088,11.89251 -30.7188,13.15625 0.9753,3.33825 30.3749,20.31493 48.2188,27.84375 20.2084,8.52655 46.1807,15.40116 71,18.78125 13.462,1.83338 48.6403,1.54933 62,-0.5 16.2871,-2.49841 37.6941,-7.17718 48.7187,-10.65625 5.3476,-1.68757 10.1851,-2.78663 10.75,-2.4375 0.6311,0.39004 1.0313,6.57528 1.0313,16.0625 l 0,15.4375 9,0 9,0 0,-16 c 0,-12.66476 0.2885,-16 1.3437,-16 0.7331,0 5.4746,1.34348 10.5313,2.96875 9.6686,3.1076 38.0127,9.13408 51.7187,11 12.7425,1.73478 49.0088,1.49324 61.7188,-0.40625 28.6156,-4.2765 50.5126,-10.51286 74.6875,-21.28125 12.6465,-5.63327 28.5355,-14.65431 37.25,-21.15625 l 4.7812,-3.5625 -3.2812,-1.65625 c -11.6024,-5.90777 -36.3658,-14.41405 -53.6563,-18.4375 -13.4545,-3.13081 -31.1258,-5.57118 -44.8437,-6.15625 -7.8375,-0.33428 -14.2344,-0.85575 -14.2188,-1.1875 0.0156,-0.33172 2.5646,-2.15919 5.6563,-4.03125 10.9374,-6.62287 27.7204,-21.1075 41.3437,-35.6875 25.2516,-27.02479 46.3283,-64.50272 57.4375,-102.15625 3.5934,-12.17928 8.9159,-37.17782 8.0938,-38 -0.5753,-0.57527 -33.1284,6.30444 -40.0625,8.46875 -27.3567,8.53878 -42.9965,14.92614 -62.6875,25.625 -44.391,24.11926 -80.1953,58.61375 -106.5313,102.65625 -9.4904,15.87108 -20.6627,39.81046 -26.375,56.5 l -2.4062,7 -0.5,-53 -0.5,-53 -9,0 -9,0 -0.1875,52 c -0.0962,28.6 -0.2122,52.45 -0.2813,53 -0.0691,0.55 -1.8389,-3.725 -3.9375,-9.5 -8.4498,-23.25195 -18.6755,-43.50139 -32.5937,-64.5625 -35.4186,-53.59529 -84.8143,-90.82922 -149.5,-112.71875 -14.2209,-4.81228 -46.4705,-12.71875 -51.9063,-12.71875 z m 469.625,25 c 1.2611,0 -0.6801,7.66209 -5,19.625 -21.463,59.43692 -60.433,104.51726 -112.3437,129.9375 -18.641,9.12838 -41.2431,16.76159 -58.875,19.90625 -4.9501,0.88283 -10.0125,1.82581 -11.25,2.09375 -1.2375,0.26795 -2.25,0.0987 -2.25,-0.375 0,-3.01089 13.6087,-33.06709 19.7812,-43.6875 36.6034,-62.98008 86.1248,-101.76535 158.7813,-124.375 5.5257,-1.71953 10.5332,-3.125 11.1562,-3.125 z m -445.3437,0.3125 c 0.2565,-0.25656 5.9967,1.21927 12.7812,3.28125 65.143,19.79872 113.9741,55.81652 149.9063,110.59375 9.2316,14.07348 24.1396,43.73811 27.4062,54.5625 0.6239,2.06744 0.3515,2.26461 -3.1562,2.1875 -2.0996,-0.0462 -8.0875,-1.10668 -13.3125,-2.34375 -41.849,-9.90826 -73.9246,-25.80953 -101.9375,-50.53125 -28.3384,-25.00893 -48.3267,-53.88018 -63.0313,-91.03125 -4.632,-11.70294 -9.2858,-26.08913 -8.6562,-26.71875 z"
     style="fill:#407EC9"
     id="path1994"
     inkscape:connector-curvature="0" />
  <path
     d="m 392,782.87012 c 0,-7.33865 -0.29415,-18.81365 -0.65368,-25.5 l -0.65367,-12.157 15.25254,0 c 16.99745,0 20.98362,1.02787 23.59886,6.08519 1.9324,3.73684 1.84811,9.90991 -0.17474,12.79794 -0.89688,1.28047 -3.24184,3.00132 -5.21103,3.8241 l -3.58033,1.49595 2.96141,1.24518 c 4.38712,1.84465 5.13111,3.22407 6.76978,12.55164 0.82131,4.675 1.81088,9.2875 2.19906,10.25 0.62111,1.54006 0.0461,1.75 -4.7928,1.75 -6.2226,0 -6.08759,0.19301 -7.34426,-10.49931 -1.0076,-8.57303 -3.39723,-10.69026 -11.62335,-10.29835 l -6.24779,0.29766 0.26406,10.75 0.26405,10.75 -5.51405,0 -5.51406,0 0,-13.343 z m 23.27972,-16.57325 c 6.1484,-2.33762 7.70075,-8.38075 3.08542,-12.01117 -2.08446,-1.63964 -4.06892,-2.07258 -9.5,-2.07258 l -6.86514,0 0,7.5 0,7.5 5.4349,0 c 2.9892,0 6.51937,-0.41231 7.84482,-0.91625 z m -74.83851,25.23557 c -2.00581,-0.3978 -2.02788,-0.64519 -0.85789,-9.61381 0.66049,-5.06303 2.01584,-16.52126 3.01188,-25.46272 l 1.81098,-16.25722 3.04691,0.50922 c 1.6758,0.28007 7.09691,0.98045 12.04691,1.5564 10.62792,1.23659 15.12126,3.18475 18.33361,7.94881 1.99266,2.9552 2.28367,4.37523 1.86956,9.12286 -0.89781,10.29305 -6.0085,14.26523 -18.06742,14.04254 -3.81878,-0.0705 -7.72022,-0.37482 -8.66985,-0.67622 -1.47925,-0.4695 -1.8232,0.42323 -2.40084,6.23141 -1.29344,13.00562 -1.40233,13.29613 -4.92635,13.14323 -1.72629,-0.0749 -4.06516,-0.31992 -5.1975,-0.5445 z m 26.53606,-27.26729 c 3.37991,-2.59707 3.52472,-9.41738 0.25615,-12.0641 -2.11393,-1.71176 -11.80935,-3.74533 -12.85781,-2.69688 -0.81293,0.81293 -2.46883,14.02364 -1.93286,15.42034 0.81383,2.12083 11.55016,1.63377 14.53452,-0.65936 z M 460.5,790.0762 c -3.72563,-1.37676 -9.15904,-6.38579 -11.24109,-10.36308 -3.95485,-7.55485 -5.43886,-20.67102 -3.12285,-27.60078 2.76532,-8.2741 12.09649,-13.87354 23.14606,-13.88945 8.45193,-0.0122 12.35542,1.58057 16.90767,6.89886 6.84231,7.99369 9.48615,25.33761 5.12054,33.59137 -2.67024,5.04845 -5.78724,7.96566 -10.708,10.02169 -4.89038,2.04333 -16.16666,2.79578 -20.10233,1.34139 z m 16.53273,-8.38001 c 4.24399,-2.19465 6.3123,-6.86495 6.1926,-13.98307 -0.11058,-6.57621 -2.04491,-13.03351 -5.25451,-17.54098 -4.45704,-6.25933 -15.60513,-6.08469 -20.17053,0.31598 -5.16206,7.23719 -1.66803,26.39526 5.62505,30.84259 3.7187,2.26767 9.62233,2.42624 13.60739,0.36548 z M 282,777.53201 c -7.975,-2.46766 -14.85239,-4.82381 -15.2831,-5.23587 -0.61522,-0.58861 13.62502,-46.41749 14.90586,-47.97101 0.17594,-0.21339 2.39697,0.19356 4.93564,0.90434 5.4499,1.52588 5.53462,-0.12563 -1.02509,19.98365 -6.83042,20.93917 -7.40982,22.96345 -6.68581,23.35866 0.35887,0.1959 4.815,1.61627 9.9025,3.15638 7.8948,2.38995 9.2397,3.10676 9.17971,4.89258 -0.19213,5.71971 -0.35898,5.72925 -15.92971,0.91127 z m 239.10715,-9.58528 c -1.7464,-5.07849 -4.8075,-14.18361 -6.80245,-20.23361 -1.99495,-6.05 -3.75444,-11.16232 -3.90998,-11.3607 -0.15554,-0.19839 -3.09535,0.58911 -6.53293,1.75 -3.43757,1.16088 -6.78316,2.1107 -7.43464,2.1107 -1.14775,0 -4.08694,-5.70008 -3.31175,-6.4226 0.21153,-0.19716 4.8846,-1.81171 10.3846,-3.58788 5.5,-1.77618 13.91098,-4.52544 18.69106,-6.10947 4.78009,-1.58403 9.09535,-2.88005 9.58949,-2.88005 0.8663,0 3.21945,4.28658 3.21945,5.86468 0,0.42381 -3.15,1.80326 -7,3.06543 -4.88865,1.60269 -7,2.78958 -7,3.93504 0,0.90209 2.4837,8.83897 5.51934,17.63751 7.88466,22.853 7.79216,22.43384 5.1639,23.40105 -7.38054,2.71607 -7.11435,2.89654 -10.57609,-7.1701 z m -275.82719,-2.84265 c -3.81648,-1.75494 -4.1751,-2.22504 -3.75,-4.91574 1.52658,-9.66279 2.49142,-8.22808 -9.09914,-13.53037 l -10.47208,-4.79063 -3.36424,3.67289 c -1.85033,2.02009 -3.93984,3.67289 -4.64335,3.67289 -1.77484,0 -8.95115,-3.23884 -8.95115,-4.03986 0,-0.57195 10.15746,-10.33344 32.90929,-31.6264 l 6.4093,-5.99832 3.85442,1.86226 c 2.11993,1.02424 5.00033,2.29792 6.40088,2.83041 1.40055,0.53249 2.30915,1.35215 2.0191,1.82146 -0.29005,0.46931 -1.23252,9.35765 -2.09438,19.75187 -0.86186,10.39422 -1.75957,19.57358 -1.99491,20.39858 -0.23535,0.825 -0.52196,4.0875 -0.63693,7.25 -0.12294,3.38198 -0.65333,5.7153 -1.2879,5.66574 -0.59338,-0.0463 -2.97789,-0.95749 -5.29891,-2.02478 z m -0.36282,-31.64096 c 0.64025,-5.3625 1.40657,-10.9875 1.70293,-12.5 0.29636,-1.5125 0.1562,-2.75 -0.31146,-2.75 -0.46767,0 -4.84171,4.00998 -9.72008,8.91106 l -8.86978,8.91106 7.39063,3.50188 c 4.06484,1.92603 7.67256,3.54105 8.01715,3.58894 0.34459,0.0479 1.15036,-4.30044 1.79061,-9.66294 z m 308.69033,5.96478 -11.40087,-22.78521 14.54136,-6.96479 c 7.99775,-3.83063 14.8267,-7.08159 15.17544,-7.22436 0.34874,-0.14277 1.46447,1.14617 2.47939,2.86431 1.52909,2.58854 1.60986,3.27305 0.47127,3.99427 -0.75573,0.4787 -1.66076,0.87727 -2.01117,0.88569 -0.35042,0.008 -4.49472,2.06744 -9.20957,4.5756 l -8.57245,4.56029 2.66788,5.43971 c 1.46734,2.99184 3.13664,5.41838 3.70957,5.3923 0.57292,-0.0261 5.09168,-1.9945 10.04168,-4.37427 l 9,-4.32687 1.74341,2.62427 c 0.95888,1.44336 1.74638,2.9492 1.75,3.34633 0.004,0.39712 -4.26841,2.83013 -9.49341,5.40667 -5.225,2.57654 -9.5,5.0628 -9.5,5.52502 0,0.46223 1.2375,3.56251 2.75,6.88953 1.9054,4.19127 3.21069,5.91569 4.25,5.61469 0.825,-0.23894 5.88433,-2.49351 11.24295,-5.01017 l 9.74295,-4.57574 1.58079,3.05691 c 0.86943,1.68129 1.36713,3.27055 1.106,3.53168 -0.85714,0.85715 -28.84234,14.33936 -29.76437,14.33936 -0.49499,0 -6.03037,-10.25335 -12.30085,-22.78522 z m 51.62831,-6.96478 c -5.28675,-2.86167 -11.71348,-9.79287 -15.27382,-16.47276 -7.31113,-13.71708 -2.88696,-26.33619 11.49655,-32.79174 6.89447,-3.09435 15.46701,-2.3891 19.64786,1.61641 1.5915,1.52475 2.89363,3.05522 2.89363,3.40104 0,0.34582 -1.74037,1.60691 -3.86748,2.80242 l -3.86749,2.17364 -3.92508,-2.14997 c -4.94337,-2.70776 -8.38255,-1.98644 -13.1209,2.75191 -3.24512,3.24512 -3.43551,3.79527 -3.0253,8.74182 0.31851,3.84088 1.45436,6.92579 4.16994,11.32538 7.74803,12.5528 17.42704,15.39859 25.10742,7.382 2.46191,-2.56967 2.73833,-3.47961 2.28334,-7.51629 -0.48084,-4.266 -0.28819,-4.76771 2.70834,-7.05327 4.37965,-3.34053 5.25728,-3.12694 6.68131,1.62603 2.48883,8.30699 -2.3324,17.08359 -12.6441,23.01739 -6.01853,3.46333 -14.09543,3.94381 -19.26422,1.14599 z m -423.89304,-1.99905 -4.06643,-2.61421 12.35849,-18.35669 12.35848,-18.35668 -6.49664,-4.07338 C 191.92349,684.82275 189,682.63984 189,682.21221 c 0,-0.42764 0.81436,-1.78322 1.80969,-3.0124 1.74489,-2.15485 1.92348,-2.17603 4.98745,-0.59159 2.99584,1.54921 26.70701,16.9809 30.42307,19.79993 1.60772,1.21963 1.57293,1.48435 -0.53202,4.04803 l -2.25224,2.74305 -5.96798,-3.96478 c -3.28238,-2.18064 -6.28835,-3.97751 -6.67993,-3.99306 -0.39157,-0.0156 -5.91401,7.82631 -12.27208,17.42636 -6.35807,9.60005 -11.90813,17.66971 -12.33346,17.93258 -0.42533,0.26287 -2.60322,-0.69845 -4.83976,-2.13626 z m -31.96847,-22.61375 c -0.61915,-0.7077 -2.83671,-2.69706 -4.9279,-4.42079 -4.38286,-3.61273 -4.44938,-2.64474 1.52672,-22.21641 6.13146,-20.08043 6.92214,-25.08462 3.20852,-20.30648 -4.39636,5.65659 -22.79796,25.29159 -23.68161,25.26892 -0.55,-0.0141 -2.27008,-1.14286 -3.82239,-2.50835 l -2.8224,-2.4827 3.8224,-4.32792 c 9.87883,-11.18533 20.30401,-22.65864 25.31505,-27.86019 l 5.50734,-5.71673 5.35845,4.75444 5.35845,4.75444 -3.16558,10.46229 c -5.92737,19.59001 -7.03109,23.46078 -7.68814,26.96228 l -0.65676,3.5 2.39679,-2.56686 c 6.30431,-6.75166 19.89414,-21.67587 21.54452,-23.65996 l 1.85227,-2.22681 3.44231,2.85801 3.4423,2.858 -2.9423,3.52995 c -1.61827,1.94147 -6.54231,7.51269 -10.94231,12.3805 -4.4,4.8678 -10.67548,11.88278 -13.94551,15.58886 -3.27003,3.70607 -6.19503,6.72119 -6.5,6.70027 -0.30497,-0.0209 -1.06107,-0.61706 -1.68022,-1.32476 z m 509.58755,-14.03739 c -8.42134,-9.86816 -22.26056,-25.06094 -23.1712,-25.43748 -0.44916,-0.18572 -3.47223,1.9629 -6.71794,4.77471 l -5.9013,5.11238 -2.25382,-3.16519 c -2.13633,-3.00021 -2.16125,-3.23287 -0.47809,-4.46363 0.97665,-0.71414 3.41761,-2.78842 5.42436,-4.60952 2.00674,-1.82109 8.25849,-7.27349 13.89275,-12.11643 l 10.24413,-8.80536 2.46893,2.80536 c 2.34162,2.66069 2.37768,2.8827 0.69919,4.30535 -0.97336,0.825 -3.66429,3.12224 -5.97986,5.10497 l -4.21011,3.60498 10.68961,11.89502 c 5.87928,6.54227 12.45681,13.84931 14.61674,16.23788 l 3.92714,4.34284 -3.30234,3.40716 c -1.81629,1.87393 -3.56875,3.40715 -3.89435,3.40715 -0.32561,0 -3.04984,-2.88008 -6.05384,-6.40019 z M 688.5,668.53268 c -2.75,-2.52212 -10.27879,-9.50911 -16.73065,-15.52665 -6.45185,-6.01754 -12.75185,-11.78252 -14,-12.81106 l -2.26935,-1.87008 3.68672,-3.72593 3.68671,-3.72594 6.81329,6.52314 c 3.7473,3.58772 12.10078,11.3796 18.56328,17.31529 6.4625,5.93568 11.75,11.08851 11.75,11.45074 0,0.36223 -1.4625,2.07555 -3.25,3.80738 l -3.25,3.14878 -5,-4.58567 z m -586.3944,-5.28839 c -2.73202,-3.28286 -6.52402,-7.67036 -8.42666,-9.75 -1.902638,-2.07965 -4.574698,-5.13117 -5.93791,-6.78117 l -2.478567,-3 14.930837,-12.5 c 22.49432,-18.83211 24.065,-20.08513 24.79588,-19.78109 C 126.17281,611.9244 146,635.03069 146,635.91769 c 0,1.16532 -3.97584,4.48296 -4.91661,4.10267 -0.41802,-0.16898 -4.02411,-4.02003 -8.01352,-8.55788 l -7.25348,-8.25064 -4.8656,3.75064 c -2.67608,2.06285 -4.88477,4.14568 -4.90819,4.62851 -0.0234,0.48283 3.07738,4.5829 6.89068,9.11126 l 6.93329,8.2334 -3.03465,2.24361 -3.03464,2.24361 -3.1316,-3.85487 c -1.72238,-2.12019 -5.00483,-5.86214 -7.29434,-8.31546 l -4.16274,-4.46058 -5.6043,4.7879 c -3.08237,2.63335 -5.59318,5.09061 -5.57959,5.46058 0.0136,0.36998 2.30158,3.14768 5.08442,6.17268 2.78284,3.025 6.19877,6.96072 7.59096,8.74604 l 2.53125,3.24605 -2.36567,1.97068 c -1.30112,1.08388 -2.68676,1.98566 -3.07921,2.00396 -0.39245,0.0183 -2.94884,-2.65271 -5.68086,-5.93556 z M 698.25517,643.25724 C 686.41488,637.65584 678,627.29855 678,618.32656 c 0,-7.42376 7.92608,-18.95236 15.50147,-22.54711 1.81543,-0.86148 5.60811,-1.56633 8.42818,-1.56633 10.93665,0 25.75256,11.13684 29.50592,22.17905 1.75022,5.14907 1.76597,5.78122 0.25454,10.21702 -3.76919,11.06196 -13.71626,19.60479 -22.82544,19.60314 -2.75741,-5e-4 -6.66428,-1.08869 -10.6095,-2.95509 z m 21.2115,-10.57745 C 722.54145,629.605 723,628.51593 723,624.28793 c 0,-3.99465 -0.57788,-5.56942 -3.25,-8.85657 -4.0822,-5.02178 -11.26077,-9.83086 -16.90839,-11.3273 -5.60456,-1.48504 -10.92373,0.55504 -13.81598,5.29888 -3.80707,6.24436 -1.98797,13.10282 5.09425,19.2065 6.50874,5.60944 10.67998,7.50936 16.59679,7.55948 4.66568,0.0395 5.58985,-0.32899 8.75,-3.48913 z M 70.566714,624.70714 c -1.038451,-1.92828 -1.703283,-3.68729 -1.477403,-3.9089 C 69.31519,620.57663 77.825,615.36941 88,609.22665 c 21.54444,-13.00663 23.25227,-14.26621 16.39922,-12.09497 -1.59457,0.5052 -5.59922,1.68669 -8.89922,2.62553 -3.3,0.93883 -9.6,2.82336 -14,4.18784 -7.55604,2.3432 -18.147164,5.15428 -19.713949,5.23245 -0.919553,0.0459 -5.795156,-7.1072 -5.757221,-8.44651 0.03285,-1.15981 5.47342,-7.13176 21.23172,-23.30543 6.048718,-6.20815 10.725445,-11.55978 10.392726,-11.8925 -0.332719,-0.33272 -1.338812,0.004 -2.235762,0.74852 -0.89695,0.7444 -2.471061,1.82103 -3.498024,2.3925 -1.026964,0.57147 -8.970165,5.33968 -17.651558,10.59601 l -15.784353,9.55698 -2.281882,-3.4367 c -1.255035,-1.89018 -2.15134,-3.82253 -1.991789,-4.2941 0.15955,-0.47157 9.934379,-6.66991 21.721841,-13.77408 24.370686,-14.68794 21.258866,-14.29087 27.759881,-3.54217 l 3.06455,5.06689 -14.316316,14.91154 c -7.873975,8.20135 -14.161617,15.06625 -13.972539,15.25533 0.189078,0.18908 4.998781,-1.08824 10.688227,-2.83849 12.835601,-3.94862 27.014208,-7.92268 28.346858,-7.94522 1.23024,-0.0208 9.60726,12.99658 8.99801,13.98236 -0.91437,1.47949 -41.51184,26.00069 -43.04691,26.00069 -0.549286,0 -1.848344,-1.57769 -2.886796,-3.50598 z M 392,608.77214 c 0,-9.48722 -0.39604,-15.68575 -1.02713,-16.07579 -0.56492,-0.34914 -5.40242,0.74593 -10.75,2.4335 -11.0246,3.47909 -32.43564,8.16514 -48.72287,10.66355 -13.35962,2.04932 -48.53791,2.33253 -62,0.49915 -24.81928,-3.38011 -50.79152,-10.24793 -71,-18.77448 -17.84382,-7.52883 -47.24801,-24.50818 -48.22336,-27.84643 -0.36924,-1.26376 16.33906,-8.41568 30.72336,-13.151 23.33144,-7.68072 46.9093,-12.08097 69.75,-13.01719 7.8375,-0.32125 14.24606,-0.85549 14.24125,-1.18721 -0.005,-0.33172 -2.81047,-2.40312 -6.2348,-4.60312 -10.93998,-7.02852 -20.92648,-15.41643 -33.78216,-28.37451 -15.4948,-15.61822 -22.81259,-24.55038 -32.46039,-39.62145 -16.83949,-26.30539 -28.36509,-52.85907 -35.92256,-82.76152 -3.83015,-15.15466 -5.18919,-24.74252 -3.50716,-24.74252 5.43579,0 37.69505,7.89765 51.91582,12.70993 64.68571,21.88953 114.07534,59.13236 149.49391,112.72765 13.91826,21.06109 24.13958,41.31047 32.5893,64.56242 2.09863,5.775 3.87497,10.05 3.94742,9.5 0.0725,-0.55 0.20771,-24.4 0.30056,-53 l 0.16881,-52 9,0 9,0 0.5,53 0.5,53 2.39591,-7 c 14.30108,-41.78271 38.90317,-81.33115 69.60409,-111.89026 40.25451,-40.06857 88.05711,-65.20708 148.79441,-78.24825 9.23693,-1.9833 17.00584,-3.39457 17.26426,-3.13616 0.82216,0.82217 -4.50898,25.8341 -8.10233,38.01338 -11.10921,37.65353 -32.1853,75.14349 -57.43692,102.16828 -13.62336,14.58 -30.40403,29.0664 -41.34152,35.68927 -3.09165,1.87206 -5.63394,3.67514 -5.64954,4.00686 -0.0156,0.33172 6.38414,0.87662 14.22164,1.2109 13.71794,0.58508 31.38379,3.00093 44.83829,6.13174 17.29052,4.02343 42.07111,12.54113 53.67348,18.4489 l 3.26177,1.66085 -4.76177,3.55285 c -8.71434,6.50192 -24.61514,15.53519 -37.26177,21.16846 -24.17488,10.76837 -46.06474,17.00682 -74.68029,21.28332 -12.70998,1.89947 -48.99766,2.13426 -61.74015,0.39948 -13.70593,-1.86594 -42.05081,-7.89701 -51.71955,-11.00461 -5.05669,-1.62526 -9.79384,-2.95501 -10.52699,-2.95501 -1.05515,0 -1.33302,3.33524 -1.33302,16 l 0,16 -9,0 -9,0 0,-15.44098 z m 54.5,-62.10255 c 23.88116,-4.2648 54.4707,-16.03087 76.22197,-29.31829 34.05472,-20.80336 62.97849,-52.61008 81.56296,-89.69268 10.635,-21.22059 21.31494,-50.4455 18.43478,-50.4455 -0.61939,0 -5.64722,1.40689 -11.17294,3.12642 -72.65635,22.60964 -122.16592,61.3935 -158.76924,124.37358 C 446.60506,515.33353 433,545.37903 433,548.38992 c 0,0.47372 1.0125,0.64207 2.25,0.37412 1.2375,-0.26795 6.3,-1.21046 11.25,-2.09445 z m -79.04423,-0.70647 C 364.18919,535.13873 349.29856,505.47518 340.0668,491.4017 304.13466,436.62446 255.30754,400.59849 190.16455,380.79977 c -6.7845,-2.06199 -12.54537,-3.53916 -12.80193,-3.2826 -0.62962,0.62962 4.04028,15.01873 8.67234,26.72167 14.70454,37.15108 34.69661,66.0224 63.03503,91.03133 28.01296,24.72171 60.08109,40.61762 101.93001,50.52588 5.225,1.23709 11.21782,2.28701 13.31739,2.33316 3.50766,0.0771 3.76229,-0.0987 3.13838,-2.16609 z M 745,598.77493 c -21.0659,-10.46076 -41,-20.80825 -41,-21.28248 0,-0.3172 1.46124,-3.4533 3.2472,-6.9691 l 3.2472,-6.39237 5.0028,0.5071 c 11.20377,1.13564 37.97361,1.69919 37.0028,0.77897 -0.55,-0.52135 -8.27697,-4.71801 -17.17105,-9.32592 l -16.17105,-8.37801 2.10519,-3.75 c 1.15786,-2.0625 2.46612,-3.75 2.90726,-3.75 1.75221,0 44.82965,22.75451 44.82965,23.68007 0,0.29699 -1.42107,3.20617 -3.15793,6.46486 l -3.15793,5.92488 -9.59207,-0.52809 c -23.31624,-1.28368 -33.09172,-1.52264 -33.08697,-0.8088 0.003,0.42189 7.59635,4.61267 16.87452,9.31284 l 16.86942,8.54576 -2.12452,4.10244 -2.12452,4.10243 -4.5,-2.23458 z M 34.659393,561.46312 c -0.765583,-1.5125 -1.947487,-4.46916 -2.626454,-6.57036 l -1.234486,-3.82036 7.298461,-7.67964 c 4.014154,-4.2238 10.645089,-11.16714 14.735411,-15.42964 4.090322,-4.2625 6.803888,-7.75 6.030146,-7.75 -0.773743,0 -8.811854,2.925 -17.862471,6.5 -9.050617,3.575 -16.719796,6.5 -17.042621,6.5 C 23.308478,533.21312 20,526.62353 20,525.3311 c 0,-0.44779 2.1375,-1.52575 4.75,-2.39547 2.6125,-0.86973 13.290984,-4.98808 23.729963,-9.15191 10.43898,-4.16383 19.2244,-7.5706 19.523156,-7.5706 0.298755,0 1.597741,3.09753 2.886635,6.8834 2.288783,6.72285 2.299905,6.92812 0.476845,8.80066 -7.425493,7.62703 -25.927793,27.6851 -26.191889,28.39423 -0.17891,0.4804 1.84609,-0.003 4.5,-1.07398 C 52.328619,548.14634 59.9,545.1796 66.5,542.62467 c 6.6,-2.55493 12.503443,-4.84321 13.118762,-5.08507 0.960242,-0.37743 4.980415,7.49107 4.173084,8.16779 -0.160515,0.13455 -7.941846,3.27714 -17.291846,6.98353 -9.35,3.7064 -18.35,7.30191 -20,7.99002 -10.504269,4.38069 -10.034848,4.34968 -11.840607,0.78218 z M 781.95508,523.29503 c -1.3997,-0.87005 -11.44896,-7.8669 -22.33167,-15.54855 -22.02268,-15.5449 -20.37076,-13.33048 -17.60541,-23.6002 l 0.98979,-3.6758 9.2461,-0.67223 c 5.08536,-0.36973 15.32111,-1.30817 22.74611,-2.08543 21.46204,-2.24668 22.00076,-2.25957 21.99442,-0.52613 -0.003,0.83954 -0.45897,3.1587 -1.01311,5.15369 -0.97798,3.52083 -1.16849,3.6406 -6.49327,4.08217 -3.01715,0.25021 -5.71609,0.68528 -5.99764,0.96684 -0.55925,0.55925 -5.44238,18.70292 -5.46987,20.32373 -0.009,0.55 2.00724,2.27882 4.48126,3.84182 4.94115,3.12166 5.01772,3.3405 3.23303,9.24009 -1.22755,4.05787 -1.2498,4.07259 -3.77974,2.5 z m -8.89569,-27.24177 c 1.04849,-4.03708 1.91405,-7.73929 1.92347,-8.22715 0.0168,-0.86774 -16.10801,-0.12482 -22.79198,1.05009 -3.29531,0.57926 -3.264,0.61197 7.5,7.83577 5.94501,3.98974 10.95606,7.12523 11.13565,6.96775 0.17959,-0.15748 1.18438,-3.58939 2.23286,-7.62646 z M 22.819324,504.63342 C 11.661486,501.1998 4.718602,484.03417 9.886127,472.65731 c 4.129119,-9.09069 15.21975,-14.77839 28.907496,-14.82485 10.916377,-0.0371 15.285296,2.50023 20.457137,11.88066 1.788819,3.24447 2.209518,5.6346 2.227307,12.65408 0.02077,8.1949 -0.142288,8.85814 -3.073131,12.5 -4.002281,4.97323 -9.275854,7.91407 -17.602341,9.81606 -8.103213,1.85098 -11.840052,1.84063 -17.983271,-0.0498 z m 15.564656,-9.53041 c 6.193148,-1.67032 8.790556,-2.99076 12.36602,-6.28649 2.879266,-2.654 3.25,-3.59895 3.25,-8.28379 0,-4.35796 -0.483689,-5.82797 -2.75,-8.35774 -3.555463,-3.96878 -9.514324,-5.38409 -16.911329,-4.01668 -15.371774,2.84163 -21.683373,10.85324 -16.587117,21.05481 3.093346,6.19219 11.069374,8.46909 20.632426,5.88989 z m 731.42946,-29.77695 c -10.68467,-2.25335 -18.92783,-10.33301 -20.16664,-19.76665 -1.92387,-14.65058 5.14345,-26.34629 15.92017,-26.34629 3.31407,0 3.60837,0.21616 3.06332,2.25 -0.33164,1.2375 -0.60913,3.4875 -0.61664,5 -0.0115,2.32224 -0.44141,2.75495 -2.76365,2.7818 -5.17377,0.0598 -8.25226,4.22327 -8.24626,11.15246 0.008,9.48656 7.25455,14.88308 20.36085,15.16322 8.26255,0.17661 12.86885,-1.87078 15.905,-7.06939 1.80182,-3.08513 2.9126,-13.41974 1.58569,-14.75304 -0.3546,-0.3563 -3.13065,-0.90439 -6.169,-1.21798 l -5.52428,-0.57016 -0.69454,4.63155 c -0.67502,4.5013 -0.79366,4.63154 -4.2191,4.63154 l -3.52455,0 0.66593,-6.75 c 0.36627,-3.7125 0.93737,-8.25984 1.26913,-10.10521 l 0.60319,-3.35521 7.61897,0.65115 c 4.19043,0.35814 10.02764,1.12197 12.97158,1.69741 l 5.3526,1.04626 -0.3526,11.7294 c -0.32191,10.70812 -0.61516,12.2427 -3.36793,17.62449 -4.07759,7.97189 -9.29528,11.23831 -18.98468,11.88496 -3.85,0.25694 -8.65895,0.1173 -10.68656,-0.31031 z M 2.4714947,448.91287 c -1.198425,-6.38816 -0.6453898,-7.03318 7.5406273,-8.79482 12.413484,-2.67141 13.062809,-3.3706 12.228703,-13.16791 l -0.490638,-5.76298 -8.125094,0.57531 C 9.156292,422.07889 4.534416,422.53153 3.354258,422.76833 0.8167465,423.2775 0,421.66142 0,416.13133 l 0,-3.91821 5.25,-0.0309 c 2.8875,-0.017 8.4,-0.4276 12.25,-0.91249 3.85,-0.48489 13.124079,-1.19688 20.609064,-1.58219 l 13.609064,-0.70056 0.715353,13.49866 c 0.855141,16.13647 -0.01199,20.21476 -5.028977,23.65246 -4.754981,3.25817 -12.084745,2.60209 -15.807579,-1.41492 C 30.168616,443.18203 29,441.53678 29,441.0671 c 0,-0.46969 -0.45,-0.85398 -1,-0.85398 -0.55,0 -1,0.83026 -1,1.84501 0,3.01913 -3.037571,4.8709 -11.5,7.01065 -4.4,1.11256 -8.983677,2.32012 -10.185949,2.68347 -1.890399,0.57131 -2.274725,0.18742 -2.8425563,-2.83938 z M 43.25,436.01544 C 44.578948,434.4785 45,432.19913 45,426.54178 l 0,-7.44976 -7.25,0.68976 c -3.9875,0.37937 -7.509652,0.83506 -7.827005,1.01265 -0.988586,0.55321 0.960585,13.57349 2.267781,15.14856 3.000065,3.61486 7.968061,3.6474 11.059224,0.0725 z m 341.42499,-1.78702 c -19.13287,-2.42366 -34.52505,-6.91816 -49.96496,-14.58971 -13.37331,-6.64473 -22.52854,-12.92702 -34.43818,-23.63136 -27.01404,-24.28012 -44.79823,-60.3987 -46.93504,-95.32212 l -0.63096,-10.3122 67.89708,-0.19987 c 37.34339,-0.10992 73.29707,-0.21944 79.89707,-0.24337 6.6,-0.0239 42.2625,0.0564 79.25,0.17851 l 67.25,0.22202 -0.0198,4.6914 c -0.044,10.43029 -4.07591,30.79309 -8.55652,43.21441 -1.36772,3.79161 -4.72209,11.30005 -7.45418,16.68542 -4.47375,8.81848 -5.84649,11.29008 -8.18494,14.73699 -2.16073,3.18494 -14.57747,18.42186 -16.75016,20.55458 -20.37312,19.99831 -42.84603,33.21861 -67.22466,39.54674 -16.4831,4.27863 -40.18759,6.23532 -54.13474,4.46856 z M 752.65763,401.21163 C 752.29593,397.75109 752,390.03575 752,384.06643 l 0,-10.85331 3.36408,0 c 3.244,0 3.38677,0.1656 4,4.63957 0.34975,2.55177 0.63592,7.72677 0.63592,11.5 l 0,6.86043 6.82477,0 6.82476,0 -0.45321,-11 -0.45322,-11 4.09462,0 4.09462,0 0.28383,10.75 0.28383,10.75 7.25,0.0594 7.25,0.0594 0,-12.30936 0,-12.30937 3.36916,0 c 3.11639,0 3.41566,0.28134 3.98899,3.75 0.34091,2.0625 0.62479,9.9375 0.63084,17.5 l 0.011,13.74993 -13.343,0 c -7.33865,0 -18.74271,0.29034 -25.34237,0.6452 l -11.99936,0.6452 -0.65764,-6.29189 z M 16.75,394.46482 0,394.16476 l 0,-4.97582 0,-4.97582 11.75,0.004 c 6.4625,0.002 18.1625,0.29701 26,0.65555 l 14.25,0.65155 0,4.84445 0,4.84445 -9.25,-0.22412 c -5.0875,-0.12327 -16.7875,-0.35915 -26,-0.52418 z M 41,372.60941 C 36.325,370.09575 26.88211,365.07185 20.0158,361.44519 2.2373034,352.05493 1.9813509,351.89114 2.462902,350.21312 c 0.2367545,-0.825 0.717992,-3.12596 1.069417,-5.11325 C 4.246892,341.059 2.3128554,341.74883 32.5,334.76776 c 6.05,-1.39912 14.073889,-3.2599 17.830865,-4.13505 3.756976,-0.87516 6.970181,-1.44008 7.140456,-1.25539 0.170275,0.18469 0.08048,2.65824 -0.19954,5.49677 -0.495666,5.02449 -0.605165,5.17783 -4.140456,5.79843 -1.997229,0.3506 -9.706325,1.92114 -17.131325,3.4901 -7.425,1.56896 -15.243513,3.15307 -17.374474,3.52024 -3.541768,0.61026 -3.713511,0.78003 -2,1.97701 1.030961,0.72018 9.529965,5.16101 18.886676,9.86852 l 17.012202,8.5591 -0.362896,4.56281 c -0.204689,2.57363 -0.863942,4.55554 -1.512202,4.54611 C 50.017188,377.18722 45.675,375.12307 41,372.60941 z m 709.66008,-12.04142 c -0.29769,-1.02018 -0.81293,-4.32987 -1.14496,-7.35487 l -0.60371,-5.5 11.57454,-8 c 20.22812,-13.98112 22.62537,-15.72201 22.21487,-16.13252 -0.3199,-0.31989 -18.99404,2.55269 -34.84634,5.3603 -2.42374,0.42927 -2.70304,0.12808 -3.3317,-3.59292 -0.84398,-4.99547 -0.20708,-6.13486 3.42927,-6.13486 1.55871,0 6.14466,-0.64849 10.19099,-1.4411 8.93167,-1.74955 32.99306,-5.5589 35.11227,-5.5589 1.60785,0 2.18361,1.6011 3.25796,9.05989 l 0.6568,4.55989 -6.83503,4.70968 c -22.19204,15.29141 -28.11217,19.56008 -27.69962,19.97263 0.25345,0.25345 2.12667,0.0867 4.1627,-0.37056 6.39711,-1.43669 33.21111,-5.25563 33.67118,-4.79556 0.24152,0.24151 0.73161,2.26823 1.08909,4.50382 l 0.64997,4.06471 -3.85418,0.66656 c -2.1198,0.36661 -8.12918,1.3171 -13.35418,2.1122 -13.88707,2.11324 -27.04968,4.28331 -30.64933,5.05304 -2.55087,0.54546 -3.25218,0.32096 -3.69059,-1.18143 z M 56.895184,319.77497 C 56.616175,319.49596 49.213119,317.19935 40.443948,314.67139 12.980746,306.75436 11,306.08056 11,304.65532 c 0,-0.74965 0.766621,-3.85261 1.703601,-6.89548 1.580433,-5.13249 1.960002,-5.57351 5.25,-6.09987 C 19.904121,291.3479 23.525,290.7086 26,290.23929 c 2.475,-0.46931 10.125,-1.6369 17,-2.59463 6.875,-0.95774 12.859759,-2.05389 13.299464,-2.4359 0.439706,-0.38201 -3.610294,-1.92707 -9,-3.43346 -11.211925,-3.13366 -26.645772,-7.75537 -27.118774,-8.12078 -0.758644,-0.58609 2.239409,-8.4414 3.22174,-8.4414 1.027095,0 22.233508,6.1536 40.402733,11.72392 4.869336,1.49284 8.13442,3.00744 7.892439,3.66114 -0.226998,0.61322 -1.024241,3.52562 -1.771651,6.472 -0.985633,3.88549 -1.966898,5.58821 -3.572163,6.19853 -2.004838,0.76224 -8.82625,1.90987 -31.52334,5.30346 -4.218253,0.63069 -7.943014,1.42018 -8.277246,1.75441 -0.334232,0.33424 2.217066,1.38071 5.669552,2.3255 3.452485,0.94479 10.552246,2.98586 15.777246,4.53572 5.225,1.54985 10.690943,3.08647 12.146541,3.4147 2.61172,0.58894 2.630022,0.6528 1.391093,4.85371 -1.118102,3.7912 -3.217234,5.74398 -4.64245,4.31876 z M 748.33975,305.77822 c -6.30722,-1.97256 -9.95528,-5.07453 -12.74742,-10.83923 -5.09092,-10.51081 -4.31514,-20.12803 2.07633,-25.73981 4.32438,-3.79686 5.86516,-3.7621 7.23351,0.16316 1.56336,4.48465 1.40261,5.45509 -1.3615,8.2192 -3.45426,3.45426 -4.07725,6.93805 -2.14532,11.99672 2.75932,7.22518 9.45519,9.18772 20.44593,5.99262 C 772.65085,292.42846 778,287.58007 778,280.92487 c 0,-6.95321 -4.04766,-11.71175 -9.96214,-11.71175 -3.50748,0 -3.72111,-0.20327 -5.25505,-5 l -1.59893,-5 5.25802,0 c 6.56077,0 12.09677,3.6503 16.22858,10.70069 2.44801,4.17721 2.80582,5.82189 2.81686,12.94784 0.0118,7.64118 -0.18524,8.4085 -3.08409,12.00715 -3.67532,4.56256 -12.41424,9.16281 -20.84555,10.97328 -7.35602,1.57957 -7.97265,1.57659 -13.21795,-0.0639 z M 72.25,268.18196 C 71.0125,267.68454 70,266.75263 70,266.11105 c 0,-0.64159 2.025,-5.44135 4.5,-10.66612 2.475,-5.22478 4.5,-9.63135 4.5,-9.7924 0,-0.16104 -2.558223,-1.46399 -5.684941,-2.89545 -6.816178,-3.12055 -6.563214,-3.3052 -11.752666,8.57877 l -3.765346,8.62273 -3.148524,-1.52662 c -1.731688,-0.83965 -3.28725,-1.63361 -3.456806,-1.76435 -0.169555,-0.13075 1.745896,-4.63354 4.256559,-10.00621 2.510663,-5.37267 4.44939,-9.87272 4.308283,-10.00011 -0.141108,-0.12739 -3.322493,-1.61501 -7.069746,-3.30583 l -6.813187,-3.07421 -5.06635,10.86876 -5.066349,10.86876 -2.872302,-1.00129 c -1.579766,-0.55071 -3.086488,-1.34785 -3.348271,-1.77143 -0.261783,-0.42357 0.786844,-3.41676 2.330283,-6.65153 1.543439,-3.23477 4.54384,-9.7064 6.667557,-14.3814 2.123718,-4.675 4.188428,-8.89001 4.588244,-9.36669 0.621344,-0.74079 43.931017,18.34587 46.196249,20.35879 0.441477,0.3923 -1.609881,5.84206 -4.558575,12.11059 -2.948693,6.26852 -5.951996,12.85981 -6.674007,14.64731 -1.376921,3.40888 -2.137784,3.69895 -5.820105,2.21884 z m 651.63095,-6.3006 -2.53914,-5.4263 7.30906,-9.87097 c 4.01999,-5.42903 7.31808,-10.20847 7.3291,-10.62097 0.011,-0.4125 -5.76997,-0.75 -12.84664,-0.75 l -12.86668,0 -2.09364,-5.03787 -2.09365,-5.03787 3.21032,0.52377 c 1.76568,0.28807 9.84388,0.98191 17.95156,1.54186 l 14.74125,1.01811 9.15624,-4.52318 c 5.03594,-2.48774 9.20238,-4.40204 9.25876,-4.254 0.0564,0.14805 1.12253,2.1714 2.36923,4.49635 l 2.26672,4.22716 -6.26672,3.25185 c -3.4467,1.78851 -7.61672,3.84979 -9.26672,4.58063 -2.13251,0.94455 -5.39162,4.9989 -11.27084,14.02099 -4.54896,6.98071 -9.06694,13.72597 -10.03995,14.98947 l -1.76913,2.29727 -2.53913,-5.4263 z M 94.57535,193.07484 c -3.348162,-0.89543 -7.206396,-4.28737 -9.170364,-8.06206 -4.574149,-8.79137 2.939304,-20.06886 13.475314,-20.22608 4.08826,-0.061 5.58763,0.45782 8.77522,3.03649 7.3121,5.91528 8.10515,14.40689 1.97065,21.10078 -3.55399,3.87808 -9.71622,5.57756 -15.05082,4.15087 z m 598.82516,-3.28931 c -6.75876,-2.94228 -10.148,-14.73026 -6.03848,-21.00218 3.9651,-6.05151 13.17884,-8.41037 19.69307,-5.04173 3.76236,1.94558 7.9449,8.52165 7.9449,12.49147 0,4.39119 -3.55499,10.73796 -7.29034,13.01552 -3.71598,2.26575 -9.81237,2.49451 -14.30915,0.53692 z m -53.51544,-44.89886 c -5.02731,-1.87051 -9.19143,-5.00995 -12.9654,-9.77498 -5.06276,-6.39225 -5.52482,-14.13885 -1.16808,-19.58363 l 1.74841,-2.18507 3.78393,3.21342 c 3.77013,3.20171 3.77819,3.2249 2.21281,6.3628 -2.06999,4.14938 -1.12717,7.5332 3.14376,11.28312 2.51417,2.20747 4.4337,3.01079 7.1943,3.01079 7.50595,0 8.0393,-4.15523 1.84492,-14.37336 -7.37815,-12.17085 -8.21948,-16.64329 -4.0606,-21.58583 3.61203,-4.292664 7.42284,-6.040814 13.16843,-6.040814 4.11647,0 5.78151,0.64064 10.56187,4.06378 3.355,2.402474 6.48764,5.656674 7.6628,7.960174 2.56158,5.02111 2.55093,11.72044 -0.0235,14.80973 l -1.94479,2.33369 -3.63812,-3.43236 c -3.17496,-2.9954 -3.49294,-3.70362 -2.49774,-5.56316 1.6506,-3.08418 0.33018,-6.88837 -3.3707,-9.71117 -3.76835,-2.87426 -6.19735,-3.08754 -9.42405,-0.82747 -3.19691,2.2392 -2.45286,5.80483 3.3043,15.83484 5.64581,9.83603 6.43784,13.38545 3.93903,17.65249 -3.92526,6.70289 -11.87658,9.37885 -19.47154,6.55301 z M 150,142.04802 c -3.40262,-0.95733 -17.67798,-14.6285 -26.78039,-25.64694 l -3.5622,-4.31203 3.49924,-3.49924 3.49923,-3.49924 10.82461,12.10074 c 13.92958,15.57177 15.68115,17.02181 20.56144,17.02181 7.96011,0 14.11982,-9.1029 10.57542,-15.62852 -0.8578,-1.57931 -6.74763,-8.4768 -13.0885,-15.32774 -6.34087,-6.850944 -11.49636,-12.700944 -11.45665,-13.000004 0.0397,-0.29906 1.66559,-1.87001 3.61307,-3.49101 l 3.54089,-2.94726 4.63692,4.96767 C 175.50425,109.82843 179,114.7017 179,121.04047 c 0,7.32051 -9.84881,18.83492 -18.14569,21.21443 -3.99338,1.14529 -6.19763,1.10328 -10.85431,-0.20688 z m 448.46588,-29.46053 c -7.68123,-5.33758 -14.12499,-9.82698 -14.31946,-9.97645 -0.19447,-0.14946 2.08829,-3.562644 5.0728,-7.584844 2.98451,-4.02219 9.39494,-12.93808 14.2454,-19.81308 4.85046,-6.875 9.19023,-12.91253 9.64393,-13.41673 0.91247,-1.01404 26.80375,16.07491 27.65038,18.25001 0.28543,0.7333 -0.40444,2.25668 -1.53305,3.38528 l -2.05201,2.05202 -3.83694,-2.33222 c -2.11031,-1.28271 -6.18022,-4.04359 -9.04423,-6.13528 -2.86402,-2.0917 -5.56402,-3.78983 -6,-3.77362 -0.43599,0.0162 -2.46718,2.33957 -4.51377,5.16305 l -3.72107,5.1336 8.97107,6.07212 c 4.93409,3.33966 8.9561,6.52879 8.9378,7.08694 -0.0183,0.55816 -0.90521,2.06102 -1.97091,3.339694 l -1.93764,2.32486 -8.86953,-6.074864 c -4.87824,-3.34117 -9.1291,-6.07486 -9.44635,-6.07486 -0.60273,0 -8.98686,12.210654 -8.51341,12.398944 0.14911,0.0593 1.62111,1.04367 3.27111,2.18749 1.65,1.14382 5.8125,3.99433 9.25,6.33447 3.4375,2.34013 6.23999,4.77776 6.22776,5.41694 -0.0122,0.63919 -0.81508,2.19245 -1.78411,3.45169 l -1.76188,2.28952 -13.96589,-9.70468 z M 179.99946,95.410706 c -7.4247,-11.19963 -13.62832,-20.91437 -13.78581,-21.58831 -0.23533,-1.00699 4.37928,-4.52141 10.4745,-7.97722 0.65527,-0.37152 9.28869,4.23715 19.25,10.276 9.93402,6.02229 18.06185,10.51343 18.06185,9.98029 0,-0.53313 -0.85879,-2.18861 -1.90843,-3.67884 -1.04963,-1.49023 -5.56962,-8.27029 -10.04441,-15.06679 -7.55986,-11.48225 -8.00891,-12.45195 -6.34157,-13.69411 2.75551,-2.05282 6.25418,-3.83249 6.6188,-3.36678 0.37736,0.48199 12.50466,19.03891 21.45003,32.82236 l 6.10325,9.40419 -2.18883,1.66132 c -1.20386,0.91373 -3.85419,2.66736 -5.88961,3.89695 -3.56607,2.154244 -3.82087,2.174274 -7,0.5501 -1.81458,-0.92704 -4.49445,-2.52559 -5.95528,-3.55233 -1.46083,-1.02675 -5.28583,-3.37662 -8.5,-5.22194 -3.21417,-1.84532 -8.87332,-5.21978 -12.57588,-7.49881 -3.70256,-2.27902 -6.94984,-4.14367 -7.21617,-4.14367 -0.26633,0 0.78682,1.9125 2.34032,4.25 10.60591,15.95833 18.10657,27.742904 18.09953,28.436854 -0.005,0.44723 -1.69228,1.72677 -3.75054,2.84343 l -3.74229,2.03028 -13.49946,-20.362974 z m 384.20937,-3.95447 -4.29117,-2.43839 2.16897,-3.65237 c 6.71091,-11.30062 18.91519,-34.34039 18.52484,-34.972 -0.25104,-0.40619 -3.21633,-2.05763 -6.58954,-3.66988 -5.59959,-2.67636 -6.07863,-3.15227 -5.50676,-5.47092 1.07652,-4.364768 2.19791,-4.683471 7.26638,-2.065138 5.11708,2.643448 31.55719,17.089328 31.97279,17.468728 0.34173,0.31197 -2.79474,6.55685 -3.29316,6.55685 -0.21578,0 -3.36425,-1.63357 -6.9966,-3.63016 -3.72269,-2.04625 -6.96573,-3.24613 -7.4327,-2.75 -0.45565,0.48409 -5.17932,8.75516 -10.49706,18.38016 -5.31774,9.625 -9.97601,17.76584 -10.35172,18.09075 -0.3757,0.32492 -2.61413,-0.50652 -4.97427,-1.84763 z M 233.77099,77.963116 C 225.85391,62.941476 216,43.448786 216,42.809116 c 0,-1.12549 8.26383,-4.729949 9.00335,-3.927022 C 225.80731,39.754974 248,83.073626 248,83.770006 c 0,0.41999 -7.58204,4.44311 -8.37356,4.44311 -0.24929,0 -2.88424,-4.6125 -5.85545,-10.25 z M 546,81.544536 c -7.51947,-2.56006 -8,-3.11309 -8,-9.207 l 0,-5.78176 -9.39118,-3.67133 c -5.16515,-2.01923 -10.05714,-3.67133 -10.8711,-3.67133 -0.81395,0 -2.55042,1.56795 -3.85882,3.48434 -3.07404,4.5025 -4.07441,4.81195 -9.15861,2.83306 -5.10376,-1.98651 -5.43432,-2.2333 -4.18141,-3.12177 0.53953,-0.3826 6.79149,-7.22063 13.89325,-15.19563 7.10176,-7.975 14.63479,-16.257611 16.74008,-18.405802 2.10528,-2.14819 3.82779,-4.28569 3.82779,-4.75 0,-1.366638 3.15048,-0.975277 8.5,1.055891 l 5,1.89846 0.26582,27.600721 c 0.1462,15.1804 -0.0788,27.5652 -0.5,27.52178 -0.4212,-0.0434 -1.44082,-0.30875 -2.26582,-0.58963 z m -6.53631,-35.40591 c 0.39637,-6.640968 0.48193,-12.313225 0.19014,-12.605014 -0.55102,-0.551017 -2.80986,1.879328 -11.52344,12.398374 l -5.15148,6.21886 3.01124,1.55718 c 3.36304,1.73909 9.91127,4.20975 11.63136,4.38853 0.7381,0.0767 1.36788,-4.01131 1.84218,-11.95793 z m -277.76608,9.46405 C 257.46393,45.005756 254,35.857998 254,35.27433 c 0,-1.456469 -0.31729,-1.400557 -8.21128,1.446962 -3.82428,1.379497 -7.32192,2.280324 -7.77252,2.001838 -0.4506,-0.278485 -1.25709,-1.762284 -1.79221,-3.29733 l -0.97295,-2.790993 19.62448,-7.551441 19.62448,-7.55144 1.65475,3.090197 c 0.91012,1.699608 1.48644,3.362541 1.28072,3.695405 -0.20572,0.332864 -3.20036,1.620298 -6.65475,2.860963 -3.4544,1.240665 -6.62625,2.574027 -7.04856,2.963025 -0.4223,0.388999 2.65273,9.226745 6.83341,19.63944 4.18068,10.41269 7.6762,19.52944 7.76783,20.25944 0.0916,0.73001 -1.88197,2.11527 -4.38579,3.07835 l -4.55239,1.75106 -7.69761,-19.26713 z m 37.70999,4.86044 c -0.34677,-1.5125 -3.05535,-12.31057 -6.01905,-23.995709 C 290.42485,24.782267 288,14.769767 288,14.217407 c 0,-0.55236 0.71507,-1.004291 1.58904,-1.004291 0.87398,0 8.09554,-1.62844 16.04791,-3.6187547 7.95238,-1.990315 14.70494,-3.372688 15.00569,-3.071939 0.30075,0.300749 0.61669,1.993154 0.70209,3.7608997 L 321.5,13.497405 310.75,16.067048 C 304.8375,17.480351 300,19.13471 300,19.743402 c 0,2.885786 3.2157,11.466831 4.28874,11.444453 0.66619,-0.01389 5.48626,-1.095315 10.71126,-2.403158 5.225,-1.307844 9.57237,-2.308976 9.66082,-2.224739 0.0884,0.08424 0.46104,1.760791 0.82799,3.725675 l 0.66718,3.572517 -10.328,2.477625 c -11.58658,2.779553 -10.98173,1.935901 -8.69452,12.127341 0.74518,3.32044 1.56337,4.75 2.7186,4.75 0.90892,0 6.1423,-1.11174 11.62972,-2.47054 5.48742,-1.35879 10.26437,-2.14629 10.61543,-1.75 0.35107,0.3963 0.89577,2.10408 1.21045,3.79508 l 0.57214,3.07453 -10.6899,2.34152 c -5.87945,1.28783 -12.43399,2.94179 -14.56564,3.67546 -6.16851,2.12308 -8.48691,1.76689 -9.21667,-1.41605 z M 480.5,59.500046 c -3.51638,-0.8458 -3.68223,-1.87296 -1.59976,-9.90785 4.77325,-18.416883 8.33283,-33.473813 7.97946,-33.752962 -0.20883,-0.164973 -3.49308,-1.049219 -7.29832,-1.96499 -3.80524,-0.91577 -7.11057,-1.85698 -7.34516,-2.091577 -0.76795,-0.767952 0.89819,-6.5695507 1.88668,-6.5695507 0.5302,0 9.17728,2.025 19.21574,4.5 10.03846,2.4749997 19.06705,4.4999997 20.06354,4.4999997 1.24661,0 1.62112,0.496905 1.20054,1.592901 -0.33619,0.876095 -0.87095,2.627642 -1.18837,3.892327 -0.57402,2.2871 -0.61018,2.291803 -6.74573,0.877389 -3.39274,-0.78212 -6.87766,-1.639089 -7.74426,-1.904375 -1.29275,-0.395739 -2.43018,2.976024 -6.33517,18.779709 -2.61774,10.594129 -4.97652,20.049549 -5.24174,21.012049 -0.47465,1.72252 -2.63625,2.04986 -6.84745,1.03693 z M 338.64434,29.083972 c -1.49566,-13.82103 -2.51509,-25.3334437 -2.26539,-25.5831417 0.79257,-0.792565 14.85282,-2.330304 22.12105,-2.41933 4.49337,-0.05504 8.53006,0.532464 11.27284,1.640656 13.7405,5.551707 18.8235,28.0327637 9.02577,39.9191097 -4.60402,5.58547 -10.77362,8.17344 -23.8037,9.98494 -6.27802,0.8728 -11.91332,1.58691 -12.52288,1.58691 -0.70952,0 -2.08678,-9.04181 -3.82769,-25.129144 z m 27.48981,13.060704 C 370.23054,40.054856 374,33.553877 374,28.578893 c 0,-5.141664 -2.82872,-12.82932 -5.72649,-15.562996 -3.62946,-3.4239257 -9.4418,-4.9180027 -16.09176,-4.1364307 l -5.36433,0.630471 0.56408,4.1015897 c 0.31024,2.255874 1.02967,8.826589 1.59874,14.601589 0.56907,5.775 1.28574,12.01067 1.59261,13.85705 l 0.55794,3.35706 5.67416,-0.70894 c 3.12078,-0.38992 7.31893,-1.54804 9.3292,-2.57361 z m 65.53332,9.63458 c -8.60603,-2.3131 -12.62502,-6.71904 -12.65273,-13.870931 L 419,34.103534 l 4.75,0.304791 c 4.22308,0.270981 4.78307,0.582116 5.0481,2.804791 0.58103,4.87271 3.46959,7.27515 9.32477,7.75548 4.42745,0.3632 5.86282,0.0577 8.12713,-1.72977 3.14873,-2.48563 3.58004,-6.017304 1,-8.188259 -0.9625,-0.809889 -5.575,-3.16076 -10.25,-5.224158 -4.675,-2.063399 -9.49944,-4.68668 -10.72098,-5.829513 -6.72757,-6.294111 -4.33862,-17.5988767 4.7076,-22.2768587 6.53644,-3.380128 19.60715,-1.55851997 25.41654,3.542195 3.14931,2.76513 5.47576,8.7197507 4.20812,10.7708277 -0.26715,0.432258 -2.64634,0.537103 -5.2871,0.23299 -3.77366,-0.434581 -4.87942,-0.981023 -5.16601,-2.552934 -1.13785,-6.2408677 -10.872,-8.6433107 -15.65225,-3.8630627 -2.04704,2.0470367 -1.89589,5.7001717 0.31877,7.7044117 1.00358,0.908228 5.38262,3.198446 9.73119,5.089375 4.34858,1.890928 9.35772,4.596004 11.13143,6.011279 5.7629,4.598328 5.64435,13.197237 -0.26101,18.932457 -5.60405,5.44258 -13.75467,6.88057 -23.75883,4.19168 z"
     style="fill:#407EC9"
     id="path1992"
     inkscape:connector-curvature="0" />
  <path
     d="m 392,608.77214 c 0,-9.48722 -0.39604,-15.68575 -1.02713,-16.07579 -0.56492,-0.34914 -5.40242,0.74593 -10.75,2.4335 -11.0246,3.47909 -32.43564,8.16514 -48.72287,10.66355 -13.35962,2.04932 -48.53791,2.33253 -62,0.49915 -24.81928,-3.38011 -50.79152,-10.24793 -71,-18.77448 -17.84382,-7.52883 -47.24801,-24.50818 -48.22336,-27.84643 -0.36924,-1.26376 16.33906,-8.41568 30.72336,-13.151 23.33144,-7.68072 46.9093,-12.08097 69.75,-13.01719 7.8375,-0.32125 14.24606,-0.85549 14.24125,-1.18721 -0.005,-0.33172 -2.81047,-2.40312 -6.2348,-4.60312 -10.93998,-7.02852 -20.92648,-15.41643 -33.78216,-28.37451 -15.4948,-15.61822 -22.81259,-24.55038 -32.46039,-39.62145 -16.83949,-26.30539 -28.36509,-52.85907 -35.92256,-82.76152 -3.83015,-15.15466 -5.18919,-24.74252 -3.50716,-24.74252 5.43579,0 37.69505,7.89765 51.91582,12.70993 64.68571,21.88953 114.07534,59.13236 149.49391,112.72765 13.91826,21.06109 24.13958,41.31047 32.5893,64.56242 2.09863,5.775 3.87497,10.05 3.94742,9.5 0.0725,-0.55 0.20771,-24.4 0.30056,-53 l 0.16881,-52 9,0 9,0 0.5,53 0.5,53 2.39591,-7 c 14.30108,-41.78271 38.90317,-81.33115 69.60409,-111.89026 40.25451,-40.06857 88.05711,-65.20708 148.79441,-78.24825 9.23693,-1.9833 17.00584,-3.39457 17.26426,-3.13616 0.82216,0.82217 -4.50898,25.8341 -8.10233,38.01338 -11.10921,37.65353 -32.1853,75.14349 -57.43692,102.16828 -13.62336,14.58 -30.40403,29.0664 -41.34152,35.68927 -3.09165,1.87206 -5.63394,3.67514 -5.64954,4.00686 -0.0156,0.33172 6.38414,0.87662 14.22164,1.2109 13.71794,0.58508 31.38379,3.00093 44.83829,6.13174 17.29052,4.02343 42.07111,12.54113 53.67348,18.4489 l 3.26177,1.66085 -4.76177,3.55285 c -8.71434,6.50192 -24.61514,15.53519 -37.26177,21.16846 -24.17488,10.76837 -46.06474,17.00682 -74.68029,21.28332 -12.70998,1.89947 -48.99766,2.13426 -61.74015,0.39948 -13.70593,-1.86594 -42.05081,-7.89701 -51.71955,-11.00461 -5.05669,-1.62526 -9.79384,-2.95501 -10.52699,-2.95501 -1.05515,0 -1.33302,3.33524 -1.33302,16 l 0,16 -9,0 -9,0 0,-15.44098 z m 54.5,-62.10255 c 23.88116,-4.2648 54.4707,-16.03087 76.22197,-29.31829 34.05472,-20.80336 62.97849,-52.61008 81.56296,-89.69268 10.635,-21.22059 21.31494,-50.4455 18.43478,-50.4455 -0.61939,0 -5.64722,1.40689 -11.17294,3.12642 -72.65635,22.60964 -122.16592,61.3935 -158.76924,124.37358 C 446.60506,515.33353 433,545.37903 433,548.38992 c 0,0.47372 1.0125,0.64207 2.25,0.37412 1.2375,-0.26795 6.3,-1.21046 11.25,-2.09445 z m -79.04423,-0.70647 C 364.18919,535.13873 349.29856,505.47518 340.0668,491.4017 304.13466,436.62446 255.30754,400.59849 190.16455,380.79977 c -6.7845,-2.06199 -12.54537,-3.53916 -12.80193,-3.2826 -0.62962,0.62962 4.04028,15.01873 8.67234,26.72167 14.70454,37.15108 34.69661,66.0224 63.03503,91.03133 28.01296,24.72171 60.08109,40.61762 101.93001,50.52588 5.225,1.23709 11.21782,2.28701 13.31739,2.33316 3.50766,0.0771 3.76229,-0.0987 3.13838,-2.16609 z M 285.5,338.3262 c -4.4308,-0.82873 -7.65786,-2.66264 -15.15613,-8.61308 C 265.5019,325.87065 259,317.72854 259,315.50757 c 0,-1.63469 -2.71628,-6.50107 -4.10927,-7.36198 -0.76625,-0.47357 -1.4112,-4.01772 -1.68685,-9.26968 l -0.44629,-8.50297 67.8712,-0.19982 c 37.32917,-0.1099 73.27121,-0.2194 79.87121,-0.24333 6.6,-0.0239 42.2625,0.0564 79.25,0.17851 l 67.25,0.22202 0,3.79471 c 0,6.82061 -1.28192,16.24997 -2.04199,15.02015 -0.51907,-0.83987 -1.08746,-0.55869 -1.88571,0.93284 -0.62847,1.17431 -0.89269,2.1351 -0.58716,2.1351 0.49951,0 -2.39413,5.7271 -4.99474,9.8856 -1.57863,2.52429 -6.77193,7.31844 -11.59203,10.70107 -8.50309,5.96726 -20.91742,8.10352 -28.55261,4.91333 -1.97451,-0.825 -4.57395,-1.5 -5.77654,-1.5 -2.17509,0 -16.26706,-12.63549 -15.23878,-13.66377 0.27659,-0.27659 -0.30336,-1.30915 -1.28877,-2.29456 -0.98542,-0.98542 -2.04465,-2.41042 -2.35385,-3.16667 -0.43408,-1.06169 -0.91051,-0.91928 -2.09089,0.625 -0.8408,1.1 -1.89375,2.45 -2.3399,3 -0.44615,0.55 -1.84214,2.4625 -3.1022,4.25 -1.26006,1.7875 -2.93538,3.25 -3.72292,3.25 -0.78755,0 -1.43191,0.59151 -1.43191,1.31448 0,1.49037 -6.30302,5.09776 -13,7.44026 -2.6738,0.93526 -7.74658,1.5664 -12.5,1.55523 -6.91646,-0.0163 -8.81266,-0.43163 -14,-3.06684 -6.39836,-3.2504 -14.90854,-11.15866 -19.21399,-17.855 -1.17589,-1.82888 -1.27003,-1.81964 -3,0.29431 -0.9823,1.20035 -3.0908,4.06586 -4.68555,6.36781 -1.65073,2.38277 -6.03075,6.22944 -10.16978,8.93143 -6.61878,4.32079 -7.978,4.80781 -15.16848,5.43505 -6.66212,0.58114 -8.98311,0.34254 -14.83021,-1.52455 -3.8126,-1.21743 -8.28199,-3.21067 -9.93199,-4.42943 -4.73305,-3.49601 -10.5,-9.22286 -10.5,-10.42698 0,-0.6042 -0.65787,-1.35099 -1.46193,-1.65954 -0.80407,-0.30854 -1.73439,-1.41942 -2.06739,-2.46861 -0.87542,-2.7582 -1.57216,-2.38949 -5.4296,2.8733 -5.67529,7.74293 -9.39382,11.07723 -15.83161,14.19574 -6.61439,3.20405 -15.66487,4.45402 -22.70947,3.13642 z"
     style="color:#000000;fill:#509E2F;fill-opacity:1;fill-rule:nonzero;stroke:none;stroke-width:1;marker:none;visibility:visible;display:inline;overflow:visible"
     id="path1990"
     inkscape:connector-curvature="0" />
</svg>