<?xml version="1.0" encoding="UTF-8" standalone="no"?>
<svg xmlns:rdf="http://www.w3.org/1999/02/22-rdf-syntax-ns#" xmlns="http://www.w3.org/2000/svg" height="424" width="424" version="1.1" preserveAspectRatio="none" xmlns:cc="http://creativecommons.org/ns#" xmlns:dc="http://purl.org/dc/elements/1.1/" viewBox="0 0 0.58888887 0.58888887">
 <g transform="translate(.0021414 .0023434)">
  <circle opacity="0.99" fill-rule="evenodd" cy=".29167" cx=".29167" r=".29167" fill="#009"/>
  <path d="m0.39159 0.099116-0.00564-0.00282-0.00571-0.002682-0.00584-0.002544-0.00592-0.002338-0.00605-0.002201-0.00605-0.001994-0.00619-0.001857-0.00626-0.00165-0.00626-0.001445-0.00639-0.001306-0.00647-0.0011-0.00653-0.000895-0.00653-0.000687-0.00661-0.000482-0.00666-0.000344-0.00674-0.000068c-0.12 0-0.21703 0.09717-0.21703 0.21696 0 0.008647 0.00050614 0.017177 0.0014904 0.025561 0.012645 0.1077 0.10421 0.1914 0.21554 0.1914 0.11979 0 0.2169-0.097238 0.2169-0.21696 0-0.069594-0.032734-0.13162-0.08376-0.1713" stroke="#fefc01" stroke-linecap="square" stroke-miterlimit="10.433" stroke-width=".0013138" fill="none"/>
  <path d="m214.66 7.8867-3.7617 3.8125h7.5742l-3.8125-3.8125zm-12.873 0.14844-3.5156 4.0605 7.4746-0.54492-3.959-3.5156zm24.658 0.54492-4.0606 3.5156 7.5762 0.39648-3.5156-3.9121zm-36.295 0.24805-3.3672 4.207 7.5762-0.93945-4.209-3.2676zm47.979 1.0898-4.207 3.2676 7.4258 0.79297-3.2188-4.0605zm-59.615 0.39453-3.1192 4.3574 7.4766-1.3867-4.3574-2.9707zm71.104 1.4863-4.3086 3.1191 7.4277 1.2383-3.1191-4.3574zm-82.59 0.69336-2.8711 4.4551 7.3281-1.7324-4.457-2.7227zm93.979 2.0293-4.457 2.8223 7.2793 1.6348-2.8223-4.457zm-105.37 0.79297-2.5762 4.6035 7.1797-2.1289-4.6035-2.4746zm116.6 2.5742-4.6035 2.4766 7.1777 2.1289-2.5742-4.6055zm-127.84 0.8418-2.3262 4.8516 7.1777-2.5742-4.8516-2.2773zm62.385 0.24805-2.6738 6.0898 0.94141 0.44531c1.4854-2.8717 4.4568-5.297 7.873-5.1484 2.2781 0 1.8815 2.0288 1.7324 3.7617l-0.39649 14.111c-0.14832 3.7631-0.69356 4.5566-3.8125 4.5566v1.0879l10.447 0.29883v-1.0898h-0.24805l-0.29687-0.05078h-0.2461l-0.24804-0.04883h-0.19922l-0.2461-0.04883-0.19922-0.05078-0.14843-0.04883-0.19727-0.09961-0.14844-0.04883-0.14843-0.09961-0.14844-0.04883-0.0996-0.09961-0.14844-0.09961-0.0996-0.14844-0.0996-0.09766-0.0488-0.14844-0.0996-0.14844-0.0488-0.14844-0.0488-0.19922-0.0508-0.14844-0.0488-0.19727-0.0488-0.19922-0.0508-0.24609v-0.24805-0.24805l-0.0488-0.24805v-0.29688-0.29688-0.29688-0.34766-0.14844l0.0488-0.19726 0.54492-14.062c0-1.7824-0.2974-3.8125 2.0293-3.8125 3.3674 0.29708 6.2388 2.873 7.5762 5.8438l0.79102-0.39648-2.1289-6.2383-19.557-0.69336zm-17.428 1.4844-9.6055 1.6348 0.0976 1.0898c2.7238-0.54468 3.4178 0.39461 3.9629 4.0586l2.1777 13.023c0.49464 3.763 0.24672 4.7035-2.4766 5.0996l0.14843 1.0898 17.33-2.8223 1.2383-6.4863-0.99023-0.29688c-1.5847 4.2086-3.1197 5.9415-7.5762 6.7832-3.2184 0.54461-3.9106-0.29875-4.3066-3.2695l-2.3281-13.664c-0.54432-3.6639-0.24746-4.7543 2.5742-5.1504l-0.24609-1.0898zm46.195 0.002-0.29688 1.0879c2.723 0.54468 2.9717 1.4865 2.1797 5.1504l-2.5762 13.021c-0.69336 3.7629-1.3374 4.4569-3.9121 3.9121l-0.29688 1.2363 9.5078 1.7344 0.24609-1.0898c-2.5747-0.54468-2.9697-1.4865-2.1777-5.1504l1.2383-6.0898 10.299 2.0312-1.2383 6.0898c-0.6444 3.6639-1.3374 4.5044-3.9121 3.9102l-0.29688 1.0898 9.6055 1.9316 0.14844-1.0898c-2.723-0.54461-2.9707-1.5339-2.2774-5.1484l2.5742-13.023c0.79272-3.6145 1.3375-4.4548 4.0606-3.9102l0.24805-1.1895-9.457-1.7812-0.29687 1.0879c2.5747 0.54461 2.8711 1.4864 2.1777 5.1504l-1.0898 5.3965-10.297-2.0293 1.0879-5.3965c0.69335-3.664 1.3862-4.4567 3.9609-3.9121l0.24805-1.0898-9.457-1.9297zm47.783 1.3848-4.9023 2.1289 7.1797 2.5762-2.2774-4.7051zm-149.92 1.09l-1.8809 4.8535 6.7832-2.9707-4.9023-1.8828zm29.805 2.2793-2.8223 1.6348-1.0898 19.459c0 2.4263-0.14831 5.4461-2.9707 6.2383l0.24805 1.0898 8.418-2.2793-0.29688-1.0879c-1.337 0.24739-3.2184 0.49437-3.6641-1.0898-0.24759-0.9409-0.00009-3.8131 0.14844-4.7539v-1.3359l8.416-2.3281 2.4277 3.5156c0.24768 0.59393 0.9393 1.5341 1.0879 2.0293 0.54504 1.6342-1.6333 1.932-2.7227 2.3281l0.24805 1.0898 9.6543-2.7246-0.44532-1.0879c-0.792 0.14853-1.5839 0.14803-2.2773-0.24805-1.2377-0.79222-2.5752-3.3671-3.3672-4.5059l-10.99-15.943h-0.002zm130.96 1.2383-5.0488 1.8809 6.9316 2.9707-1.8828-4.8516zm-171.46 1.1875-1.6328 5 6.6836-3.3672-5.0508-1.6328zm39.264 1.7832 6.7832 9.7051-7.2793 2.0293 0.4961-11.734zm142.6 2.1777-5 1.7344 6.6348 3.3672-1.6348-5.1016zm-192.26 1.3359-1.3867 5.0996 6.4863-3.7617-5.0996-1.3379zm29.26 0.002-16.389 6.7832 0.39453 1.0391c2.4264-1.0398 3.2197-0.39492 4.7051 3.0215l5.0508 12.279c1.4854 3.5647 1.3366 4.4554-1.0898 5.5449l0.39648 0.94141 16.785-6.8828-0.0996-6.9316h-0.99023c-1.4854 5.1492-1.5849 6.6332-6.7344 8.8613-2.8714 1.1886-3.6625 0.79386-4.6035-1.6816l-3.1191-7.2793 1.3359-0.39648c2.4257-1.2378 5.1495-2.1773 6.7832 1.8828l0.93945-0.39648-3.8125-8.9629-0.79102 0.29688c1.0886 3.5155-0.69308 4.8521-3.5156 6.0898l-1.3379 0.54492-2.4746-5.8418c-1.188-3.1193-1.1874-3.6156 1.9316-5.002 4.6044-1.8815 6.089-1.2375 10.396 1.3867l0.54493-0.8418-4.3066-4.4551zm145.5 4.1211c-2.1663 0.01169-4.1093 1.2065-5.2324 3.4531l-0.0996 0.14844-0.0488 0.14844-0.0488 0.14844-0.0996 0.14844-0.0488 0.19727-0.0508 0.14844-0.0488 0.14844-0.0488 0.14844-0.0508 0.29883-0.0996 0.3457-0.0488 0.29688-0.0488 0.34766v0.29688l-0.0508 0.3457v0.34766 0.29688 0.3457l-0.0488 0.29688v0.69336 0.002l-1.584 0.14844c-3.0201 0.24739-5.5454 1.4838-8.0215 3.9102-5.793 5.7929 1.0884 7.8728 4.4551 9.457 2.178 1.0892 4.3568 1.3373 6.7832 1.2383 0.69264 1.5847 1.2374 2.8231 2.8711 3.6152 2.129 0.99048 4.7041 0.69254 6.8828-0.09961l-0.14844-0.8418c-1.337 0.14854-2.8212 0.39581-4.1582-0.24805-1.0894-0.54475-2.0806-2.0305-2.3281-3.2188 2.3278-1.139 4.3588-2.872 6.0918-4.5059 1.7827-1.6342 2.3256-2.1774 4.752-1.0879l0.39648-0.94141-7.7246-3.7637-0.54297 0.79297c1.6338 0.84168 2.8709 1.7331 1.8809 3.5156-1.0397 2.1785-2.9706 3.7621-5.0996 4.8516-0.99057-3.763-1.0896-7.7231-1.3867-11.783 2.8717 0 7.3271 0.19811 8.8125-2.6738 1.2384-2.4262-0.54295-5.1509-2.8203-6.2402-1.0214-0.49514-2.0524-0.73383-3.0371-0.72852zm27.646 0.33398-5.0996 1.4863 6.4863 3.6641-1.3867-5.1504zm-26.744 0.92383c0.42166 0.0046 0.8597 0.10402 1.293 0.31445l0.14844 0.09961 0.19727 0.09961 0.0996 0.09766 0.14843 0.09961 0.14844 0.09961 0.0996 0.14844 0.0977 0.09766 0.0996 0.14844 0.0996 0.15039 0.0976 0.14844 0.0996 0.14648 0.0488 0.14844 0.0508 0.14844 0.0488 0.14844 0.0508 0.14844 0.0488 0.14844 0.0488 0.19726v0.14844 0.15039l0.0508 0.19727v0.14844 0.14844l-0.0508 0.19727v0.14844l-0.0488 0.19922v0.14844l-0.0488 0.14844-0.0508 0.19727-0.0488 0.14844-0.0508 0.15039-0.0977 0.14844-0.0488 0.14844h-0.002c-1.2377 2.3272-4.0597 2.4767-6.3867 2.3281-0.0986-1.634 0.14941-3.8134 0.94141-5.2988 0.51948-1.2254 1.651-2.0608 2.916-2.0469zm-185.82 0.56055-1.0898 5.1504 6.3379-4.0605-5.248-1.0898zm222.46 5.002-5.248 1.0898 6.3379 4.0605-1.0898-5.1504zm-20.697 0.79297s0.27426 0.60001 0.54102 1.6758 0.52526 2.6265 0.49219 4.5273c-0.006 0.31681-0.0199 0.64478-0.043 0.98047-0.0461 0.67133-0.1299 1.3793-0.26172 2.1191-0.0659 0.3699-0.14309 0.74747-0.23437 1.1328-0.0913 0.38528-0.19516 0.77828-0.31446 1.1777-0.11929 0.39948-0.25438 0.80424-0.4043 1.2168-0.14991 0.41255-0.31488 0.83135-0.49804 1.2559-0.36633 0.84888-0.80161 1.7218-1.3164 2.6113-0.77256 1.3342-1.7242 2.7079-2.8906 4.1074-0.38876 0.4665-0.80248 0.93682-1.2402 1.4082-2.6266 2.8286-6.1582 5.7357-10.879 8.5957-0.78696 0.47666-1.607 0.95007-2.4609 1.4238-1.2067 0.95184-2.4263 1.8965-3.6582 2.834-1.2319 0.93744-2.4762 1.868-3.7305 2.791-1.2542 0.92376-2.5193 1.8419-3.793 2.752-1.2737 0.91008-2.5574 1.8126-3.8477 2.709-2.5812 1.7928-5.1919 3.5593-7.8223 5.2988-5.261 3.4805-10.599 6.8565-15.922 10.137-7.9839 4.9198-15.935 9.6216-23.545 14.129-2.5366 1.5026-5.0349 2.9839-7.4844 4.4434-2.4494 1.4602-4.8514 2.8992-7.1914 4.3184-2.34 1.4191-4.6186 2.819-6.8262 4.1992-3.3113 2.07-6.4613 4.0968-9.4102 6.084-0.9828 0.66229-1.9441 1.3189-2.8809 1.9726-5.6232 3.9211-10.394 7.6846-14.006 11.314-0.47043 0.52606-0.99227 1.0903-1.5488 1.6973-1.9476 2.1262-4.3125 4.7851-6.3379 8.2109-0.28924 0.48944-0.57051 0.99434-0.84375 1.5156-1.6387 3.1291-2.9474 6.8464-3.4492 11.303l-6.0898 21.787v0.0488 0.0508 0.0977 0.0996 0.0996l-0.0488 0.29688-0.0488 0.39648-0.0508 0.44531-0.0977 0.49414-0.0996 0.4961-0.14844 0.59375-0.19922 0.64453-0.24609 0.64453-0.24805 0.69141-0.34766 0.69336-0.3457 0.69335-0.44531 0.69336-0.4961 0.74219-0.54492 0.69336-0.64258 0.69336-0.34765 0.3457-0.34571 0.29688-0.39648 0.34765-0.39648 0.29688-0.39649 0.29688-0.44531 0.29687-0.44531 0.29687-0.49414 0.29688-0.4961 0.24805-0.54492 0.24804-0.54492 0.2461-0.54492 0.19922-0.59375 0.24609-0.64258 0.19922-0.64453 0.14844-0.64453 0.14843-0.74219 0.14844-0.69336 0.0996-0.74219 0.0977-0.79297 0.0996-0.79101 0.0508-0.8418 0.0488h-0.89062-0.89063l-0.89453-0.0488-0.98828-0.0508-0.99024-0.0996-0.99023-0.14844c-5.521-0.7056-11.398-1.3329-16.982-1.5273-2.0945-0.0731-4.1464-0.0851-6.125-0.0176-1.319 0.045-2.6057 0.12468-3.8477 0.24609s-2.4392 0.28326-3.584 0.49219c-0.57235 0.10446-1.1322 0.22117-1.6758 0.34961-0.54427 0.12843-1.0745 0.2681-1.5879 0.42187-0.51365 0.1538-1.012 0.32142-1.4922 0.50196-0.4805 0.18051-0.94176 0.37532-1.3867 0.58398-1.3342 0.62599-2.503 1.3808-3.4707 2.2852-0.32263 0.3014-0.62323 0.61961-0.90039 0.95508-0.27683 0.3351-0.53142 0.68612-0.75977 1.0566-0.22851 0.37018-0.43172 0.75993-0.60938 1.166-0.17767 0.40667-0.32884 0.83115-0.45312 1.2754-0.37285 1.3334-0.50075 2.8418-0.34766 4.541s0.58647 3.591 1.334 5.6934c0.11914-0.31256 0.25608-0.61008 0.41016-0.89258 0.15407-0.28228 0.32616-0.54951 0.51367-0.80274 0.18752-0.25315 0.39186-0.49161 0.61133-0.71679 0.21946-0.22519 0.45322-0.4364 0.70312-0.63477 0.24991-0.19836 0.51436-0.38394 0.79297-0.55664 0.55773-0.34539 1.1733-0.64098 1.8379-0.89062 0.66456-0.24964 1.3798-0.45216 2.1387-0.61524 0.37971-0.0815 0.77012-0.15321 1.1719-0.21484 0.40119-0.0616 0.81318-0.11338 1.2344-0.15625 1.2636-0.12862 2.6131-0.17576 4.0293-0.15625 6.6096 0.091 14.665 1.6232 22.111 3.0215 2.1276 0.39947 4.2048 0.7903 6.1856 1.1309 8.9495 0 12.774 0.22173 17.49-0.98242 0.78624-0.20075 1.5976-0.44071 2.4609-0.72852 0.86328-0.28767 1.7789-0.62368 2.7754-1.0137 1.6243-1.0829 3.0591-2.2136 4.332-3.3887 0.31811-0.29376 0.62563-0.58966 0.92382-0.88867 0.29826-0.2992 0.58827-0.60151 0.86719-0.90625 0.27923-0.30451 0.54757-0.61246 0.8086-0.92188 1.8274-2.1679 3.221-4.4618 4.3262-6.8594 0.9468-2.0549 1.6813-4.1863 2.2969-6.3809 0.20514-0.73152 0.39615-1.4716 0.57813-2.2168 0.54594-2.2356 1.004-4.5299 1.4648-6.8691 0.30699-1.5595 0.61392-3.1381 0.95117-4.7344 0.50598-2.394 1.0787-4.8262 1.8066-7.2793 0.97056-3.271 2.2213-6.5815 3.9688-9.9023 0.87336-1.6603 1.8697-3.3233 3.0195-4.9844 0.57495-0.83016 1.1873-1.6608 1.8418-2.4902 0.65424-0.82872 1.3509-1.6559 2.0918-2.4824 1.481-1.6531 3.1396-3.3014 5.0059-4.9394 0.93312-0.81864 1.9174-1.6356 2.957-2.4492 1.5595-1.2204 3.2438-2.4353 5.0625-3.6406 0.60621-0.40187 1.228-0.80157 1.8652-1.2012 3.7937-2.7914 7.6273-5.5173 11.496-8.1914 3.8686-2.6741 7.7735-5.2985 11.709-7.8906 1.9678-1.296 3.9429-2.5849 5.9258-3.8672s3.9734-2.5591 5.9707-3.832c3.9938-2.5459 8.014-5.0767 12.059-7.6113 12.134-7.6034 24.478-15.235 36.92-23.369 2.0736-1.3558 4.1499-2.7253 6.2285-4.1113s4.1592-2.7865 6.2422-4.207c1.1124-0.93456 2.1604-1.8527 3.1504-2.752 0.98928-0.89928 1.9191-1.7805 2.791-2.6445 0.87192-0.864 1.6882-1.7096 2.4492-2.5391 2.2817-2.489 4.0756-4.8233 5.4551-7.0078 0.46005-0.72821 0.87262-1.4395 1.2441-2.1348 2.227-4.1713 2.907-7.7533 2.6543-10.787-0.0422-0.50563-0.10994-0.99529-0.20117-1.4707-0.0912-0.47543-0.20532-0.9372-0.33984-1.3828-0.13453-0.44562-0.29075-0.87674-0.46289-1.293-0.34428-0.83246-0.75795-1.605-1.2188-2.3223-0.23029-0.35861-0.47161-0.70281-0.72266-1.0332-0.7524-0.99122-1.5847-1.857-2.4199-2.6016-0.27831-0.24817-0.55566-0.48352-0.83203-0.70508-0.828-0.66467-1.6342-1.2102-2.3398-1.6426-0.47055-0.28823-0.89658-0.52588-1.2559-0.71484-0.71843-0.37792-1.168-0.56055-1.168-0.56055h-0.002zm-211.52 0.69141-0.69336 5.2988 5.9414-4.457-5.248-0.8418zm24.209 0.15039-8.2676 4.8516 0.54297 1.0898c2.3278-1.4851 3.1206-0.94184 5.002 2.3262l2.8711 4.7031-8.9609 5.4473-2.8223-4.7539c-1.8814-3.1191-2.029-4.2081 0.24805-5.5449l-0.54492-0.94141-8.2188 4.9023 0.54297 1.0391c2.2774-1.4851 3.071-0.93988 5.1504 2.3281l6.7324 11.338c1.931 3.2681 2.0311 4.2098-0.2461 5.5469l0.54493 0.93945 8.2188-4.8516-0.4961-1.0898c-2.327 1.4854-3.1188 0.94106-5.1484-2.2773l-3.1191-5.2969 8.9121-5.3984 3.2676 5.25c1.8814 3.2678 2.0304 4.208-0.29687 5.5449l0.54492 0.99023 8.3184-5.0508-0.59375-0.93945c-2.2781 1.4856-3.2194 0.93918-5.1504-2.2793l-6.7344-11.387c-2.0794-3.0699-2.0786-4.2101 0.24805-5.5469l-0.54492-0.93945zm163.42 1.1562c0.28431-0.01034 0.5724 0.0003 0.86328 0.03125 0.0986 4.3572 0.54529 8.5648 1.4863 12.625-1.3867 0.39609-2.8719-0.000184-4.209-0.54492l-0.29688-0.14844-0.29687-0.19727-0.24805-0.14844-0.29687-0.24805-0.24805-0.19922-0.24609-0.19727-0.19922-0.24805-0.19727-0.24805-0.19922-0.29688-0.19726-0.24609-0.19727-0.29883-0.14844-0.29688-0.15039-0.29688-0.0976-0.29688-0.14844-0.29688-0.0996-0.29688-0.0488-0.29688-0.0996-0.34766-0.0488-0.29688-0.0508-0.3457-0.0488-0.34766v-0.29688-0.3457-0.29688l0.0488-0.34766 0.0508-0.3457 0.0488-0.29688 0.0996-0.29688 0.0977-0.34766 0.0996-0.29688 0.14843-0.29688 0.14844-0.29688c0.90972-1.9062 2.6915-2.9784 4.6816-3.0508zm53.945 4.0918-5.1504 0.8418 5.9414 4.457-0.79101-5.2988zm-250.94 1.6836-0.39453 5.3965 5.6934-4.9023-5.2988-0.49414zm260 5.9414-5.2988 0.39648 5.6953 4.8516-0.39649-5.248zm-268.96 1.7324-0.09961 5.2969 5.5449-5.1484-5.4453-0.14844zm258.11 4.9004-0.64453 0.79297c2.0297 1.7823 1.733 2.8217-0.69336 5.5449l-8.8125 10.002c-2.5754 2.8721-3.5171 3.1198-5.3984 1.3867l-0.84179 0.79297 7.1797 6.3867 0.79297-0.8418c-1.9807-1.733-1.7339-2.6728 0.74219-5.5449l4.1582-4.6055 7.873 7.0312-4.209 4.6035c-2.4264 2.8721-3.3668 3.1198-5.3965 1.3867l-0.69336 0.79297 7.1777 6.4863 0.79297-0.79297c-2.0297-1.8814-1.8814-2.8193 0.69336-5.6914l8.8125-9.8535c2.4257-2.8721 3.3688-3.2681 5.3984-1.3867l0.8418-0.79297-7.3281-6.5352-0.69336 0.99023c2.0297 1.733 1.7818 2.6734-0.79296 5.3965l-3.6621 4.2051-7.8711-7.0273 3.6641-4.0605c2.4746-2.8723 3.5143-3.1196 5.4453-1.3867l0.79297-0.94141-7.3281-6.3379zm19.359 1.3398-5.248 0.14844 5.3965 5.1484-0.14843-5.2969zm-280.54 1.6328-5.2969 0.24609 0.14844 5.2988 5.1484-5.5449zm11.881 2.5742v0.002l-12.971 12.328 0.79102 0.79102c2.0304-1.7827 2.9702-1.4848 5.5449 1.2383l9.0625 9.6055c2.7238 2.6741 2.8716 3.6139 0.99023 5.5449l0.79102 0.79297 7.4277-7.0312-0.79297-0.79102-0.24609 0.19727-0.19922 0.14844-0.19727 0.19727-0.19922 0.15039-0.19727 0.09766-0.19727 0.14844-0.19922 0.09961-0.14844 0.09961-0.19726 0.09766-0.14844 0.05078-0.19922 0.04883-0.14844 0.04883-0.14844 0.05078h-0.19726-0.14844l-0.14844-0.05078h-0.14844l-0.19922-0.04883-0.14844-0.09961-0.14844-0.04883-0.19726-0.09961-0.14844-0.09766-0.19922-0.09961-0.169-0.149-0.149-0.148-0.199-0.149-0.197-0.199-0.198-0.197-0.248-0.198-0.197-0.199-0.248-0.248-0.199-0.246-4.506-4.754 1.09-0.943c1.7827-1.8814 4.0605-3.7613 7.0312-0.64258l0.69336-0.69336-6.7832-7.0312-0.64453 0.64453c2.4257 2.8721 1.1875 4.7529-1.0898 6.9316l-0.93945 0.94141-4.0605-4.0605c-2.327-2.4264-3.0205-3.5152-0.8418-5.5449 3.8124-3.6641 5.6937-3.665 10.596-2.873l0.24805-0.94141-5.6953-2.6719zm271.53 4.0605 5.1504 5.5449 0.0977-5.4453-5.248-0.09961zm-291.44 1.6328-5.248 0.49609 0.49609 5.2969 4.752-5.793zm299.01 7.0332 4.7539 5.793 0.54297-5.25-5.2969-0.54297zm-306.44 1.7305-5.2988 0.84375 0.8418 5.248 4.457-6.0918zm301.29 3.418-0.9414 0.64258c1.4861 2.0304 0.94142 2.9717-2.0293 5.1504l-9.2109 6.6348c-4.2084 3.119-4.455 7.4753-1.3359 11.635 3.5158 4.9018 7.4272 5.4474 12.279 1.9316l8.416-6.2383c3.1198-2.1787 4.0609-2.327 5.6953-0.14844l0.93945-0.69335-4.6035-6.1895-0.94141 0.64453 0.14844 0.19727 0.0996 0.19726 0.0977 0.1504 0.0996 0.19726 0.0996 0.14844 0.0977 0.14844 0.0508 0.19726 0.0488 0.14844 0.0488 0.15039v0.14844l0.0508 0.14843v0.14844 0.14844l-0.0508 0.0977-0.0488 0.14843v0.15039l-0.0996 0.14844-0.0488 0.14844-0.0996 0.14844-0.0977 0.14843-0.0996 0.14844-0.14844 0.14844-0.14844 0.14844-0.14844 0.14843-0.14844 0.19727-0.19921 0.14844-0.19727 0.14843-0.19726 0.19922-0.24805 0.19727-0.24805 0.14844-0.24805 0.19921-0.14843 0.0977-0.0977 0.0996-7.4766 5.4453c-3.7627 2.6741-7.5764 4.7038-10.844 0.0996-3.0701-4.3078-0.39629-7.4272 3.2676-10.002l7.7246-5.5449c2.9714-2.178 3.9106-2.4257 5.6934-0.14844l0.79296-0.69336-5.5449-7.6738zm12.182 3.9121 4.4551 6.0898 0.8418-5.2988-5.2969-0.79102zm-72.834 0.68945-0.002 0.002-1.9316 9.457c-32.877 41.541-105.61 44.266-109.37 107.59l1.4844 2.1777c3.6641 5.2978-5.1494 13.021-7.3281 16.686-4.7534 4.5554-4.6031 7.8238 5.3984 9.8535 0 2.1787-0.24842 4.7533-1.1894 6.4863 0.14832 1.4861 2.5742 3.5156 2.5742 3.5156 1.0886 1.2377-0.94104 2.1787-0.54492 3.6641 0.396 2.1787 2.8229 1.4864 4.7539 5.2988-5.5951 24.113 29.906-0.39743 36.145 20.844-2.327 16.24-23.171 15.053-32.381 28.422-7.3276 17.082 3.9121 22.627 3.9121 22.775l1.2871 0.54492 1.2871 0.49609 1.2383 0.44531 1.2383 0.39649 1.2363 0.3457 1.2383 0.3457 1.2383 0.24805 1.1875 0.19922 1.1894 0.14844 1.1875 0.0976 1.1894 0.0508h1.1387 1.1387l1.1367-0.0996 1.0898-0.14844 1.0918-0.14844 1.0898-0.19922 1.0391-0.29687 1.0391-0.29688 1.041-0.3457 1.0391-0.39649 0.98829-0.44531 0.94335-0.49609 0.99024-0.49414 0.89062-0.59571 0.94141-0.59375 0.89063-0.64257 0.89062-0.69336 0.8418-0.69336 0.84375-0.79297 0.79101-0.79102 0.79297-0.84179h-0.002c-7.4765-1.931-13.813 1.0893-20.992-9.6055-3.9614-23.024 21.24-18.419 34.113-30.203 9.2093-28.322-33.619-13.418-35.5-23.568 0-0.69264-2.2784-2.2778-0.9414-6.3379-0.69264-2.4761 0.29739-3.9608-2.9707-6.0898-0.792-3.1198 0.24819-2.1798 0.39649-3.0215-0.94032-2.6741-2.8242 0.00028-2.8242-2.8223-0.84168-2.8224 0.54432-4.0596-0.69336-6.2383-1.337-1.337-7.0306-1.7355-6.4863-4.0625 4.3078-7.5757 7.3298-13.665 7.0332-11.783 0.39614-1.733 0.39614-2.4253 0-4.3066-1.337-4.9018-4.0601-10.001 2.2774-16.934 7.3279-34.115 50.553-40.848 72.041-62.684 11.388-9.2095 26.589-13.52 28.322-30.305-2.0304-4.9018-3.1197-11.784-9.457-13.121zm-247.67 1.1914-5.1504 1.0879 1.0898 5.1484 4.0605-6.2363zm15.576 1.266c-3.0636 0.07425-6.009 1.3367-8.1133 4.1836-4.0601 5.6444-1.3382 12.723 3.9102 16.338l0.49609 0.34765 0.49414 0.34571 0.54492 0.29687 0.49609 0.29688 0.54492 0.24804 0.54492 0.24805 0.54492 0.24805 0.54297 0.19726 0.5957 0.14844 0.54492 0.14844 0.54492 0.14844 0.59375 0.0996 0.54492 0.0488 0.59375 0.0508 0.54492 0.0488h0.59375l0.54492-0.0488 0.54492-0.0508 0.59375-0.0976 0.54492-0.14844 0.54492-0.14844 0.49609-0.15039 0.54492-0.24609 0.49414-0.19922 0.49609-0.29688 0.49414-0.29687 0.49609-0.3457 0.44531-0.39649 0.44531-0.39648 0.44531-0.44532 0.39648-0.49609 0.39648-0.49414h-0.002c4.2085-5.694 1.7331-12.428-3.6641-16.24-2.5747-1.9062-5.7567-3.0196-8.8203-2.9453zm-2.4082 2.4688c3.0636 0.01595 6.5146 1.8381 8.8047 3.4473 3.6147 2.5746 8.6644 7.8724 5.248 12.576l-0.14844 0.24805-0.14844 0.19726-0.14844 0.14844-0.19922 0.19922-0.14844 0.14844-0.19726 0.19726-0.19727 0.0996-0.19922 0.14844-0.19726 0.14844-0.14844 0.0996-0.24805 0.0977-0.19726 0.0996-0.39648 0.14844-0.44531 0.14844-0.44727 0.0996-0.44531 0.0488-0.44531 0.0488h-0.49414-0.44727l-0.49414-0.0488-0.49609-0.0996-0.49414-0.0977-0.49609-0.0996-0.44531-0.14844-0.49414-0.14844-0.49609-0.14843-0.44531-0.19922-0.49609-0.19727-0.44531-0.19726-0.44531-0.19922-0.44531-0.2461-0.44531-0.24804-0.39648-0.19922-0.39648-0.24609-0.39648-0.24805-0.3457-0.24805-0.34766-0.24805-0.3457-0.24609c-3.5156-2.4262-8.3669-7.8741-5.1484-12.479 1.2255-1.7266 2.9236-2.367 4.7617-2.3574zm313.86 3.8438 4.207 6.2363 1.0898-5.1484-5.2969-1.0879zm-333.37 1.9297-5.1504 1.3359 1.3867 5.1504 3.7637-6.4863zm339.36 7.9727 3.7637 6.4863 1.3867-5.1504-5.1504-1.3359zm-345.31 1.8789-5.0488 1.7812 1.7812 5.002 3.2676-6.7832zm339.46 2.0312-1.0898 0.39453c1.2384 2.5747 0.54633 3.2687-2.8203 4.9024l-12.082 5.5449c-3.3667 1.6337-4.3065 1.487-5.5449-0.93945l-0.9414 0.39453 3.2676 7.1797 1.0898-0.39649c-1.2384-2.4264-0.54459-3.2667 2.8223-4.9004l15.051-6.8809v0.14844l-16.783 16.883 0.54297 1.0898 23.668-1.6328v0.14844l-14.902 6.9316c-3.3667 1.4854-4.3085 1.4829-5.5469-1.0918l-0.93945 0.54493 4.0605 8.7637 1.0898-0.39649-0.0977-0.19726-0.0996-0.24805-0.0996-0.19726-0.0977-0.19922-0.0508-0.19727-0.0488-0.14844-0.0508-0.19726-0.0488-0.14844v-0.19922-0.14844-0.14843l0.0488-0.14844v-0.14844l0.0508-0.14844 0.0488-0.0996 0.0996-0.14843 0.0488-0.14844 0.0996-0.0996 0.14844-0.14844 0.0996-0.14843 0.14844-0.0977 0.19726-0.14844 0.14844-0.0996 0.19922-0.14844 0.19726-0.14843 0.19727-0.0996 0.24805-0.14844 0.24804-0.14844 0.14844-0.0488 0.14844-0.0508 0.14844-0.0976 0.14843-0.0508 0.14844-0.0996 0.14844-0.0488 0.14844-0.0996 0.14843-0.0488 12.08-5.543c3.3667-1.6337 4.3092-1.4869 5.5469 0.93946l0.93-0.39-3.1191-6.7832-20.992 1.4844 14.754-14.902-2.9707-6.6348-0.002-0.002zm11.244 6.2383 3.3652 6.6348 1.7832-5.002-5.1484-1.6328zm-356 2.0293-4.9023 1.8809 2.0312 5.002 2.8711-6.8828zm9.9004 5-7.4746 18.023 4.9004 4.6035 0.64453-0.6914c-2.129-2.4264-3.5153-6.0919-2.1289-9.2109 0.94075-2.1787 2.5738-0.93888 4.1582-0.24609l13.021 5.3965c3.5154 1.4861 4.2085 2.1796 2.9707 5.002l1.0898 0.54297 3.9121-9.6055-0.94141-0.54296-0.09766 0.29687-0.09961 0.24609-0.14844 0.24805-0.09961 0.19922-0.09961 0.19727-0.14844 0.19726-0.09766 0.14844-0.09961 0.14844-0.14844 0.15039-0.14844 0.14843-0.09961 0.0977-0.14844 0.0996-0.14844 0.0996-0.14844 0.0488-0.14844 0.0488-0.14844 0.0508-0.14844 0.0488h-0.14844-0.19922-0.19726l-0.19727-0.0488h-0.19922l-0.19726-0.0508-0.19922-0.0488-0.24609-0.0996-0.24805-0.0488-0.24805-0.0996-0.24805-0.0977-0.29688-0.0996-0.24805-0.14844-0.29687-0.0996-0.3457-0.14844-12.973-5.3984c-1.6339-0.69264-3.6633-1.0895-2.8711-3.1191 1.3864-3.1198 4.9019-4.8511 8.1699-5.1484v-0.79297l-6.7852-0.29688zm249.55 1.6348-0.006 0.004l0.006 0.006c-0.00001-0.00009 0-0.01 0-0.01zm0 0.01c0.001 0.0136 0.0921 0.97415-0.0762 2.5898-0.23297 2.237-0.96162 5.7132-3.1094 9.6055-0.19525 0.35384-0.40364 0.70987-0.62304 1.0703-0.2194 0.36011-0.45038 0.72285-0.69531 1.0879-0.24494 0.36514-0.50349 0.73292-0.7754 1.1016-0.27185 0.36893-0.55715 0.74176-0.85742 1.1133-0.30016 0.37149-0.61541 0.74423-0.94531 1.1172-0.32986 0.3728-0.67401 0.74618-1.0352 1.1191-0.72216 0.74592-1.5067 1.4898-2.3613 2.2285-0.85464 0.73872-1.7794 1.47-2.7774 2.1914-0.49915 0.36087-1.0176 0.71946-1.5547 1.0742-1.0742 0.70952-2.2261 1.4057-3.4609 2.084-2.4696 1.3558-4.8989 2.7518-7.2695 4.1602-1.1851 0.70431-2.3551 1.4121-3.5078 2.1191-12.683 7.7811-23.265 15.541-28.414 18.744-0.4681 0.29118-0.89174 0.54503-1.2676 0.75781-0.37581 0.21244-0.70425 0.38485-0.98242 0.51172-0.43947 0.198-0.95104 0.50977-1.5098 0.91602-0.27924 0.20321-0.56955 0.43072-0.86914 0.67773-0.89928 0.74088-1.8764 1.6651-2.8476 2.7012-0.32372 0.34519-0.64733 0.70313-0.9668 1.0703-0.6386 0.73368-1.2625 1.506-1.8457 2.293-0.58367 0.78696-1.1267 1.5884-1.6055 2.3848-0.95832 1.5926-1.6572 3.1585-1.8984 4.5215-0.0603 0.34073-0.0937 0.67021-0.0937 0.98242 0 0-0.23813 0.82018-0.58008 2.0859-0.17097 0.63283-0.36628 1.377-0.57226 2.1855-0.72072 2.831-1.5529 6.4526-1.7754 8.8594-0.0317 0.34383-0.0519 0.66285-0.0566 0.95117-0.01 0.57675 0.0383 1.03 0.16211 1.3144 0.5571 1.5473 1.1532 3.231 1.0625 4.8438-0.0455 0.8064-0.26267 1.5959-0.74219 2.3418-0.0959 0.14912-0.20274 0.29594-0.32031 0.44141l-4.8008 5.0996s-1.2583 0.59866-1.416 1.834c-0.0157 0.12355-0.0204 0.25432-0.0117 0.39063 0.0432 0.68148 0.42197 1.5234 1.4277 2.5293 0 0 0.29928-0.00019 0.76368 0.0215 0.69622 0.0325 1.7622 0.11328 2.7363 0.3164 0.81217 0.16929 1.56 0.42355 1.9805 0.80469 0.0841 0.0762 0.15523 0.15747 0.21094 0.24414 0.12375 0.18567 0.20344 0.38847 0.25391 0.60547 0.25234 1.085-0.24392 2.5267 0.17773 3.9883 0.0843 0.29242 0.20579 0.58569 0.37695 0.87695 0.0856 0.14564 0.18264 0.29123 0.29493 0.43555s0.23851 0.28734 0.38086 0.42969c0.28458 0.27234 0.42202 0.4871 0.47461 0.68359 0.0263 0.0983 0.0308 0.19216 0.0234 0.28711-0.007 0.0949-0.028 0.19087-0.0527 0.29297s-0.0542 0.21038-0.0801 0.33008c-0.0518 0.2394-0.0879 0.52409-0.0469 0.89648 0.0205 0.18624 0.0589 0.39374 0.12695 0.62891 0.099 0.47034 0.14982 0.82404 0.21094 1.125 0.0306 0.15046 0.0634 0.28715 0.10742 0.41992 0.088 0.26554 0.21775 0.51349 0.45117 0.80664 0.35014 0.44009 0.93412 0.98478 1.9551 1.8574 0.7056 0.56934 1.1127 0.99579 1.3223 1.3457 0.0524 0.0874 0.0939 0.17122 0.12305 0.25 0.0582 0.15751 0.0714 0.2985 0.0547 0.43359-0.008 0.0676-0.0245 0.13423-0.0469 0.19922-0.13462 0.38995-0.49415 0.75101-0.75 1.3047-0.0852 0.18457-0.15947 0.39169-0.20898 0.62695-0.0619 0.24139-0.15881 0.54583-0.25977 0.90039-0.10097 0.35423-0.20624 0.75673-0.28515 1.1894-0.0789 0.43287-0.13121 0.89764-0.12696 1.375 0.002 0.23862 0.0184 0.47913 0.0527 0.72266 0.0344 0.2433 0.0878 0.4889 0.16211 0.73242 0.14855 0.48739 0.3846 0.97063 0.73828 1.4336 0.17698 0.23167 0.38326 0.45852 0.62305 0.67774 0.23978 0.21922 0.51204 0.43227 0.82226 0.63476 0.31025 0.20251 0.65854 0.39466 1.0469 0.57618 0.77688 0.36301 1.7168 0.67999 2.8516 0.93359 0.56744 0.12667 1.1827 0.23723 1.8516 0.33008 0.6777 0.0836 1.3509 0.14568 2.0176 0.18945 2.0002 0.13135 3.9446 0.0941 5.8008-0.0469 0.61852-0.047 1.2266-0.10415 1.8242-0.17188 2.9866-0.33863 5.6923-0.90657 7.957-1.4062 2.2644-0.49977 4.0868-0.93253 5.3086-0.99804 0.24437-0.0131 0.46519-0.0107 0.66016 0.008 1.0246 0.11757 1.9953 0.23833 2.9141 0.36328 0.91872 0.12495 1.7873 0.25438 2.6074 0.38672 2.4617 0.39701 4.4972 0.82733 6.2051 1.291 1.1383 0.30929 2.1303 0.63332 3.0059 0.97266 0.43782 0.16963 0.84743 0.34236 1.2305 0.51953 0.38296 0.17717 0.7387 0.35825 1.0742 0.54297 0.67063 0.36944 1.2539 0.7547 1.7773 1.1543 0.52344 0.3998 0.98772 0.81358 1.4219 1.2441 0.21704 0.21518 0.42727 0.43534 0.63281 0.6582 0.41109 0.44572 0.8066 0.90813 1.2148 1.3848 1.0058 1.1758 3.9593 3.0814 7.918 4.6719 0.792 0.31811 1.6236 0.62203 2.4883 0.90625 1.7287 0.56902 3.588 1.0566 5.5176 1.3906 0.48236 0.0836 0.96939 0.159 1.459 0.22265 0.98064 0.1273 1.9726 0.21096 2.9726 0.2461 2.0002 0.0702 4.0263-0.0602 6.0156-0.45899 0.99504-0.19937 1.9801-0.46515 2.9492-0.80664 1.4537-0.5126 2.8722-1.1944 4.2266-2.0742 0.90288-0.58663 1.7777-1.2621 2.6172-2.0332 0.83952-0.77112 1.6452-1.6381 2.4062-2.6094 1.5228-1.931 2.8011-3.5344 3.8789-4.8613 1.0778-1.327 1.9546-2.3766 2.6602-3.2031 0.58922-0.68999 0.99916-1.1452 1.375-1.5527l-0.24414 0.0605-0.39649 0.14844-0.49414 0.14844-0.49609 0.14844-0.54492 0.14843-0.59375 0.14844-0.59375 0.14844-0.64453 0.14844-0.69141 0.14843-0.69336 0.14844-0.69336 0.14844-0.74219 0.14844-0.74414 0.14843-0.74218 0.0996-0.79102 0.0996-0.74219 0.0996-0.79297 0.0488-0.79101 0.0488h-0.79297-0.79102l-0.79296-0.0488-0.79102-0.0488-0.74219-0.0996-0.79297-0.14844-0.74218-0.14843-0.74219-0.19922-0.69336-0.2461-0.69336-0.29882-0.69336-0.29688c-2.1665-1.1513-4.1103-2.1482-5.8613-3.0137-3.5014-1.7309-6.2287-2.9334-8.4102-3.7852-2.1816-0.85176-3.8191-1.3523-5.1367-1.6777-1.3183-0.32575-2.3177-0.47843-3.2285-0.63086-0.45556-0.0762-0.8882-0.15096-1.3281-0.25-0.47656-0.11763-1.0027-0.22964-1.5859-0.32617-2.6222-0.43439-6.3778-0.56752-11.775 0.39453-0.59971 0.10689-1.2186 0.22827-1.8594 0.36328-0.64097 0.13501-1.3023 0.28391-1.9863 0.44922-2.0506 0.49591-4.2976 1.1343-6.7578 1.9414-0.82008 0.26304-1.5868 0.4863-2.3047 0.67579-1.4357 0.37894-2.6752 0.61933-3.7422 0.75-0.53382 0.0652-1.0244 0.10268-1.4766 0.11718-1.3558 0.0435-2.3592-0.12461-3.1016-0.40039-0.24727-0.0919-0.46557-0.19641-0.6582-0.30859-0.19264-0.11217-0.35913-0.23262-0.50391-0.35742-1.0138-0.87336-0.9375-1.9609-0.9375-1.9609 0-0.33426 0.0437-0.90904 0.0723-1.5801 0.0501-1.1736 0.054-2.6486-0.29688-3.6738-0.0501-0.14644-0.10632-0.28229-0.17187-0.4082-0.13111-0.25183-0.29628-0.45815-0.5-0.60156-0.10186-0.0717-0.21321-0.12798-0.33594-0.16602-0.12273-0.038-0.25693-0.0586-0.40234-0.0586-0.25376-0.009-0.48412-0.0287-0.69336-0.0586-0.20925-0.0299-0.39589-0.0695-0.56445-0.11719-0.16856-0.0477-0.31752-0.10528-0.44922-0.16797-0.26338-0.12539-0.45688-0.27699-0.59571-0.44531-0.20823-0.25249-0.29464-0.54106-0.30859-0.82618-0.0186-0.38059 0.0902-0.75435 0.20313-1.0352 0.11293-0.2808 0.23046-0.4668 0.23046-0.4668l-0.24804-0.69336c-0.38988-0.0681-0.70515-0.16968-0.95508-0.29492-0.12489-0.0626-0.23337-0.12974-0.32813-0.20312-0.18951-0.14678-0.32159-0.31444-0.41015-0.49024-0.48713-0.96696 0.35547-2.2305 0.35547-2.2305-0.0433-0.29709-0.092-0.56624-0.14258-0.8125-0.0506-0.24661-0.10448-0.47073-0.16211-0.67187-0.11527-0.4023-0.24438-0.71845-0.38672-0.96875-0.14234-0.25066-0.29696-0.43498-0.46484-0.57422-0.33576-0.27849-0.72127-0.37499-1.1504-0.44922-0.21431-0.0371-0.43863-0.0688-0.67383-0.11523-0.2352-0.0464-0.48156-0.10721-0.73633-0.20313-0.25455-0.0959-0.51666-0.22644-0.78906-0.41211-0.26623-0.16713-0.51106-0.35293-0.73047-0.55273-0.87624-0.7992-1.3582-1.8357-1.3027-2.9258 0.0139-0.27249 0.0614-0.54785 0.14454-0.82421 0.16635-0.55235 0.47667-1.1066 0.94726-1.6387 0.32184-0.35586 0.61228-0.70742 0.875-1.0527 0.26292-0.34541 0.49785-0.68616 0.70703-1.0195 0.41836-0.66677 0.73475-1.3069 0.96875-1.916 0.35164-0.91368 0.52002-1.7571 0.57422-2.5059 0.12647-1.7474-0.36639-2.988-0.5918-3.4531-0.0644-0.13298-0.10742-0.20313-0.10742-0.20313-0.557-2.8469-0.30941-5.5591 0.58203-8.1562 0.22287-0.64933 0.48631-1.29 0.78711-1.9258 0.15048-0.31775 0.30945-0.63505 0.47852-0.94922 0.16905-0.31441 0.34813-0.62638 0.53515-0.9375 0.74808-1.2449 1.6383-2.4635 2.6484-3.6602 2.5272-2.9909 5.8119-5.8406 9.5449-8.5918 1.4933-1.1002 3.0574-2.1857 4.6738-3.2578 0.80856-0.53601 1.6293-1.0677 2.4609-1.5977 3.3264-2.1197 6.8206-4.1948 10.322-6.2461s7.0128-4.0792 10.371-6.1074c1.679-1.0138 3.3203-2.027 4.9043-3.043 1.584-1.0166 3.108-2.0353 4.5566-3.0606 0.72432-0.5124 1.4307-1.0274 2.1133-1.543 2.0484-1.5466 3.8987-3.1077 5.4863-4.6953 0.52915-0.52763 1.0236-1.0529 1.4844-1.5742 0.46046-0.52158 0.88792-1.0399 1.2832-1.5547 0.3951-0.51487 0.75649-1.0263 1.0898-1.5332 0.33311-0.50748 0.63748-1.012 0.91211-1.5117 0.27449-0.49941 0.51932-0.99333 0.73828-1.4844 0.21924-0.49067 0.41271-0.97803 0.58008-1.459 0.16735-0.48126 0.30889-0.95685 0.42773-1.4277 0.11884-0.47118 0.21539-0.93836 0.28906-1.3984 0.14738-0.92088 0.2064-1.8193 0.19336-2.6934-0.007-0.43687-0.0307-0.86694-0.0723-1.291-0.0416-0.42409-0.10058-0.84155-0.17383-1.252-0.0733-0.41064-0.16013-0.81422-0.26172-1.2109-0.10158-0.39649-0.21722-0.78636-0.34375-1.168-0.37958-1.1448-0.86265-2.2214-1.4062-3.2207-0.18119-0.33325-0.36983-0.65858-0.5625-0.97461-0.38534-0.6315-0.79005-1.2279-1.2012-1.7852-0.82224-1.1146-1.6697-2.077-2.4336-2.8633-0.76391-0.78624-1.444-1.3978-1.9336-1.8125-0.48553-0.41139-0.77644-0.62343-0.78125-0.62696zm101.45 1.7734 2.9707 6.8828 1.8828-5.002-4.8535-1.8809zm-365.51 2.0293-4.9004 2.2773 2.3262 4.8516 2.5742-7.1289zm369.67 8.666 2.5742 7.0293 2.1777-4.752-4.752-2.2774zm-373.73 2.127-4.7539 2.5742 2.5742 4.6055 2.1797-7.1797zm377.24 8.8144 2.1797 7.1797 2.4746-4.752-4.6543-2.4277zm-31.789 2.0312-1.0898 0.29687 2.2773 8.3672 1.0898-0.24805c-0.396-1.3867-0.64319-3.1193 1.0898-3.6641 0.94104-0.14852 3.6645 0.0996 4.7539 0.0996l1.3359 0.14844 2.3281 8.2695-3.6641 2.4258c-0.396 0.396-1.3378 0.9412-1.9316 1.2383-1.733 0.396-1.8812-1.7837-2.2773-2.873l-1.0898 0.29687 2.5742 9.6055 1.0898-0.24805c-0.14847-0.84168-0.14784-1.6329 0.39648-2.4746 0.69336-1.0901 3.1197-2.6739 4.3574-3.5156l16.09-10.793-1.6328-2.873-19.508-0.93945c-2.4264-0.14832-5.3974-0.29674-6.1894-3.1191zm-348.82 0.14648-4.6055 2.8223 2.8223 4.457 1.7832-7.2793zm11.336 0.25-1.584 7.7227 1.0898 0.14844c0.49507-2.5747 1.5841-2.871 5.248-2.0293l12.328 2.5742-20.695 9.0606-1.2383 5.6934 1.2383 0.24804c0.49514-2.6741 1.435-2.9706 5.1484-2.1289l12.973 2.6738c3.6639 0.84168 4.4569 1.3375 3.9121 4.0606l1.0898 0.29688 1.6328-7.7246-1.1875-0.29688c-0.59415 2.7238-1.5358 2.8704-5.1504 2.1777l-14.506-3.1191 23.172-10.15 0.24609-1.0879-18.666-3.9121c-3.664-0.69336-4.5056-1.3354-3.9609-3.9102l-1.0898-0.29688zm348.57 4.6035 12.031 0.69336-10.002 6.7832-2.0293-7.4766zm23.568 4.0606 1.7832 7.3281 2.8223-4.457-4.6035-2.8711h-0.002zm-386.35 2.3262-4.3066 2.9707 3.0703 4.3066 1.2363-7.2773zm388.63 8.9121 1.3867 7.4766 2.9707-4.3574-4.3574-3.1191zm-390.81 2.3262-4.0605 3.3672 3.2676 4.0605 0.79297-7.4277zm383.38 2.0312c0.24768 2.6741-0.54476 3.2184-4.209 3.6641l-13.27 1.2871c-3.7627 0.29664-4.6039-0.0991-4.8516-2.8223l-1.2383 0.14844 0.8418 7.8242 1.0352-0.0996c-0.21339-2.723 0.74549-3.1247 4.3613-3.5156l14.756-1.5352-19.111 16.686 0.14844 1.0898 18.963-1.7832c3.6641-0.396 4.6039 0.002 4.8516 2.7246l1.0898-0.14844-0.69336-7.8242-1.0391 0.14844c0.24768 2.6741-0.69333 3.2191-4.3574 3.4668l-12.725 1.2383 17.18-14.756-0.54493-5.793h-1.1875zm-21.691 10.002c0.003 0.0362 0.00066 0.0626 0.004 0.0996v-0.0996h-0.004zm30.754-2.9707 0.79297 7.5762 3.416-4.209-4.209-3.3672zm-376.05 1.6348-5.9414 2.1289-0.8418 17.627 1.2383 0.14844c0.14846-2.723 0.94136-3.1201 4.7539-3.0215l13.27 0.54492c3.8124 0.29664 4.6036 0.69357 4.4551 3.3672l1.0898 0.14843 0.8418-18.121-6.2383-2.8223-0.44531 0.79102c4.1093 3.515 5.4468 4.6051 5.1992 10.15-0.14868 3.119-0.84308 3.4175-3.5664 3.2188l-7.8223-0.39648 0.14844-1.3359c-0.14861-2.723 0.24704-5.5454 4.5547-5.248v-0.99023l-9.7539-0.4961v0.89258c3.7135 0.44569 4.2085 2.6234 3.9609 5.8418v1.3359l-6.3867-0.2461c-3.2679-0.14832-3.7631-0.3962-3.6641-3.8125 0.29714-5.0011 1.5344-6.0408 5.5449-8.7637l-0.39648-0.94141zm-17.725 0.64258-4.0586 3.6621 3.6641 3.9121 0.39453-7.5742zm394.77 9.209 0.39648 7.4277 3.5156-3.9102-3.9121-3.5176zm-395.56 2.2773-3.8125 3.8125 3.8125 3.8125v-7.625zm395.81 9.2109v7.4766l3.6641-3.6641-3.6641-3.8125zm-395.96 2.3281-3.5156 4.0566 3.9121 3.5176-0.39648-7.5742zm36.539 3.1172-1.0391 0.0996v0.29688 0.19726l0.04883 0.24805v0.19922l-0.04883 0.19726v0.19727 0.19922l-0.05078 0.14843-0.04883 0.14844-0.04883 0.14844-0.05078 0.14844-0.04883 0.14843-0.09961 0.0996-0.09766 0.14844-0.09961 0.0977-0.09961 0.0996-0.14844 0.0996-0.09961 0.0996-0.14844 0.0488-0.14844 0.0996-0.19726 0.0488-0.19727 0.0996-0.19922 0.0488-0.19726 0.0488-0.24805 0.0508-0.19727 0.0488-0.29883 0.0488-0.24609 0.0508-0.29688 0.0488-0.29883 0.0488-0.29688 0.0508h-0.19726-0.14844l-13.32 1.4863c-3.6145 0.44568-4.5545-0.00042-4.8516-2.6738l-1.2383 0.0977 0.8418 7.3301 20.449 5.2969-18.814 9.457 0.79102 7.3281 1.0898-0.15039c-0.24754-2.723 0.54494-3.2681 4.3574-3.6641l13.125-1.52c3.8127-0.396 4.6039-0.00005 5 2.7227l1.0898-0.14844-0.79102-7.873-1.2383 0.14844c0.24761 2.723-0.54491 3.2681-4.209 3.6641l-16.488 1.7832v-0.14844l21.242-10.695-0.14844-1.2363-22.875-5.9414v-0.14844l16.24-1.7344c3.8127-0.44568 4.7524 0.00021 5 2.6738l1.0898-0.0996-1.0898-9.7539zm333.42 4.7031-6.7832 1.6367c0.39624 0.54504 0.792 1.4844 0.69336 2.1777-0.14832 1.337-1.3851 3.1207-1.6328 5.1504-0.54504 4.2084 1.8816 7.8224 6.2383 8.3672 5.2481 0.69321 6.8824-3.5143 8.7637-7.5742 0.94032-2.129 2.5735-5.1527 5.5449-4.707 2.4754 0.24768 4.2085 2.4272 3.8125 5.002-0.39601 3.3667-3.6639 5.5464-6.4863 6.7344l0.39649 1.0898 6.0898-1.4844c-0.39614-0.396-0.39648-1.0926-0.39648-1.7363 0.14868-0.69336 0.2484-0.93957 0.64453-1.7812 0.44553-0.94104 0.69332-1.4868 0.84179-2.5762 0.54432-4.2084-1.6354-7.426-5.8438-7.9707-9.0609-1.0894-6.8817 13.121-14.605 12.18-2.8224-0.396-4.2095-2.9682-3.9121-5.543 0.396-3.515 4.0598-6.0905 7.0312-7.873l-0.39649-1.0918zm25.551 1.3867-0.39648 7.4277 3.9609-3.5156-3.5645-3.9121zm-394.97 2.2774-3.418 4.209 4.209 3.2676-0.79102-7.4766zm69.377 3.9102c-2.039 0.0133-3.8276 0.19796-5.3965 0.51563-1.0462 0.21179-1.9958 0.4822-2.8555 0.80078-2.1498 0.79704-3.7449 1.8938-4.9277 3.1113-0.23655 0.24349-0.45749 0.49198-0.66211 0.74414-0.20463 0.25182-0.39341 0.5061-0.56836 0.76367-0.17495 0.25732-0.33684 0.51711-0.48438 0.77734-2.0654 3.6396-1.5527 7.4024-1.5527 7.4024 0.33267-0.16324 0.67103-0.316 1.0156-0.45899 0.68916-0.28594 1.4025-0.53231 2.1367-0.74023 0.73418-0.20799 1.49-0.37753 2.2656-0.51172 0.38784-0.0671 0.78022-0.12636 1.1777-0.17578 0.7951-0.0988 1.61-0.1621 2.4414-0.19336 1.6625-0.0625 3.3934 0.007 5.1797 0.18945 0.89352 0.0915 1.8 0.21084 2.7188 0.35743 0.91872 0.14658 1.8507 0.32001 2.791 0.51757 1.8821 0.39515 3.8041 0.88833 5.7539 1.4629 2.9239 0.86112 5.9061 1.9055 8.9023 3.0762 0.99864 0.39024 1.9999 0.79477 3 1.2109 0.99936 0.41634 1.9989 0.84277 2.9961 1.2812 2.9916 1.3147 5.9623 2.7211 8.8672 4.1582 5.8097 2.875 11.352 5.8824 16.246 8.5762 6.5246 3.5921 11.897 6.6261 15.215 8.0371 0.15318 0.15781 0.3367 0.3199 0.54882 0.48828s0.45244 0.34232 0.71875 0.52148c0.53263 0.35835 1.1699 0.73938 1.8906 1.1426 1.4422 0.80568 3.2217 1.7022 5.1894 2.6973 2.9513 1.4926 6.3223 3.2049 9.6016 5.1641 1.6394 0.97992 3.2559 2.021 4.7852 3.127 2.0398 1.4746 3.9237 3.062 5.502 4.7734 0.39454 0.4278 0.77148 0.86312 1.125 1.3066 2.4768 3.1025 3.899 6.5851 3.4512 10.486-0.1278 1.1146-0.40718 2.2636-0.85938 3.4473-0.22595 0.59195-0.49629 1.1909-0.81055 1.8008-1.0274 1.1016-2.0816 2.0981-3.1465 3.0176-0.53266 0.4598-1.0671 0.90066-1.6035 1.3262-3.2198 2.5531-6.4778 4.5558-9.377 6.8144-0.48324 0.37644-0.95645 0.75974-1.418 1.1543-0.92304 0.78912-1.799 1.6204-2.6133 2.5254-0.40694 0.45277-0.79747 0.92477-1.1719 1.418-1.1225 1.4796-2.0898 3.1569-2.8516 5.1348-0.24757 0.7704-0.46594 1.5174-0.65625 2.2402-0.95112 3.6158-1.1919 6.6586-0.76562 9.3398 0.17039 1.0728 0.44761 2.0868 0.82812 3.0566 0.19032 0.48507 0.40665 0.95871 0.64844 1.4238 0.48357 0.9288 1.0685 1.8206 1.7539 2.6875 1.0274 1.3003 2.2797 2.547 3.7441 3.7832 0.97632 0.8244 2.0474 1.6432 3.2109 2.4727 0.65297 0.26303 1.3122 0.49752 1.9746 0.70312 1.3241 0.4112 2.6634 0.70931 4.0098 0.90235 2.0196 0.28983 4.055 0.3421 6.0703 0.18554 1.3435-0.10435 2.678-0.30082 3.9941-0.58398 0.65838-0.14158 1.3122-0.30494 1.9609-0.48828 1.944-0.55004 3.8354-1.2832 5.6426-2.1738 1.2053-0.59376 2.3726-1.2574 3.4922-1.9824 0.55987-0.36278 1.1076-0.74237 1.6426-1.1348 0.53493-0.39279 1.0569-0.80022 1.5645-1.2207-0.55703-0.10522-1.2166-0.20505-1.9531-0.32227-0.73584-0.11719-1.5473-0.25093-2.4062-0.42578-0.42937-0.0874-0.87103-0.18648-1.3203-0.29687-0.89856-0.22078-1.8309-0.4933-2.7676-0.83985-0.46839-0.17344-0.93897-0.36461-1.4062-0.57812-1.4018-0.64059-2.7838-1.4736-4.0488-2.5781-0.42159-0.36801-0.8283-0.76598-1.2207-1.1973-1.373-1.5084-2.5446-3.419-3.3633-5.8555-0.11697-0.34802-0.22599-0.70614-0.32813-1.0762-0.94032-5.4713-1.8201-9.086-1.3125-12.311 0.2538-1.6121 0.85368-3.128 1.9668-4.7285 0.83448-1.2002 1.9572-2.4497 3.4375-3.8242 0.49347-0.45816 1.0282-0.92909 1.6035-1.418 0.69317-0.59418 1.4285-1.1308 2.1953-1.6348 1.5336-1.008 3.1908-1.8841 4.8828-2.8223 1.2686-0.70368 2.5551-1.4428 3.8223-2.2988 0.84528-0.57044 1.6816-1.1915 2.498-1.8906 0.40803-0.34933 0.81032-0.71873 1.207-1.1094 0.39648-0.3905 0.78564-0.80248 1.168-1.2402 1.1462-1.3133 2.222-2.8517 3.1875-4.6992 0.0588-0.73656 0.0339-1.4798-0.0645-2.2207-0.0491-0.37039-0.11577-0.73929-0.20117-1.1094-0.0854-0.37062-0.18897-0.74248-0.3086-1.1133-0.11962-0.37025-0.25637-0.74002-0.4082-1.1094-0.30367-0.73872-0.66923-1.4736-1.0898-2.2051-1.0512-1.8288-2.4408-3.6283-4.0449-5.3613-1.9246-2.0801-4.1572-4.0657-6.4785-5.8945-5.4158-4.2674-11.316-7.6827-14.934-9.459l-5.0996-2.4746-5.002-2.4277-4.9023-2.377-4.8027-2.377-4.8027-2.3262-4.7012-2.2774-9.4082-4.4551-9.4082-4.3574-4.8027-2.1309-4.8516-2.0781-4.9512-2.0293-5.0508-2.0312-5.1484-2.0273-5.2988-1.9297v-0.002c-0.98568-0.22127-1.9373-0.41548-2.8574-0.58594-3.6799-0.68183-6.8422-0.96917-9.5605-0.95117v-0.002zm324.55 5.1543-0.93946 7.623 4.209-3.418-3.2695-4.2051zm-392.84 2.4727-2.9707 4.3066 4.3086 2.9707-1.3379-7.2773zm359.12 6.1914-4.9024 17.477 5.5469 4.207 0.54297-0.69141c-3.2184-4.4561-4.3076-5.6945-2.8223-11.092 0.792-2.9714 1.6343-3.1191 4.209-2.4258l7.5762 2.1777-0.39649 1.3379c-0.54504 2.5747-1.4869 5.2963-5.6953 4.0586l-0.29687 0.94336 9.3574 2.5723 0.24805-0.79102c-3.3667-1.2377-3.3671-3.5167-2.5254-6.5371l0.39649-1.334 6.0898 1.6328c3.2184 0.94032 3.6658 1.1871 2.6758 4.6035-1.188 4.7534-2.6741 5.5454-7.2793 7.3281l0.24804 0.94336 6.0898-0.69336 4.7539-17.082-1.0898-0.39648c-0.69264 2.5747-1.7322 2.8727-5.2969 1.9316l-12.824-3.5664c-3.5158-1.0397-4.358-1.7319-3.5156-4.3066l-1.0898-0.29688zm31.938 2.7207-1.2383 7.4766 4.3574-3.0195-3.1191-4.457zm-389.17 2.4258-2.7246 4.5059 4.457 2.6738-1.7324-7.1797zm18.664 6.3887-5.0996 4.209 5.9414 18.518 6.6348 0.39649 0.15039-0.94141c-3.2679-0.54432-6.6367-2.4253-7.627-5.6934-0.79214-2.129 1.3875-2.4257 3.0215-2.9707l13.418-4.3086c3.6143-1.0894 4.6041-0.94142 5.5449 2.0293l1.041-0.39453-3.2188-9.9043-1.0898 0.24805 0.09961 0.29687 0.04883 0.24805 0.04883 0.24805 0.09961 0.24805v0.24609l0.04883 0.19922 0.05078 0.19726v0.19727 0.19922 0.14844l-0.05078 0.14843-0.04883 0.19727-0.04883 0.14844-0.05078 0.15039-0.04883 0.0977-0.09961 0.14844-0.09766 0.14844-0.09961 0.0996-0.14844 0.14844-0.14844 0.0996-0.14844 0.0977-0.14844 0.0996-0.19922 0.0996-0.19726 0.14844-0.19727 0.0996-0.24805 0.0976-0.19922 0.0996-0.29688 0.0996-0.24805 0.0977-0.29688 0.0996-0.29688 0.14843-0.3457 0.0996-13.518 4.3086c-1.634 0.54414-3.4169 1.5343-4.0605-0.64453-1.0893-3.2681 0.54462-6.7831 2.8223-9.0606l-0.69336-0.69336zm289.45 1.3164c-0.0466 0.0141-0.11337 0.0511-0.20312 0.11914-0.2091 0.15862-0.60822 0.56074-1.1328 1.1289l0.15234-0.0391 0.34766-0.0996 0.29687-0.0488 0.24609-0.0996h0.002s0.31458-0.5414 0.375-0.81445c0.0121-0.0546 0.0147-0.0983 0.002-0.125-0.0128-0.0267-0.0393-0.0356-0.0859-0.0215zm78.631 1.1094-1.6328 7.4766 4.4551-2.873-2.8223-4.6035zm-384.17 2.3262-2.5742 4.7031 4.752 2.5762-2.1777-7.2793zm347.33 8.3691-3.8125 8.8125 0.99024 0.54493c1.0894-2.4264 2.1285-2.5752 5.5449-1.0898l5.793 2.5762-0.94141 2.1777-13.814 1.4844-2.2774 5.1504 0.94141 0.54493c1.0894-2.5745 2.1792-2.4751 4.7539-2.7227l9.209-0.94141c-0.94104 3.1197 0.0001 6.8818 3.1191 8.3672 4.4565 1.9309 7.6749-2.1786 9.3086-5.793l3.9609-9.209-0.99023-0.39649c-1.3363 3.0701-3.1206 2.1294-5.6953 0.94141l-12.031-5.2988c-3.3666-1.4854-4.0601-2.2766-2.9707-4.752l-1.0879-0.39649zm33.867 0.39649-2.1777 7.3262 4.752-2.5742-2.5742-4.752zm-378.08 2.3262-2.1777 4.8516 4.752 2.1777-2.5742-7.0293zm38.471 2.1816-0.99023 0.49414c1.3864 2.4754 0.44502 3.1201-0.94141 5.2988l-5.0996 7.7227c-1.7825-2.7234-5.2986-4.456-8.418-2.8223-4.3572 2.129-3.2663 7.2792-1.3848 10.795l4.5059 8.9609 1.0879-0.54492c-1.4855-2.9714 0.2475-3.663 2.6738-5l11.785-5.9922c3.4165-1.7334 4.3567-1.733 5.5449 0.69336l0.99023-0.54492-4.3574-8.5156-1.0898 0.54492c1.2378 2.2774 0.69379 3.1185-2.5742 4.8516l-5.6934 2.873-1.0898-2.1777 7.625-11.637-2.5742-5zm315.35 6.334 6.0898 2.7227c2.4756 1.0894 3.4155 1.6343 2.3262 4.209-1.2377 2.6741-4.0587 4.7036-7.1777 3.5156-3.515-1.6343-3.5166-5.8418-2.0312-8.8125l0.79297-1.6348zm20.598 0.1504-2.5742 7.0293 4.7539-2.2773-2.1777-4.752h-0.002zm-370.65 2.1758-1.8828 5.002 4.9023 1.8809-3.0195-6.8828zm23.457 4.5527c2.4648 0.13922 4.554 2.1724 5.5566 4.5117l0.79102 1.6348-6.0898 3.0703c-2.2775 1.0886-3.2171 1.6333-4.6035-0.94141-1.3368-2.6739-1.2389-6.0909 1.7812-7.7246 0.87885-0.43326 1.7428-0.59719 2.5645-0.55078zm342.84 3.9648-2.9707 6.8828 5-2.0312-2.0293-4.8516zm-361.79 2.1777-1.6348 5.002 5 1.6328-3.3652-6.6348zm41.441 2.5762-0.8418 0.64453c0.39612 0.8424 0.69355 1.4847 0.39648 2.4258-0.24782 1.2384-2.0321 3.6646-2.8242 4.7539l-11.387 15.695 2.5742 2.1797 18.566-5.8438c2.4264-0.64368 5.2988-1.5846 6.8828 0.8418l0.99023-0.69141-5.0488-7.0312-0.94141 0.69336c0.8418 1.0894 1.6339 2.6741 0.29688 3.6641-0.84096 0.49464-3.5658 1.3364-4.6055 1.584l-1.2363 0.44531-5.002-7.0801 2.5742-3.5156c0.24739-0.54504 0.94176-1.4868 1.3379-1.7344 1.4854-1.0894 2.4259 0.94238 3.2676 1.7344l0.79297-0.64453-5.793-8.1211zm278.41 3.0723-0.54493 0.98828 11.24 15.398c0.94032 1.0894 2.5745 3.417 2.6738 4.9023 0.14832 0.94104-0.39709 1.6338-0.79297 2.4258l0.93945 0.69336 4.7559-7.0801-0.94336-0.64453c-0.84168 0.94032-1.6337 2.4274-2.9707 1.4863-0.84168-0.54432-2.3262-2.5763-3.0195-3.418l-7.5762-10.248 14.111 3.7617c0.64369 0.14904 2.1289 0.54495 2.8223 0.94141 1.2377 0.84168 0.24933 2.1781-0.39453 3.1191l0.93945 0.69336 5.8438-8.6641-0.99023-0.54493c-0.49464 0.792-1.1869 1.783-2.0293 2.1797-0.94104 0.3959-2.0322-0.00038-3.5176-0.39648l-20.547-5.5938zm37.086 2.4726-3.416 6.7344 5.0488-1.584-1.6328-5.1504zm-351.94 2.1289-1.3867 5.1484 5.1992 1.3867-3.8125-6.5352zm33.174 5.8457 4.4551 6.2383-11.486 3.5156 7.0312-9.7539zm313.22 2.1758-3.8125 6.4863 5.1484-1.3359-1.334-5.1484-0.002-0.002zm-41.047 0.54493-6.3379 7.4277 0.93945 0.69141 0.14844-0.19727 0.14843-0.14844 0.19922-0.19726 0.14844-0.14844 0.14844-0.0996 0.14844-0.14844 0.0996-0.0996 0.14844-0.0996 0.14844-0.0488 0.14844-0.0996 0.14843-0.0488 0.14844-0.0488h0.14844l0.14844-0.0508h0.14843 0.14844l0.14844 0.0508 0.14844 0.0488h0.14843l0.19922 0.0996 0.14844 0.0488 0.19727 0.0996 0.14843 0.0976 0.19922 0.0996 0.19727 0.14844 0.19726 0.14844 0.24805 0.14843 0.19727 0.14844 0.24804 0.19922 0.0996 0.0977 0.14844 0.0996 0.0996 0.0996 0.14844 0.0996 0.0996 0.0977 0.14843 0.14844-0.002 0.002 10.15 8.5156c2.8224 2.4264 3.269 3.3668 1.4863 5.3965l0.8418 0.8418 6.3379-7.4766-0.94141-0.79102c-1.782 2.178-2.7225 1.8814-5.5449-0.54492l-10.22-8.53c-2.8721-2.4761-3.269-3.4156-1.4863-5.4453l-0.83984-0.64453zm-299.7 1.4844-1.0391 5.248 5.2969 1.0898-4.2578-6.3379zm334.66 7.7246-4.0606 6.3379 5.1484-1.2383-1.0879-5.0996zm-328.37 2.0293-0.8418 5.248 5.2969 0.69336-4.4551-5.9414zm47.086 1.5879-0.64453 0.84179 0.14844 0.19727 0.14844 0.14844 0.14844 0.19726 0.14844 0.14844 0.09961 0.19922 0.09961 0.14844 0.09766 0.14843 0.09961 0.14844 0.04883 0.14844 0.05078 0.19726 0.04883 0.1504v0.14843 0.14844 0.14844 0.14844l-0.04883 0.14843-0.05078 0.14844-0.04883 0.14844-0.04883 0.14844-0.09961 0.14843-0.09961 0.19727-0.09766 0.14844-0.14844 0.19922-0.15039 0.14843-0.14844 0.19727-0.14844 0.19922-0.19727 0.19726-0.19726 0.19922-0.19922 0.19727-0.19727 0.24804-0.24805 0.19727-0.24805 0.24805-4.209 4.0605-2.0293-2.1797c-3.3669-3.5158-7.8224-6.0899-11.635-2.4258-3.2676 3.0695-2.1783 7.1796 0.54492 10.002l8.2676 8.416 0.79297-0.6914c-2.0297-2.0304-1.6352-2.9722 1.0879-5.5469l9.5078-9.209c2.6741-2.7238 3.6139-2.9711 5.5449-0.94141l0.79297-0.79101-6.7832-7.0801zm235.13 3.3691c-2.5049 0.0493-4.9922 1.0018-7.0723 3.0156-3.2681 3.119-3.6631 7.6754-2.1777 11.785l0.83984-0.14844c-0.84168-3.3667-0.84034-6.7846 1.7344-9.3594 4.2084-3.9118 10.596-0.93959 13.963 2.5762 3.1198 3.2681 6.2378 8.8126 2.1777 12.625-2.327 2.2774-6.7831 2.2769-9.7539 1.8809l-0.39648 0.79297 5.9414 2.8711c0.24768-0.84168 0.54486-1.5347 1.0898-2.0293 0.54432-0.59382 1.2372-0.84228 1.8809-1.2383 0.84168-0.29736 1.6357-0.69211 2.4277-1.4844 2.4754-2.4264 3.0188-5.9414 2.3262-9.0606-0.54504-3.119-1.9315-5.9421-4.0606-8.2695-2.4509-2.5906-5.6995-4.0204-8.9199-3.957zm39.521 2.3223-4.457 6.0898 5.248-0.79102-0.79102-5.2988zm-288.29 1.0859c2.0453 0.047 3.9597 1.5701 5.8164 3.5195l0.93945 0.94141-4.9004 4.6035c-2.0297 1.9315-3.119 2.872-5.248 0.54493-2.4263-2.4266-3.1213-5.2467-0.44727-7.8711 1.3367-1.2625 2.6126-1.7665 3.8398-1.7383zm-26.713 0.94336-0.49414 5.2969 5.248 0.39648-4.7539-5.6934zm52.828 4.3613-5.8418 3.5137 0.39649 0.79102c5.2978-1.1887 6.9322-1.732 11.24 1.6348 2.4754 1.8814 2.327 2.7225 0.69336 4.8516l-4.8535 6.1387-1.0879-0.8418c-2.1787-1.4861-4.3578-3.5133-1.6348-6.9297l-0.79102-0.49414-5.9902 7.5762 0.69141 0.69336c2.4264-2.8721 4.4565-1.931 7.0313 0l1.0898 0.89063-3.9121 5.0508c-2.0304 2.525-2.4744 2.821-5.1484 0.64258-3.9118-2.9707-4.0605-4.6044-4.0605-9.6055l-0.94141-0.14844-1.6328 6.0898 13.912 10.844 0.69336-0.94336c-2.178-1.6337-1.8821-2.5742 0.29687-5.5449l8.2188-10.447c2.327-2.9707 3.1182-3.3642 5.2969-1.7305l0.69336-0.8418-14.359-11.189zm255 2.6699-4.9023 5.6953 5.2988-0.39648-0.39649-5.2988zm-300.64 1.9316-0.09961 5.248 5.3984 0.14844-5.2988-5.3965zm250.14 0.24805-14.656 10.547 1.7832 6.7832 0.79101-0.29883c0.29736-5.3964 0.15098-7.1784 4.6074-10.396 2.5747-1.733 3.2687-1.338 4.9023 0.79102l4.5547 6.3887-1.1875 0.79102c-2.0297 1.6337-4.4565 3.2674-7.0312-0.24805l-0.8418 0.54492 5.8438 7.8242 0.69141-0.54492c-1.931-3.119-0.5453-4.853 2.0293-6.7344l1.2363-0.83789 3.6152 5.1484c1.931 2.723 2.1787 3.2692-0.69336 5.2988-4.0601 2.9707-5.6448 2.5723-10.398 1.1856l-0.39453 0.84179 5.3965 3.3652 14.359-10.396-0.64453-0.98828c-2.1787 1.6834-3.1182 1.0899-5.2969-1.8809l-7.8711-10.695c-2.1787-3.0701-2.2781-4.0605-0.0996-5.6445l-0.69336-0.8418-0.002-0.002zm42.781 6.3359-5.1484 5.4473 5.2969-0.14844-0.14843-5.2988zm-285.07 1.78 0.148 5.3 5.397-0.15-5.545-5.15zm61.635 6.1836c-4.1318 0.0388-7.8644 2.2045-10.34 6.6914-1.8814 3.3669-2.4266 7.1796-0.79297 10.695 1.7827 3.5158 4.2084 5.001 6.6348 6.4863l8.1211 4.457 0.54297-0.94141c-2.2778-1.3363-2.276-2.4253-0.54297-5.6934l6.5352-11.488c1.8821-3.2677 2.673-3.7622 5-2.5742l0.54492-0.94141-8.0215-4.5059c-2.5808-1.4668-5.2026-2.2088-7.6816-2.1856zm215.29 0.1543-5.4473 5.1504 5.2988 0.14844 0.14843-5.2969v-0.002zm-57.832 0.8457c-0.14885 0.69296-0.69469 1.4832-1.3379 1.8789-1.2377 0.69264-3.2671 0.69162-5.1484 1.6328-3.6641 2.0304-5.2992 6.0919-3.2695 9.9043 2.4264 4.7038 6.9321 3.7627 11.24 2.9707 2.4257-0.54504 5.8426-0.94105 7.1797 1.584 1.2377 2.327 0.39453 4.9029-1.8828 6.1406-3.0204 1.584-6.6341 0.0986-9.3574-1.3867l-0.69336 0.83985h0.002l4.7539 4.1602c0.14832-0.54504 0.69169-1.0883 1.2363-1.3359 0.64368-0.24756 0.94237-0.24599 1.7344-0.39453 1.0894-0.29694 1.7816-0.29718 2.7227-0.84179 3.6641-2.0297 5.0005-5.6448 3.1191-9.457-4.3567-7.9711-14.607 2.029-18.42-4.8535-1.2384-2.5747-0.00003-5.149 2.2773-6.3867 3.1198-1.733 7.3282-0.24743 10.447 1.0898l0.69336-0.79101-5.2969-4.7539zm-155.07 0.60352c1.3136 0.0379 2.7158 0.43371 4.2012 1.2754l0.24609 0.14844 0.19922 0.0996 0.19726 0.14843 0.19922 0.0996 0.14844 0.14844 0.14844 0.0977 0.14843 0.14843 0.0977 0.0996 0.15039 0.14844 0.0977 0.14844 0.0508 0.0996 0.0977 0.14843 0.0508 0.14844 0.0488 0.14844 0.0488 0.14844v0.14844 0.14843 0.19922 0.14844l-0.0488 0.19726v0.19922l-0.0488 0.19727-0.0996 0.19726-0.0488 0.19922-0.0996 0.24805-0.0996 0.19727-0.0996 0.24804-0.0977 0.2461-0.14843 0.29882-0.14844 0.2461-0.14844 0.29687-0.14843 0.29883-6.6348 11.932c-1.733 3.0694-2.4769 3.5147-5.002 2.0293-6.1394-3.2679-5.5449-8.6651-2.5742-13.963 2.2281-3.9732 5.3755-7.0825 9.3164-6.9688zm-55.76 0.18359v0.002l0.54688 5.2969 5.248-0.39648-5.7949-4.9024zm259.99 5.9922-5.6934 4.8535 5.2969 0.39453 0.39649-5.248zm-251.18 1.584 0.64453 5.2969 5.2969-0.79102-5.9414-4.5059zm242.12 5.4473-5.9902 4.457 5.2969 0.79102 0.69336-5.248zm-233.06 1.4863 1.0898 5.248 5.248-1.0391-6.3379-4.209zm79.318 0.93945-0.24805 1.0879c2.4257 0.54504 2.7245 1.6346 1.8828 5.1504l-2.2773 11.24c-1.0894 5.1494 1.7332 8.5161 6.7344 9.6055 5.8428 1.188 9.2076-1.0908 10.445-6.9336l2.1797-10.248c0.64369-3.6634 1.3375-4.506 4.0606-3.9609l0.14844-1.0898-7.625-1.584-0.0996 1.0391 0.19727 0.0508 0.19921 0.0977 0.19727 0.0508 0.19922 0.0488 0.19726 0.0996 0.14844 0.0488 0.14844 0.0996 0.14844 0.0488 0.0996 0.0996 0.14843 0.0996 0.0996 0.0977 0.0977 0.14844 0.0508 0.0996 0.0977 0.0996 0.0508 0.14844 0.0488 0.14844 0.0508 0.14844 0.0488 0.19726 0.0488 0.14844v0.19922 0.19726 0.19922 0.19727 0.24805l-0.0488 0.24804v0.2461l-0.0488 0.24804-0.0508 0.29688-0.0488 0.29687-0.0508 0.29688-0.0977 0.29883-0.0508 0.3457h0.002l-1.8828 8.9609c-0.94104 4.4561-2.4271 8.5169-7.873 7.2793-5.2985-1.0894-5.2974-5.1495-4.3066-9.6055l2.0293-9.2109c0.64368-3.6641 1.3375-4.4545 4.0606-3.9102l0.24804-1.0898-9.3594-2.0293zm60.406 1.4844-2.9707 1.2383-4.0605 18.914c-0.396 2.4754-1.0889 5.4458-3.9609 5.6934l0.19922 1.2383 8.6641-1.0898-0.14844-1.0898c-1.4861 0.14904-3.2682 0.14991-3.3672-1.6328-0.14904-0.94104 0.49579-3.6138 0.79296-4.7031l0.2461-1.2383 8.5664-1.0898 1.8809 3.9121c0.24768 0.54504 0.69399 1.635 0.79297 2.1797 0.14832 1.7823-2.0298 1.6333-3.1191 1.8809l0.14844 1.0898 9.9023-1.1894-0.14843-1.0879c-0.792 0-1.6335-0.14863-2.2774-0.69336-0.99-0.792-2.1781-3.5165-2.8711-4.8535l-8.2695-17.477v-0.002zm-78.379 1.3379c-1.4854 0-2.5742 1.2373-2.5742 2.7226 0 1.4854 1.0889 2.5762 2.5742 2.5762h0.14844 0.0996l0.14844-0.0508h0.14843l0.0996-0.0488h0.14844l0.14844-0.0508 0.0977-0.0488 0.0996-0.0488 0.14844-0.0508 0.0996-0.0488 0.0996-0.0996 0.0977-0.0488 0.0996-0.0488 0.0996-0.0996 0.0977-0.0996 0.0996-0.0488 0.0996-0.0996 0.0996-0.0996 0.0488-0.0977 0.0488-0.0996 0.0996-0.14844 0.0488-0.0996 0.0508-0.0976 0.0488-0.14844 0.0488-0.0996 0.0508-0.14844v-0.0996l0.0488-0.14843v-0.0996-0.14844-0.14844c0-1.4854-1.1885-2.7226-2.6738-2.7226zm105.37 0c-0.38376 0-0.74662 0.0775-1.0742 0.21679-0.81792 0.34811-1.4186 1.083-1.5957 1.9629-0.0355 0.17599-0.0547 0.3573-0.0547 0.54297s0.0192 0.36516 0.0547 0.53711 0.0886 0.33669 0.15625 0.49219c0.0677 0.1555 0.14951 0.30309 0.2461 0.43945 0.0966 0.13635 0.20786 0.26245 0.33008 0.37696 0.12222 0.1145 0.25581 0.21669 0.40039 0.30664 0.14455 0.0899 0.29927 0.16585 0.46289 0.22851 0.16362 0.0627 0.33623 0.11184 0.51562 0.14453 0.17877 0.0326 0.36548 0.0507 0.55664 0.0508h0.002 0.0976 0.14844l0.14844-0.0508h0.0996l0.14843-0.0488h0.14844l0.0996-0.0508 0.14844-0.0488 0.0996-0.0488 0.14843-0.0508 0.0977-0.0488 0.0996-0.0996 0.0996-0.0488 0.0977-0.0488 0.0996-0.0996 0.0996-0.0996 0.0996-0.0488 0.0977-0.0996 0.0488-0.0996 0.0996-0.0977 0.0508-0.0996 0.0977-0.14844 0.0508-0.0996 0.0488-0.0976 0.0488-0.14844 0.0508-0.0996v-0.14844l0.0488-0.0996 0.0488-0.14843v-0.0996-0.14844-0.14844c0-1.4854-1.1872-2.7207-2.6719-2.7207v-0.002zm-52.832 0.99023c-4.2091 0.0986-7.1776 2.8248-7.0293 7.0332 0.099 9.0608 13.912 4.8521 14.061 12.725 0 2.8217-2.4253 4.6035-5 4.6035-3.515 0.0986-6.6363-3.1207-8.666-5.8438l-1.0879 0.54492 2.5742 6.4883c0.54432-0.3963 1.3359-0.9414 2.0293-0.9414 1.337 0 3.2178 0.94115 5.3965 0.84179 4.2091 0 7.4766-3.0204 7.4766-7.3281-0.14825-5.2978-4.4554-6.3857-8.8125-7.7227-2.3278-0.69336-5.5449-1.7832-5.5449-4.7539 0-2.4264 1.8804-4.457 4.4551-4.457 3.3667-0.14832 5.9422 2.8734 7.7246 5.3984l0.9414-0.39648-2.3281-5.9414c-0.396 0.39594-1.0391 0.69336-1.7324 0.69336-0.69336 0-0.94081-0.14825-1.7832-0.44531-1.0886-0.24764-1.5845-0.4961-2.6738-0.4961v-0.002zm109.67 0.39649-6.2383 4.0625 5.2969 1.0898 0.9414-5.1504v-0.002zm-85.561 1.1875 5 10.844-7.5742 0.94141 2.5742-11.785zm-128.39 0.14843 1.3379 5.1504 5.1484-1.3379-6.4863-3.8125zm204.19 4.6055-6.4863 3.8125 5.1484 1.3379 1.3379-5.1504zm-194.34 1.2383 1.6348 5.1484 5.0488-1.7812-6.6836-3.3672zm184.19 4.1582-6.7832 3.418 5.1484 1.6328 1.6348-5.0508zm-173.99 1.2383 2.0312 4.8516 4.8516-2.0293-6.8828-2.8223zm163.54 3.5156-6.8828 2.9707 4.8516 2.0312 2.0312-5.002zm-153 1.0898 2.1777 4.8516 4.8535-2.2774-7.0312-2.5742zm142.3 3.1191-7.0312 2.5742 4.7539 2.2773 2.2774-4.8516zm-131.6 0.9414 2.5723 4.752 4.6035-2.5723-7.1758-2.1797zm120.66 2.7227-7.1777 2.1289 4.6035 2.4746 2.5742-4.6035zm-109.67 0.79101 2.8223 4.457 4.4551-2.8223-7.2773-1.6348zm98.58 2.0312-7.3281 1.7812 4.4551 2.8223 2.873-4.6035zm-87.342 0.69336 2.9707 4.3066 4.457-2.9707-7.4277-1.3359zm76.102 1.6328-7.4766 1.3379 4.3574 2.9707 3.1191-4.3086zm-64.861 0.54492 3.3672 4.1602 4.0586-3.2168-7.4258-0.94336zm53.326 1.0391-7.4766 0.99024 4.2578 3.2187 3.2188-4.209zm-41.84 0.44727 3.5156 3.9102 3.9121-3.5156-7.4277-0.39453zm30.451 0.54297-7.5762 0.39648 4.0606 3.5156 3.5156-3.9102v-0.002zm-19.062 0.24804 3.7637 3.8125 3.8125-3.8125h-7.5762z" transform="scale(.0013889)" fill="#fefc01"/>
 </g>
</svg>