<?xml version="1.0" encoding="UTF-8" standalone="no"?>
<svg xmlns:rdf="http://www.w3.org/1999/02/22-rdf-syntax-ns#" xmlns="http://www.w3.org/2000/svg" height="365" width="365" version="1.1" preserveAspectRatio="none" xmlns:cc="http://creativecommons.org/ns#" xmlns:dc="http://purl.org/dc/elements/1.1/" viewBox="0 0 0.50694445 0.50694445">
 <g stroke-miterlimit="10.433">
  <circle opacity="0.99" stroke-linejoin="round" stroke-width=".0027779" fill-rule="evenodd" stroke="#000" cy=".25418" cx=".25369" r=".24861" fill="#fff"/>
  <path d="m0.28215 0.2296v0.17332h0.015667v-0.17332h-0.015667zm-0.16583 0.00055339-0.005195 0.015923h-0.017966l0.014433 0.011026-0.005705 0.017839 0.014433-0.011026 0.01456 0.010643-0.005322-0.017456 0.014305-0.011026h-0.018095l-0.005448-0.015923zm0.098261 0.00093723v0.17277h0.015667v-0.17277h-0.015667zm-0.022225 0.018519v0.15331h0.01554v-0.15331h-0.01554zm0.11282 0v0.15331h0.015668v-0.15331h-0.015668zm0.022352 0.017711v0.12742h0.015667v-0.12742h-0.015667zm-0.15778 0.00016955v0.12738h0.015667v-0.12738h-0.015667zm0.067821 0.006769v0.1284h0.015709v-0.1284h-0.015709zm0.022096 0v0.1284h0.015369v-0.1284h-0.015369z" stroke-width="0" fill="#1ea271"/>
  <path d="m0.23583 0.023543-0.020563 0.0027249 0.004045 0.029461 0.020989-0.0027249-0.00038384-0.0032783-0.017327 0.0021715-0.001065-0.01009 0.015795-0.002044-0.00055338-0.0034058-0.015922 0.0021715-0.001236-0.0095364 0.016604-0.0021715-0.00038249-0.0032783zm0.014433 0.0001275-0.00038384 0.029717h0.003917l0.0002984-0.023416 0.01456 0.023842h0.004513l0.00042588-0.029717h-0.003832l-0.00042589 0.023969-0.014305-0.024395h-0.004768zm0.032142 0.00068088-0.00050999 0.0031508 0.009664 0.0016181-0.003959 0.02631 0.003959 0.00068224 0.004216-0.026141 0.009153 0.0013618 0.00051134-0.0032783-0.023033-0.0037042zm-0.080252 0.0039605-0.005577 0.0016602-0.00080838 0.02631-0.014986-0.021543-0.005706 0.0014906 0.008431 0.028482 0.004087-0.0011068-0.006812-0.022351 0.014433 0.020052 0.003661-0.0011068 0.00097927-0.024906 0.006812 0.022735 0.003959-0.0013618-0.008472-0.028354zm0.12606 0.0074924-0.002299 0.0002984-0.001405 0.00038249-0.001873 0.00097927-0.00166 0.0010647-0.001618 0.0012343-0.001788 0.002044-0.001107 0.0016181-0.00093722 0.0022135-0.00080838 0.0034058-0.00012885 0.0017456-0.0001275 0.0031508 0.00038385 0.0031508 0.00068088 0.0020426 0.001362 0.0021715 0.00080974 0.0011922 0.001107 0.00085178 0.001107 0.00093587 0.001363 0.00068224 0.002299 0.00080838 0.001915 0.00055338 0.002299 0.0002984h0.002597l0.002171-0.00042589 0.003406-0.0014906 0.002725-0.0020426 0.001788-0.0024699 0.001234-0.0019165 0.00068224-0.0011909 0.00025499-0.00080974 0.0002984-0.00085178 0.00050998-0.0037883 0.0001709-0.001789-0.0001709-0.002596-0.00025499-0.0013631-0.00080838-0.0021715-0.00097927-0.0019151-0.001746-0.0017877-0.001533-0.0013197-0.001618-0.00097928-0.002852-0.0013631-0.003278-0.00055339h-0.002171zm-0.16174 0.0025974-0.021288 0.0098348 0.001533 0.0029799 0.009112-0.0042155 0.011324 0.023969 0.003662-0.0017877-0.011325-0.023969 0.008473-0.0039592-0.001491-0.0028524zm0.16131 0.0011068h0.002896l0.001873 0.00025499 0.001533 0.00068089 0.00093588 0.00042589 0.001236 0.00093723 0.001617 0.0019151 0.001107 0.0021715 0.00038385 0.00093723 0.00029839 0.002341-0.00029839 0.0035346-0.00068089 0.0017876-0.00080973 0.0021715-0.001234 0.0019152-0.001362 0.0016181-0.002299 0.0017877-0.001491 0.00080973-0.001107 0.000255-0.002171 0.00029839h-0.001107l-0.002044-0.00055339-0.00055339-0.00029839-0.001746-0.00093723-0.001489-0.0010634-0.00097928-0.00085178-0.00080973-0.0013631-0.00068088-0.0011909-0.0001275-0.0011081-0.00042589-0.0014893v-0.0038316l0.00042589-0.002044 0.00055339-0.0014892 0.00068088-0.0012356 0.001065-0.0019152 0.001234-0.0014906 0.001788-0.0013618 0.00093723-0.00068223 0.001491-0.00068089 0.001362-0.00025499zm0.027546 0.0073229-0.01405 0.026183 0.003407 0.0016602 0.0063-0.01175 0.012518 0.0068115 0.001617-0.0031074-0.012516-0.006684 0.004598-0.008473 0.014049 0.0076633 0.001618-0.0028524-0.01754-0.009451zm-0.21968 0.0072374-0.002001 0.00042589-0.00166 0.00093587-0.012687 0.0079197 0.015965 0.025076 0.003235-0.0019165-0.007067-0.010898 0.00843-0.0051948 0.002214-0.00068088h0.00093723l0.00093588 0.00012749 0.00097927 0.00055339 0.001234 0.0011068 0.004215 0.0057061 0.00068088 0.00068088 0.00042589 0.00042589 0.004087-0.0027249-0.00068088-0.00080974h-0.00080838l-0.00055339-0.00029704-0.001363-0.00093723-0.001788-0.0028524-0.001491-0.002341-0.001788-0.0016181-0.002044-0.00068088-0.001788-0.00012749 0.00085178-0.0015327 0.0001275-0.0016181v-0.00093722l-0.0001275-0.0016602-0.00017089-0.00080838-0.001065-0.0019165-0.001234-0.0011922-0.002725-0.0016601-0.001746-0.00055339h-0.001533zm0.00055339 0.0040866 0.001107 0.00012749 0.00093723 0.00042589 0.00068088 0.00068224 0.00055339 0.00055339 0.00080973 0.0011922 0.00025499 0.00085042v0.002044l-0.00051134 0.0016181-0.00068088 0.00068088-0.00055338 0.00068089-0.00042589 0.00012749-0.008557 0.0054932-0.005322-0.0083456 0.007749-0.0050239 0.001533-0.00068088 0.001363-0.0002984 0.001063-0.00012749zm0.25183 0.0068129-0.017584 0.024011 0.003278 0.002299 0.007621-0.010771 0.012261 0.0088555-0.007876 0.010771 0.003235 0.002299 0.017456-0.023969-0.003151-0.002299-0.007494 0.010048-0.011963-0.0088135 0.007195-0.01009-0.00298-0.002341zm-0.28806 0.013368-0.0037042 0.0029799 0.010388 0.029845 0.003535-0.002981-0.003278-0.0085992 0.008727-0.0069404 0.008175 0.0046414 0.003406-0.0028524-0.027247-0.016093zm0.0014906 0.0053209 0.011197 0.0069404-0.00711 0.0057468-0.004087-0.012687zm0.12879 0.0080472-0.015667 0.011708v0.11989h0.015667v-0.1316zm0.051898 0.0014906v0.1304h0.015795v-0.1187l-0.015795-0.011708zm0.13505 0.00093587-0.002044 0.00029839-0.001915 0.00055339-0.00247 0.0010647-0.00038248 0.00029704-0.00068089 0.00051133-0.001789 0.0015327-0.001915 0.0020006-0.001065 0.001236-0.001915 0.003406-0.00068224 0.001362-0.00042589 0.00166-0.00025499 0.001236v0.002043l0.0001275 0.001491 0.00029839 0.001234 0.00080838 0.002044 0.00068224 0.001362 0.001063 0.001192 0.00097927 0.001107 0.001491 0.001363 0.001362 0.001063 0.002852 0.001363 0.002854 0.00097927 0.002214 0.0001275 0.002171-0.00025499 0.00217-0.00042589 0.00068224-0.00042589 0.002596-0.001192 0.002299-0.00166 0.001236-0.001363 0.001915-0.002299 0.001065-0.001489 0.001107-0.002342 0.00042589-0.001489 0.00051134-0.002044v-0.001618l-0.00025635-0.002043-0.00042589-0.001236-0.00068088-0.001915-0.00055339-0.001234-0.001065-0.001491-0.001617-0.0017456-0.00247-0.0022135-0.002171-0.00093723-0.001915-0.00068089-0.002172-0.00042589h-0.002044zm-0.33523 0.0016602-0.0021715 0.00055339-0.0010647 0.00068223-0.0014906 0.0014893l-0.008775 0.010475 0.023033 0.01907 0.002341-0.00298-0.009834-0.00804 0.006556-0.00805 0.000937-0.00111 0.000426-0.00149 0.000255-0.00136-0.000127-0.00124-0.000384-0.00123-0.000979-0.00217-0.001362-0.001875-0.00093723-0.00080837-0.0016602-0.0011068-0.0021715-0.00068224-0.0014893-0.0001275h-0.0011068zm0.33536 0.0021715h0.002171l0.002597 0.00055338 0.002044 0.0010647 0.001107 0.00097927 0.00038249 0.000255 0.001363 0.001618 0.00097927 0.001915 0.00038249 0.001363 0.00029839 0.001915v0.001491l-0.00055338 0.002044-0.00025635 0.001234-0.001107 0.001917-0.00093588 0.001063-0.002597 0.002342-0.001788 0.001489-0.002597 0.00093723-0.002426 0.00055339h-0.001789l-0.00217-0.000255-0.002044-0.00080973-0.001107-0.001107-0.00080973-0.00080837-0.00042589-0.00025635-0.001191-0.001788-0.00068224-0.001618-0.00055339-0.00166v-0.003278l0.00055339-0.001234 0.001065-0.002852 0.002044-0.002725 0.002341-0.001917 0.002426-0.0014893 0.001789-0.00051133 0.001489-0.00042589zm-0.33438 0.0017456 0.0011909 0.00029839 0.0011081 0.00055338 0.00068088 0.0001275 0.00093588 0.001065 0.00085178 0.001489 0.00025499 0.00097927v0.001236l-0.0001275 0.001617v0.00012885l-0.0064277 0.007791-0.0074517-0.006429 0.0058336-0.007195 0.00055338-0.00055338 0.00025499-0.000255 0.00068089-0.00042588 0.0016615-0.00042589zm0.12427 0.0081746-0.015412 0.01175v0.12304h0.015412v-0.13479zm0.097538 0.00016954v0.13475h0.01554v-0.12304l-0.01554-0.011708zm-0.24595 0.010346-0.0097928 0.018137 0.026013 0.014007 0.010219-0.018521-0.0031508-0.001362-0.0081326 0.014986-0.0088976-0.004769 0.0077908-0.013879-0.0031494-0.001788-0.0076213 0.014007-0.0083022-0.004598 0.0080472-0.014602-0.0030233-0.001618zm0.38768 0.00080838-0.017456 0.012006-0.00093587 0.00080838-0.001236 0.001917-0.001063 0.001915-0.00042589 0.001873v0.002215l0.000255 0.002001 0.001234 0.002767 0.001789 0.002725 0.002299 0.002044 0.002469 0.001618 0.001873 0.00055338 0.002044 0.000255 0.001789-0.000255 0.00097793-0.00025634 0.002044-0.001107 0.017285-0.012005-0.002171-0.003278-0.017455 0.011878-0.002171 0.00093723-0.001917 0.00012749-0.00068087-0.00012749-0.001788-0.00055338-0.001192-0.00093723-0.00097928-0.00080839-0.001192-0.00166-0.00068088-0.001236-0.00042589-0.001192-0.0001275-0.002214 0.00038249-0.001746 0.00042589-0.00080837 0.001192-0.001491 0.00085179-0.00055339 0.017413-0.011877-0.002426-0.003535zm-0.26217 0.004769-0.015412 0.011708v0.12606h0.015412v-0.13777zm0.14335 0.001107v0.13734h0.01554v-0.12576l-0.01554-0.01158zm-0.28001 0.024395-0.002044 0.00038249-0.0019151 0.00055338-0.0014906 0.00068224-0.0015327 0.00097927-0.0016181 0.001617-0.0010634 0.001789-0.00085178 0.00132-0.004343 0.011069 0.028057 0.010601 0.0042141-0.011027 0.00068088-0.003151v-0.002043l-0.00038249-0.002044-0.00042589-0.001192-0.0011068-0.00166-0.0013631-0.001491-0.0031074-0.002725-0.0047689-0.002426-0.0024685-0.00068088-0.002299-0.00055338h-0.0021715zm0.20631 0.00068088-0.001788 0.0001275-0.001362 0.00012749-0.001789 0.00068224-0.001489 0.00080838-0.001618 0.001234-0.001917 0.001789-0.00080837 0.001362-0.00085178 0.001491-0.00050999 0.001618-0.00042589 0.001489-0.00012885 0.002044h0.008856l-0.012261 0.013666v0.089491h0.03555v-0.09426l-0.009238-0.014859-0.00068088-0.001234-0.00097928-0.001491-0.001236-0.001489-0.001362-0.00097928-0.001618-0.00068088-0.00097928-0.00055339-0.001618-0.00025634-0.001746-0.0001275zm0.20576 0.001234-0.001917 0.00051134-0.002043 0.001107-0.00085178 0.00055338-0.00093723 0.001363-0.00068088 0.001489-0.00042589 0.002426 0.00012749 0.001789 0.001917 0.007918 0.00042589 0.001491-0.00025635 0.002171-0.00042453 0.001107-0.00080974 0.001063-0.00085178 0.00055473-0.00068088 0.00029704-0.001192 0.0001275h-0.00097927l-0.001873-0.00080838-0.001362-0.001107-0.001533-0.001618-0.00080973-0.00166-0.00038249-0.001491-0.0002984-0.001915v-0.001363l0.00055339-0.002043 0.00093723-0.001107 0.001533-0.001618 0.00080838-0.00042589-0.001788-0.003406-0.001192 0.00068088-0.00097928 0.00068088-0.001618 0.00166-0.00068088 0.00080973-0.00085178 0.002043-0.00051134 0.002171v0.001107l0.00025634 0.002044 0.00068089 0.002171 0.00080837 0.002214 0.001236 0.001873 0.001362 0.00166 0.001788 0.001491 0.001746 0.001065 0.001917 0.00068087 0.001915 0.0004259 0.001065-0.0002984 0.002044-0.00050998 0.001107-0.00055474 0.001491-0.001107 0.00080837-0.001362 0.00085178-0.001491 0.00025499-0.002426-0.00012749-0.003151-0.001917-0.008727v-0.001917l0.00025635-0.001065 0.00068088-0.001107 0.00068089-0.0001275 0.001234-0.00055339h0.001108l0.001107 0.0002984 0.001617 0.00093587 0.00093723 0.00080974 0.001107 0.001362 0.00080973 0.001917 0.00068089 0.002426-0.00025635 0.001788-0.00029704 0.001107-0.00025635 0.00038384-0.00068088 0.00085178-0.00093587 0.00080838-0.00055339 0.00025499 0.001873 0.003577 0.001234-0.00085177 0.001107-0.00080839 0.00093723-0.001107 0.00055338-0.001065 0.00055339-0.001362 0.0001275-0.002725-0.0001275-0.001533-0.00042589-0.001618-0.001065-0.002852-0.00068088-0.001107-0.001917-0.002428-0.001107-0.001107-0.001489-0.00093587-0.001236-0.00055339-0.002299-0.00025634h-0.00093588zm-0.41208 0.002725h0.0019165l0.0021701 0.00038384 0.0038316 0.001362 0.0017456 0.00093723 0.0016181 0.001234 0.0019165 0.002044 0.00068088 0.001362 0.00055339 0.001491v0.00085178l-0.000255 0.001489-0.0032783 0.008175-0.020989-0.007791 0.0027249-0.007323 0.00093587-0.00166 0.0013631-0.001192 0.0013618-0.00085179 0.0016602-0.00038384 0.002044-0.00012749zm0.43196 0.027631-0.028653 0.008344 0.00097928 0.003533 0.028609-0.008344-0.00093587-0.003533zm-0.43004 0.01158-0.00097928 0.004385 0.0042141 0.001192 0.0012343-0.00447-0.0044691-0.001107zm-0.019926 0.002341-0.0017456 0.00038385-0.0016602 0.00068088-0.0016168 0.001489-0.001789 0.002597-0.0012343 0.003151-0.00012749 0.00055339-0.00025635 0.002044-0.0001275 0.001617 0.0001275 0.002342 0.00025635 0.001362 0.0011068 0.001873 0.0012343 0.001363 0.002044 0.001234 0.00050998 0.00025499 0.0022149 0.00055339h0.0020426l0.0014906-0.00055339 0.0012343-0.00093587 0.0013631-0.001107 0.0010634-0.00132 0.0027683-0.005621 0.00068088-0.001746 0.0013197-0.001915 0.0016602-0.001107 0.0011922-0.00055339h0.00055338l0.0016602 0.00029704 0.0010647 0.00055339 0.00080838 0.00080973 0.00068223 0.001107 0.00042589 0.001065 0.0001275 0.002043-0.0001275 0.001236v0.001489l-0.00080973 0.002044-0.00068088 0.001107-0.00080838 0.001065-0.001789 0.001234-0.0011068 0.00055339-0.0014906 0.00025499h-0.0013618l-0.00080838-0.00025499-0.00080973 0.003662 0.002299 0.00055338h0.0013631l0.0019151-0.00055338 0.0011068-0.00038385 0.0018731-0.001234 0.0016615-0.001491 0.00055338-0.00085179 0.0014893-0.00298 0.00093723-0.003278 0.00016955-0.002171-0.00016955-0.002299-0.00038384-0.002043-0.00097928-0.001789-0.0011909-0.001617-0.0015327-0.001405-0.0010647-0.00068087-0.002044-0.00063884h-0.0019151l-0.00080973 0.00038248-0.0021715 0.00080974-0.00080838 0.00042453-0.0016601 0.001618-0.00093723 0.001363-0.0030219 0.006003-0.0016181 0.002596-0.0012343 0.001491-0.00055474 0.00016954-0.0011068 0.00051134-0.00050998 0.0001709-0.00055339-0.0001709-0.0011068-0.00051134-0.0010647-0.00068088-0.00055339-0.00097927-0.00068088-0.00093588-0.00029839-0.001363 0.00029839-0.002469 0.00025499-0.001916 0.00055339-0.001234 0.00080837-0.00093723 0.00080974-0.00093588 0.00085042-0.00068088 0.0010647-0.00055338 0.0011068-0.0002984 0.0010647 0.00016954 0.00072429 0.00012886 0.00080838-0.003662-0.00097928-0.00029839-0.002044-0.000255zm0.45474 0.003364-0.029292 0.005619 0.00080973 0.003832 0.023288-0.004513-0.020436 0.0192 0.00068088 0.004385 0.029419-0.005448-0.00080837-0.003832-0.023545 0.004513 0.02082-0.018945-0.00093723-0.004811zm-0.44218 0.029887-0.00042589 0.004343 0.0046414 0.00042454 0.00025499-0.004385-0.0044705-0.00038248zm0.35166 0.002426-0.005151 0.016093h-0.017966l0.01456 0.0109-0.005876 0.017839 0.014433-0.011027 0.014602 0.010474-0.005321-0.017285 0.014433-0.0109h-0.018392l-0.005322-0.016093zm-0.37648 0.001363-0.00012749 0.004214 0.021117 0.001234 0.0021715 0.00068224 0.0011068 0.00068088 0.0010647 0.00080837 0.00068088 0.00097928 0.00042589 0.001363 0.00055338 0.001362v0.001234l-0.00012749 0.002171-0.00055339 0.001234-0.00055338 0.001236-0.00080974 0.00093587-0.00080837 0.00093723-0.0012343 0.00068088-0.0013631 0.00055339-0.022606-0.001362-0.00012886 0.004214 0.020947 0.001234 0.0024685-0.0001275 0.002044-0.00080838 0.0010647-0.00068088 0.0016601-0.001363 0.0017456-0.002469 0.0002984-0.00093723 0.00093587-0.003023 0.0001275-0.00298-0.0001275-0.002043-0.00038249-0.001108-0.00068088-0.001915-0.00042589-0.00080837-0.0013631-0.001789-0.00055339-0.00068089-0.0013618-0.001065-0.00093723-0.00055339-0.0019151-0.00055338-0.0011922-0.0001275-0.02116-0.001362zm0.45865 0.0001275-0.005705 0.00085043-0.003406 0.001491-0.001916 0.001192-0.002171 0.002214-0.001362 0.001746-0.00080973 0.001788-0.00055339 0.003023-0.000255 0.002044 0.00038249 0.001873 0.0004259 0.002214 0.00080973 0.002044 0.002171 0.002681 0.00166 0.00166-0.003406 0.00093723 0.00025499 0.002852 0.015795-0.001489-0.001192-0.012518-0.003448 0.0001275 0.00085178 0.009409-0.001533 0.0001275-0.002426-0.0001275-0.00097928-0.00055339-0.001874-0.00093587-0.00068088-0.00068224-0.001489-0.001788-0.0002984-0.00068089-0.00093723-0.002426-0.00029704-0.00166v-0.002854l0.00029704-0.001107 0.00068224-0.001617 0.00093588-0.001917 0.00068088-0.00068088 0.001363-0.001107 0.003278-0.001363 0.003959-0.00068088h0.002852l0.001234 0.0001275 0.003278 0.001107 0.001917 0.001363 0.001192 0.001107 0.00080838 0.001234 0.00068088 0.001873 0.00055339 0.001533 0.0002984 0.001363v0.001362l-0.00042589 0.002171-0.0004259 0.001107-0.001063 0.001746-0.001363 0.001491-0.001618 0.00097927h-0.00029704l0.00029704 0.003788 0.001491-0.00038249 0.00093588-0.00029839 0.001618-0.001065 0.00085179-0.00055339 0.001192-0.001788 0.00097928-0.001363 0.00080838-0.001873 0.00055339-0.003149v-0.002299l-0.00029705-0.001662-0.00093723-0.003149-0.00068088-0.001363-0.001234-0.001746-0.001746-0.002043-0.001491-0.001108-0.002341-0.001234-0.003151-0.00093588-0.003278-0.00042589zm-0.015796 0.050152-0.004768 0.022777 0.003151 0.00068087 0.002043-0.009706 0.026141 0.005492 0.00085179-0.004258-0.026183-0.005322 0.001915-0.009111-0.003151-0.00055339zm-0.43958 0.001917 0.0011068 0.004385 0.0089844 0.00068088 0.002596 0.010898-0.0073649 0.005151 0.0010647 0.004386 0.02631-0.017754-0.0012343-0.004598-0.031463-0.003149zm0.013752 0.005193 0.013368 0.001491-0.011155 0.007194-0.0022136-0.008685zm0.018264 0.018519-0.027928 0.010219 0.0014893 0.003661 0.022096-0.008004-0.016774 0.022182 0.0014906 0.004258 0.027801-0.010517-0.0012356-0.003406-0.022606 0.00843 0.017455-0.022479-0.0017877-0.004343zm0.40101 0.002171-0.001192 0.003704 0.022734 0.007492-0.027248 0.006684-0.001489 0.004343 0.028354 0.009281 0.001192-0.003704-0.022607-0.007365 0.02712-0.00694 0.001491-0.004214-0.028354-0.009281zm-0.39079 0.026567-0.025458 0.014859 0.0058322 0.010388 0.00097928 0.001489 0.0013618 0.001618 0.0018731 0.001234 0.0011081 0.00055339 0.0020426 0.00038384 0.002044 0.00016954 0.0027249-0.00016954 0.0024685-0.00080973 0.0019165-0.00068088 0.00068088-0.0001275 0.00051134-0.00042589 0.0019152-0.00093587 0.002044-0.001491 0.0021715-0.001917 0.00097928-0.001107 0.00068088-0.001362 0.0010647-0.002299 0.00055339-0.002896v-0.001191l-0.00025635-0.002215-0.00042453-0.00093587-0.00080974-0.002044-0.0060031-0.01009zm0.37925 0.003151-0.009409 0.018136 0.026567 0.013624 0.009536-0.018945-0.003151-0.001363-0.007876 0.015114-0.008727-0.004342 0.007365-0.014305-0.003449-0.001533-0.007194 0.014305-0.008473-0.00447 0.007536-0.014731-0.002725-0.001489zm-0.38019 0.002043 0.0037883 0.006514 0.0002984 0.00097927 0.00025499 0.00093588 0.00042589 0.001662-0.0001275 0.00080837-0.00055338 0.001618-0.00085178 0.00166-0.0018731 0.002299-0.0034058 0.002469-0.0036608 0.001789-0.0028958 0.00080837h-0.0016181l-0.0016602-0.00029839-0.0014893-0.00050998-0.0011081-0.00097928-0.00050999-0.00080973-0.004385-0.007791 0.019371-0.011154zm0.36533 0.022607-0.003704 0.004214 0.013752 0.02248-0.024395-0.009664-0.003661 0.004385 0.022777 0.019073 0.002725-0.003151-0.01801-0.014815 0.023033 0.008812 0.002469-0.003107-0.01307-0.021288 0.018221 0.015157 0.002725-0.003023-0.022862-0.019073zm-0.33876 0.012006-0.016094 0.013751-0.0014892 0.002044-0.00055339 0.00093723-0.00068088 0.002043-0.00025635 0.001107v0.002044l0.00025635 0.00080838 0.00055338 0.002215 0.0011068 0.001746 0.0010634 0.001788 0.0015327 0.001491 0.0024278 0.001915 0.0017877 0.00093723 0.0019151 0.00042454 0.0018745 0.00012885h0.0011068l0.0017456-0.00042589 0.00097928-0.00038385 0.0017456-0.001234 0.016093-0.013921-0.002597-0.003109-0.01622 0.013752-0.0018731 0.001362-0.0013631 0.0002984h-0.0012343l-0.0013631-0.0001275-0.00055338-0.00042588-0.0017456-0.00080839-0.00055339-0.00055338-0.0013618-0.001363-0.0011068-0.001788-0.00025635-0.00080974-0.00029704-0.001915v-0.001234l0.00029704-0.001363 0.00068224-0.001063 0.0010634-0.001236 0.016093-0.013879-0.0027235-0.003149zm0.31748 0.016475-0.001363 0.00055338-0.00063748 0.00025635-0.001533 0.00097928-0.00012886 0.00012749-0.010345 0.008983 0.019626 0.022479 0.002852-0.002426-0.008302-0.009707 0.007621-0.006641 0.001362-0.001491 0.00068223-0.001533 0.000255-0.001234 0.00012749-0.001065-0.00012749-0.001362-0.00055339-0.001662-0.00093723-0.001746-0.001107-0.00166-0.002043-0.001618-0.001363-0.00055339-0.002171-0.00068088h-0.001915zm0.00068088 0.004215h0.001107l0.001107 0.00029703 0.001618 0.00093723 0.00093723 0.001362 0.00055338 0.001491v0.002341l-0.00055338 0.001491v0.00029839l-0.00745 0.006513-0.006429-0.007492 0.006684-0.006131 0.00068088-0.00055339 0.001746-0.00055338zm-0.29555 0.003022-0.019626 0.022224 0.0027669 0.002683 0.0084296-0.009536 0.007494 0.006557 0.00093587 0.001533 0.00055339 0.001746-0.00025499 0.001617-0.00068088 0.001533-0.004088 0.004896-0.00085178 0.001746 0.003407 0.003151 0.00068088-0.00055338-0.0001275-0.001234 0.00042589-0.001491 0.00055339-0.00080837 0.003107-0.003278 0.00097928-0.001618 0.00055338-0.00097927 0.00025499-0.002044-0.00025499-0.002299 0.00093723 0.00042589h0.001617l0.001491-0.00029839 0.001234-0.00050998 0.001236-0.001107 0.001362-0.001236 0.00080838-0.001489 0.00055338-0.001533 0.0004259-0.001491v-0.001362l-0.0004259-0.001363-0.00055338-0.001489-0.00068088-0.001236-0.001065-0.001107-0.011197-0.010048zm0.00055339 0.005322 0.00694 0.006258 0.00166 0.002299 0.00050998 0.001107v0.001618l-0.0001275 0.00097927-0.00025499 0.00038385-0.001107 0.00166-0.001065 0.00068088-0.00085178 0.000255-0.001489 0.00029839-0.001192-0.0001709-0.00085178-0.00038249-0.00080838-0.00055338-0.00025635-0.0001275-0.007663-0.006982 0.006557-0.007323zm0.27009 0.008004-0.003278 0.00068089-0.00042454 0.00029839-0.00068223 0.0001275-0.00055339 0.00042589-0.002171 0.00093723-0.001915 0.001617-0.001234 0.001108-0.00132 0.001788-0.00068224 0.001362-0.00085042 0.001916-0.00051134 0.00132-0.0001709 0.001915 0.0001709 0.003407 0.00025499 0.001234 0.00055339 0.001788 0.00055338 0.001192 0.00051134 0.001107 0.001107 0.001491 0.002172 0.002597 0.001234 0.001234 0.002299 0.001788 0.001916 0.00093723 0.002894 0.00080837 0.002725 0.0001275 0.001363-0.0001275 0.002043-0.00051134 0.002299-0.00097791 0.00055339-0.00042589 0.002171-0.001618 0.001234-0.001234 0.001065-0.001236 0.00097927-0.001362 0.001192-0.002597 0.0002984-0.001362 0.00025499-0.002299v-0.001236l-0.00025499-0.002852-0.00055339-0.001489-0.001916-0.004088-0.002597-0.003149-0.001362-0.001065-0.001873-0.001533-0.002044-0.001065-0.001362-0.00042589-0.001363-0.00012749-0.002725-0.0004259zm-0.00042453 0.003959h0.002043l0.001491 0.00029839 0.002214 0.001065 0.001065 0.00097927 0.001489 0.001063 0.00097928 0.001236 0.001363 0.002341 0.001489 0.003662 0.00025634 0.001234 0.0001275 0.002044v0.001063l-0.00080838 0.002852-0.00080974 0.001405-0.00055338 0.00093723-0.001234 0.00093587-0.001746 0.001236-0.001234 0.00068087-0.001917 0.0004259-0.001618 0.00012749-0.002725-0.00055339-0.001362-0.00055338-0.001363-0.00068223-0.00217-0.001873-0.001789-0.001788-0.0001275-0.00042589-0.001234-0.001915-0.00080973-0.002171-0.00029704-0.001234-0.00025635-0.001746 0.00025635-0.001917v-0.00093722l0.00055339-0.001489 0.00068088-0.001363 0.001362-0.001915 0.001917-0.001491 0.001915-0.001107 0.00055474-0.0001275 0.002299-0.00029839zm-0.24446 0.003023-0.01554 0.025331 0.012134 0.007366 0.00055338 0.00038248 0.001491 0.00042589h0.00097927l0.00025499 0.00012749 0.002597-0.00012749 0.0001275-0.0001275 0.00093723-0.00012749 0.00085178-0.00042589 0.00132-0.00080974 0.001107-0.00097792 0.00055339-0.00080973 0.00080838-0.001362 0.00068088-0.001363 0.00042589-0.001234-0.00012749-0.002299-0.0002984-0.001107-0.001489-0.002001 0.00080838 0.00012749 0.001234-0.00029839 0.001491-0.00051134 0.00042589-0.00016955 0.001362-0.00093723 0.00025634-0.00055338 0.001362-0.002044 0.00042589-0.001234 0.0001275-0.002299-0.00055339-0.002341-0.001234-0.002044-0.001618-0.001746-0.011453-0.006812zm0.001618 0.004598 0.006003 0.003533 0.001234 0.00085178 0.00080973 0.00093723 0.00068088 0.001107 0.00017091 0.00093587 0.00025498 0.00097928v0.00080974l-0.00025498 0.00093587-0.00068225 0.001234-0.001362 0.001236-0.00068089 0.00042589-0.00072428 0.0001275h-0.00093588l-0.00093723-0.0001275-0.00080837-0.00029839-0.00042589-0.00055339-0.007068-0.004215 0.004725-0.007918zm0.21287 0.006302-0.003662 0.001873 0.013198 0.026481 0.016604-0.008089-0.001618-0.003236-0.012815 0.006387-0.011708-0.023416zm-0.21964 0.004895 0.00843 0.005195 0.001108 0.001192 0.00038248 0.00097927 0.000255 0.00080838 0.00017089 0.00080838v0.00080973l-0.00042589 0.001533-0.00068088 0.00093587-0.00055338 0.00068224-0.001491 0.00080838-0.001618 0.00012749-0.00080838-0.00012749-0.00097927-0.0001275-0.008856-0.00545 0.005066-0.008175zm0.036359 0.00068088-0.021543 0.023288 0.004258 0.00166 0.006131-0.006555 0.010217 0.004214-0.00042589 0.009111 0.003959 0.001917 0.001917-0.031718-0.004513-0.001917zm0.16923 0.00042589-0.018818 0.007876 0.011325 0.027546 0.019626-0.008046-0.001489-0.003407-0.015923 0.006642-0.003832-0.009238 0.014859-0.006003-0.001363-0.003278-0.01473 0.006131-0.003662-0.008856 0.015242-0.006258-0.001236-0.003109zm-0.16893 0.00545-0.001107 0.013071-0.008173-0.003577 0.00928-0.009494zm0.015498 0.00051134-0.008004 0.028609 0.003661 0.001107 0.006387-0.022904 0.008217 0.026992 0.004172 0.001107 0.008089-0.028653-0.003832-0.001065-0.006387 0.023161-0.007663-0.02712-0.00464-0.001234zm0.12606 0.004087-0.004087 0.00097928-0.002981 0.026141-0.013623-0.022735-0.003959 0.00093722 0.016604 0.026864 0.004087-0.00097928 0.003959-0.031207zm-0.029419 0.005748-0.020606 0.001618 0.002469 0.029588 0.021246-0.001618-0.00038385-0.003448-0.0172 0.001404-0.00093723-0.009962 0.016093-0.001234-0.00029704-0.003533-0.015923 0.001192-0.00097928-0.009665 0.016775-0.001234-0.00025635-0.003107zm-0.052196 0.00068087-0.001107 0.029717 0.011835 0.00038249h0.00166l0.002981-0.00080837 0.00166-0.00080973 0.001107-0.00080839 0.001491-0.001363 0.00068089-0.001107 0.00093587-0.001915 0.00068223-0.001746 0.00080838-0.003449 0.00029839-0.003278-0.00012749-0.003235-0.0002984-0.00166-0.00068088-0.001874-0.001065-0.002341-0.001234-0.001618-0.001789-0.001489-0.002469-0.001533-0.002044-0.00051134-0.001491-0.0002984-0.011835-0.00025499zm0.003662 0.003533 0.007747 0.0002984 0.001789 0.00025499 0.001489 0.00080974 0.001363 0.001234 0.00097927 0.001362 0.00080838 0.001916 0.00042589 0.001746 0.00038385 0.002172v0.001915l-0.00025635 0.003278-0.00042589 0.001917-0.00080838 0.001788-0.00080838 0.001618-0.00097927 0.001107-0.001363 0.00093586-0.001362 0.00055475-0.00992-0.00055475 0.00093723-0.022351z" stroke-width="0" fill="#097ec4"/>
 </g>
</svg>
