<?xml version="1.0" encoding="UTF-8" standalone="no"?>
<!-- Created with Inkscape (http://www.inkscape.org/) -->
<svg
xmlns:dc="http://purl.org/dc/elements/1.1/"
xmlns:cc="http://creativecommons.org/ns#"
xmlns:rdf="http://www.w3.org/1999/02/22-rdf-syntax-ns#"
xmlns:svg="http://www.w3.org/2000/svg"
xmlns="http://www.w3.org/2000/svg"
xmlns:xlink="http://www.w3.org/1999/xlink"
xmlns:sodipodi="http://sodipodi.sourceforge.net/DTD/sodipodi-0.dtd"
xmlns:inkscape="http://www.inkscape.org/namespaces/inkscape"
width="272"
height="272"
id="svg2"
version="1.1"
inkscape:version="0.48.2 r9819"
sodipodi:docname="NASA_seal.svg"
inkscape:export-filename="/home/sysop/Pictures/Logos/NASA/Seal/Seal-cl_gradient-disk.png"
inkscape:export-xdpi="132.35294"
inkscape:export-ydpi="132.35294">
<title
id="title5020">NASA seal</title>
<defs
id="defs4">
<linearGradient
id="linearGradient4408">
<stop
id="stop4416"
offset="0"
style="stop-color:#125a9e;stop-opacity:0.49803922;" />
<stop
style="stop-color:#0b3b6a;stop-opacity:1;"
offset="1"
id="stop4412" />
</linearGradient>
<clipPath
id="clipPath3017"
clipPathUnits="userSpaceOnUse">
<path
id="path3019"
d="m 366.781,1390.81 c 19.031,546.14 477.18,973.35 1023.319,954.21 546.14,-19.14 973.44,-477.38 954.41,-1023.52 C 2325.48,775.359 1867.34,348.152 1321.19,367.297 775.051,386.438 347.754,844.668 366.781,1390.81 l 0,0 z"
inkscape:connector-curvature="0" />
</clipPath>
<linearGradient
inkscape:collect="always"
xlink:href="#linearGradient4408"
id="linearGradient4414"
x1="256.4454"
y1="568.54004"
x2="509.16522"
y2="568.54004"
gradientUnits="userSpaceOnUse"
gradientTransform="matrix(0,1,-1,0,951.34536,185.73475)" />
<linearGradient
inkscape:collect="always"
xlink:href="#linearGradient4408"
id="linearGradient3996"
gradientUnits="userSpaceOnUse"
gradientTransform="matrix(0,1,-1,0,951.34536,185.73475)"
x1="256.4454"
y1="568.54004"
x2="509.16522"
y2="568.54004" />
<linearGradient
inkscape:collect="always"
xlink:href="#linearGradient4408"
id="linearGradient4059"
gradientUnits="userSpaceOnUse"
gradientTransform="matrix(0,0.79872218,-0.79871853,0,802.90983,296.78256)"
x1="256.4454"
y1="568.54004"
x2="509.16522"
y2="568.54004" />
</defs>
<sodipodi:namedview
id="base"
pagecolor="#ffffff"
bordercolor="#666666"
borderopacity="1.0"
inkscape:pageopacity="0.0"
inkscape:pageshadow="2"
inkscape:zoom="1.7333334"
inkscape:cx="136"
inkscape:cy="136"
inkscape:document-units="px"
inkscape:current-layer="layer1"
showgrid="false"
units="px"
inkscape:window-width="1024"
inkscape:window-height="689"
inkscape:window-x="0"
inkscape:window-y="27"
inkscape:window-maximized="1"
fit-margin-top="0"
fit-margin-left="0"
fit-margin-right="0"
fit-margin-bottom="0"
showguides="true"
inkscape:guide-bbox="true" />
<metadata
id="metadata7">
<rdf:RDF>
<cc:Work
rdf:about="">
<dc:format>image/svg+xml</dc:format>
<dc:type
rdf:resource="http://purl.org/dc/dcmitype/StillImage" />
<dc:title>NASA seal</dc:title>
<dc:description>NASA seal imported from official SEAL-CL.EPS (Encapsulated PostScript) file.  PostScript does not support gradient fills, so they are simulated step-wise and may cause aliasing effects at various zoom factors.  The blue background disk in this Inkscape version has been replaced by a linear gradient fill, but the shadows on the two &quot;spheres&quot; are still stepped gradients.</dc:description>
<dc:creator>
<cc:Agent>
<dc:title>United States Government</dc:title>
</cc:Agent>
</dc:creator>
<dc:rights>
<cc:Agent>
<dc:title>United States Government</dc:title>
</cc:Agent>
</dc:rights>
<dc:publisher>
<cc:Agent>
<dc:title>National Aeronautics and Space Administration</dc:title>
</cc:Agent>
</dc:publisher>
<cc:license
rdf:resource="http://creativecommons.org/licenses/publicdomain/" />
<dc:date>1961-05-23</dc:date>
<dc:subject>
<rdf:Bag>
<rdf:li>NASA seal color</rdf:li>
</rdf:Bag>
</dc:subject>
</cc:Work>
<cc:License
rdf:about="http://creativecommons.org/licenses/publicdomain/">
<cc:permits
rdf:resource="http://creativecommons.org/ns#Reproduction" />
<cc:permits
rdf:resource="http://creativecommons.org/ns#Distribution" />
<cc:permits
rdf:resource="http://creativecommons.org/ns#DerivativeWorks" />
</cc:License>
</rdf:RDF>
</metadata>
<g
inkscape:label="Layer_1"
inkscape:groupmode="layer"
id="layer1"
transform="translate(-212.81051,-466.52811)"
style="display:inline">
<g
id="g4062">
<path
transform="translate(319.96435,441.87427)"
d="m 162.84616,160.65384 a 134,134 0 1 1 -268,0 134,134 0 1 1 268,0 z"
sodipodi:ry="134"
sodipodi:rx="134"
sodipodi:cy="160.65384"
sodipodi:cx="28.846155"
id="path3144"
style="fill:#ffffff;fill-opacity:1;stroke:none;stroke-width:0.10000000000000001;stroke-linecap:round;stroke-linejoin:miter;stroke-miterlimit:4;stroke-opacity:1;stroke-dasharray:none;stroke-dashoffset:0"
sodipodi:type="arc" />
<path
id="path3132"
style="fill:#125a9e;fill-opacity:1;stroke:none"
d="m 352.33516,501.83457 c 55.61705,1.93807 99.12266,48.59462 97.17351,104.21182 -1.94915,55.61731 -48.61476,99.13229 -104.23181,97.19433 -55.61714,-1.93796 -99.12246,-48.5936 -97.17279,-104.21192 1.94925,-55.61721 48.61383,-99.13188 104.23109,-97.19423 l 0,0 z"
inkscape:connector-curvature="0" />
<path
inkscape:connector-curvature="0"
d="m 352.33516,501.83457 c 55.61705,1.93807 99.12266,48.59462 97.17351,104.21182 -1.94915,55.61731 -48.61476,99.13229 -104.23181,97.19433 -55.61714,-1.93796 -99.12246,-48.5936 -97.17279,-104.21192 1.94925,-55.61721 48.61383,-99.13188 104.23109,-97.19423 l 0,0 z"
style="fill:url(#linearGradient4059);fill-opacity:1;stroke:none"
id="path3175" />
<g
transform="matrix(0.79871853,0,0,0.79872218,43.052663,148.4321)"
id="g3615">
<path
id="path3189"
style="fill:#ed1c24;fill-opacity:1;fill-rule:nonzero;stroke:none"
d="m 362.15846,704.13332 -6.24,-1.67087 -0.13625,0.50975 c 1.85375,0.61275 2.37625,1.24262 1.60625,4.12013 l -1.94625,7.26212 c -0.58375,2.17725 -1.09,2.99275 -1.59875,3.49075 -1.1175,1.05625 -2.88125,1.50538 -4.98,0.94238 -4.68,-1.25338 -3.6775,-4.99113 -3.21625,-6.71238 l 2.30625,-8.606 c 0.51125,-1.90912 0.9275,-2.17275 3.095,-1.76512 l 0.1375,-0.51025 -7.61125,-2.04 -0.13625,0.51025 c 2.0075,0.68262 2.305,1.07962 1.77125,3.07037 l -2.2475,8.39013 c -0.4325,1.61325 -1.8375,6.85737 4.83125,8.64599 6.96625,1.86613 8.32125,-3.18999 8.8975,-5.34187 l 1.88,-7.019 c 0.75625,-2.82375 1.3225,-3.1045 3.45,-2.76462 l 0.1375,-0.51176 0,0"
inkscape:connector-curvature="0" />
<path
id="path3191"
style="fill:#ed1c24;fill-opacity:1;fill-rule:nonzero;stroke:none"
d="m 360.54596,722.17682 c 0.5775,0.0913 1.615,-0.22362 1.77625,-1.24174 0.13375,-0.85201 -0.4675,-1.68063 -1.2925,-1.8115 -0.825,-0.13088 -1.62125,0.44825 -1.76125,1.32812 -0.165,1.04487 0.7,1.63325 1.2775,1.72512 l 0,0"
inkscape:connector-curvature="0" />
<path
id="path3193"
style="fill:#ed1c24;fill-opacity:1;fill-rule:nonzero;stroke:none"
d="m 383.03721,704.9952 -0.58375,-0.0309 c -0.0713,0.30275 -0.24375,0.93562 -1.0225,0.89512 -0.695,-0.0366 -2.1475,-1.06112 -3.81625,-1.149 -2.5025,-0.13037 -5.11375,1.293 -5.28,4.46288 -0.14375,2.753 1.5725,4.07037 4.0525,5.67775 3.96125,2.605 4.3575,3.57425 4.27375,5.15875 -0.0788,1.50137 -1.27375,3.02825 -3.4975,2.91162 -3.75375,-0.19687 -4.9825,-3.88575 -5.4425,-5.22025 l -0.63875,-0.0342 0.525,5.939 0.6125,0.0317 c 0.0225,-0.44437 0.325,-0.90325 0.90875,-0.8725 0.83375,0.0434 2.1475,1.0605 4.26,1.17188 3.97625,0.20849 6.0075,-2.36238 6.13,-4.72563 0.3,-5.69975 -8.9575,-6.74312 -8.74,-10.91312 0.09,-1.72363 1.55375,-2.51213 2.94375,-2.43888 2.91875,0.15375 4.56875,2.749 4.92125,5.05363 l 0.695,0.0366 -0.30125,-5.9545 0,0"
inkscape:connector-curvature="0" />
<path
id="path3195"
style="fill:#ed1c24;fill-opacity:1;fill-rule:nonzero;stroke:none"
d="m 387.79096,724.11383 c 0.58375,-0.0205 1.54125,-0.52738 1.50625,-1.55763 -0.0312,-0.86187 -0.78125,-1.56013 -1.61375,-1.53075 -0.835,0.0278 -1.50625,0.748 -1.47625,1.63912 0.0375,1.05713 0.99875,1.46875 1.58375,1.44926 l 0,0"
inkscape:connector-curvature="0" />
<path
id="path3197"
style="fill:#ed1c24;fill-opacity:1;fill-rule:evenodd;stroke:none"
d="m 414.78096,720.58358 c -1.225,0.0879 -1.65375,-0.16126 -2.82,-2.05088 l -9.065,-14.69625 -0.5525,0.0781 -3.83125,14.34326 c -0.35375,1.28662 -0.925,3.4195 -1.4625,4.19825 -0.4225,0.59325 -0.8825,0.71387 -1.32125,0.80462 l 0.075,0.5235 5.45875,-0.76813 -0.075,-0.52337 c -0.57875,0.0815 -1.87375,0.26363 -2.0375,-0.8945 -0.0425,-0.30325 -0.0125,-0.70125 0.0738,-1.07812 l 0.815,-3.40488 7.22375,-1.01412 1.5025,2.48787 c 0.22,0.36225 0.70625,1.22163 0.7675,1.6625 0.14375,1.0205 -0.76125,1.17675 -1.7825,1.31937 l 0.0737,0.52388 7.03125,-0.98775 -0.0737,-0.52337 0,0 z m -14.4325,-4.66463 2.105,-8.02737 4.26375,7.13287 -6.36875,0.8945 0,0"
inkscape:connector-curvature="0" />
<path
id="path3199"
style="fill:#ed1c24;fill-opacity:1;fill-rule:nonzero;stroke:none"
d="m 417.94221,720.57958 c 0.56875,-0.14013 1.4,-0.83588 1.15,-1.83538 -0.21,-0.8375 -1.0875,-1.36475 -1.89625,-1.16262 -0.81125,0.20162 -1.31875,1.04637 -1.1025,1.91062 0.25625,1.02638 1.2825,1.229 1.84875,1.08738 l 0,0"
inkscape:connector-curvature="0" />
<path
id="path3327"
style="fill:#ed1c24;fill-opacity:1;fill-rule:evenodd;stroke:none"
d="m 245.39696,553.5217 c -0.1475,1.21875 -0.47413,1.5925 -2.55088,2.375 l -16.15575,6.09625 -0.0293,0.55625 13.35013,6.49875 c 1.19525,0.5925 3.18012,1.56125 3.84225,2.23625 0.50187,0.52875 0.53225,1.005 0.53712,1.45 l 0.52825,0.0275 0.28863,-5.505 -0.52888,-0.0275 c -0.0308,0.58375 -0.0991,1.89125 -1.2665,1.83 -0.30575,-0.0163 -0.691,-0.12 -1.045,-0.2775 l -3.1865,-1.45 0.38138,-7.285 2.7295,-1 c 0.39787,-0.14625 1.3345,-0.46 1.77925,-0.43625 1.02925,0.0538 1.00875,0.9725 0.95462,2.00125 l 0.52825,0.0275 0.37213,-7.09 -0.52875,-0.0275 0,0 z m -7.33163,13.2775 -7.479,-3.59875 7.8155,-2.825 -0.3365,6.42375 0,0"
inkscape:connector-curvature="0" />
<path
id="path3329"
style="fill:#ed1c24;fill-opacity:1;fill-rule:nonzero;stroke:none"
d="m 244.00533,536.36545 -0.12212,0.77125 c 2.5865,1.65 3.19337,3.155 2.649,6.5925 -0.649,4.0975 -0.67638,4.0925 -1.80325,3.915 l -6.82038,-1.08125 0.72563,-4.225 c 0.38862,-2.27875 0.83937,-2.63 3.09125,-2.61125 l 0.10012,-0.6325 -6.38037,-1.01125 -0.0996,0.6325 c 1.90438,0.6125 2.521,0.99125 2.13338,3.43875 l -0.67088,4.235 -6.105,-0.96625 c -0.93462,-0.1475 -0.88287,-0.47875 -0.791,-1.05625 l 0.58738,-3.7125 c 0.48337,-3.0525 1.03712,-3.6975 3.54975,-3.7225 l 0.10887,-0.6875 -3.94575,-0.54 -2.312,14.6025 0.5225,0.0825 c 0.41163,-1.71 0.68113,-2.345 2.854,-2 l 12.21038,1.93375 c 2.11725,0.335 2.26412,1.0075 2.09625,2.785 l 0.52187,0.0813 2.35213,-14.84875 -4.45213,-1.975 0,0"
inkscape:connector-curvature="0" />
<path
id="path3331"
style="fill:#ed1c24;fill-opacity:1;fill-rule:evenodd;stroke:none"
d="m 253.81633,519.3092 c -0.40575,1.0675 -1.08887,1.54875 -1.99362,1.89875 l -8.47175,3.2775 c 0.17437,-1.43625 0.65675,-5.085 -2.89113,-6.2375 -4.07862,-1.325 -6.05412,2.86375 -6.81925,5.22 l -2.3745,7.30875 0.50288,0.16375 c 0.78762,-1.79375 1.15475,-2.11375 3.11475,-1.4775 l 11.46625,3.72625 c 1.98587,0.645 2.50787,0.93125 1.94287,3.12 l 0.504,0.1625 2.38275,-7.335 -0.50337,-0.1625 c -0.7945,2.08375 -1.38338,2.185 -3.15775,1.60875 l -5.21625,-1.69625 0.42812,-1.49875 10.20363,-3.6525 1.38525,-4.26375 -0.50288,-0.1625 0,0 z m -19.00825,7.14375 c -0.76862,-0.25 -0.876,-0.54875 -0.42,-1.95125 0.35263,-1.08625 1.55913,-4.52875 5.08113,-3.385 3.78662,1.23 2.54875,5.22 1.853,7.4525 l -6.51413,-2.11625 0,0"
inkscape:connector-curvature="0" />
<path
id="path3333"
style="fill:#ed1c24;fill-opacity:1;fill-rule:evenodd;stroke:none"
d="m 258.28708,511.62045 c 2.04925,-4.60375 0.3705,-9.80125 -5.04687,-12.21375 -5.85113,-2.605 -10.647,0.22875 -12.5045,4.4 -1.85738,4.17125 -0.75188,9.63 5.09825,12.235 5.41737,2.4125 10.40325,0.1825 12.45312,-4.42125 l 0,0 z m -0.91612,-0.4075 c -1.25675,2.82375 -4.67625,4.41 -10.27138,1.9175 -5.79937,-2.58125 -6.60312,-6.32125 -5.44775,-8.91625 1.15475,-2.595 4.47213,-4.5 10.27138,-1.91875 5.59675,2.49125 6.70513,6.09375 5.44775,8.9175 l 0,0"
inkscape:connector-curvature="0" />
<path
id="path3335"
style="fill:#ed1c24;fill-opacity:1;fill-rule:nonzero;stroke:none"
d="m 256.87683,476.17045 -3.46725,5.54875 0.44875,0.28 c 1.12113,-1.53125 1.72363,-2.075 4.439,-0.3775 l 7.88713,4.9275 -0.0298,0.0475 -17.00875,1.94625 -2.5225,4.0375 0.44825,0.28 c 0.59037,-0.94375 0.94437,-1.24875 2.7295,-1.47875 l 10.414,6.5075 c 2.54987,1.59375 2.59375,2.31 1.59137,4.17875 l 0.44825,0.28 3.46675,-5.54875 -0.44875,-0.28 c -1.14687,1.67875 -1.9765,1.85 -4.40862,0.33125 l -9.209,-5.755 0.0288,-0.0475 19.43213,-2.30375 0.25049,-0.4 -12.42037,-7.76125 c -2.76275,-1.7275 -2.38475,-2.54125 -1.62063,-4.1325 l -0.44875,-0.28 0,0"
inkscape:connector-curvature="0" />
<path
id="path3337"
style="fill:#ed1c24;fill-opacity:1;fill-rule:evenodd;stroke:none"
d="m 284.44471,471.38045 c -0.851,0.885 -1.33638,0.9875 -3.46675,0.3625 l -16.57075,-4.85375 -0.3585,0.42625 6.7505,13.22375 c 0.59813,1.1925 1.60062,3.16 1.72275,4.0975 0.083,0.725 -0.17825,1.1225 -0.44388,1.4825 l 0.40575,0.33875 3.543,-4.2225 -0.40537,-0.34 c -0.37588,0.44875 -1.21675,1.45 -2.11225,0.69875 -0.23488,-0.19625 -0.4795,-0.51125 -0.668,-0.85 l -1.67238,-3.075 4.689,-5.58875 2.78225,0.84375 c 0.40575,0.1225 1.34175,0.43625 1.68313,0.7225 0.789,0.6625 0.22012,1.38375 -0.442,2.1725 l 0.40537,0.34 4.56338,-5.43875 -0.40525,-0.34 0,0 z m -13.84563,6.1925 -3.80812,-7.375 7.94187,2.4475 -4.13374,4.9275 0,0"
inkscape:connector-curvature="0" />
<path
id="path3339"
style="fill:#ed1c24;fill-opacity:1;fill-rule:nonzero;stroke:none"
d="m 286.26946,445.9617 -4.80075,4.32125 0.354,0.39375 c 1.52287,-1.22125 2.33638,-1.31625 4.33,0.89625 l 5.03038,5.5875 c 1.50874,1.67625 1.91687,2.545 2.058,3.2425 0.27549,1.5125 -0.30763,3.23625 -1.92138,4.69 -3.6,3.24125 -6.18988,0.365 -7.38275,-0.95875 l -5.962,-6.62125 c -1.32275,-1.47 -1.31638,-1.96125 0.20662,-3.5575 l -0.3545,-0.39375 -5.8555,5.2725 0.354,0.39375 c 1.66551,-1.3125 2.16063,-1.34625 3.53913,0.185 l 5.813,6.45625 c 1.11812,1.24125 4.75137,5.27625 9.88275,0.65625 5.35887,-4.82625 1.856,-8.715 0.36575,-10.37125 l -4.86325,-5.4 c -1.95663,-2.1725 -1.88388,-2.8 -0.4395,-4.4 l -0.354,-0.3925 0,0"
inkscape:connector-curvature="0" />
<path
id="path3341"
style="fill:#ed1c24;fill-opacity:1;fill-rule:nonzero;stroke:none"
d="m 309.15421,452.33295 c -2.00687,1.20375 -2.57513,0.9425 -3.606,-0.64625 l -7.7495,-11.93125 1.26075,-0.82 c 2.56838,-1.6675 3.49512,-1.67125 5.65387,0.57875 l 0.5605,-0.36375 -2.71875,-3.88 -13.16937,8.5525 2.43837,4.06125 0.56013,-0.36375 c -1.13913,-2.87875 -0.79688,-3.73125 1.772,-5.4 l 1.26025,-0.81875 7.583,11.675 c 1.122,1.72875 1.40087,2.31125 -0.66363,3.78375 l 0.28863,0.44375 6.81887,-4.4275 -0.28912,-0.44375 0,0"
inkscape:connector-curvature="0" />
<path
id="path3343"
style="fill:#ed1c24;fill-opacity:1;fill-rule:nonzero;stroke:none"
d="m 313.19871,450.29045 7.30175,-3.8825 -0.24863,-0.4675 c -1.84562,0.91875 -2.56687,0.98625 -3.58587,-0.93125 l -5.80475,-10.915 c -1.04537,-1.9675 -0.52188,-2.46625 1.2335,-3.49375 l -0.24863,-0.46625 -7.30125,3.88125 0.248,0.4675 c 2.09288,-0.98625 2.59375,-0.875 3.56163,0.94375 l 5.80412,10.91625 c 0.92775,1.745 0.855,2.32 -1.2085,3.48 l 0.24863,0.4675 0,0"
inkscape:connector-curvature="0" />
<path
id="path3345"
style="fill:#ed1c24;fill-opacity:1;fill-rule:nonzero;stroke:none"
d="m 331.78896,427.9117 -2.57913,-5.715 -0.542,0.22 c 0.13825,0.935 -0.71375,1.27875 -0.84275,1.33125 -0.56837,0.23 -2.59025,0.055 -4.88762,0.98375 -4.4405,1.79375 -7.51513,6.67 -5.17925,12.4525 2.59762,6.4275 8.0655,7.1025 12.22125,5.4225 4.7505,-1.91875 5.6665,-6.04375 5.67137,-6.105 l -0.65237,-0.27625 c -0.48775,1.09625 -1.606,3.68125 -4.78075,4.96375 -3.253,1.31375 -7.23238,0.30875 -9.44338,-5.16375 -1.50237,-3.7175 -1.03412,-5.82875 -0.42387,-7.21625 0.65675,-1.49625 1.94537,-2.6175 3.23637,-3.13875 3.17475,-1.28375 5.86813,0.0312 7.60938,2.48125 l 0.59275,-0.24 0,0"
inkscape:connector-curvature="0" />
<path
id="path3347"
style="fill:#ed1c24;fill-opacity:1;fill-rule:nonzero;stroke:none"
d="m 343.70596,417.5817 -0.5575,0.17125 c 0.035,0.30875 0.0888,0.96125 -0.65625,1.19 -0.665,0.2025 -2.38,-0.2625 -3.9775,0.225 -2.39663,0.73375 -4.36338,2.965 -3.43563,6 0.80613,2.63625 2.86863,3.2875 5.74938,3.94875 4.61375,1.09375 5.3175,1.86875 5.78125,3.38625 0.44,1.43875 -0.16125,3.28125 -2.2925,3.9325 -3.59375,1.09875 -6.01,-1.94625 -6.89888,-3.04375 l -0.61175,0.1875 2.52438,5.4 0.58625,-0.17875 c -0.13125,-0.42625 -0.004,-0.96 0.55625,-1.13125 0.79875,-0.245 2.38,0.2625 4.40375,-0.35625 3.8075,-1.16375 4.8375,-4.27375 4.145,-6.53625 -1.66875,-5.45875 -10.725,-3.27375 -11.94613,-7.26625 -0.50487,-1.65125 0.60063,-2.89125 1.93113,-3.29875 2.79625,-0.85375 5.23375,1.02125 6.35375,3.06625 l 0.665,-0.20375 -2.32,-5.4925 0,0"
inkscape:connector-curvature="0" />
<path
id="path3349"
style="fill:#ed1c24;fill-opacity:1;fill-rule:evenodd;stroke:none"
d="m 382.47846,431.01295 c -1.2275,0.002 -1.6375,-0.27625 -2.66875,-2.24125 l -8.02,-15.2925 -0.555,0.0387 -4.82375,14.04125 c -0.44125,1.25875 -1.16,3.3475 -1.75,4.08625 -0.46375,0.5625 -0.9325,0.65125 -1.375,0.71 l 0.0375,0.5275 5.5,-0.385 -0.0375,-0.5275 c -0.5825,0.0412 -1.88875,0.1325 -1.97,-1.03375 -0.0225,-0.30625 0.0337,-0.7 0.1475,-1.07125 l 1.05125,-3.33875 7.27625,-0.50875 1.32625,2.58625 c 0.1925,0.3775 0.6175,1.26875 0.64875,1.71375 0.0725,1.02625 -0.8425,1.11875 -1.87,1.19125 l 0.0375,0.5275 7.0825,-0.49625 -0.0375,-0.5275 0,0 z m -14.07125,-5.65875 2.65875,-7.86125 3.75625,7.41375 -6.415,0.4475 0,0"
inkscape:connector-curvature="0" />
<path
id="path3351"
style="fill:#ed1c24;fill-opacity:1;fill-rule:nonzero;stroke:none"
d="m 404.15221,414.5342 -6.52625,-0.4575 -0.0375,0.52875 c 1.87875,0.27 2.64125,0.5475 2.4175,3.74125 l -0.64875,9.27625 -0.055,-0.004 -9.70375,-14.10375 -4.75,-0.33125 -0.0362,0.52625 c 1.11,0.0788 1.545,0.2475 2.5875,1.71625 l -0.85625,12.24875 c -0.21,3 -0.8225,3.37625 -2.94375,3.3675 l -0.0362,0.5275 6.52625,0.45625 0.0387,-0.5275 c -2.0225,-0.225 -2.5625,-0.87625 -2.36375,-3.7375 l 0.7575,-10.8325 0.055,0.004 11.1575,16.075 0.4725,0.0337 1.02125,-14.61 c 0.2275,-3.24875 1.12375,-3.2975 2.8875,-3.37 l 0.0362,-0.5275 0,0"
inkscape:connector-curvature="0" />
<path
id="path3353"
style="fill:#ed1c24;fill-opacity:1;fill-rule:evenodd;stroke:none"
d="m 404.01221,433.30045 7.70375,1.77875 c 8.3025,1.9175 11.6725,-2.905 12.505,-6.51375 1.4025,-6.07625 -2.2275,-10.03 -8.73875,-11.53375 l -7.325,-1.69 -0.11875,0.515 c 2.05125,0.645 2.2875,0.985 1.82375,2.9925 l -2.78125,12.04625 c -0.43875,1.8975 -0.8625,2.2575 -2.95,1.89 l -0.11875,0.515 0,0 z m 8.82375,-14.7075 c 0.125,-0.5425 0.24375,-1.0575 1.52,-0.76375 3.4175,0.79 4.7675,1.8725 5.8,3.34 1.485,2.115 1.62875,4.46125 1.1025,6.74125 -1.8225,7.895 -8.49625,6.35375 -10.23375,5.9525 -1.30125,-0.30125 -1.5825,-0.565 -1.37,-1.4875 l 3.18125,-13.7825 0,0"
inkscape:connector-curvature="0" />
<path
id="path3355"
style="fill:#ed1c24;fill-opacity:1;fill-rule:nonzero;stroke:none"
d="m 454.82846,430.97545 -0.525,-0.25625 c -0.18375,0.25 -0.59,0.765 -1.29125,0.42375 -0.625,-0.305 -1.56125,-1.815 -3.0625,-2.5475 -2.25375,-1.09875 -5.21375,-0.8075 -6.605,2.045 -1.20875,2.4775 -0.1425,4.36 1.5125,6.80875 2.6275,3.94625 2.615,4.9925 1.91875,6.42 -0.65875,1.35 -2.35625,2.28875 -4.3575,1.3125 -3.38,-1.6475 -3.07,-5.52375 -2.97,-6.9325 l -0.5775,-0.28 -1.835,5.67125 0.55,0.26875 c 0.19625,-0.4 0.65375,-0.70375 1.17875,-0.4475 0.75,0.36625 1.5625,1.815 3.46375,2.7425 3.58,1.745 6.45125,0.17375 7.48875,-1.95375 2.5025,-5.13 -5.6125,-9.7075 -3.78125,-13.46125 0.75625,-1.55125 2.41125,-1.705 3.66375,-1.09375 2.62625,1.28125 3.13,4.315 2.555,6.57375 l 0.62625,0.305 2.0475,-5.59875 0,0"
inkscape:connector-curvature="0" />
<path
id="path3357"
style="fill:#ed1c24;fill-opacity:1;fill-rule:evenodd;stroke:none"
d="m 458.77971,434.2392 c 1.62,1.2425 1.70375,1.6875 0.65625,3.365 l -6.38875,10.22375 c -1.0625,1.7 -1.40125,2.2425 -3.47375,1.145 l -0.28,0.44875 6.61125,4.13125 0.28,-0.44875 c -1.7875,-1.18375 -1.96875,-1.78875 -0.89125,-3.5125 l 2.685,-4.29625 c 0.5375,0.40125 0.97125,0.705 1.5375,1.05875 2.48,1.54875 4.25625,2.06875 5.87625,1.735 0.6375,-0.12625 2.2825,-0.445 3.4325,-2.2875 1.87375,-2.99875 -0.2725,-6.08 -3.53125,-8.11625 l -6.2325,-3.895 -0.28125,0.44875 0,0 z m 3.625,3.9725 c 0.48625,-0.78 0.76125,-0.64125 1.47,-0.1975 1.03875,0.64875 4.45625,2.85 2.3475,6.22625 -2.2425,3.58875 -5.4075,1.6125 -6.28125,1.06625 -0.49625,-0.31 -0.95375,-0.62875 -1.3725,-0.95625 l 3.83625,-6.13875 0,0"
inkscape:connector-curvature="0" />
<path
id="path3359"
style="fill:#ed1c24;fill-opacity:1;fill-rule:evenodd;stroke:none"
d="m 475.34221,467.74545 c -0.88625,-0.85125 -0.98875,-1.33625 -0.36375,-3.46625 l 4.85375,-16.57125 -0.4275,-0.3575 -13.2225,6.74875 c -1.1925,0.59875 -3.16,1.60125 -4.09875,1.7225 -0.72375,0.0838 -1.12125,-0.1775 -1.48,-0.44375 l -0.34125,0.40625 4.22375,3.54375 0.33875,-0.405 c -0.44625,-0.37625 -1.45,-1.2175 -0.6975,-2.11375 0.19625,-0.235 0.51125,-0.47875 0.85125,-0.6675 l 3.07375,-1.67125 5.58875,4.68875 -0.84375,2.78125 c -0.1225,0.40625 -0.435,1.3425 -0.7225,1.68375 -0.66125,0.79 -1.38375,0.22 -2.1725,-0.4425 l -0.34125,0.405 5.44,4.56375 0.34125,-0.405 0,0 z m -6.19375,-13.845 7.375,-3.8075 -2.4475,7.94125 -4.9275,-4.13375 0,0"
inkscape:connector-curvature="0" />
<path
id="path3361"
style="fill:#ed1c24;fill-opacity:1;fill-rule:nonzero;stroke:none"
d="m 495.29971,470.68295 4.25375,-4.60625 -0.41375,-0.415 c -0.8075,0.4925 -1.45625,-0.15625 -1.55625,-0.255 -0.4325,-0.43375 -1.0625,-2.3625 -2.815,-4.115 -3.38625,-3.3875 -9.07625,-4.3125 -13.48625,0.0975 -4.9025,4.9025 -3.38625,10.19875 -0.215,13.36875 3.62125,3.6225 7.775,2.855 7.835,2.835 l 0,-0.70875 c -1.20125,-0.02 -4.01625,-0.0387 -6.4375,-2.46125 -2.48125,-2.48 -3.11125,-6.53625 1.06125,-10.71 2.83625,-2.835 4.9625,-3.22875 6.4775,-3.21 1.63375,0.02 3.17,0.76875 4.155,1.7525 2.42,2.4225 2.26375,5.415 0.68875,7.97375 l 0.4525,0.45375 0,0"
inkscape:connector-curvature="0" />
<path
id="path3363"
style="fill:#ed1c24;fill-opacity:1;fill-rule:nonzero;stroke:none"
d="m 500.56721,491.21545 -0.4575,-0.63 c -2.995,0.66125 -4.49,0.0263 -6.535,-2.79 -2.43875,-3.35625 -2.41625,-3.3725 -1.4925,-4.0425 l 5.58625,-4.06 2.475,3.5025 c 1.33625,1.88625 1.26625,2.4525 -0.33875,4.0325 l 0.37625,0.51875 5.225,-3.7975 -0.37625,-0.5175 c -1.77875,0.91375 -2.48375,1.08125 -3.94,-0.92375 l -2.52125,-3.46875 5.00125,-3.63375 c 0.76625,-0.55625 0.9625,-0.28625 1.30625,0.1875 l 2.20875,3.04125 c 1.8175,2.5 1.8825,3.3475 0.12375,5.1425 l 0.40875,0.5625 3.17125,-2.4075 -8.69,-11.96125 -0.42875,0.31 c 0.91875,1.50125 1.17625,2.14 -0.6025,3.4325 l -10.00125,7.26625 c -1.73375,1.26 -2.31375,0.89 -3.45125,-0.48625 l -0.4275,0.31125 8.8375,12.16375 4.5425,-1.7525 0,0"
inkscape:connector-curvature="0" />
<path
id="path3365"
style="fill:#ed1c24;fill-opacity:1;fill-rule:evenodd;stroke:none"
d="m 512.22596,523.64045 c -0.4225,-1.15375 -0.3,-1.63375 1.19375,-3.275 l 11.6275,-12.765 -0.2275,-0.50875 -14.84375,0.26875 c -1.33375,0.015 -3.5425,0.0537 -4.4375,-0.24875 -0.6875,-0.2425 -0.9325,-0.6525 -1.13875,-1.0475 l -0.4825,0.215 2.2425,5.03625 0.4825,-0.21625 c -0.2375,-0.53375 -0.77,-1.72875 0.29875,-2.205 0.28,-0.12375 0.67,-0.20625 1.0575,-0.22625 l 3.49625,-0.155 2.9675,6.665 -1.9775,2.13 c -0.2875,0.31125 -0.98,1.015 -1.3875,1.19625 -0.94125,0.41875 -1.34,-0.40875 -1.75875,-1.35 l -0.48375,0.215 2.88875,6.48625 0.4825,-0.215 0,0 z m 0.505,-15.15875 8.29625,-0.19 -5.68125,6.06625 -2.615,-5.87625 0,0"
inkscape:connector-curvature="0" />
<path
id="path3367"
style="fill:#ed1c24;fill-opacity:1;fill-rule:evenodd;stroke:none"
d="m 511.50471,523.9917 2.18,7.60125 c 2.3475,8.19 8.2,8.80125 11.75875,7.78 5.995,-1.71875 7.69375,-6.81125 5.85125,-13.235 l -2.0725,-7.22625 -0.5075,0.14625 c 0.42875,2.10625 0.24625,2.4775 -1.73375,3.045 l -11.88375,3.4075 c -1.87375,0.5375 -2.39375,0.33875 -3.085,-1.665 l -0.5075,0.14625 0,0 z m 17.14125,0.58875 c 0.53625,-0.15375 1.045,-0.29875 1.405,0.95875 0.96625,3.3725 0.67375,5.0775 -0.10875,6.6925 -1.12875,2.3225 -3.1125,3.58625 -5.36125,4.23125 -7.7875,2.23375 -9.67625,-4.35125 -10.1675,-6.06375 -0.36875,-1.285 -0.2725,-1.66 0.6375,-1.92125 l 13.595,-3.8975 0,0"
inkscape:connector-curvature="0" />
<path
id="path3369"
style="fill:#ed1c24;fill-opacity:1;fill-rule:evenodd;stroke:none"
d="m 537.71471,563.76795 -0.675,-5.49875 -14.7075,-4.395 13.1725,-8.0975 -0.6725,-5.47125 -0.525,0.065 c 0.1425,2.05875 -0.009,2.66625 -2.16375,2.93 l -11.22125,1.3775 c -2.98375,0.36625 -3.47,-0.16375 -3.86625,-2.24625 l -0.52375,0.065 0.79625,6.49375 0.525,-0.0638 c -0.165,-2.0275 0.3725,-2.68375 3.21875,-3.0325 l 11.0275,-1.35375 0.006,0.055 -14.24375,8.73375 0.0475,0.3875 16.58625,5.08875 0.008,0.055 -12.40875,1.52375 c -2.26625,0.2775 -2.725,-0.03 -3.1,-2.1725 l -0.525,0.065 0.95,7.7375 0.525,-0.065 c -0.10625,-1.78125 0.0638,-2.4475 2.1925,-2.70875 l 12.27,-1.50625 c 2.1825,-0.26875 2.43,0.375 2.7825,2.09875 l 0.525,-0.065 0,0"
inkscape:connector-curvature="0" />
<path
id="path3371"
style="fill:#ed1c24;fill-opacity:1;fill-rule:nonzero;stroke:none"
d="m 519.34608,566.22306 -0.1425,8.27 0.5275,0.007 c 0.0925,-2.05875 0.3825,-2.72125 2.5525,-2.68375 l 12.36125,0.21625 c 2.2275,0.0387 2.40875,0.73875 2.45875,2.7725 l 0.52875,0.009 0.14375,-8.26875 -0.52875,-0.009 c -0.15125,2.30875 -0.4925,2.6925 -2.5525,2.6575 l -12.36125,-0.2175 c -1.97625,-0.0338 -2.44375,-0.37625 -2.45875,-2.74375 l -0.52875,-0.01 0,0"
inkscape:connector-curvature="0" />
<path
id="path3373"
style="fill:#ed1c24;fill-opacity:1;fill-rule:nonzero;stroke:none"
d="m 534.98346,596.1217 0.7975,-6.49375 -0.525,-0.065 c -0.36875,1.8625 -0.685,2.60875 -3.8625,2.21875 l -9.23125,-1.13375 0.008,-0.055 14.5925,-8.9525 0.58,-4.72625 -0.525,-0.0638 c -0.135,1.105 -0.3275,1.53125 -1.84875,2.49375 l -12.1875,-1.49625 c -2.985,-0.3675 -3.3275,-0.99875 -3.20875,-3.115 l -0.525,-0.065 -0.79625,6.49375 0.52375,0.065 c 0.33125,-2.0075 1.01,-2.5125 3.85625,-2.16375 l 10.77875,1.32375 -0.008,0.0562 -16.6375,10.29875 -0.0575,0.47125 14.53625,1.785 c 3.23375,0.3975 3.23625,1.295 3.215,3.05875 l 0.525,0.065 0,0"
inkscape:connector-curvature="0" />
<path
id="path3375"
style="fill:#ed1c24;fill-opacity:1;fill-rule:nonzero;stroke:none"
d="m 516.48971,593.81545 -1.86,8.05875 0.515,0.1175 c 0.5175,-1.99375 0.93875,-2.5825 3.055,-2.09375 l 12.045,2.78 c 2.17125,0.50125 2.205,1.22375 1.82875,3.2225 l 0.515,0.12 1.86125,-8.0575 -0.51625,-0.12 c -0.6275,2.2275 -1.0425,2.5325 -3.04875,2.06875 l -12.04625,-2.78125 c -1.92625,-0.445 -2.31125,-0.8775 -1.83375,-3.19625 l -0.515,-0.11875 0,0"
inkscape:connector-curvature="0" />
<path
id="path3377"
style="fill:#ed1c24;fill-opacity:1;fill-rule:nonzero;stroke:none"
d="m 529.48596,618.50195 0.16125,-0.5625 c -0.28,-0.13675 -0.8575,-0.44825 -0.6425,-1.19775 0.1925,-0.6685 1.51625,-1.853 1.9775,-3.46 0.69,-2.4075 -0.11,-5.2725 -3.16125,-6.1475 -2.64875,-0.76 -4.3175,0.615 -6.4425,2.67 -3.43125,3.275 -4.46375,3.4425 -5.9875,3.005 -1.44625,-0.41375 -2.665,-1.9225 -2.05125,-4.06375 1.03625,-3.61375 4.90625,-3.98125 6.31125,-4.12875 l 0.17625,-0.615 -5.905,-0.825 -0.16875,0.59 c 0.42875,0.1225 0.8075,0.52 0.64625,1.0825 -0.23125,0.8025 -1.5175,1.85375 -2.1,3.8875 -1.0975,3.82625 0.95,6.38388 3.225,7.03575 5.4875,1.57375 8.585,-7.212 12.6,-6.06075 1.65875,0.47625 2.0975,2.07875 1.71375,3.41625 -0.80625,2.8105 -3.70625,3.8335 -6.03125,3.65913 l -0.19125,0.669 5.87,1.04587 0,0"
inkscape:connector-curvature="0" />
<path
id="path3379"
style="fill:#ed1c24;fill-opacity:1;fill-rule:nonzero;stroke:none"
d="m 506.19846,627.19095 c 1.0275,-2.103 1.64625,-2.19337 3.37625,-1.42337 l 12.99875,5.78762 -0.6125,1.3745 c -1.245,2.79788 -2.02,3.30563 -5.05625,2.59375 l -0.2725,0.61087 4.3925,1.77238 6.3875,-14.34612 -4.255,-2.07713 -0.2725,0.61038 c 2.5225,1.79387 2.70125,2.69625 1.455,5.49412 l -0.61125,1.373 -12.7175,-5.66262 c -1.8825,-0.83888 -2.43375,-1.17575 -1.50625,-3.53513 l -0.4825,-0.21487 -3.30625,7.42675 0.4825,0.21587 0,0"
inkscape:connector-curvature="0" />
<path
id="path3381"
style="fill:#ed1c24;fill-opacity:1;fill-rule:evenodd;stroke:none"
d="m 495.57096,646.29732 c 0.61875,-0.96037 1.3875,-1.289 2.345,-1.44287 l 8.96875,-1.44525 c -0.46875,1.36862 -1.70125,4.83787 1.53125,6.70313 3.7125,2.1445 6.51625,-1.542 7.75625,-3.688 l 3.84125,-6.65525 -0.4575,-0.26463 c -1.145,1.59025 -1.57125,1.82713 -3.35375,0.79737 l -10.4425,-6.02937 c -1.8075,-1.04337 -2.2575,-1.43312 -1.25,-3.4555 l -0.46,-0.26425 -3.85625,6.67875 0.45875,0.26462 c 1.21,-1.87349 1.8075,-1.84912 3.42375,-0.91649 l 4.74875,2.74174 -0.73,1.37938 -10.74,1.45025 -2.24125,3.88175 0.4575,0.26462 0,0 z m 20.07875,-3.03562 c 0.69875,0.40438 0.7425,0.71775 0.005,1.99563 -0.57125,0.98874 -2.46625,4.10699 -5.67375,2.25487 -3.44875,-1.99112 -1.40875,-5.63625 -0.26375,-7.67575 l 5.9325,3.42525 0,0"
inkscape:connector-curvature="0" />
<path
id="path3383"
style="fill:#ed1c24;fill-opacity:1;fill-rule:evenodd;stroke:none"
d="m 483.66846,661.31445 c 0.82125,-0.914 1.30125,-1.03275 3.45125,-0.48337 l 16.73125,4.27387 0.3425,-0.43937 -7.20625,-12.981 c -0.64,-1.17088 -1.71,-3.10151 -1.86375,-4.03563 -0.10875,-0.72025 0.13875,-1.12787 0.39,-1.49663 l -0.41625,-0.32462 -3.395,4.34325 0.4175,0.32563 c 0.36125,-0.45988 1.16625,-1.49113 2.0875,-0.7715 0.24125,0.188 0.49625,0.49462 0.69625,0.82675 l 1.77875,3.01512 -4.49125,5.748 -2.80875,-0.74562 c -0.41,-0.10738 -1.3575,-0.38813 -1.7075,-0.66263 -0.8125,-0.63525 -0.26875,-1.37587 0.36625,-2.1875 l -0.4175,-0.32612 -4.37,5.59575 0.415,0.32562 0,0 z m 13.6225,-6.67237 4.06125,7.23787 -8.02125,-2.1695 3.96,-5.06837 0,0"
inkscape:connector-curvature="0" />
<path
id="path3385"
style="fill:#ed1c24;fill-opacity:1;fill-rule:nonzero;stroke:none"
d="m 477.13971,667.63045 c 1.685,-1.62362 2.2975,-1.49613 3.66,-0.18175 l 10.23375,9.88437 -1.04375,1.08101 c -2.1275,2.20362 -3.03,2.416 -5.64,0.7095 l -0.4625,0.48 3.52,3.16837 10.90875,-11.29737 -3.28875,-3.40813 -0.46375,0.48087 c 1.75625,2.54888 1.615,3.45713 -0.5125,5.66075 l -1.04375,1.08101 -10.01375,-9.66988 c -1.48375,-1.43212 -1.885,-1.9365 -0.20625,-3.837 l -0.38,-0.36763 -5.64875,5.84863 0.38125,0.36725 0,0"
inkscape:connector-curvature="0" />
<path
id="path3387"
style="fill:#ed1c24;fill-opacity:1;fill-rule:nonzero;stroke:none"
d="m 473.78471,669.93658 -6.33375,5.31587 0.34,0.40525 c 1.61375,-1.28175 2.305,-1.4975 3.7,0.166 l 7.9475,9.47025 c 1.43125,1.7065 1.02375,2.30375 -0.48,3.67338 l 0.34,0.40525 6.335,-5.31488 -0.34,-0.40538 c -1.84125,1.40001 -2.355,1.39413 -3.68,-0.18399 l -7.94625,-9.47075 c -1.27125,-1.51313 -1.31875,-2.09088 0.45875,-3.65425 l -0.34125,-0.40675 0,0"
inkscape:connector-curvature="0" />
<path
id="path3389"
style="fill:#ed1c24;fill-opacity:1;fill-rule:evenodd;stroke:none"
d="m 459.45846,680.59082 c -4.13,2.89063 -5.36625,8.21051 -1.965,13.06738 3.67375,5.24713 9.24375,5.28963 12.98375,2.67 3.74125,-2.61875 5.605,-7.86775 1.9325,-13.11425 -3.40125,-4.8585 -8.82375,-5.51375 -12.95125,-2.62313 l 0,0 z m 0.57375,0.82038 c 2.5325,-1.7725 6.28,-1.37062 9.7925,3.6465 3.6425,5.19963 2.40375,8.82025 0.0775,10.45013 -2.325,1.62837 -6.15125,1.55425 -9.7925,-3.6465 -3.51375,-5.018 -2.60875,-8.67676 -0.0775,-10.45013 l 0,0"
inkscape:connector-curvature="0" />
<path
id="path3391"
style="fill:#ed1c24;fill-opacity:1;fill-rule:nonzero;stroke:none"
d="m 442.96971,711.52345 5.83,-2.97025 -0.24125,-0.47062 c -1.74875,0.73487 -2.54375,0.88962 -3.9975,-1.96288 l -4.22375,-8.28612 0.05,-0.025 15.5825,7.09138 4.2425,-2.16212 -0.24,-0.47125 c -0.9925,0.50537 -1.45375,0.5835 -3.1025,-0.13763 l -5.575,-10.941 c -1.365,-2.67963 -1.03375,-3.31688 0.78875,-4.40175 l -0.24,-0.47175 -5.82875,2.97175 0.23875,0.47063 c 1.85,-0.84813 2.64875,-0.56738 3.95,1.98787 l 4.93125,9.67475 -0.0512,0.0259 -17.8425,-8.03363 -0.42125,0.21475 6.65,13.04988 c 1.4775,2.90224 0.73375,3.40674 -0.74,4.376 l 0.24,0.47112 0,0"
inkscape:connector-curvature="0" />
<path
id="path3393"
style="fill:#ed1c24;fill-opacity:1;fill-rule:nonzero;stroke:none"
d="m 285.00671,665.65583 c 1.68212,1.62687 1.57675,2.24312 0.30962,3.65087 l -9.51999,10.57375 -1.11775,-1.00587 c -2.27588,-2.04988 -2.52001,-2.94438 -0.90526,-5.61188 l -0.4965,-0.44675 -3.0435,3.62938 11.67038,10.50787 3.292,-3.40588 -0.497,-0.44674 c -2.48588,1.84425 -3.399,1.73437 -5.67438,-0.31388 l -1.11762,-1.00687 9.31538,-10.34576 c 1.37837,-1.53075 1.86912,-1.95012 3.82662,-0.33787 l 0.354,-0.393 -6.042,-5.441 -0.354,0.39363 0,0"
inkscape:connector-curvature="0" />
<path
id="path3395"
style="fill:#ed1c24;fill-opacity:1;fill-rule:nonzero;stroke:none"
d="m 299.42233,700.22558 5.77725,3.07174 0.24863,-0.46774 c -1.6065,-1.01075 -2.19,-1.57375 -0.68663,-4.40188 l 4.36575,-8.21037 0.0489,0.0254 3.12887,16.8325 4.20413,2.23488 0.248,-0.46725 c -0.98388,-0.5225 -1.3115,-0.8545 -1.6655,-2.61963 l 5.76412,-10.84237 c 1.41163,-2.65525 2.1245,-2.749 4.05813,-1.87888 l 0.2485,-0.46725 -5.77725,-3.07125 -0.24863,0.46775 c 1.75538,1.02738 1.98438,1.84275 0.63775,4.375 l -5.09812,9.58688 -0.0489,-0.0254 -3.65425,-19.22362 -0.418,-0.22213 -6.8755,12.93113 c -1.52875,2.87687 -2.36812,2.55562 -4.00825,1.90524 l -0.249,0.46726 0,0"
inkscape:connector-curvature="0" />
<path
id="path3397"
style="fill:#ed1c24;fill-opacity:1;fill-rule:evenodd;stroke:none"
d="m 292.33583,672.53083 c 0.92825,0.80275 1.05525,1.28262 0.5435,3.44237 l -3.981,16.80275 0.44538,0.33438 12.852,-7.433 c 1.16012,-0.65925 3.07225,-1.76375 4.00337,-1.93313 0.71838,-0.12112 1.13,0.11963 1.5025,0.36475 l 0.31838,-0.42237 -4.40338,-3.31788 -0.31787,0.42238 c 0.46687,0.3515 1.51175,1.13862 0.80812,2.07375 -0.1845,0.24462 -0.48587,0.50537 -0.81437,0.71037 l -2.984,1.8315 -5.82563,-4.391 0.69675,-2.82137 c 0.10163,-0.41113 0.36525,-1.36325 0.63338,-1.71975 0.62013,-0.82275 1.3705,-0.29188 2.19325,0.32812 l 0.31787,-0.42225 -5.66987,-4.272 -0.31838,0.42238 0,0 z m 6.90775,13.50187 -7.165,4.188 2.02825,-8.05762 5.13675,3.86962 0,0"
inkscape:connector-curvature="0" />
<path
id="path3399"
style="fill:#ed1c24;fill-opacity:1;fill-rule:nonzero;stroke:none"
d="m 281.85783,661.46095 -5.53412,-6.145 -0.39313,0.354 c 1.33688,1.56888 1.57763,2.2515 -0.0361,3.70413 l -9.1875,8.27237 c -1.65525,1.49025 -2.26563,1.10363 -3.688,-0.3515 l -0.393,0.354 5.53363,6.146 0.39312,-0.354 c -1.46388,-1.792 -1.47663,-2.30562 0.0546,-3.68412 l 9.187,-8.27238 c 1.46925,-1.32237 2.045,-1.39025 3.67038,0.3305 l 0.39312,-0.354 0,0"
inkscape:connector-curvature="0" />
<path
id="path3401"
style="fill:#ed1c24;fill-opacity:1;fill-rule:evenodd;stroke:none"
d="m 270.24996,646.32082 c -2.81838,-4.17724 -8.11525,-5.50787 -13.03225,-2.19087 -5.30963,3.58 -5.44925,9.14888 -2.8955,12.934 2.55375,3.78563 7.769,5.74275 13.07862,2.16063 4.9165,-3.31538 5.667,-8.725 2.84913,-12.90376 l 0,0 z m -0.83163,0.56151 c 1.72863,2.561 1.26275,6.30124 -3.81537,9.72749 -5.26325,3.54988 -8.86138,2.24913 -10.44975,-0.10587 -1.58788,-2.355 -1.44675,-6.17825 3.8165,-9.7275 5.0785,-3.42587 8.72112,-2.45662 10.44862,0.10588 l 0,0"
inkscape:connector-curvature="0" />
<path
id="path3403"
style="fill:#ed1c24;fill-opacity:1;fill-rule:nonzero;stroke:none"
d="m 238.75183,628.48145 2.86825,5.88138 0.4755,-0.232 c -0.704,-1.76263 -0.84562,-2.561 2.03175,-3.96475 l 8.35838,-4.07626 0.025,0.0504 -7.36288,15.455 2.0875,4.27888 0.4755,-0.232 c -0.48825,-1.00101 -0.55862,-1.46238 0.19238,-3.09813 l 11.03612,-5.38225 c 2.70263,-1.31787 3.3345,-0.97662 4.38725,0.86475 l 0.47563,-0.2325 -2.86875,-5.87987 -0.4755,0.232 c 0.81587,1.86275 0.522,2.65712 -2.05575,3.9145 l -9.76025,4.75975 -0.0244,-0.0498 8.34375,-17.70074 -0.2075,-0.42426 -13.16362,6.41938 c -2.92775,1.42825 -3.41838,0.67625 -4.36275,-0.81537 l -0.47563,0.23187 0,0"
inkscape:connector-curvature="0" />
<path
id="path3405"
style="fill:#ed1c24;fill-opacity:1;fill-rule:evenodd;stroke:none"
d="m 248.64008,602.2242 c 0.29875,1.19 0.12788,1.65625 -1.52975,3.13125 l -12.8985,11.4805 0.17188,0.52975 14.792,1.28275 c 1.32862,0.1245 3.52837,0.31737 4.38812,0.71188 0.65825,0.3135 0.858,0.74562 1.0215,1.16212 l 0.5035,-0.165 -1.70412,-5.24262 -0.503,0.16349 c 0.18075,0.55663 0.5845,1.80025 -0.52725,2.16163 -0.291,0.0958 -0.688,0.13575 -1.07475,0.11625 l -3.49363,-0.2115 -2.25487,-6.938 2.18937,-1.91125 c 0.31838,-0.28 1.08113,-0.9075 1.50438,-1.04625 0.9795,-0.3175 1.29062,0.5475 1.609,1.52625 l 0.50287,-0.1625 -2.19437,-6.7525 -0.50238,0.16375 0,0 z m -2.0865,15.02287 -8.27187,-0.67962 6.28412,-5.437 1.98775,6.11662 0,0"
inkscape:connector-curvature="0" />
<path
id="path3407"
style="fill:#ed1c24;fill-opacity:1;fill-rule:nonzero;stroke:none"
d="m 229.36521,596.12545 1.228,7.755 0.52287,-0.0825 c -0.13712,-1.755 -0.0771,-2.44 2.09525,-2.785 l 12.211,-1.93375 c 2.11713,-0.335 2.46475,0.25875 2.854,2.00125 l 0.52188,-0.0838 -2.34375,-14.79375 -4.99363,-0.56375 0.10838,0.68875 c 3.85162,0.99625 4.23975,2.74 4.89362,6.865 0.36175,2.28125 0.41263,2.78125 -0.6875,2.955 l -13.00787,2.06 c -2.17275,0.34375 -2.47413,-0.3125 -2.88038,-2.165 l -0.52187,0.0825 0,0"
inkscape:connector-curvature="0" />
</g>
<path
inkscape:connector-curvature="0"
d="m 250.05212,599.11245 c 1.90045,-54.52877 47.64386,-97.18452 102.17327,-95.27558 54.52852,1.90795 97.19107,47.65876 95.29012,102.18852 -1.90095,54.52886 -47.64456,97.18402 -102.17307,95.27497 -54.52872,-1.90784 -97.19078,-47.65895 -95.29032,-102.18791 l 0,0 z m -3.96943,-0.16873 c 1.97772,-56.73324 49.57127,-101.11523 106.30444,-99.13041 56.73398,1.98383 101.12076,49.58367 99.14294,106.31691 -1.97783,56.73474 -49.57047,101.11614 -106.30445,99.13181 -56.73397,-1.98512 -101.12136,-49.58357 -99.14293,-106.31831 l 0,0"
style="fill:#fde3ac;fill-opacity:1;fill-rule:evenodd;stroke:none"
id="path3409" />
<path
inkscape:connector-curvature="0"
d="m 218.50041,597.96928 c 2.50731,-71.96986 62.88114,-128.26979 134.85018,-125.75182 71.96953,2.51797 128.27719,62.90037 125.77021,134.87023 C 476.61382,679.05665 416.23969,735.3572 344.27016,732.83896 272.30122,730.32034 215.9931,669.93884 218.50041,597.96928 l 0,0 z m -4.66868,6.90795 c -1.30845,-74.54874 58.06275,-136.03038 132.60994,-137.3283 74.5484,-1.29593 136.03974,58.08407 137.34764,132.63081 1.3079,74.54823 -58.06284,136.03078 -132.61124,137.32753 -74.5471,1.29676 -136.03906,-58.0828 -137.34634,-132.63004 l 0,0"
style="fill:#fde3ac;fill-opacity:1;fill-rule:evenodd;stroke:none"
id="path3411" />
<path
inkscape:connector-curvature="0"
d="m 285.31934,584.77938 c 0,0 -20.78736,7.0597 -20.82789,6.99081 -0.0398,-0.0679 1.9941,1.07429 1.9941,1.07429 0,0 14.63941,-4.45388 17.18643,-5.06989 0,0 0.52416,-1.57249 1.64736,-2.99521 l 0,0"
style="fill:#ed1c24;fill-opacity:1;fill-rule:evenodd;stroke:none"
id="path3177" />
<g
transform="matrix(0.79871853,0,0,0.79872218,43.052663,148.4321)"
id="g3775">
<path
id="path3181"
style="fill:#fddd04;fill-opacity:1;fill-rule:nonzero;stroke:none"
d="m 295.36958,573.75295 c 0,-31.4925 25.52975,-57.0225 57.02263,-57.0225 31.49375,0 57.02375,25.53 57.02375,57.0225 0,31.49375 -25.53,57.0235 -57.02375,57.0235 -31.49288,0 -57.02263,-25.52975 -57.02263,-57.0235 l 0,0"
inkscape:connector-curvature="0" />
<path
id="path3183"
style="fill:none;stroke:#fddd04;stroke-width:1.40625;stroke-linecap:butt;stroke-linejoin:miter;stroke-miterlimit:3.86369991;stroke-opacity:1;stroke-dasharray:none"
d="m 295.36958,573.75295 c 0,-31.4925 25.52975,-57.0225 57.02263,-57.0225 31.49375,0 57.02375,25.53 57.02375,57.0225 0,31.49375 -25.53,57.0235 -57.02375,57.0235 -31.49288,0 -57.02263,-25.52975 -57.02263,-57.0235 l 0,0 z"
inkscape:connector-curvature="0" />
<path
id="path3413"
style="fill:#fddd04;fill-opacity:1;fill-rule:nonzero;stroke:none"
d="m 380.90096,620.65433 c -24.22625,14.35637 -49.25213,7.793 -55.1745,-0.93513 -5.92287,-8.7275 -7.75638,-22.19125 -3.63175,-32.71875 1.86562,-4.76375 3.28125,-15.25875 24.205,-28.69 28.38875,-18.2225 48.9675,-5.6 48.9675,-5.6 0,0 6.6325,1.40375 11.32,12.65375 4.33375,10.40125 -0.4375,40.32875 -25.68625,55.29013 l 0,0"
inkscape:connector-curvature="0" />
<path
id="path3415"
style="fill:#f8d405;fill-opacity:1;fill-rule:nonzero;stroke:none"
d="m 380.79096,620.18895 c -23.93,14.23488 -48.876,7.874 -54.8755,-0.73237 -5.99263,-8.59613 -7.711,-22.05863 -3.61138,-32.52363 1.855,-4.735 3.26225,-15.1675 24.06188,-28.51875 28.22,-18.115 48.675,-5.5675 48.675,-5.5675 0,0 6.46875,1.22875 11.15625,12.36125 4.28,10.175 -0.1875,39.975 -25.40625,54.981 l 0,0"
inkscape:connector-curvature="0" />
<path
id="path3417"
style="fill:#f2cc07;fill-opacity:1;fill-rule:nonzero;stroke:none"
d="m 380.68221,619.7232 c -23.635,14.11475 -48.50163,7.95413 -54.57825,-0.52887 -6.0625,-8.46388 -7.66463,-21.92763 -3.58887,-32.32888 1.84324,-4.7075 3.24212,-15.0775 23.91712,-28.3475 28.05125,-18.00625 48.38375,-5.53375 48.38375,-5.53375 0,0 6.3025,1.0525 10.99,12.0675 4.22625,9.94875 0.0625,39.62125 -25.12375,54.6715 l 0,0"
inkscape:connector-curvature="0" />
<path
id="path3419"
style="fill:#edc408;fill-opacity:1;fill-rule:nonzero;stroke:none"
d="m 380.57221,619.25633 c -23.34,13.99562 -48.1255,8.03525 -54.27975,-0.32413 -6.13238,-8.333 -7.61875,-21.7955 -3.5675,-32.1355 1.83212,-4.6775 3.22275,-14.985 23.7735,-28.17625 27.8825,-17.8975 48.09125,-5.5 48.09125,-5.5 0,0 6.13875,0.8775 10.82625,11.775 4.1725,9.72125 0.3125,39.26875 -24.84375,54.36088 l 0,0"
inkscape:connector-curvature="0" />
<path
id="path3421"
style="fill:#e8bc09;fill-opacity:1;fill-rule:nonzero;stroke:none"
d="m 380.46221,618.79158 c -23.04375,13.87299 -47.74988,8.11512 -53.98138,-0.12213 -6.20212,-8.20025 -7.57174,-21.66275 -3.54587,-31.94025 1.82175,-4.64875 3.20312,-14.895 23.62975,-28.005 27.7125,-17.79 47.8,-5.4675 47.8,-5.4675 0,0 5.9725,0.70125 10.66,11.4825 4.11875,9.49625 0.56375,38.91375 -24.5625,54.05238 l 0,0"
inkscape:connector-curvature="0" />
<path
id="path3423"
style="fill:#e3b50b;fill-opacity:1;fill-rule:nonzero;stroke:none"
d="m 380.35346,618.3252 c -22.74875,13.75337 -47.375,8.19588 -53.68463,0.0815 -6.27187,-8.07 -7.52537,-21.53125 -3.52337,-31.74375 1.81,-4.6225 3.18362,-14.805 23.4855,-27.83625 27.54375,-17.68125 47.50875,-5.4325 47.50875,-5.4325 0,0 5.8075,0.525 10.495,11.18875 4.065,9.26875 0.8125,38.56125 -24.28125,53.74225 l 0,0"
inkscape:connector-curvature="0" />
<path
id="path3425"
style="fill:#ddad0c;fill-opacity:1;fill-rule:nonzero;stroke:none"
d="m 380.24471,617.85895 c -22.45375,13.63275 -47.00013,8.27638 -53.38638,0.28563 -6.34225,-7.93788 -7.47999,-21.39913 -3.503,-31.55038 1.79938,-4.5925 3.16413,-14.71375 23.34188,-27.66375 27.375,-17.5725 47.2175,-5.40125 47.2175,-5.40125 0,0 5.64125,0.35125 10.32875,10.8975 4.01125,9.0425 1.06375,38.2075 -23.99875,53.43225 l 0,0"
inkscape:connector-curvature="0" />
<path
id="path3427"
style="fill:#d9a60d;fill-opacity:1;fill-rule:nonzero;stroke:none"
d="m 380.13471,617.39358 c -22.15875,13.51225 -46.625,8.35687 -53.08838,0.48825 -6.41162,-7.80638 -7.43362,-21.26763 -3.4805,-31.35513 1.78813,-4.565 3.144,-14.6225 23.19638,-27.49375 27.20625,-17.46375 46.92625,-5.36625 46.92625,-5.36625 0,0 5.4775,0.175 10.165,10.60375 3.9575,8.815 1.3125,37.855 -23.71875,53.12313 l 0,0"
inkscape:connector-curvature="0" />
<path
id="path3429"
style="fill:#d49f0e;fill-opacity:1;fill-rule:nonzero;stroke:none"
d="m 380.02596,616.92733 c -21.86375,13.391 -46.25013,8.4375 -52.79063,0.69237 -6.48199,-7.67425 -7.38775,-21.13425 -3.4595,-31.16175 1.77688,-4.535 3.125,-14.53125 23.05263,-27.3225 27.0375,-17.35375 46.63375,-5.33375 46.63375,-5.33375 0,0 5.3125,0 10,10.3125 3.905,8.59 1.5625,37.5 -23.43625,52.81312 l 0,0"
inkscape:connector-curvature="0" />
<path
id="path3431"
style="fill:#d49f0e;fill-opacity:1;fill-rule:nonzero;stroke:none"
d="m 327.21333,611.3017 c 0,0 -3.4375,-6.875 -2.37062,-16.02625 1.06975,-9.17625 5.84325,-19.73875 13.5595,-26.1675 9.74875,-8.11875 13.81125,-10.93125 27.405,-13.11875 14.62125,-2.3525 19.51875,4.7925 21.0925,7.34375 0.9975,1.61625 3.86625,7.40625 1.25,12.03125 -12.18625,20 -39.165,34.49625 -60.93638,35.9375 l 0,0"
inkscape:connector-curvature="0" />
<path
id="path3433"
style="fill:#d9a60d;fill-opacity:1;fill-rule:nonzero;stroke:none"
d="m 327.29146,610.83295 c 0,0 -3.28425,-6.85875 -2.23,-15.8975 1.05662,-9.06125 6.02737,-19.5475 13.64825,-25.895 9.625,-8.01625 13.715,-10.715 27.13875,-12.875 14.43875,-2.32375 19.275,4.73125 20.83,7.25125 0.985,1.595 3.73375,7.1825 1.15,11.75125 -11.705,19.2825 -39.03875,34.24125 -60.537,35.665 l 0,0"
inkscape:connector-curvature="0" />
<path
id="path3435"
style="fill:#ddad0c;fill-opacity:1;fill-rule:nonzero;stroke:none"
d="m 327.36958,610.3642 c 0,0 -3.13087,-6.84625 -2.09037,-15.77 1.043,-8.94625 6.2115,-19.35375 13.7355,-25.62 9.50375,-7.91625 13.6225,-10.50125 26.875,-12.63375 14.25625,-2.295 19.03,4.67125 20.56625,7.16 0.97125,1.57375 3.60375,6.95875 1.0525,11.47 -11.22375,18.565 -38.9125,33.9875 -60.13888,35.39375 l 0,0"
inkscape:connector-curvature="0" />
<path
id="path3437"
style="fill:#e3b50b;fill-opacity:1;fill-rule:nonzero;stroke:none"
d="m 327.44771,609.89545 c 0,0 -2.97713,-6.83125 -1.95075,-15.64125 1.03025,-8.83125 6.396,-19.16125 13.824,-25.3475 9.3825,-7.81375 13.52625,-10.28625 26.61,-12.39125 14.07375,-2.265 18.78875,4.61125 20.3025,7.0675 0.96,1.55375 3.4725,6.7375 0.95375,11.19 -10.7425,17.84625 -38.785,33.735 -59.7395,35.1225 l 0,0"
inkscape:connector-curvature="0" />
<path
id="path3439"
style="fill:#e8bc09;fill-opacity:1;fill-rule:nonzero;stroke:none"
d="m 327.52583,609.4267 c 0,0 -2.82375,-6.8175 -1.81012,-15.5125 1.01612,-8.71625 6.58012,-18.96875 13.9115,-25.075 9.26,-7.7125 13.4325,-10.07125 26.34625,-12.15 13.89125,-2.235 18.5425,4.5525 20.03875,6.97625 0.94625,1.535 3.33875,6.515 0.85375,10.91125 -10.26,17.12875 -38.6575,33.48125 -59.34013,34.85 l 0,0"
inkscape:connector-curvature="0" />
<path
id="path3441"
style="fill:#edc408;fill-opacity:1;fill-rule:nonzero;stroke:none"
d="m 327.60396,608.95795 c 0,0 -2.67087,-6.805 -1.6705,-15.385 1.0035,-8.60125 6.76475,-18.775 14,-24.80125 9.1375,-7.61 13.3375,-9.8575 26.08125,-11.9075 13.7075,-2.20625 18.29875,4.49125 19.77625,6.885 0.93375,1.51375 3.20625,6.2925 0.75375,10.62875 -9.77875,16.41125 -38.53,33.2275 -58.94075,34.58 l 0,0"
inkscape:connector-curvature="0" />
<path
id="path3443"
style="fill:#f2cc07;fill-opacity:1;fill-rule:nonzero;stroke:none"
d="m 327.68208,608.4892 c 0,0 -2.51762,-6.79 -1.52987,-15.255 0.98937,-8.4875 6.94875,-18.58375 14.0875,-24.53 9.01625,-7.50875 13.2425,-9.64125 25.81625,-11.665 13.525,-2.17625 18.055,4.4325 19.5125,6.7925 0.92125,1.49375 3.075,6.07125 0.655,10.35 -9.29625,15.6925 -38.40375,32.97375 -58.54138,34.3075 l 0,0"
inkscape:connector-curvature="0" />
<path
id="path3445"
style="fill:#f8d405;fill-opacity:1;fill-rule:nonzero;stroke:none"
d="m 327.76021,608.02045 c 0,0 -2.36375,-6.775 -1.39013,-15.1275 0.97651,-8.3725 7.13326,-18.39125 14.17463,-24.25625 8.895,-7.4075 13.14875,-9.42625 25.55375,-11.4225 13.34125,-2.14625 17.81,4.3725 19.2475,6.7 0.91,1.475 2.94375,5.8475 0.55625,10.07 -8.81375,14.97625 -38.27625,32.72125 -58.142,34.03625 l 0,0"
inkscape:connector-curvature="0" />
<path
id="path3447"
style="fill:#fddd04;fill-opacity:1;fill-rule:nonzero;stroke:none"
d="m 327.83833,607.5517 c 0,0 -2.21049,-6.7625 -1.25,-15 0.96288,-8.2575 7.31788,-18.1975 14.26263,-23.98125 8.7725,-7.30625 13.05375,-9.2125 25.28875,-11.18125 13.15875,-2.11875 17.56625,4.3125 18.985,6.60875 0.89625,1.45375 2.8125,5.625 0.4575,9.78875 -8.33375,14.2575 -38.15,32.46875 -57.74387,33.765 l 0,0"
inkscape:connector-curvature="0" />
</g>
<path
inkscape:connector-curvature="0"
d="m 417.02942,603.28278 c 0.51617,-1.05731 2.3033,-1.24801 3.99259,-0.42333 1.68929,0.82369 2.63977,2.34924 2.1236,3.40755 -0.51617,1.05831 -2.30431,1.24801 -3.9926,0.42432 -1.68829,-0.82468 -2.63976,-2.35024 -2.12359,-3.40854 l 0,0"
style="fill:#ffffff;fill-opacity:1;fill-rule:nonzero;stroke:none"
id="path3451" />
<g
id="g3455"
transform="matrix(0.99839816,0,0,-0.99840272,212.62097,739.04858)">
<text
transform="matrix(1,0,0,-1,117.527,247.688)"
id="text3457">
<tspan
 style="font-size:12px;font-variant:normal;font-weight:normal;writing-mode:lr-tb;fill:#231f20;fill-opacity:1;fill-rule:nonzero;stroke:none;font-family:Helvetica Neue;-inkscape-font-specification:Helvetica"
 x="0"
 y="0"
 id="tspan3459" />
</text>
</g>
<g
transform="matrix(0.79871853,0,0,0.79872218,-149.13644,109.39602)"
id="g3284">
<path
id="path3242"
style="fill:#ffffff;fill-opacity:1;fill-rule:nonzero;stroke:none"
d="m 680.95028,584.48862 c 0,-7.14125 5.79,-12.93 12.93125,-12.93 7.14,0 12.92875,5.78875 12.92875,12.93 0,7.14125 -5.78875,12.93 -12.92875,12.93 -7.14125,0 -12.93125,-5.78875 -12.93125,-12.93 l 0,0"
inkscape:connector-curvature="0" />
<path
id="path3246"
style="fill:#f7f9fa;fill-opacity:1;fill-rule:nonzero;stroke:none"
d="m 702.75403,575.07112 c 0.0362,0.425 0.0462,0.85625 0.0462,1.29125 0,8.64125 -7.00375,15.645 -15.64375,15.645 -1.58625,0 -2.86235,-0.21938 -4.31656,-0.61516 2.3725,2.84125 5.65281,4.62766 9.64281,4.62766 7.14125,0 12.93,-5.7875 12.93,-12.92875 0,-3.00125 -0.9425,-5.82625 -2.65875,-8.02 l 0,0"
inkscape:connector-curvature="0"
sodipodi:nodetypes="csscsscc" />
<path
id="path3248"
style="fill:#eff4f6;fill-opacity:1;fill-rule:nonzero;stroke:none"
d="m 702.90903,575.22612 c 0.035,0.425 0.0475,0.85625 0.0475,1.29125 0,8.64125 -7.00625,15.645 -15.64625,15.645 -1.585,0 -2.93015,-0.25062 -4.37781,-0.61515 2.3725,2.84125 5.71531,4.62765 9.70531,4.62765 7.14125,0 12.93,-5.7875 12.93,-12.92875 0,-3.00125 -0.9425,-5.82625 -2.65875,-8.02 l 0,0"
inkscape:connector-curvature="0"
sodipodi:nodetypes="csscsscc" />
<path
id="path3250"
style="fill:#e7eef1;fill-opacity:1;fill-rule:nonzero;stroke:none"
d="m 703.09403,575.34237 c 0.035,0.42625 0.0463,0.8575 0.0463,1.2925 0,8.64125 -7.005,15.645 -15.645,15.645 -1.58625,0 -3.06422,-0.18813 -4.50672,-0.62688 2.37125,2.84125 5.84297,4.63938 9.83422,4.63938 7.14125,0 12.92875,-5.78875 12.92875,-12.93 0,-3 -0.94125,-5.825 -2.6575,-8.02 l 0,0"
inkscape:connector-curvature="0"
sodipodi:nodetypes="csscsscc" />
<path
id="path3252"
style="fill:#dfe8ec;fill-opacity:1;fill-rule:nonzero;stroke:none"
d="m 703.22028,575.53612 c 0.0337,0.42625 0.0462,0.8575 0.0462,1.2925 0,8.64125 -7.00375,15.645 -15.645,15.645 -1.585,0 -3.06422,-0.21672 -4.50672,-0.65422 2.37125,2.84125 5.84297,4.66672 9.83422,4.66672 7.14125,0 12.93,-5.78875 12.93,-12.93 0,-3.00125 -0.94375,-5.825 -2.65875,-8.02 l 0,0"
inkscape:connector-curvature="0"
sodipodi:nodetypes="csscsscc" />
<path
id="path3254"
style="fill:#d8e3e8;fill-opacity:1;fill-rule:nonzero;stroke:none"
d="m 703.37528,575.69112 c 0.035,0.42625 0.0463,0.8575 0.0463,1.2925 0,8.64 -7.00375,15.645 -15.64375,15.645 -1.58625,0 -3.1175,-0.235 -4.55875,-0.67375 2.3725,2.84125 5.895,4.6875 9.885,4.6875 7.14125,0 12.93,-5.79 12.93,-12.93 0,-3.00125 -0.94375,-5.8275 -2.65875,-8.02125 l 0,0"
inkscape:connector-curvature="0" />
<path
id="path3256"
style="fill:#d0dde3;fill-opacity:1;fill-rule:nonzero;stroke:none"
d="m 703.53028,575.84737 c 0.035,0.42625 0.0462,0.85625 0.0462,1.2925 0,8.64 -7.00375,15.645 -15.64375,15.645 -1.58625,0 -3.1175,-0.23625 -4.55875,-0.675 2.3725,2.8425 5.895,4.68625 9.885,4.68625 7.14125,0 12.93,-5.7875 12.93,-12.92875 0,-3.00125 -0.9425,-5.82625 -2.65875,-8.02 l 0,0"
inkscape:connector-curvature="0" />
<path
id="path3258"
style="fill:#c9d8de;fill-opacity:1;fill-rule:nonzero;stroke:none"
d="m 703.68528,576.00237 c 0.035,0.425 0.0475,0.85625 0.0475,1.29125 0,8.64125 -7.005,15.64625 -15.64625,15.64625 -1.585,0 -3.115,-0.23625 -4.5575,-0.675 2.3725,2.84125 5.895,4.6875 9.88625,4.6875 7.14,0 12.92875,-5.78875 12.92875,-12.93 0,-3.00125 -0.9425,-5.82625 -2.65875,-8.02 l 0,0"
inkscape:connector-curvature="0" />
<path
id="path3260"
style="fill:#c1d3da;fill-opacity:1;fill-rule:nonzero;stroke:none"
d="m 703.84153,576.15737 c 0.035,0.42625 0.0463,0.8575 0.0463,1.2925 0,8.64 -7.00375,15.645 -15.645,15.645 -1.58625,0 -3.11625,-0.235 -4.5575,-0.67375 2.3725,2.84125 5.89375,4.68625 9.88375,4.68625 7.14125,0 12.93125,-5.78875 12.93125,-12.93 0,-3.00125 -0.94375,-5.825 -2.65875,-8.02 l 0,0"
inkscape:connector-curvature="0" />
<path
id="path3262"
style="fill:#bacdd5;fill-opacity:1;fill-rule:nonzero;stroke:none"
d="m 703.99653,576.33362 c 0.035,0.42625 0.0462,0.8575 0.0462,1.2925 0,8.64 -7.00375,15.645 -15.645,15.645 -1.585,0 -3.115,-0.23625 -4.5575,-0.675 2.37125,2.8425 5.89375,4.6875 9.885,4.6875 7.14,0 12.93,-5.78875 12.93,-12.93 0,-3.00125 -0.94375,-5.82625 -2.65875,-8.02 l 0,0"
inkscape:connector-curvature="0" />
<path
id="path3264"
style="fill:#b3c8d1;fill-opacity:1;fill-rule:nonzero;stroke:none"
d="m 704.15153,576.46862 c 0.0362,0.425 0.0475,0.85625 0.0475,1.29125 0,8.64125 -7.005,15.645 -15.645,15.645 -1.58625,0 -3.11625,-0.235 -4.55875,-0.67375 2.3725,2.84125 5.895,4.6875 9.88625,4.6875 7.14,0 12.92875,-5.78875 12.92875,-12.93 0,-3.00125 -0.9425,-5.82625 -2.65875,-8.02 l 0,0"
inkscape:connector-curvature="0" />
<path
id="path3266"
style="fill:none;stroke:#ffffff;stroke-width:0.234375;stroke-linecap:butt;stroke-linejoin:miter;stroke-miterlimit:3.86369991;stroke-opacity:1;stroke-dasharray:none"
d="m 680.95028,584.48862 c 0,-7.14125 5.79,-12.93 12.93125,-12.93 7.14,0 12.92875,5.78875 12.92875,12.93 0,7.14125 -5.78875,12.93 -12.92875,12.93 -7.14125,0 -12.93125,-5.78875 -12.93125,-12.93 l 0,0 z"
inkscape:connector-curvature="0" />
</g>
<g
transform="matrix(0.79871853,0,0,0.79872218,43.052663,148.4321)"
id="g3765">
<path
id="path3179"
style="fill:none;stroke:#ffffff;stroke-width:1.5;stroke-linecap:round;stroke-linejoin:miter;stroke-miterlimit:3.86369991;stroke-opacity:1;stroke-dasharray:none"
d="m 287.58346,589.82295 c -8.66463,-4.24 -13.522,-8.92 -13.3155,-13.67125 0.25537,-5.85875 6.8945,-12.31875 23.9415,-15.22"
inkscape:connector-curvature="0" />
<path
id="path3185"
style="fill:none;stroke:#ffffff;stroke-width:1.640625;stroke-linecap:round;stroke-linejoin:round;stroke-miterlimit:3.86369991;stroke-opacity:1;stroke-dasharray:none"
d="m 474.74971,572.7192 c 7.86875,4.06875 12.2275,8.52 12.03,13.035 -0.635,14.59375 -48.7225,24.3425 -107.40625,21.7775 -39.5725,-1.73125 -73.85688,-8.6175 -91.79638,-17.39625"
inkscape:connector-curvature="0" />
<path
id="path3187"
style="fill:none;stroke:#ffffff;stroke-width:1.5;stroke-linecap:round;stroke-linejoin:miter;stroke-miterlimit:3.86369991;stroke-opacity:1;stroke-dasharray:none"
d="m 474.43721,572.4067 c 7.86875,4.06875 12.2275,8.52 12.03125,13.035 -0.63625,14.59375 -48.72375,24.34375 -107.4075,21.7775 -39.5725,-1.73125 -73.85688,-8.6175 -91.79637,-17.39625"
inkscape:connector-curvature="0" />
<path
id="path3449"
style="fill:none;stroke:#ffffff;stroke-width:1.40625;stroke-linecap:round;stroke-linejoin:round;stroke-miterlimit:3.86369991;stroke-opacity:1;stroke-dasharray:none"
d="m 474.74971,572.4067 c 7.86875,4.06875 12.2275,8.52 12.03,13.035 -0.635,14.59375 -48.7225,24.34375 -107.40625,21.7775 -39.5725,-1.73125 -73.85688,-8.6175 -91.79638,-17.39625"
inkscape:connector-curvature="0" />
</g>
<path
inkscape:connector-curvature="0"
d="m 355.61396,572.65577 c 6.4766,-1.90595 18.86972,-6.92092 19.29304,-6.99281 -4.40593,2.21546 -30.51804,15.33547 -40.59986,19.54473 -9.87715,4.12341 -27.33694,12.8135 -34.04458,16.256 -6.70684,3.44149 -11.73547,6.15016 -20.58956,11.58646 -8.8546,5.4353 -15.29546,12.79753 -15.29546,12.79753 l 0.30661,1.84005 c 0,0 4.97711,-5.01897 11.80875,-9.66154 7.32065,-4.97604 13.6484,-8.28175 22.34934,-12.79753 8.70124,-4.51577 22.6235,-11.36482 25.34414,-12.50699 2.72063,-1.14117 18.8228,-7.88938 26.03023,-11.72324 5.75278,-3.05911 47.38698,-19.32309 60.11556,-46.16015 -13.03509,14.10942 -25.76367,19.62959 -32.31716,22.91833 -5.17469,2.59685 -20.74871,8.17492 -27.82935,10.6869 1.98482,1.35583 3.04612,2.19849 5.4283,4.21226 l 0,0"
style="fill:#ed1c24;fill-opacity:1;fill-rule:nonzero;stroke:none"
id="path3453" />
<path
inkscape:connector-curvature="0"
d="m 298.22872,528.33468 c 0,-0.27157 0.21995,-0.49121 0.49181,-0.49121 0.27147,0 0.49141,0.21964 0.49141,0.49121 0,0.27157 -0.21994,0.49121 -0.49141,0.49121 -0.27186,0 -0.49181,-0.21964 -0.49181,-0.49121 l 0,0"
style="fill:#ffffff;fill-opacity:1;fill-rule:nonzero;stroke:none;display:inline"
id="path3201" />
<path
inkscape:connector-curvature="0"
d="m 291.86473,530.44331 c 0,-0.3774 0.30581,-0.68291 0.68291,-0.68291 0.37709,0 0.6836,0.30551 0.6836,0.68291 0,0.37739 -0.30651,0.6829 -0.6836,0.6829 -0.3771,0 -0.68291,-0.30551 -0.68291,-0.6829 l 0,0"
style="fill:#ffffff;fill-opacity:1;fill-rule:nonzero;stroke:none;display:inline"
id="path3203" />
<path
inkscape:connector-curvature="0"
d="m 299.14875,544.3221 c 0,-0.29253 0.23751,-0.53015 0.53004,-0.53015 0.29244,0 0.52995,0.23762 0.52995,0.53015 0,0.29254 -0.23751,0.53015 -0.52995,0.53015 -0.29253,0 -0.53004,-0.23761 -0.53004,-0.53015 l 0,0"
style="fill:#ffffff;fill-opacity:1;fill-rule:nonzero;stroke:none;display:inline"
id="path3205" />
<path
inkscape:connector-curvature="0"
d="m 296.44798,546.46168 c 0,-0.35543 0.28864,-0.64397 0.64507,-0.64397 0.35612,0 0.64506,0.28854 0.64506,0.64397 0,0.35643 -0.28894,0.64497 -0.64506,0.64497 -0.35643,0 -0.64507,-0.28854 -0.64507,-0.64497 l 0,0"
style="fill:#ffffff;fill-opacity:1;fill-rule:nonzero;stroke:none;display:inline"
id="path3207" />
<path
inkscape:connector-curvature="0"
d="m 295.08496,551.49163 c 0,-0.3135 0.2547,-0.56809 0.5678,-0.56809 0.31439,0 0.56869,0.25459 0.56869,0.56809 0,0.3135 -0.2543,0.56809 -0.56869,0.56809 -0.3131,0 -0.5678,-0.25459 -0.5678,-0.56809 l 0,0"
style="fill:#ffffff;fill-opacity:1;fill-rule:nonzero;stroke:none;display:inline"
id="path3211" />
<path
inkscape:connector-curvature="0"
d="m 292.93801,554.02159 c 0,-0.48323 0.39197,-0.87461 0.87519,-0.87461 0.48283,0 0.87431,0.39138 0.87431,0.87461 0,0.48322 -0.39148,0.87559 -0.87431,0.87559 -0.48322,0 -0.87519,-0.39237 -0.87519,-0.87559 l 0,0"
style="fill:#ffffff;fill-opacity:1;fill-rule:nonzero;stroke:none;display:inline"
id="path3213" />
<path
inkscape:connector-curvature="0"
d="m 299.07227,560.34747 c 0,-0.3764 0.30581,-0.68291 0.68291,-0.68291 0.37759,0 0.6833,0.30651 0.6833,0.68291 0,0.37739 -0.30571,0.6829 -0.6833,0.6829 -0.3771,0 -0.68291,-0.30551 -0.68291,-0.6829 l 0,0"
style="fill:#ffffff;fill-opacity:1;fill-rule:nonzero;stroke:none;display:inline"
id="path3215" />
<path
inkscape:connector-curvature="0"
d="m 296.38878,563.06112 c 0,-0.4353 0.35333,-0.78873 0.78973,-0.78873 0.4356,0 0.78933,0.35343 0.78933,0.78873 0,0.43631 -0.35373,0.78974 -0.78933,0.78974 -0.4364,0 -0.78973,-0.35343 -0.78973,-0.78974 l 0,0"
style="fill:#ffffff;fill-opacity:1;fill-rule:nonzero;stroke:none;display:inline"
id="path3217" />
<path
inkscape:connector-curvature="0"
d="m 278.90583,557.39519 c 0,-0.39836 0.32328,-0.72085 0.72153,-0.72085 0.39857,0 0.72145,0.32249 0.72145,0.72085 0,0.39936 -0.32288,0.72184 -0.72145,0.72184 -0.39825,0 -0.72153,-0.32248 -0.72153,-0.72184 l 0,0"
style="fill:#ffffff;fill-opacity:1;fill-rule:nonzero;stroke:none;display:inline"
id="path3219" />
<path
inkscape:connector-curvature="0"
d="m 290.38311,557.76659 -0.44339,-1.74221 -1.7425,-0.44329 1.7425,-0.44329 0.44339,-1.74221 0.44379,1.74221 1.7426,0.44329 -1.7426,0.44329 -0.44379,1.74221 0,0"
style="fill:#ffffff;fill-opacity:1;fill-rule:nonzero;stroke:none;display:inline"
id="path3221" />
<path
inkscape:connector-curvature="0"
d="m 301.14285,550.2646 c 0,-0.56809 0.46016,-1.02836 1.02805,-1.02836 0.56779,0 1.02795,0.46027 1.02795,1.02836 0,0.56809 -0.46016,1.02835 -1.02795,1.02835 -0.56789,0 -1.02805,-0.46026 -1.02805,-1.02835 l 0,0"
style="fill:#ffffff;fill-opacity:1;fill-rule:nonzero;stroke:none;display:inline"
id="path3209" />
<path
inkscape:connector-curvature="0"
d="m 308.83161,561.81711 -0.44379,-1.74321 -1.7421,-0.44229 1.7421,-0.44429 0.44379,-1.74321 0.44349,1.74321 1.7425,0.44429 -1.7425,0.44229 -0.44349,1.74321 0,0"
style="fill:#ffffff;fill-opacity:1;fill-rule:nonzero;stroke:none;display:inline"
id="path3223" />
<path
inkscape:connector-curvature="0"
d="m 402.96199,558.35266 c 0,-0.42133 0.34145,-0.76178 0.76178,-0.76178 0.42032,0 0.76178,0.34045 0.76178,0.76178 0,0.42032 -0.34146,0.76078 -0.76178,0.76078 -0.42033,0 -0.76178,-0.34046 -0.76178,-0.76078 l 0,0"
style="fill:#ffffff;fill-opacity:1;fill-rule:nonzero;stroke:none;display:inline"
id="path3231" />
<path
inkscape:connector-curvature="0"
d="m 416.9176,574.99204 c 0,-0.33547 0.27256,-0.60903 0.60802,-0.60903 0.33646,0 0.60903,0.27356 0.60903,0.60903 0,0.33546 -0.27257,0.60802 -0.60903,0.60802 -0.33546,0 -0.60802,-0.27256 -0.60802,-0.60802 l 0,0"
style="fill:#ffffff;fill-opacity:1;fill-rule:nonzero;stroke:none;display:inline"
id="path3233" />
<path
inkscape:connector-curvature="0"
d="m 427.16416,574.57371 -0.44429,-1.74222 -1.7422,-0.44429 1.7422,-0.44329 0.44429,-1.74321 0.44429,1.74321 1.7412,0.44329 -1.7412,0.44429 -0.44429,1.74222 0,0"
style="fill:#ffffff;fill-opacity:1;fill-rule:nonzero;stroke:none;display:inline"
id="path3225" />
<path
inkscape:connector-curvature="0"
d="m 428.90537,590.97247 -0.44429,-1.74321 -1.74221,-0.44329 1.74221,-0.44329 0.44429,-1.74222 0.44328,1.74222 1.74321,0.44329 -1.74321,0.44329 -0.44328,1.74321 0,0"
style="fill:#ffffff;fill-opacity:1;fill-rule:nonzero;stroke:none;display:inline"
id="path3227" />
<path
inkscape:connector-curvature="0"
d="m 420.73248,579.67954 -0.44329,-1.74321 -1.7422,-0.44329 1.7422,-0.4433 0.44329,-1.74221 0.44329,1.74221 1.7432,0.4433 -1.7432,0.44329 -0.44329,1.74321 0,0"
style="fill:#ffffff;fill-opacity:1;fill-rule:nonzero;stroke:none;display:inline"
id="path3229" />
<path
inkscape:connector-curvature="0"
d="m 423.49604,575.74783 c 0,-0.33547 0.27157,-0.60803 0.60703,-0.60803 0.33646,0 0.60902,0.27256 0.60902,0.60803 0,0.33646 -0.27256,0.60802 -0.60902,0.60802 -0.33546,0 -0.60703,-0.27156 -0.60703,-0.60802 l 0,0"
style="fill:#ffffff;fill-opacity:1;fill-rule:nonzero;stroke:none;display:inline"
id="path3235" />
<path
inkscape:connector-curvature="0"
d="m 417.59152,586.17614 c 0,-0.33646 0.27156,-0.60802 0.60802,-0.60802 0.33546,0 0.60803,0.27156 0.60803,0.60802 0,0.33647 -0.27257,0.60903 -0.60803,0.60903 -0.33646,0 -0.60802,-0.27256 -0.60802,-0.60903 l 0,0"
style="fill:#ffffff;fill-opacity:1;fill-rule:nonzero;stroke:none;display:inline"
id="path3237" />
<path
inkscape:connector-curvature="0"
d="m 434.01716,579.24723 c 0,-0.52616 0.42732,-0.95248 0.95347,-0.95248 0.52616,0 0.95248,0.42632 0.95248,0.95248 0,0.52616 -0.42632,0.95347 -0.95248,0.95347 -0.52615,0 -0.95347,-0.42731 -0.95347,-0.95347 l 0,0"
style="fill:#ffffff;fill-opacity:1;fill-rule:nonzero;stroke:none;display:inline"
id="path3243" />
<path
inkscape:connector-curvature="0"
d="m 420.67557,583.19092 c 0,-0.29054 0.23462,-0.52616 0.52516,-0.52616 0.29053,0 0.52515,0.23562 0.52515,0.52616 0,0.28954 -0.23462,0.52516 -0.52515,0.52516 -0.29054,0 -0.52516,-0.23562 -0.52516,-0.52516 l 0,0"
style="fill:#ffffff;fill-opacity:1;fill-rule:nonzero;stroke:none;display:inline"
id="path3245" />
<path
inkscape:connector-curvature="0"
d="m 421.73188,588.93673 c 0,-0.33547 0.27256,-0.60803 0.60702,-0.60803 0.33746,0 0.60902,0.27256 0.60902,0.60803 0,0.33646 -0.27156,0.60802 -0.60902,0.60802 -0.33446,0 -0.60702,-0.27156 -0.60702,-0.60802 l 0,0"
style="fill:#ffffff;fill-opacity:1;fill-rule:nonzero;stroke:none;display:inline"
id="path3239" />
<path
inkscape:connector-curvature="0"
d="m 423.4621,582.18353 c 0,-0.19768 0.16074,-0.35843 0.35942,-0.35843 0.19868,0 0.35943,0.16075 0.35943,0.35843 0,0.19669 -0.16075,0.35743 -0.35943,0.35743 -0.19868,0 -0.35942,-0.16074 -0.35942,-0.35743 l 0,0"
style="fill:#ffffff;fill-opacity:1;fill-rule:nonzero;stroke:none;display:inline"
id="path3241" />
<path
inkscape:connector-curvature="0"
d="m 391.40453,661.11854 -0.49321,-1.93909 -1.93988,-0.49451 1.93988,-0.49301 0.49321,-1.9406 0.49421,1.9406 1.93989,0.49301 -1.93989,0.49451 -0.49421,1.93909 0,0"
style="fill:#ffffff;fill-opacity:1;fill-rule:nonzero;stroke:none;display:inline"
id="path3247" />
<path
inkscape:connector-curvature="0"
d="m 375.76263,669.4002 -0.49421,-1.9391 -1.93989,-0.4945 1.93989,-0.49292 0.49421,-1.94069 0.49321,1.94069 1.93988,0.49292 -1.93988,0.4945 -0.49321,1.9391 0,0"
style="fill:#ffffff;fill-opacity:1;fill-rule:nonzero;stroke:none;display:inline"
id="path3249" />
<path
inkscape:connector-curvature="0"
d="m 371.96472,627.00482 c 0,-0.36441 0.29553,-0.65994 0.65994,-0.65994 0.36442,0 0.65994,0.29553 0.65994,0.65994 0,0.36442 -0.29552,0.65995 -0.65994,0.65995 -0.36441,0 -0.65994,-0.29553 -0.65994,-0.65995 l 0,0"
style="fill:#ffffff;fill-opacity:1;fill-rule:nonzero;stroke:none;display:inline"
id="path3253" />
<path
inkscape:connector-curvature="0"
d="m 374.87805,640.72068 c 0,-0.35872 0.29253,-0.65005 0.65095,-0.65005 0.35943,0 0.64996,0.29133 0.64996,0.65005 0,0.36003 -0.29053,0.65016 -0.64996,0.65016 -0.35842,0 -0.65095,-0.29013 -0.65095,-0.65016 l 0,0"
style="fill:#ffffff;fill-opacity:1;fill-rule:nonzero;stroke:none;display:inline"
id="path3255" />
<path
inkscape:connector-curvature="0"
d="m 382.16336,638.7746 c 0,-0.38499 0.3125,-0.69849 0.69788,-0.69849 0.38538,0 0.69888,0.3135 0.69888,0.69849 0,0.38608 -0.3135,0.69808 -0.69888,0.69808 -0.38538,0 -0.69788,-0.312 -0.69788,-0.69808 l 0,0"
style="fill:#ffffff;fill-opacity:1;fill-rule:nonzero;stroke:none;display:inline"
id="path3257" />
<path
inkscape:connector-curvature="0"
d="m 396.69704,666.12734 c 0,-0.27027 0.21865,-0.48942 0.48922,-0.48942 0.26956,0 0.48921,0.21915 0.48921,0.48942 0,0.27106 -0.21965,0.49022 -0.48921,0.49022 -0.27057,0 -0.48922,-0.21916 -0.48922,-0.49022 l 0,0"
style="fill:#ffffff;fill-opacity:1;fill-rule:nonzero;stroke:none;display:inline"
id="path3275" />
<path
inkscape:connector-curvature="0"
d="m 398.99735,664.2105 c 0,-0.44 0.35643,-0.79563 0.79572,-0.79563 0.4403,0 0.79573,0.35563 0.79573,0.79563 0,0.4395 -0.35543,0.79633 -0.79573,0.79633 -0.43929,0 -0.79572,-0.35683 -0.79572,-0.79633 l 0,0"
style="fill:#ffffff;fill-opacity:1;fill-rule:nonzero;stroke:none;display:inline"
id="path3277" />
<path
inkscape:connector-curvature="0"
d="m 387.87719,672.31474 -0.49321,-1.9403 -1.94088,-0.49331 1.94088,-0.49461 0.49321,-1.939 0.49421,1.939 1.93889,0.49461 -1.93889,0.49331 -0.49421,1.9403 0,0"
style="fill:#ffffff;fill-opacity:1;fill-rule:nonzero;stroke:none;display:inline"
id="path3251" />
<path
inkscape:connector-curvature="0"
d="m 366.63827,670.40879 c 0,-0.43331 0.35143,-0.78315 0.78374,-0.78315 0.43231,0 0.78274,0.34984 0.78274,0.78315 0,0.43171 -0.35043,0.78274 -0.78274,0.78274 -0.43231,0 -0.78374,-0.35103 -0.78374,-0.78274 l 0,0"
style="fill:#ffffff;fill-opacity:1;fill-rule:nonzero;stroke:none;display:inline"
id="path3259" />
<path
inkscape:connector-curvature="0"
d="m 372.46592,673.78189 c 0,-0.38957 0.31649,-0.70557 0.70587,-0.70557 0.39137,0 0.70786,0.316 0.70786,0.70557 0,0.38998 -0.31649,0.70707 -0.70786,0.70707 -0.38938,0 -0.70587,-0.31709 -0.70587,-0.70707 l 0,0"
style="fill:#ffffff;fill-opacity:1;fill-rule:nonzero;stroke:none;display:inline"
id="path3261" />
<path
inkscape:connector-curvature="0"
d="m 369.09233,674.94523 c 0,-0.35483 0.28754,-0.64227 0.64297,-0.64227 0.35543,0 0.64297,0.28744 0.64297,0.64227 0,0.35613 -0.28754,0.64357 -0.64297,0.64357 -0.35543,0 -0.64297,-0.28744 -0.64297,-0.64357 l 0,0"
style="fill:#ffffff;fill-opacity:1;fill-rule:nonzero;stroke:none;display:inline"
id="path3263" />
<path
inkscape:connector-curvature="0"
d="m 363.80082,679.81444 c 0,-0.33346 0.28255,-0.60453 0.63099,-0.60453 0.34744,0 0.62999,0.27107 0.62999,0.60453 0,0.33416 -0.28255,0.60523 -0.62999,0.60523 -0.34844,0 -0.63099,-0.27107 -0.63099,-0.60523 l 0,0"
style="fill:#ffffff;fill-opacity:1;fill-rule:nonzero;stroke:none;display:inline"
id="path3265" />
<path
inkscape:connector-curvature="0"
d="m 360.35135,678.80435 c 0,-0.28354 0.22964,-0.51487 0.51418,-0.51487 0.28454,0 0.51517,0.23133 0.51517,0.51487 0,0.28465 -0.23063,0.51478 -0.51517,0.51478 -0.28454,0 -0.51418,-0.23013 -0.51418,-0.51478 l 0,0"
style="fill:#ffffff;fill-opacity:1;fill-rule:nonzero;stroke:none;display:inline"
id="path3267" />
<path
inkscape:connector-curvature="0"
d="m 379.75023,678.24276 c 0,-0.39787 0.32348,-0.71956 0.71985,-0.71956 0.39836,0 0.71984,0.32169 0.71984,0.71956 0,0.39775 -0.32148,0.71954 -0.71984,0.71954 -0.39637,0 -0.71985,-0.32179 -0.71985,-0.71954 l 0,0"
style="fill:#ffffff;fill-opacity:1;fill-rule:nonzero;stroke:none;display:inline"
id="path3269" />
<path
inkscape:connector-curvature="0"
d="m 394.31886,673.24605 c 0,-0.39118 0.31649,-0.70707 0.70686,-0.70707 0.39038,0 0.70687,0.31589 0.70687,0.70707 0,0.38957 -0.31649,0.70547 -0.70687,0.70547 -0.39037,0 -0.70686,-0.3159 -0.70686,-0.70547 l 0,0"
style="fill:#ffffff;fill-opacity:1;fill-rule:nonzero;stroke:none;display:inline"
id="path3273" />
<path
inkscape:connector-curvature="0"
d="m 398.68984,672.49216 c 0,-0.27107 0.21965,-0.48942 0.48922,-0.48942 0.27156,0 0.49021,0.21835 0.49021,0.48942 0,0.26986 -0.21865,0.48941 -0.49021,0.48941 -0.26957,0 -0.48922,-0.21955 -0.48922,-0.48941 l 0,0"
style="fill:#ffffff;fill-opacity:1;fill-rule:nonzero;stroke:none;display:inline"
id="path3279" />
<path
inkscape:connector-curvature="0"
d="m 380.67075,674.33221 c 0,-0.3132 0.2536,-0.56669 0.56709,-0.56669 0.3115,0 0.5661,0.25349 0.5661,0.56669 0,0.3127 -0.2546,0.56619 -0.5661,0.56619 -0.31349,0 -0.56709,-0.25349 -0.56709,-0.56619 l 0,0"
style="fill:#ffffff;fill-opacity:1;fill-rule:nonzero;stroke:none;display:inline"
id="path3271" />
<path
inkscape:connector-curvature="0"
d="m 281.81326,652.59239 -0.49371,-1.94029 -1.93988,-0.49332 1.93988,-0.49461 0.49371,-1.93899 0.49381,1.93899 1.93979,0.49461 -1.93979,0.49332 -0.49381,1.94029 0,0"
style="fill:#ffffff;fill-opacity:1;fill-rule:nonzero;stroke:none;display:inline"
id="path3281" />
<path
inkscape:connector-curvature="0"
d="m 273.67012,642.80525 c 0,-0.36192 0.29364,-0.65515 0.65515,-0.65515 0.36192,0 0.65525,0.29323 0.65525,0.65515 0,0.36152 -0.29333,0.65525 -0.65525,0.65525 -0.36151,0 -0.65515,-0.29373 -0.65515,-0.65525 l 0,0"
style="fill:#ffffff;fill-opacity:1;fill-rule:nonzero;stroke:none;display:inline"
id="path3283" />
<path
inkscape:connector-curvature="0"
d="m 270.52627,645.10507 c 0,-0.36152 0.29373,-0.65476 0.65525,-0.65476 0.36192,0 0.65514,0.29324 0.65514,0.65476 0,0.36192 -0.29322,0.65565 -0.65514,0.65565 -0.36152,0 -0.65525,-0.29373 -0.65525,-0.65565 l 0,0"
style="fill:#ffffff;fill-opacity:1;fill-rule:nonzero;stroke:none;display:inline"
id="path3285" />
<path
inkscape:connector-curvature="0"
d="m 289.54266,648.82492 c 0,-0.34126 0.27615,-0.61702 0.61661,-0.61702 0.34085,0 0.61741,0.27576 0.61741,0.61702 0,0.34005 -0.27656,0.61621 -0.61741,0.61621 -0.34045,0 -0.61661,-0.27616 -0.61661,-0.61621 l 0,0"
style="fill:#ffffff;fill-opacity:1;fill-rule:nonzero;stroke:none;display:inline"
id="path3287" />
<path
inkscape:connector-curvature="0"
d="m 292.60964,652.42855 c 0,-0.38339 0.3104,-0.69418 0.69338,-0.69418 0.38339,0 0.69379,0.31079 0.69379,0.69418 0,0.38339 -0.3104,0.69299 -0.69379,0.69299 -0.38298,0 -0.69338,-0.3096 -0.69338,-0.69299 l 0,0"
style="fill:#ffffff;fill-opacity:1;fill-rule:nonzero;stroke:none;display:inline"
id="path3289" />
<path
inkscape:connector-curvature="0"
d="m 287.3957,656.03219 c 0,-0.34046 0.27616,-0.61742 0.61662,-0.61742 0.34085,0 0.6174,0.27696 0.6174,0.61742 0,0.34005 -0.27655,0.61691 -0.6174,0.61691 -0.34045,0 -0.61662,-0.27686 -0.61662,-0.61691 l 0,0"
style="fill:#ffffff;fill-opacity:1;fill-rule:nonzero;stroke:none;display:inline"
id="path3291" />
<path
inkscape:connector-curvature="0"
d="m 290.84647,658.63932 c 0,-0.34006 0.27576,-0.61741 0.61661,-0.61741 0.34085,0 0.61651,0.27735 0.61651,0.61741 0,0.34125 -0.27566,0.61741 -0.61651,0.61741 -0.34085,0 -0.61661,-0.27616 -0.61661,-0.61741 l 0,0"
style="fill:#ffffff;fill-opacity:1;fill-rule:nonzero;stroke:none;display:inline"
id="path3293" />
<path
inkscape:connector-curvature="0"
d="m 291.99613,662.89501 c 0,-0.36152 0.29373,-0.65525 0.65524,-0.65525 0.36192,0 0.65515,0.29373 0.65515,0.65525 0,0.36192 -0.29323,0.65515 -0.65515,0.65515 -0.36151,0 -0.65524,-0.29323 -0.65524,-0.65515 l 0,0"
style="fill:#ffffff;fill-opacity:1;fill-rule:nonzero;stroke:none;display:inline"
id="path3295" />
<path
inkscape:connector-curvature="0"
d="m 286.09239,659.06134 c 0,-0.44738 0.36153,-0.80931 0.80801,-0.80931 0.44658,0 0.8089,0.36193 0.8089,0.80931 0,0.44649 -0.36232,0.80841 -0.8089,0.80841 -0.44648,0 -0.80801,-0.36192 -0.80801,-0.80841 l 0,0"
style="fill:#ffffff;fill-opacity:1;fill-rule:nonzero;stroke:none;display:inline"
id="path3297" />
</g>
</g>
</svg>
