<?xml version="1.0" encoding="UTF-8" standalone="no"?>
<!-- Created with Inkscape (http://www.inkscape.org/) -->
<svg
   xmlns:svg="http://www.w3.org/2000/svg"
   xmlns="http://www.w3.org/2000/svg"
   version="1.0"
   width="720"
   height="310"
   id="svg2206">
  <defs
     id="defs2208" />
  <g
     id="layer1">
    <g
       transform="matrix(720,0,0,720,-7.79184e-7,-205.00002)"
       id="g3524">
      <path
         d="M 0.99673878,0.62820941 L 0.48509685,0.62870167 L 0.39729627,0.62507125 C 0.39729627,0.62507125 0.18649856,0.63227055 0.1854402,0.6285786 C 0.18433262,0.62464053 0.20469369,0.62014866 0.20637353,0.61633365 C 0.20762264,0.61356469 0.3985946,0.60095054 0.40342489,0.60058135 C 0.58311797,0.58415219 0.89884073,0.44219686 0.99686185,0.31488626 L 0.99673878,0.62820941 z "
         style="font-style:normal;font-variant:normal;font-weight:normal;font-stretch:normal;letter-spacing:normal;word-spacing:normal;text-anchor:start;fill:#000000;fill-opacity:1;fill-rule:nonzero;stroke:#000000;stroke-width:0;stroke-linecap:butt;stroke-linejoin:miter;stroke-miterlimit:10.43299961;stroke-dasharray:none;stroke-dashoffset:0;stroke-opacity:1"
         id="path12" />
      <path
         d="M 0.99433902,0.31291722 L 0.98997022,0.31845514 L 0.98529376,0.32405459 L 0.98030963,0.32965404 L 0.97501785,0.33531503 L 0.96947993,0.34097601 L 0.96369588,0.34669853 L 0.95760418,0.35248258 L 0.95120481,0.35820509 L 0.94455931,0.36405067 L 0.93766768,0.36983472 L 0.93052992,0.3756803 L 0.92314603,0.38152588 L 0.91551601,0.38737146 L 0.90757833,0.39321705 L 0.89114918,0.40496974 L 0.87373551,0.41672244 L 0.85546039,0.4284136 L 0.83632381,0.44004323 L 0.81638731,0.45161132 L 0.79571242,0.46305636 L 0.77429915,0.47437833 L 0.75220901,0.4855157 L 0.72938049,0.49646847 C 0.6118536,0.55172459 0.48985946,0.58950551 0.40313569,0.59738166 L 0.38820793,0.59842771 L 0.28033548,0.60611926 C 0.20753034,0.61165718 0.20469369,0.61258017 0.20361072,0.61479534 C 0.20270004,0.61584139 0.19793744,0.61774889 0.19507618,0.61891801 C 0.18796303,0.6217485 0.18219745,0.62408673 0.18219745,0.62814788 C 0.18219745,0.6285786 0.18226513,0.62900933 0.1823882,0.62944006 C 0.18323119,0.63239361 0.18342194,0.63307047 0.21901844,0.63276281 C 0.23663516,0.63263974 0.26115583,0.63214748 0.29184819,0.63134756 C 0.3435231,0.63005538 0.39565951,0.62827094 0.39729627,0.62820941 C 0.39751163,0.62820941 0.48497994,0.63183982 0.48497994,0.63183982 L 0.99993847,0.63140909 L 1,0.30553333 L 0.99433902,0.31291722 z "
         style="font-style:normal;font-variant:normal;font-weight:normal;font-stretch:normal;letter-spacing:normal;word-spacing:normal;text-anchor:start;fill:#000000;fill-opacity:1;fill-rule:nonzero;stroke:#000000;stroke-width:0;stroke-linecap:butt;stroke-linejoin:miter;stroke-miterlimit:10.43299961;stroke-dasharray:none;stroke-dashoffset:0;stroke-opacity:1"
         id="path14" />
      <path
         d="M 0.38866327,0.60476555 L 0.4037141,0.6037195 C 0.49113318,0.59572028 0.61388417,0.5578163 0.73208792,0.50219098 C 0.85133772,0.44607341 0.94585149,0.38152588 0.99366216,0.32374693 C 0.99366216,0.34036069 0.99360063,0.61904108 0.99360063,0.62507125 C 0.98732433,0.62507125 0.48509685,0.62550198 0.48509685,0.62550198 L 0.39732088,0.62187157 L 0.3971732,0.62187157 C 0.32602944,0.62433286 0.22197199,0.62722489 0.19371016,0.62636343 C 0.19503311,0.62574811 0.1963499,0.62525585 0.19743287,0.62482512 C 0.20291541,0.62260996 0.20642275,0.62101011 0.20822565,0.61904108 C 0.21507421,0.61731817 0.27564671,0.61251864 0.38866327,0.60476555 z "
         style="font-style:normal;font-variant:normal;font-weight:normal;font-stretch:normal;letter-spacing:normal;word-spacing:normal;text-anchor:start;fill:#00aeff;fill-opacity:0.9372549;fill-rule:nonzero;stroke:#000000;stroke-width:0;stroke-linecap:butt;stroke-linejoin:miter;stroke-miterlimit:10.43299961;stroke-dasharray:none;stroke-dashoffset:0;stroke-opacity:1"
         id="path16" />
      <path
         d="M 0.0031750731,0.63602403 L 0.0031750731,0.5147436 L 0.020121097,0.5147436 C 0.029683232,0.55129387 0.045140172,0.57781435 0.066510375,0.5944281 C 0.087831353,0.61104186 0.11229664,0.61934874 0.13986931,0.61934874 C 0.16664205,0.61934874 0.18570479,0.61362622 0.19700214,0.60218119 C 0.20829949,0.59079769 0.21394817,0.57879886 0.21394817,0.56618472 C 0.21394817,0.55154 0.20798568,0.53954117 0.19613454,0.53031131 C 0.18827685,0.52428113 0.17248148,0.51634344 0.14876074,0.50662132 L 0.11056758,0.49080748 C 0.072663616,0.47517825 0.045958553,0.45967207 0.030452387,0.44441203 C 0.014952375,0.42909045 0.0072115987,0.4102 0.0072115987,0.38767913 C 0.0072115987,0.36374301 0.017475204,0.34140674 0.038076252,0.32067031 C 0.058628075,0.29993388 0.090181891,0.28959643 0.13268232,0.28959643 C 0.15431096,0.28959643 0.17522583,0.29230386 0.19541461,0.29771871 C 0.21560339,0.30313356 0.22714071,0.30584099 0.23002658,0.30584099 C 0.23651825,0.30584099 0.24101012,0.30430268 0.24350833,0.30116453 C 0.24598809,0.29802637 0.24800635,0.29396523 0.24954466,0.28885804 L 0.26706909,0.28885804 L 0.26706909,0.39555528 L 0.25069532,0.39555528 C 0.24283763,0.37088077 0.22901745,0.34959055 0.20921017,0.33168461 C 0.18938443,0.31384021 0.16531911,0.30485647 0.13698344,0.30485647 C 0.11708386,0.30485647 0.10133772,0.30940987 0.089751164,0.31839361 C 0.078164613,0.32743888 0.072374413,0.33839165 0.072374413,0.35131346 C 0.072374413,0.36681963 0.077832338,0.3783262 0.088742033,0.38601775 C 0.099460977,0.39383237 0.12328017,0.4052774 0.16024884,0.42047591 L 0.20445372,0.43862798 C 0.22418716,0.4468118 0.23988407,0.45579553 0.25153831,0.46570225 C 0.27336385,0.48416198 0.28429816,0.50668285 0.28429816,0.53320333 C 0.28429816,0.55787784 0.27257009,0.58119863 0.24911393,0.60316571 C 0.22567624,0.62507125 0.18811071,0.63602403 0.13640503,0.63602403 C 0.12455389,0.63602403 0.112512,0.63516257 0.10037781,0.6333166 C 0.088212854,0.63147063 0.076195576,0.62864013 0.064319822,0.62482512 L 0.052856335,0.62119471 C 0.050167369,0.62057939 0.047595315,0.62008713 0.045090946,0.6196564 C 0.04259273,0.6192872 0.040500629,0.61904108 0.038771568,0.61904108 C 0.032642941,0.61904108 0.028434125,0.62057939 0.026151272,0.62347141 C 0.023843807,0.62642497 0.021850157,0.63060917 0.020121097,0.63602403 L 0.0031750731,0.63602403 z "
         style="font-style:normal;font-variant:normal;font-weight:normal;font-stretch:normal;letter-spacing:normal;word-spacing:normal;text-anchor:start;fill:#ffffff;fill-opacity:1;fill-rule:nonzero;stroke:#ffffff;stroke-width:0;stroke-linecap:butt;stroke-linejoin:miter;stroke-miterlimit:10.43299961;stroke-dasharray:none;stroke-dashoffset:0;stroke-opacity:1"
         id="path18" />
      <path
         d="M 0.26706909,0.28565835 L 0.24718797,0.28565835 L 0.24651727,0.28793505 C 0.24509587,0.29261152 0.24324374,0.29642653 0.24103473,0.29919549 C 0.23920722,0.30147219 0.23548451,0.3026413 0.23002658,0.3026413 C 0.22856211,0.3026413 0.22223658,0.30165679 0.1962576,0.29464209 C 0.17582269,0.2891657 0.15443403,0.28639674 0.13268232,0.28639674 C 0.089486575,0.28639674 0.056917474,0.29716492 0.035818013,0.31845514 C 0.014737012,0.33968383 0.00404268,0.36300462 0.00404268,0.38767913 C 0.00404268,0.41093839 0.012164957,0.43081336 0.028218761,0.4466272 C 0.043964903,0.4621949 0.07126683,0.47800874 0.10936769,0.49369951 L 0.14756086,0.50957488 C 0.1709001,0.5191124 0.18659086,0.52692702 0.19421472,0.53283414 C 0.2053644,0.54151021 0.21077309,0.55246298 0.21077309,0.56618472 C 0.21077309,0.57787588 0.20538901,0.58919785 0.1947439,0.59996602 C 0.18411726,0.61067266 0.16565754,0.61614905 0.13986931,0.61614905 C 0.11313963,0.61614905 0.089105074,0.60802677 0.068430186,0.59190527 C 0.047761452,0.57584531 0.032519876,0.54963249 0.023197717,0.51394368 L 0.022570087,0.51154391 L 1.0822e-09,0.51154391 L 1.0822e-09,0.63922371 L 0.022428562,0.63922371 L 0.023148491,0.63700855 C 0.02476064,0.63196289 0.026606612,0.62808634 0.028655641,0.62544045 C 0.030310863,0.62328681 0.033725911,0.62224076 0.038771568,0.62224076 C 0.040285265,0.62224076 0.042254302,0.62242536 0.04458638,0.62279455 C 0.04458638,0.62279455 0.052111793,0.62433286 0.052111793,0.62433286 L 0.063384529,0.62784021 C 0.075401808,0.63171676 0.087708288,0.63460878 0.099897857,0.63645475 C 0.11215511,0.63830073 0.12443698,0.63922371 0.13640503,0.63922371 C 0.18868296,0.63922371 0.22733762,0.62790175 0.25127372,0.60550394 C 0.27528367,0.58298307 0.28744862,0.55867776 0.28744862,0.53320333 C 0.28744862,0.5058214 0.27607743,0.48231601 0.2536058,0.46330249 C 0.24173005,0.45321117 0.2256024,0.4439813 0.20567821,0.43573596 L 0.16144872,0.41752236 C 0.12489232,0.40250844 0.10107313,0.39106341 0.090618771,0.38343339 C 0.080472078,0.37629563 0.075549485,0.36583511 0.075549485,0.35131346 C 0.075549485,0.33931463 0.080835119,0.32940791 0.091701741,0.32091644 C 0.10266066,0.31236343 0.11789609,0.30805616 0.13698344,0.30805616 C 0.1643592,0.30805616 0.18793842,0.31679376 0.207075,0.33402285 C 0.22637156,0.35143652 0.2400256,0.37248062 0.24766792,0.3965398 L 0.24836939,0.39875497 L 0.2702134,0.39875497 L 0.2702134,0.28565835 L 0.26706909,0.28565835 z "
         style="font-style:normal;font-variant:normal;font-weight:normal;font-stretch:normal;letter-spacing:normal;word-spacing:normal;text-anchor:start;fill:#000000;fill-opacity:1;fill-rule:nonzero;stroke:#000000;stroke-width:0;stroke-linecap:butt;stroke-linejoin:miter;stroke-miterlimit:10.43299961;stroke-dasharray:none;stroke-dashoffset:0;stroke-opacity:1"
         id="path20" />
      <path
         d="M 0.26389402,0.29199619 L 0.26389402,0.29236539 L 0.26389402,0.29279612 L 0.26389402,0.29334991 L 0.26389402,0.29402676 L 0.26389402,0.29482669 L 0.26389402,0.29568814 L 0.26389402,0.29667266 L 0.26389402,0.29778024 L 0.26389402,0.29894936 L 0.26389402,0.30018001 L 0.26389402,0.30153372 L 0.26389402,0.30294897 L 0.26389402,0.30442575 L 0.26389402,0.30602559 L 0.26389402,0.30934834 L 0.26389402,0.31291722 L 0.26389402,0.31673223 L 0.26389402,0.32067031 L 0.26389402,0.32479298 L 0.26389402,0.32903872 L 0.26389402,0.33340752 L 0.26389402,0.34220666 L 0.26389402,0.35106733 L 0.26389402,0.3553746 L 0.26389402,0.35962034 L 0.26389402,0.36374301 L 0.26389402,0.36774262 L 0.26389402,0.3714961 L 0.26389402,0.37512651 L 0.26389402,0.37844926 L 0.26389402,0.37998757 L 0.26389402,0.38152588 L 0.26389402,0.38294113 L 0.26389402,0.38423331 L 0.26389402,0.38552549 L 0.26389402,0.38669461 L 0.26389402,0.38774066 L 0.26389402,0.38872518 L 0.26389402,0.38964816 L 0.26389402,0.39038655 L 0.26389402,0.39106341 L 0.26389402,0.3916172 L 0.26389402,0.39210946 L 0.26389402,0.39241712 C 0.26045436,0.39241712 0.25553176,0.39241712 0.2529351,0.39241712 C 0.24480667,0.36817335 0.23086958,0.34694466 0.21132689,0.32934638 C 0.19099043,0.31100972 0.16597135,0.30171832 0.13698344,0.30171832 C 0.11645623,0.30171832 0.099916317,0.30651785 0.08780674,0.31593231 C 0.075451034,0.32553137 0.069199341,0.33740713 0.069199341,0.35131346 C 0.069199341,0.36780415 0.075161831,0.38035677 0.086939133,0.38860211 C 0.097898054,0.39660133 0.12150188,0.40798483 0.15904896,0.42342947 L 0.20324768,0.44158154 C 0.22257501,0.44958075 0.23814886,0.45850296 0.24949544,0.46810202 C 0.27047798,0.48594642 0.28112924,0.50779044 0.28112924,0.53320333 C 0.28112924,0.55683179 0.26964114,0.57966032 0.24694799,0.60082747 C 0.22423638,0.6221177 0.18702774,0.63288587 0.13640503,0.63288587 C 0.12475079,0.63288587 0.11277659,0.63196289 0.10085776,0.63017845 C 0.088982009,0.628394 0.077013957,0.62556351 0.065310494,0.62181003 L 0.053791628,0.61824115 C 0.053576264,0.61811809 0.045595512,0.61651825 0.045595512,0.61651825 C 0.042881933,0.61608752 0.040648307,0.61590292 0.038771568,0.61590292 C 0.031683035,0.61590292 0.026581999,0.61781043 0.023653057,0.6215639 C 0.021444044,0.6243944 0.019567305,0.62814788 0.017862858,0.63288587 C 0.015216964,0.63288587 0.009857492,0.63288587 0.0063501451,0.63288587 C 0.0063501451,0.62704029 0.0063501451,0.52372734 0.0063501451,0.51788176 C 0.0098082661,0.51788176 0.015001601,0.51788176 0.017739793,0.51788176 C 0.027498832,0.55375516 0.043220361,0.58033717 0.064559798,0.59695093 C 0.086360729,0.61387235 0.11169977,0.62248689 0.13986931,0.62248689 C 0.16741121,0.62248689 0.18738463,0.61639518 0.19926038,0.60445789 C 0.21111152,0.59245906 0.21711709,0.57953725 0.21711709,0.56618472 C 0.21711709,0.55055548 0.21072387,0.53763367 0.19808511,0.52785001 C 0.18991361,0.52151217 0.17416747,0.51363602 0.14996062,0.50366776 L 0.11179207,0.48785393 C 0.074441902,0.47247082 0.047835291,0.45708771 0.032692167,0.44213533 C 0.017887471,0.42749061 0.010386671,0.40915395 0.010386671,0.38767913 C 0.010386671,0.36472753 0.020453372,0.34294505 0.040334491,0.32288548 C 0.060166385,0.30288743 0.091240248,0.29273458 0.13268232,0.29273458 C 0.15388023,0.29273458 0.17472126,0.29544201 0.19459623,0.30079533 C 0.22211967,0.30817922 0.22800832,0.30904068 0.23002658,0.30904068 C 0.23750277,0.30904068 0.24286224,0.30707164 0.24598809,0.3031951 C 0.24832017,0.30024154 0.25016614,0.29642653 0.25170445,0.29199619 C 0.25435034,0.29199619 0.26026361,0.29199619 0.26389402,0.29199619 z "
         style="font-style:normal;font-variant:normal;font-weight:normal;font-stretch:normal;letter-spacing:normal;word-spacing:normal;text-anchor:start;fill:#000000;fill-opacity:1;fill-rule:nonzero;stroke:#000000;stroke-width:0;stroke-linecap:butt;stroke-linejoin:miter;stroke-miterlimit:10.43299961;stroke-dasharray:none;stroke-dashoffset:0;stroke-opacity:1"
         id="path22" />
      <path
         d="M 0.47002757,0.62913239 L 0.47927589,0.62900933 L 0.48829039,0.62870167 L 0.49707721,0.62820941 L 0.50562406,0.62753255 L 0.51394324,0.6266711 L 0.5220286,0.62556351 L 0.52988014,0.62427133 L 0.53749785,0.62279455 L 0.54488789,0.62113318 L 0.55204411,0.6192872 L 0.55893574,0.6171951 L 0.56564277,0.6149184 L 0.57210367,0.6124571 L 0.57831844,0.60981121 L 0.58428709,0.60691919 L 0.59007113,0.6039041 C 0.62009895,0.58704421 0.63511285,0.56507713 0.63511285,0.53794133 C 0.63511285,0.50889802 0.61942209,0.48631562 0.58804056,0.47000952 C 0.57191907,0.46170264 0.55296709,0.45579553 0.53117232,0.45228818 L 0.53117232,0.44773478 C 0.55185951,0.4445351 0.57105762,0.43702814 0.58871742,0.42515238 C 0.60643875,0.41327662 0.61529942,0.39715512 0.61529942,0.37691095 C 0.61529942,0.34356037 0.59351695,0.32060878 0.54982894,0.30799463 C 0.52668045,0.30128759 0.49757562,0.29790331 0.46255138,0.29790331 L 0.28079082,0.29790331 L 0.28079082,0.31039439 C 0.29781068,0.31119431 0.30958798,0.31310182 0.31609811,0.31611691 C 0.32701396,0.32110103 0.33246573,0.33070009 0.33246573,0.34509868 L 0.33246573,0.58218315 C 0.33246573,0.59658174 0.32881686,0.60285805 0.31715647,0.60802677 C 0.31023407,0.61104186 0.29494942,0.60956508 0.27906176,0.60999581 L 0.28079082,0.62913239 L 0.47002757,0.62913239 z M 0.42637648,0.33648414 L 0.42638263,0.33562269 L 0.42640725,0.33482277 L 0.42643801,0.33402285 L 0.42648724,0.33322292 L 0.42655493,0.33248453 L 0.42662876,0.33174615 L 0.42672106,0.33100776 L 0.42682567,0.33026937 L 0.42694258,0.32959251 L 0.42707795,0.32891565 L 0.42721948,0.3282388 L 0.42738561,0.32756194 L 0.4275579,0.32694662 L 0.42774865,0.32633129 L 0.42795171,0.32571597 L 0.42816707,0.32516218 L 0.42839474,0.32454685 L 0.42864087,0.32399306 L 0.42889931,0.3235008 L 0.42917005,0.32294701 L 0.42945925,0.32245475 L 0.42976076,0.32196249 L 0.43007458,0.32147023 L 0.4304007,0.3210395 L 0.43074528,0.32060878 L 0.43110217,0.32017805 L 0.43147136,0.31974732 L 0.43185902,0.31937813 L 0.43225898,0.3189474 L 0.43267125,0.31863974 L 0.43309582,0.31827054 L 0.43353885,0.31790135 C 0.43832607,0.31451706 0.44682985,0.31279416 0.45911787,0.31279416 C 0.48226021,0.31279416 0.4979079,0.319132 0.50605479,0.33193074 C 0.51418322,0.34466796 0.51824436,0.36042026 0.51824436,0.37906459 C 0.51824436,0.40429288 0.51201728,0.42182963 0.49959389,0.43167482 C 0.48713973,0.44158154 0.46274213,0.44656567 0.42637648,0.44656567 L 0.42637648,0.33648414 z M 0.42637648,0.46139498 L 0.4293485,0.46133345 L 0.43226513,0.46133345 L 0.4351387,0.46133345 L 0.43795688,0.46139498 L 0.44073199,0.46145651 L 0.44345172,0.46151805 L 0.44612223,0.46157958 L 0.44874351,0.46170264 L 0.45131556,0.46188724 L 0.45383839,0.46201031 L 0.456312,0.4621949 L 0.45873637,0.46244103 L 0.46110537,0.46262563 L 0.46343129,0.46293329 L 0.46570184,0.46317942 L 0.46792931,0.46348708 L 0.47010141,0.46379475 L 0.47222427,0.46410241 L 0.47429792,0.4644716 L 0.47632233,0.46490233 L 0.47829752,0.46527153 L 0.48022349,0.46570225 L 0.48210023,0.46613298 L 0.48392158,0.46662524 L 0.48569987,0.4671175 L 0.48742278,0.46760976 L 0.48910261,0.46816355 L 0.49072707,0.46871734 L 0.4923023,0.46933267 L 0.4938283,0.46988646 L 0.49530508,0.47056331 L 0.49673263,0.47117864 C 0.52141328,0.4826852 0.53376898,0.5058214 0.53376898,0.54058722 C 0.53376898,0.56384648 0.52814492,0.58181395 0.51697064,0.5944281 C 0.50577174,0.60704225 0.48627828,0.61331856 0.45853947,0.61331856 C 0.44493465,0.61331856 0.43575402,0.60981121 0.4309668,0.60279651 C 0.42808708,0.5987969 0.42656723,0.5925206 0.42637648,0.58390606 L 0.42637648,0.46139498 z "
         style="font-style:normal;font-variant:normal;font-weight:normal;font-stretch:normal;letter-spacing:normal;word-spacing:normal;text-anchor:start;fill:#ffffff;fill-opacity:1;fill-rule:nonzero;stroke:#ffffff;stroke-width:0;stroke-linecap:butt;stroke-linejoin:miter;stroke-miterlimit:10.43299961;stroke-dashoffset:0;stroke-opacity:1"
         id="path26" />
      <path
         d="M 0.46255138,0.30110361 L 0.46896921,0.30116515 L 0.47525167,0.30128821 L 0.48141106,0.30147281 L 0.48742893,0.30171894 L 0.49331758,0.30208813 L 0.49907086,0.30251886 L 0.50469492,0.30301112 L 0.51017131,0.30362644 L 0.51551847,0.30424177 L 0.52071796,0.30498016 L 0.52578208,0.30584161 L 0.53070467,0.30670307 L 0.53548574,0.30768758 L 0.54012528,0.30873364 L 0.54461715,0.30984122 L 0.54896749,0.31101034 C 0.59148638,0.32331682 0.61216127,0.34485317 0.61216127,0.37691157 C 0.61216127,0.39623276 0.60391592,0.4111236 0.58699451,0.4225071 C 0.56976544,0.4340752 0.55081346,0.44152063 0.53069236,0.44459725 L 0.5280034,0.44502797 L 0.5280034,0.45499623 L 0.53066775,0.45542696 C 0.55210564,0.45887277 0.57087302,0.46471835 0.58656379,0.47284063 C 0.61708386,0.48865447 0.6319747,0.50994469 0.6319747,0.53794195 C 0.6319747,0.5640317 0.61776071,0.58476813 0.58847129,0.60113576 C 0.5590588,0.61756492 0.51920426,0.62593333 0.47002757,0.62593333 C 0.47002757,0.62593333 0.28930075,0.62593333 0.28367669,0.62593333 C 0.28338748,0.62267211 0.28288292,0.61694959 0.28251988,0.61313458 C 0.28643949,0.61313458 0.29326343,0.61313458 0.29326343,0.61313458 C 0.30386547,0.61319611 0.31302149,0.61325765 0.31843019,0.61091941 C 0.33114893,0.60531996 0.3356408,0.59781301 0.3356408,0.58218377 L 0.3356408,0.3450993 C 0.3356408,0.32947007 0.32951217,0.31876342 0.31742106,0.3132255 C 0.31091093,0.31021041 0.29987817,0.30830291 0.28396589,0.30737992 C 0.28396589,0.30510322 0.28396589,0.30350338 0.28396589,0.30110361 C 0.2900699,0.30110361 0.46255138,0.30110361 0.46255138,0.30110361 z M 0.43168673,0.31537914 L 0.43116986,0.31574833 L 0.43066529,0.31617906 L 0.43017918,0.31654825 L 0.42971154,0.31704051 L 0.4292562,0.31747124 L 0.42881932,0.3179635 L 0.42839474,0.31845576 L 0.42798863,0.31894802 L 0.42760098,0.31950181 L 0.42723178,0.3200556 L 0.42687489,0.3206094 L 0.42653647,0.32116319 L 0.42621034,0.32177851 L 0.42590268,0.32239384 L 0.42561348,0.32300916 L 0.42533658,0.32368602 L 0.42507815,0.32436287 L 0.42483817,0.32503973 L 0.42461665,0.32577812 L 0.42440744,0.32645498 L 0.42421669,0.32719337 L 0.42403825,0.32799329 L 0.42388442,0.32873168 L 0.42374289,0.3295316 L 0.42361368,0.33033152 L 0.42350907,0.33113144 L 0.42341677,0.3319929 L 0.42333678,0.33285435 L 0.4232814,0.3337158 L 0.42323833,0.33463879 L 0.42321372,0.33556178 L 0.42320756,0.33648476 L 0.42320756,0.44970444 L 0.42637648,0.44970444 C 0.4638251,0.44970444 0.48843806,0.44459725 0.50156292,0.43419827 C 0.51473701,0.42373775 0.52141328,0.40515496 0.52141328,0.37906521 C 0.52141328,0.35986709 0.51713678,0.34343793 0.5087253,0.33020845 C 0.5,0.31654825 0.48329395,0.30959509 0.45911787,0.30959509 C 0.4460607,0.30959509 0.43709543,0.3115026 0.43168673,0.31537914 z M 0.42632726,0.45819592 L 0.42320756,0.45825745 L 0.42320756,0.58390668 C 0.42339831,0.59332114 0.42510276,0.60015124 0.42839474,0.60464311 C 0.4337296,0.61251926 0.4438763,0.61645733 0.45853947,0.61645733 C 0.4870905,0.61645733 0.50755003,0.60981183 0.51932733,0.59652082 C 0.53100618,0.58341442 0.53694406,0.56452396 0.53694406,0.54058784 C 0.53694406,0.5046529 0.52386842,0.48034759 0.49805558,0.46834877 C 0.48276478,0.46108794 0.45860715,0.45770366 0.42632726,0.45819592 z "
         style="font-style:normal;font-variant:normal;font-weight:normal;font-stretch:normal;letter-spacing:normal;word-spacing:normal;text-anchor:start;fill:#000000;fill-opacity:1;fill-rule:nonzero;stroke:#000000;stroke-width:0;stroke-linecap:butt;stroke-linejoin:miter;stroke-miterlimit:10.43299961;stroke-dashoffset:0;stroke-opacity:1"
         id="path36" />
      <path
         d="M 0.28079082,0.29476543 L 0.27761574,0.29476543 L 0.27761574,0.31340976 L 0.28064929,0.31353283 C 0.29718305,0.31433275 0.30867115,0.31617872 0.31477516,0.31900921 C 0.32455881,0.32343955 0.32932142,0.33199256 0.32932142,0.34509896 L 0.32932142,0.58218343 C 0.32932142,0.5954129 0.32629403,0.60052009 0.31588275,0.60507349 C 0.31172315,0.60691947 0.3027825,0.60685793 0.29333727,0.6067964 L 0.2755298,0.60685793 L 0.2759113,0.61030375 L 0.27788033,0.63227083 L 0.47002757,0.63227083 C 0.52028723,0.63227083 0.56121244,0.62365629 0.59160944,0.60667334 C 0.62256024,0.58925966 0.63831254,0.566185 0.63831254,0.53794161 C 0.63831254,0.50779072 0.62188339,0.48397766 0.58951734,0.46717931 C 0.57425731,0.45936469 0.55616678,0.45364218 0.53591031,0.44995023 C 0.55536686,0.44638135 0.57376505,0.43905899 0.59050186,0.42773702 C 0.60908465,0.41530747 0.6184991,0.39820145 0.6184991,0.37691123 C 0.6184991,0.34214541 0.59567058,0.31790163 0.55069039,0.30497982 C 0.52737577,0.29821125 0.49771715,0.29476543 0.46255138,0.29476543 L 0.28079082,0.29476543 z M 0.42955155,0.33648442 L 0.42955771,0.33574603 L 0.42957617,0.33500764 L 0.42960078,0.33433079 L 0.42964385,0.33365393 L 0.42969308,0.33297707 L 0.42976076,0.33230022 L 0.4298346,0.33168489 L 0.42992075,0.33106957 L 0.4300192,0.33045424 L 0.4301238,0.32983892 L 0.43024687,0.32928513 L 0.43037609,0.32873134 L 0.43052377,0.32817754 L 0.4306776,0.32762375 L 0.43084373,0.32713149 L 0.43102218,0.3265777 L 0.43120677,0.32608544 L 0.43140983,0.32565471 L 0.43161904,0.32516246 L 0.43184056,0.32473173 L 0.43207438,0.324301 L 0.43232051,0.32387027 L 0.43257895,0.32343955 L 0.43284354,0.32307035 L 0.43312659,0.32270116 L 0.43341579,0.32233196 L 0.4337173,0.3220243 L 0.43403111,0.32165511 L 0.43435108,0.32134744 L 0.43468951,0.32103978 L 0.43503409,0.32079365 L 0.43539098,0.32048599 C 0.43959979,0.3174709 0.44757439,0.31593259 0.45911787,0.31593259 C 0.48098649,0.31593259 0.49588964,0.32190124 0.50336582,0.33365393 C 0.51115583,0.34583735 0.51506929,0.3610974 0.51506929,0.37906487 C 0.51506929,0.40312405 0.50920525,0.41998393 0.4976187,0.4292138 C 0.48617982,0.4383206 0.46322208,0.44299706 0.42955155,0.44330473 C 0.42955155,0.43727455 0.42955155,0.33648442 0.42955155,0.33648442 z M 0.49538507,0.47407094 L 0.49756947,0.47511699 L 0.49968619,0.47628611 L 0.50172906,0.47745523 L 0.50370425,0.47868588 L 0.5056056,0.48003959 L 0.50743312,0.4813933 L 0.50919294,0.48287008 L 0.51088508,0.48434686 L 0.51250339,0.4859467 L 0.514054,0.48760808 L 0.51553078,0.48926945 L 0.51693987,0.49105389 L 0.51828128,0.49289987 L 0.51954885,0.49480737 L 0.52074873,0.49677641 L 0.52188092,0.49880698 L 0.52293928,0.50089908 L 0.52392995,0.50311425 L 0.52485294,0.50532942 L 0.52570824,0.50760612 L 0.5264897,0.51000588 L 0.52720348,0.51246718 L 0.52784957,0.51492848 L 0.52842797,0.51751284 L 0.52893869,0.52015874 L 0.52938172,0.52286616 L 0.52975092,0.52563512 L 0.53005858,0.52852715 L 0.5302924,0.53141917 L 0.53046469,0.53443426 L 0.53056315,0.53744935 L 0.53060007,0.5405875 C 0.53060007,0.56292378 0.52521598,0.58033745 0.51458933,0.59233628 C 0.50406114,0.60415051 0.48521992,0.61018068 0.45853947,0.61018068 C 0.44610992,0.61018068 0.43772306,0.60710406 0.43358808,0.60101235 C 0.43106525,0.597505 0.42971769,0.59178249 0.42955155,0.5838448 C 0.42955155,0.5838448 0.42955155,0.47050206 0.42955155,0.46453342 C 0.45928401,0.46428729 0.48144183,0.46748697 0.49538507,0.47407094 z "
         style="font-style:normal;font-variant:normal;font-weight:normal;font-stretch:normal;letter-spacing:normal;word-spacing:normal;text-anchor:start;fill:#000000;fill-opacity:1;fill-rule:nonzero;stroke:#000000;stroke-width:0;stroke-linecap:butt;stroke-linejoin:miter;stroke-miterlimit:10.43299961;stroke-dashoffset:0;stroke-opacity:1"
         id="path34" />
      <path
         d="M 0.036365651,0.67109751 L 0.036365651,0.69527976 C 0.036365651,0.70087921 0.036150288,0.7063556 0.032039923,0.71047827 C 0.028557189,0.71404715 0.023099265,0.7152778 0.018244359,0.7152778 C 0.013414065,0.7152778 0.0079561408,0.71404715 0.0044980197,0.71047827 C 0.00036304226,0.7063556 0.00014767885,0.70087921 0.00014767885,0.69527976 L 0.00014767885,0.67109751 L 0.010940462,0.67109751 L 0.010940462,0.69374145 C 0.010940462,0.6993409 0.011321963,0.70549414 0.018244359,0.70549414 C 0.025191367,0.70549414 0.025579021,0.6993409 0.025579021,0.69374145 L 0.025579021,0.67109751 L 0.036365651,0.67109751 z "
         style="font-style:normal;font-variant:normal;font-weight:normal;font-stretch:normal;letter-spacing:normal;word-spacing:normal;text-anchor:start;fill:#000000;fill-opacity:1;fill-rule:nonzero;stroke:#000000;stroke-width:0;stroke-linecap:butt;stroke-linejoin:miter;stroke-miterlimit:10.43299961;stroke-dasharray:none;stroke-dashoffset:0;stroke-opacity:1"
         id="path42" />
      <path
         d="M 0.055594527,0.7086323 L 0.055588374,0.70893996 L 0.055563761,0.70930915 L 0.055520688,0.70961682 L 0.055465309,0.70992448 L 0.055397624,0.71023214 L 0.055311478,0.71060134 L 0.055206873,0.710909 L 0.055096115,0.71115513 L 0.054966897,0.71146279 L 0.054825372,0.71177045 L 0.054671541,0.71201658 L 0.054505404,0.71232424 L 0.05432696,0.71257037 L 0.054136209,0.7128165 L 0.053933152,0.71306263 L 0.053717789,0.71330876 L 0.053496272,0.71355489 L 0.053262449,0.71373949 L 0.053022473,0.71392409 L 0.05277019,0.71410868 L 0.052505601,0.71429328 L 0.052234858,0.71447788 L 0.051957962,0.71460094 L 0.051674913,0.71472401 L 0.051379558,0.71484707 L 0.051078049,0.71497014 L 0.050770387,0.71503167 L 0.050462725,0.71515474 L 0.050142756,0.71521627 L 0.049816635,0.71521627 L 0.049490513,0.7152778 L 0.049152085,0.7152778 C 0.045570899,0.7152778 0.042715795,0.71226271 0.042715795,0.7086323 C 0.042715795,0.70487882 0.045570899,0.70192526 0.049152085,0.70192526 C 0.052739424,0.70192526 0.055594527,0.70487882 0.055594527,0.7086323 z "
         style="font-style:normal;font-variant:normal;font-weight:normal;font-stretch:normal;letter-spacing:normal;word-spacing:normal;text-anchor:start;fill:#000000;fill-opacity:1;fill-rule:nonzero;stroke:#000000;stroke-width:0;stroke-linecap:butt;stroke-linejoin:miter;stroke-miterlimit:10.43299961;stroke-dasharray:none;stroke-dashoffset:0;stroke-opacity:1"
         id="path44" />
      <path
         d="M 0.084896258,0.68217335 L 0.084514757,0.68186569 L 0.084127102,0.68155803 L 0.083720989,0.68125036 L 0.083308722,0.68100424 L 0.082884148,0.68075811 L 0.082453421,0.68051198 L 0.082010388,0.68032738 L 0.081561201,0.68014278 L 0.081099708,0.67995818 L 0.080638215,0.67977359 L 0.080404392,0.67971205 L 0.080164416,0.67965052 L 0.079924439,0.67958899 L 0.079690616,0.67952746 L 0.079444487,0.67952746 L 0.07920451,0.67946592 L 0.078964534,0.67940439 L 0.078718404,0.67940439 L 0.078472275,0.67934286 L 0.078226145,0.67934286 L 0.077980015,0.67934286 L 0.077733886,0.67934286 C 0.075740236,0.67934286 0.073094343,0.68057351 0.073094343,0.68291174 C 0.073094343,0.68543457 0.076029438,0.68641909 0.077900023,0.68703441 L 0.080644368,0.68789587 C 0.086434568,0.68968031 0.09088336,0.6926954 0.09088336,0.69964856 C 0.09088336,0.70395583 0.089898842,0.70832464 0.086600705,0.71121666 C 0.083333334,0.71410868 0.078982994,0.7152778 0.07479879,0.7152778 C 0.069586996,0.7152778 0.0644675,0.71343183 0.060209457,0.71035521 L 0.064849001,0.70137147 C 0.06754412,0.70383277 0.070737652,0.70580181 0.074417289,0.70580181 C 0.076964731,0.70580181 0.07965985,0.70450962 0.07965985,0.70149454 C 0.07965985,0.69829485 0.075426421,0.6972488 0.073094343,0.69657194 C 0.066338085,0.69454137 0.061870832,0.69275693 0.061870832,0.68438852 C 0.061870832,0.67571245 0.067876395,0.66998993 0.076195576,0.66998993 C 0.080379779,0.66998993 0.085499275,0.67134364 0.08917276,0.67349728 L 0.084896258,0.68217335 z "
         style="font-style:normal;font-variant:normal;font-weight:normal;font-stretch:normal;letter-spacing:normal;word-spacing:normal;text-anchor:start;fill:#000000;fill-opacity:1;fill-rule:nonzero;stroke:#000000;stroke-width:0;stroke-linecap:butt;stroke-linejoin:miter;stroke-miterlimit:10.43299961;stroke-dasharray:none;stroke-dashoffset:0;stroke-opacity:1"
         id="path46" />
      <path
         d="M 0.10196535,0.70192526 L 0.10162692,0.70192526 L 0.1013008,0.70198679 L 0.10097467,0.70198679 L 0.10065471,0.70204833 L 0.10034704,0.70210986 L 0.10003938,0.70223292 L 0.099737873,0.70235599 L 0.099442518,0.70247905 L 0.099159469,0.70260212 L 0.098882573,0.70272518 L 0.09861183,0.70290978 L 0.098353394,0.70309438 L 0.098101111,0.70327898 L 0.097854982,0.70346357 L 0.097621158,0.70364817 L 0.097399642,0.7038943 L 0.097184278,0.7040789 L 0.096981221,0.70432503 L 0.096796624,0.70457116 L 0.096612027,0.70487882 L 0.09644589,0.70512495 L 0.096292059,0.70543261 L 0.096150534,0.70567874 L 0.096021316,0.7059864 L 0.095910558,0.70629407 L 0.095805953,0.70660173 L 0.095719807,0.70690939 L 0.095652122,0.70727858 L 0.095596742,0.70758625 L 0.09555367,0.70795544 L 0.095529057,0.7082631 L 0.095522903,0.7086323 C 0.095522903,0.71226271 0.098378007,0.7152778 0.10196535,0.7152778 C 0.10554653,0.7152778 0.10840164,0.71226271 0.10840164,0.7086323 C 0.10840164,0.70487882 0.10554653,0.70192526 0.10196535,0.70192526 z "
         style="font-style:normal;font-variant:normal;font-weight:normal;font-stretch:normal;letter-spacing:normal;word-spacing:normal;text-anchor:start;fill:#000000;fill-opacity:1;fill-rule:nonzero;stroke:#000000;stroke-width:0;stroke-linecap:butt;stroke-linejoin:miter;stroke-miterlimit:10.43299961;stroke-dasharray:none;stroke-dashoffset:0;stroke-opacity:1"
         id="path48" />
      <path
         d="M 0.15659381,0.68217335 L 0.15621847,0.68186569 L 0.15582466,0.68155803 L 0.15541854,0.68125036 L 0.15500628,0.68100424 L 0.1545817,0.68075811 L 0.15415098,0.68051198 L 0.15370794,0.68032738 L 0.15325876,0.68014278 L 0.15280342,0.67995818 L 0.15233577,0.67977359 L 0.15210195,0.67971205 L 0.15186197,0.67965052 L 0.15162815,0.67958899 L 0.15138817,0.67952746 L 0.1511482,0.67952746 L 0.15090822,0.67946592 L 0.15066209,0.67940439 L 0.15041596,0.67940439 L 0.15017598,0.67934286 L 0.14992985,0.67934286 L 0.14968372,0.67934286 L 0.14943144,0.67934286 C 0.14743779,0.67934286 0.1447919,0.68057351 0.1447919,0.68291174 C 0.1447919,0.68543457 0.14772699,0.68641909 0.14960373,0.68703441 L 0.15234192,0.68789587 C 0.15813212,0.68968031 0.16258092,0.6926954 0.16258092,0.69964856 C 0.16258092,0.70395583 0.1615964,0.70832464 0.15830441,0.71121666 C 0.1550555,0.71410868 0.15070516,0.7152778 0.1465025,0.7152778 C 0.14128455,0.7152778 0.13616506,0.71343183 0.13191317,0.71035521 L 0.13655271,0.70137147 C 0.13924168,0.70383277 0.14244136,0.70580181 0.14611485,0.70580181 C 0.14866229,0.70580181 0.15135741,0.70450962 0.15135741,0.70149454 C 0.15135741,0.69829485 0.14709936,0.6972488 0.1447919,0.69657194 C 0.13804179,0.69454137 0.13356839,0.69275693 0.13356839,0.68438852 C 0.13356839,0.67571245 0.1395801,0.66998993 0.14789313,0.66998993 C 0.15207734,0.66998993 0.15719683,0.67134364 0.16087647,0.67349728 L 0.15659381,0.68217335 z "
         style="font-style:normal;font-variant:normal;font-weight:normal;font-stretch:normal;letter-spacing:normal;word-spacing:normal;text-anchor:start;fill:#000000;fill-opacity:1;fill-rule:nonzero;stroke:#000000;stroke-width:0;stroke-linecap:butt;stroke-linejoin:miter;stroke-miterlimit:10.43299961;stroke-dasharray:none;stroke-dashoffset:0;stroke-opacity:1"
         id="path50" />
      <path
         d="M 0.17750868,0.68851119 L 0.17762559,0.68851119 C 0.17998228,0.68524997 0.18291738,0.68389626 0.18654779,0.68389626 C 0.19060893,0.68389626 0.19414089,0.68561917 0.19618376,0.68949571 C 0.19810973,0.6858653 0.20190628,0.68389626 0.20575205,0.68389626 C 0.21291442,0.68389626 0.21541264,0.68875732 0.21541264,0.69546436 L 0.21541264,0.71417022 L 0.20538901,0.71417022 L 0.20538901,0.70014082 C 0.20538901,0.69712573 0.20548746,0.69214161 0.20125403,0.69214161 C 0.19661449,0.69214161 0.19644835,0.69669501 0.19644835,0.70014082 L 0.19644835,0.71417022 L 0.18642472,0.71417022 L 0.18642472,0.70014082 C 0.18642472,0.6968796 0.18642472,0.69195701 0.18197593,0.69195701 C 0.17750868,0.69195701 0.17750868,0.6968796 0.17750868,0.70014082 L 0.17750868,0.71417022 L 0.16748505,0.71417022 L 0.16748505,0.68488078 L 0.17750868,0.68488078 L 0.17750868,0.68851119 z "
         style="font-style:normal;font-variant:normal;font-weight:normal;font-stretch:normal;letter-spacing:normal;word-spacing:normal;text-anchor:start;fill:#000000;fill-opacity:1;fill-rule:nonzero;stroke:#000000;stroke-width:0;stroke-linecap:butt;stroke-linejoin:miter;stroke-miterlimit:10.43299961;stroke-dasharray:none;stroke-dashoffset:0;stroke-opacity:1"
         id="path52" />
      <path
         d="M 0.25283665,0.68488078 L 0.24281302,0.68488078 L 0.24281302,0.68771127 C 0.24072091,0.68518844 0.23731202,0.68389626 0.23406311,0.68389626 C 0.22570086,0.68389626 0.2199045,0.69109555 0.2199045,0.69946397 C 0.2199045,0.70789391 0.22581777,0.7150932 0.23418617,0.7150932 C 0.23747816,0.7150932 0.24093628,0.71380102 0.24272072,0.710909 L 0.24281302,0.710909 L 0.24281302,0.71417022 L 0.25283665,0.71417022 L 0.25283665,0.68488078 z M 0.236709,0.69294153 L 0.23708435,0.69294153 L 0.23745354,0.69294153 L 0.23781043,0.69300306 L 0.23816117,0.69306459 L 0.23849344,0.69312612 L 0.23881956,0.69324919 L 0.23913338,0.69331072 L 0.23944104,0.69343379 L 0.23973024,0.69355685 L 0.24001329,0.69374145 L 0.24028403,0.69386451 L 0.24054247,0.69404911 L 0.2407886,0.69423371 L 0.24102858,0.69441831 L 0.24125009,0.69466444 L 0.2414593,0.69484903 L 0.24166236,0.69509516 L 0.24184696,0.69534129 L 0.2420254,0.69558742 L 0.24219154,0.69583355 L 0.24233922,0.69614121 L 0.24248074,0.69638734 L 0.24260381,0.69669501 L 0.24272072,0.69700267 L 0.24281917,0.6972488 L 0.24290532,0.69755646 L 0.24297915,0.69792565 L 0.24304069,0.69823332 L 0.24308991,0.69854098 L 0.24312068,0.69884864 L 0.24314529,0.69921784 L 0.24315144,0.6995255 C 0.24315144,0.70327898 0.24079475,0.70610947 0.236709,0.70610947 C 0.23264786,0.70610947 0.23026656,0.70327898 0.23026656,0.6995255 C 0.23026656,0.69595662 0.23264786,0.69294153 0.236709,0.69294153 z "
         style="font-style:normal;font-variant:normal;font-weight:normal;font-stretch:normal;letter-spacing:normal;word-spacing:normal;text-anchor:start;fill:#000000;fill-opacity:1;fill-rule:nonzero;stroke:#000000;stroke-width:0;stroke-linecap:butt;stroke-linejoin:miter;stroke-miterlimit:10.43299961;stroke-dashoffset:0;stroke-opacity:1"
         id="path56" />
      <polygon
         points="53.246,708.07 54.879,708.07 54.879,715.77 53.246,715.77 53.246,708.07 "
         transform="matrix(6.1532403e-3,0,0,-6.1532433e-3,-6.8140982e-2,5.0710972)"
         style="font-style:normal;font-variant:normal;font-weight:normal;font-stretch:normal;letter-spacing:normal;word-spacing:normal;text-anchor:start;fill:#000000;fill-opacity:1;fill-rule:nonzero;stroke:#000000;stroke-width:0;stroke-linecap:butt;stroke-linejoin:miter;stroke-miterlimit:10.43299961;stroke-dasharray:none;stroke-dashoffset:0;stroke-opacity:1"
         id="polygon58" />
      <polygon
         points="55.949,708.07 57.578,708.07 57.578,715.77 55.949,715.77 55.949,708.07 "
         transform="matrix(6.1532403e-3,0,0,-6.1532433e-3,-6.8140982e-2,5.0710972)"
         style="font-style:normal;font-variant:normal;font-weight:normal;font-stretch:normal;letter-spacing:normal;word-spacing:normal;text-anchor:start;fill:#000000;fill-opacity:1;fill-rule:nonzero;stroke:#000000;stroke-width:0;stroke-linecap:butt;stroke-linejoin:miter;stroke-miterlimit:10.43299961;stroke-dasharray:none;stroke-dashoffset:0;stroke-opacity:1"
         id="polygon60" />
      <path
         d="M 0.32850304,0.71417022 L 0.32921682,0.71410868 L 0.32992444,0.71410868 L 0.33062591,0.71404715 L 0.33132738,0.71398562 L 0.33202269,0.71392409 L 0.33271186,0.71380102 L 0.33338871,0.71367796 L 0.33405942,0.71355489 L 0.33471166,0.71337029 L 0.33535775,0.7131857 L 0.33598538,0.7130011 L 0.33660071,0.71275497 L 0.33719757,0.71244731 L 0.33777597,0.71220118 L 0.33833592,0.71189352 L 0.33887125,0.71152432 L 0.33938812,0.71115513 L 0.33988038,0.71078593 L 0.34034803,0.71035521 L 0.34079106,0.70992448 L 0.34120333,0.70943222 L 0.34159098,0.70893996 L 0.34194172,0.70838617 L 0.34226784,0.70783238 L 0.34255704,0.70727858 L 0.34280932,0.70660173 L 0.34303084,0.7059864 L 0.34321544,0.70524801 L 0.34335696,0.70457116 L 0.34346157,0.70377124 L 0.34352925,0.70297131 L 0.34354771,0.70217139 C 0.34354771,0.69614121 0.34100027,0.69201854 0.3350624,0.69121862 L 0.3350624,0.69109555 C 0.3384036,0.68931111 0.33963425,0.68617296 0.33963425,0.68229642 C 0.33963425,0.67405107 0.33468089,0.67109751 0.32730316,0.67109751 L 0.31187083,0.67109751 L 0.31187083,0.71417022 L 0.32850304,0.71417022 z M 0.32266362,0.67965052 L 0.32343277,0.67965052 C 0.32636171,0.67965052 0.32972754,0.67989665 0.32972754,0.68383473 C 0.32972754,0.68746514 0.32674937,0.68801893 0.32388811,0.68801893 L 0.32266362,0.68801893 L 0.32266362,0.67965052 z M 0.32266362,0.69632581 L 0.32376505,0.69632581 C 0.32730316,0.69632581 0.33263802,0.69583355 0.33263802,0.70100228 C 0.33263802,0.70574027 0.32725393,0.70555568 0.32402964,0.70555568 L 0.32266362,0.70555568 L 0.32266362,0.69632581 z "
         style="font-style:normal;font-variant:normal;font-weight:normal;font-stretch:normal;letter-spacing:normal;word-spacing:normal;text-anchor:start;fill:#000000;fill-opacity:1;fill-rule:nonzero;stroke:#000000;stroke-width:0;stroke-linecap:butt;stroke-linejoin:miter;stroke-miterlimit:10.43299961;stroke-dashoffset:0;stroke-opacity:1"
         id="path66" />
      <path
         d="M 0.35878929,0.68488078 L 0.35878929,0.70051002 C 0.35878929,0.70420196 0.35967536,0.70684786 0.36381033,0.70684786 C 0.3679207,0.70684786 0.36881292,0.70420196 0.36881292,0.70051002 L 0.36881292,0.68488078 L 0.37883655,0.68488078 L 0.37883655,0.70247905 C 0.37883655,0.71213965 0.37227104,0.7150932 0.36381033,0.7150932 C 0.35532502,0.7150932 0.34876566,0.71213965 0.34876566,0.70247905 L 0.34876566,0.68488078 L 0.35878929,0.68488078 z "
         style="font-style:normal;font-variant:normal;font-weight:normal;font-stretch:normal;letter-spacing:normal;word-spacing:normal;text-anchor:start;fill:#000000;fill-opacity:1;fill-rule:nonzero;stroke:#000000;stroke-width:0;stroke-linecap:butt;stroke-linejoin:miter;stroke-miterlimit:10.43299961;stroke-dasharray:none;stroke-dashoffset:0;stroke-opacity:1"
         id="path68" />
      <path
         d="M 0.40388023,0.69244927 L 0.40359103,0.69226467 L 0.40328337,0.69208007 L 0.40296956,0.69195701 L 0.40263728,0.69183394 L 0.40230501,0.69171088 L 0.40196042,0.69158781 L 0.40160969,0.69146475 L 0.40125895,0.69134168 L 0.40090822,0.69128015 L 0.40055133,0.69121862 L 0.40019444,0.69115709 L 0.39984371,0.69109555 L 0.39949913,0.69103402 L 0.39915455,0.69097249 L 0.39882227,0.69097249 L 0.39865613,0.69097249 L 0.39849615,0.69097249 C 0.39733934,0.69097249 0.39534569,0.69146475 0.39534569,0.69294153 C 0.39534569,0.6949721 0.39849615,0.69521823 0.39986832,0.69552589 C 0.40455094,0.69651041 0.40808905,0.69878711 0.40808905,0.70420196 C 0.40808905,0.71195505 0.40130818,0.7150932 0.39474883,0.7150932 C 0.39073076,0.7150932 0.38676807,0.71392409 0.38335303,0.71170892 L 0.38698344,0.70450962 C 0.38902631,0.7059864 0.39244136,0.70746318 0.39491496,0.70746318 C 0.39618868,0.70746318 0.39806542,0.70684786 0.39806542,0.70524801 C 0.39806542,0.70297131 0.39491496,0.70284825 0.39178912,0.70198679 C 0.38863866,0.70112534 0.38549435,0.6995255 0.38549435,0.69429524 C 0.38549435,0.68709595 0.39178912,0.68389626 0.39794236,0.68389626 C 0.40114204,0.68389626 0.40433557,0.68438852 0.40724606,0.68580376 L 0.40388023,0.69244927 z "
         style="font-style:normal;font-variant:normal;font-weight:normal;font-stretch:normal;letter-spacing:normal;word-spacing:normal;text-anchor:start;fill:#000000;fill-opacity:1;fill-rule:nonzero;stroke:#000000;stroke-width:0;stroke-linecap:butt;stroke-linejoin:miter;stroke-miterlimit:10.43299961;stroke-dasharray:none;stroke-dashoffset:0;stroke-opacity:1"
         id="path70" />
      <path
         d="M 0.41849418,0.66783629 L 0.41820498,0.66783629 L 0.41792193,0.66783629 L 0.41763888,0.66789783 L 0.41736198,0.66789783 L 0.41709124,0.66795936 L 0.4168205,0.66808242 L 0.41656206,0.66814396 L 0.41630978,0.66826702 L 0.4160575,0.66839009 L 0.41581752,0.66851315 L 0.41557754,0.66863622 L 0.41534987,0.66882081 L 0.41512836,0.66894388 L 0.41491915,0.66912848 L 0.41471609,0.66931307 L 0.41451919,0.66949767 L 0.41433459,0.6697438 L 0.41415615,0.6699284 L 0.41399001,0.67017453 L 0.41383002,0.67035912 L 0.41368235,0.67060525 L 0.41354698,0.67085138 L 0.41342391,0.67109751 L 0.41331315,0.67134364 L 0.41320855,0.67165131 L 0.4131224,0.67189744 L 0.41304856,0.67214356 L 0.41298703,0.67245123 L 0.41293165,0.67275889 L 0.41290088,0.67300502 L 0.41287627,0.67331268 L 0.41287012,0.67362034 C 0.41287012,0.67682003 0.41539295,0.67946592 0.41849418,0.67946592 C 0.4215708,0.67946592 0.42409363,0.67682003 0.42409363,0.67362034 C 0.42409363,0.67042066 0.4215708,0.66783629 0.41849418,0.66783629 z "
         style="font-style:normal;font-variant:normal;font-weight:normal;font-stretch:normal;letter-spacing:normal;word-spacing:normal;text-anchor:start;fill:#000000;fill-opacity:1;fill-rule:nonzero;stroke:#000000;stroke-width:0;stroke-linecap:butt;stroke-linejoin:miter;stroke-miterlimit:10.43299961;stroke-dasharray:none;stroke-dashoffset:0;stroke-opacity:1"
         id="path72" />
      <polygon
         points="78.27,708.07 79.898,708.07 79.898,712.83 78.27,712.83 78.27,708.07 "
         transform="matrix(6.1532403e-3,0,0,-6.1532433e-3,-6.8140982e-2,5.0710972)"
         style="font-style:normal;font-variant:normal;font-weight:normal;font-stretch:normal;letter-spacing:normal;word-spacing:normal;text-anchor:start;fill:#000000;fill-opacity:1;fill-rule:nonzero;stroke:#000000;stroke-width:0;stroke-linecap:butt;stroke-linejoin:miter;stroke-miterlimit:10.43299961;stroke-dasharray:none;stroke-dashoffset:0;stroke-opacity:1"
         id="polygon74" />
      <path
         d="M 0.44012897,0.68863426 L 0.44022127,0.68863426 C 0.44255335,0.68512691 0.44536538,0.68389626 0.44926038,0.68389626 C 0.45685348,0.68389626 0.45990549,0.68888039 0.45990549,0.69601815 L 0.45990549,0.71417022 L 0.4498634,0.71417022 L 0.4498634,0.69983316 C 0.4498634,0.6970642 0.45031874,0.69214161 0.44536538,0.69214161 C 0.44127963,0.69214161 0.44012897,0.69527976 0.44012897,0.69897171 L 0.44012897,0.71417022 L 0.43010534,0.71417022 L 0.43010534,0.68488078 L 0.44012897,0.68488078 L 0.44012897,0.68863426 z "
         style="font-style:normal;font-variant:normal;font-weight:normal;font-stretch:normal;letter-spacing:normal;word-spacing:normal;text-anchor:start;fill:#000000;fill-opacity:1;fill-rule:nonzero;stroke:#000000;stroke-width:0;stroke-linecap:butt;stroke-linejoin:miter;stroke-miterlimit:10.43299961;stroke-dasharray:none;stroke-dashoffset:0;stroke-opacity:1"
         id="path76" />
      <path
         d="M 0.4955266,0.70014082 L 0.49551429,0.69921784 L 0.49546506,0.69835638 L 0.49537892,0.69743339 L 0.49526816,0.69657194 L 0.49512048,0.69577202 L 0.49494204,0.6949721 L 0.49473283,0.69417218 L 0.49449285,0.69343379 L 0.49421596,0.6926954 L 0.49391445,0.69195701 L 0.49358217,0.69128015 L 0.49321913,0.69060329 L 0.49282532,0.68998797 L 0.49240075,0.68937265 L 0.49195156,0.68881885 L 0.49146546,0.68826506 L 0.49095474,0.6877728 L 0.49041941,0.68728054 L 0.48985331,0.68684982 L 0.48925644,0.68641909 L 0.48863497,0.68598836 L 0.48798888,0.68561917 L 0.48731202,0.68531151 L 0.4866044,0.68500384 L 0.48587831,0.68475771 L 0.48512147,0.68451158 L 0.48434,0.68432699 L 0.48352778,0.68420392 L 0.48269709,0.68401932 L 0.48184179,0.68395779 L 0.48095572,0.68389626 L 0.4800512,0.68389626 C 0.47084595,0.68389626 0.46440351,0.68980337 0.46440351,0.6995255 C 0.46440351,0.70961682 0.47139974,0.7150932 0.48077113,0.7150932 C 0.48721357,0.7150932 0.49353295,0.71195505 0.49514509,0.70506342 L 0.48550912,0.70506342 C 0.48440154,0.70703245 0.48286323,0.70777084 0.48069729,0.70777084 C 0.47658692,0.70777084 0.47442713,0.70549414 0.47442713,0.70124841 L 0.4955266,0.70124841 L 0.4955266,0.70014082 z M 0.47459327,0.69521823 L 0.4746548,0.6949721 L 0.47472864,0.69472597 L 0.47480864,0.69441831 L 0.47490093,0.69417218 L 0.47500554,0.69392605 L 0.4751163,0.69367992 L 0.47523936,0.69349532 L 0.47536858,0.69324919 L 0.47550395,0.69306459 L 0.47565163,0.69281846 L 0.47580546,0.69263387 L 0.4759716,0.69244927 L 0.47613774,0.69226467 L 0.47631618,0.69214161 L 0.47650693,0.69195701 L 0.47669768,0.69183394 L 0.47689458,0.69164935 L 0.47710379,0.69152628 L 0.477313,0.69140322 L 0.47753452,0.69128015 L 0.47775604,0.69121862 L 0.47798371,0.69109555 L 0.47822368,0.69103402 L 0.47846366,0.69091096 L 0.47870364,0.69084942 L 0.47895592,0.69078789 L 0.4792082,0.69072636 L 0.47946664,0.69072636 L 0.47972507,0.69066483 L 0.47998966,0.69066483 L 0.48026041,0.69066483 L 0.48053115,0.69060329 C 0.48324473,0.69060329 0.48572448,0.69244927 0.48622905,0.69521823 L 0.47459327,0.69521823 z "
         style="font-style:normal;font-variant:normal;font-weight:normal;font-stretch:normal;letter-spacing:normal;word-spacing:normal;text-anchor:start;fill:#000000;fill-opacity:1;fill-rule:nonzero;stroke:#000000;stroke-width:0;stroke-linecap:butt;stroke-linejoin:miter;stroke-miterlimit:10.43299961;stroke-dashoffset:0;stroke-opacity:1"
         id="path80" />
      <path
         d="M 0.51877354,0.69244927 L 0.51847203,0.69226467 L 0.51816437,0.69208007 L 0.51783825,0.69195701 L 0.51750597,0.69183394 L 0.51716754,0.69171088 L 0.51682296,0.69158781 L 0.51647223,0.69146475 L 0.51612149,0.69134168 L 0.51577076,0.69128015 L 0.51541387,0.69121862 L 0.51505698,0.69115709 L 0.5147124,0.69109555 L 0.51436166,0.69103402 L 0.51402324,0.69097249 L 0.51369096,0.69097249 L 0.51352482,0.69097249 L 0.51336484,0.69097249 C 0.51220803,0.69097249 0.51021438,0.69146475 0.51021438,0.69294153 C 0.51021438,0.6949721 0.51336484,0.69521823 0.51473701,0.69552589 C 0.51941963,0.69651041 0.52293313,0.69878711 0.52293313,0.70420196 C 0.52293313,0.71195505 0.51617687,0.7150932 0.50961752,0.7150932 C 0.50559945,0.7150932 0.50163676,0.71392409 0.49822171,0.71170892 L 0.50185213,0.70450962 C 0.503895,0.7059864 0.50731005,0.70746318 0.50978365,0.70746318 C 0.51105737,0.70746318 0.51293411,0.70684786 0.51293411,0.70524801 C 0.51293411,0.70297131 0.50978365,0.70284825 0.50663319,0.70198679 C 0.50350735,0.70112534 0.50036304,0.6995255 0.50036304,0.69429524 C 0.50036304,0.68709595 0.50663319,0.68389626 0.51281105,0.68389626 C 0.51601073,0.68389626 0.51920426,0.68438852 0.52211475,0.68580376 L 0.51877354,0.69244927 z "
         style="font-style:normal;font-variant:normal;font-weight:normal;font-stretch:normal;letter-spacing:normal;word-spacing:normal;text-anchor:start;fill:#000000;fill-opacity:1;fill-rule:nonzero;stroke:#000000;stroke-width:0;stroke-linecap:butt;stroke-linejoin:miter;stroke-miterlimit:10.43299961;stroke-dasharray:none;stroke-dashoffset:0;stroke-opacity:1"
         id="path82" />
      <path
         d="M 0.54701691,0.69244927 L 0.54672155,0.69226467 L 0.54641389,0.69208007 L 0.54609392,0.69195701 L 0.54576165,0.69183394 L 0.54542322,0.69171088 L 0.54507864,0.69158781 L 0.54472791,0.69146475 L 0.54437102,0.69134168 L 0.54402028,0.69128015 L 0.54366339,0.69121862 L 0.54330651,0.69115709 L 0.54295577,0.69109555 L 0.54260504,0.69103402 L 0.54226661,0.69097249 L 0.54193433,0.69097249 L 0.5417682,0.69097249 L 0.54160821,0.69097249 C 0.5404514,0.69097249 0.53848237,0.69146475 0.53848237,0.69294153 C 0.53848237,0.6949721 0.54160821,0.69521823 0.54299884,0.69552589 C 0.54767531,0.69651041 0.55118265,0.69878711 0.55118265,0.70420196 C 0.55118265,0.71195505 0.54442024,0.7150932 0.53785474,0.7150932 C 0.53384282,0.7150932 0.52988014,0.71392409 0.52646509,0.71170892 L 0.5300955,0.70450962 C 0.53213838,0.7059864 0.53554727,0.70746318 0.53802703,0.70746318 C 0.53930075,0.70746318 0.54117133,0.70684786 0.54117133,0.70524801 C 0.54117133,0.70297131 0.53802703,0.70284825 0.53490118,0.70198679 C 0.53175072,0.70112534 0.52860026,0.6995255 0.52860026,0.69429524 C 0.52860026,0.68709595 0.53490118,0.68389626 0.54105442,0.68389626 C 0.54424795,0.68389626 0.54742918,0.68438852 0.55038273,0.68580376 L 0.54701691,0.69244927 z "
         style="font-style:normal;font-variant:normal;font-weight:normal;font-stretch:normal;letter-spacing:normal;word-spacing:normal;text-anchor:start;fill:#000000;fill-opacity:1;fill-rule:nonzero;stroke:#000000;stroke-width:0;stroke-linecap:butt;stroke-linejoin:miter;stroke-miterlimit:10.43299961;stroke-dasharray:none;stroke-dashoffset:0;stroke-opacity:1"
         id="path84" />
      <path
         d="M 0.60114697,0.70666326 L 0.60385439,0.71417022 L 0.61536095,0.71417022 L 0.59973172,0.67109751 L 0.5879175,0.67109751 L 0.57198061,0.71417022 L 0.58342563,0.71417022 L 0.58625612,0.70666326 L 0.60114697,0.70666326 z M 0.59819341,0.69811025 L 0.58927121,0.69811025 L 0.59370154,0.68438852 L 0.59382461,0.68438852 L 0.59819341,0.69811025 z "
         style="font-style:normal;font-variant:normal;font-weight:normal;font-stretch:normal;letter-spacing:normal;word-spacing:normal;text-anchor:start;fill:#000000;fill-opacity:1;fill-rule:nonzero;stroke:#000000;stroke-width:0;stroke-linecap:butt;stroke-linejoin:miter;stroke-miterlimit:10.43299961;stroke-dashoffset:0;stroke-opacity:1"
         id="polygon88" />
      <path
         d="M 0.63972778,0.71417022 L 0.64975756,0.71417022 L 0.64975756,0.66679024 L 0.63972778,0.66679024 L 0.63972778,0.68771127 C 0.63763568,0.68518844 0.6342514,0.68389626 0.63099018,0.68389626 C 0.62262177,0.68389626 0.61683773,0.69109555 0.61683773,0.69946397 C 0.61683773,0.70789391 0.62274484,0.7150932 0.63111325,0.7150932 C 0.63437446,0.7150932 0.63788181,0.71380102 0.63960472,0.710909 L 0.63972778,0.710909 L 0.63972778,0.71417022 z M 0.63363607,0.69294153 L 0.63400527,0.69294153 L 0.63437446,0.69294153 L 0.63474366,0.69300306 L 0.63505132,0.69306459 L 0.63542051,0.69312612 L 0.63572818,0.69324919 L 0.63603584,0.69331072 L 0.6363435,0.69343379 L 0.63665116,0.69355685 L 0.63689729,0.69374145 L 0.63720495,0.69386451 L 0.63745108,0.69404911 L 0.63769721,0.69423371 L 0.63794334,0.69441831 L 0.63818947,0.69466444 L 0.63837407,0.69484903 L 0.63855867,0.69509516 L 0.63874326,0.69534129 L 0.63892786,0.69558742 L 0.63911246,0.69583355 L 0.63929706,0.69614121 L 0.63942012,0.69638734 L 0.63954318,0.69669501 L 0.63966625,0.69700267 L 0.63972778,0.6972488 L 0.63985085,0.69755646 L 0.63991238,0.69792565 L 0.63997391,0.69823332 L 0.64003544,0.69854098 L 0.64003544,0.69884864 L 0.64009698,0.69921784 L 0.64009698,0.6995255 C 0.64009698,0.70327898 0.63769721,0.70610947 0.63363607,0.70610947 C 0.62957494,0.70610947 0.62717517,0.70327898 0.62717517,0.6995255 C 0.62717517,0.69595662 0.62957494,0.69294153 0.63363607,0.69294153 z "
         style="font-style:normal;font-variant:normal;font-weight:normal;font-stretch:normal;letter-spacing:normal;word-spacing:normal;text-anchor:start;fill:#000000;fill-opacity:1;fill-rule:nonzero;stroke:#000000;stroke-width:0;stroke-linecap:butt;stroke-linejoin:miter;stroke-miterlimit:10.43299961;stroke-dashoffset:0;stroke-opacity:1"
         id="path92" />
      <path
         d="M 0.66606365,0.68851119 L 0.66618672,0.68851119 C 0.66852495,0.68524997 0.6714785,0.68389626 0.67510891,0.68389626 C 0.67917005,0.68389626 0.6826774,0.68561917 0.6847695,0.68949571 C 0.68667701,0.6858653 0.69049201,0.68389626 0.69430702,0.68389626 C 0.70144478,0.68389626 0.70396761,0.68875732 0.70396761,0.69546436 L 0.70396761,0.71417022 L 0.69393783,0.71417022 L 0.69393783,0.70014082 C 0.69393783,0.69712573 0.69406089,0.69214161 0.68981516,0.69214161 C 0.68520023,0.69214161 0.68501563,0.69669501 0.68501563,0.70014082 L 0.68501563,0.71417022 L 0.67498585,0.71417022 L 0.67498585,0.70014082 C 0.67498585,0.6968796 0.67498585,0.69195701 0.67049398,0.69195701 C 0.66606365,0.69195701 0.66606365,0.6968796 0.66606365,0.70014082 L 0.66606365,0.71417022 L 0.65603387,0.71417022 L 0.65603387,0.68488078 L 0.66606365,0.68488078 L 0.66606365,0.68851119 z "
         style="font-style:normal;font-variant:normal;font-weight:normal;font-stretch:normal;letter-spacing:normal;word-spacing:normal;text-anchor:start;fill:#000000;fill-opacity:1;fill-rule:nonzero;stroke:#000000;stroke-width:0;stroke-linecap:butt;stroke-linejoin:miter;stroke-miterlimit:10.43299961;stroke-dasharray:none;stroke-dashoffset:0;stroke-opacity:1"
         id="path94" />
      <polygon
         points="126.54,708.07 128.17,708.07 128.17,712.83 126.54,712.83 126.54,708.07 "
         transform="matrix(6.1532403e-3,0,0,-6.1532433e-3,-6.8140982e-2,5.0710972)"
         style="font-style:normal;font-variant:normal;font-weight:normal;font-stretch:normal;letter-spacing:normal;word-spacing:normal;text-anchor:start;fill:#000000;fill-opacity:1;fill-rule:nonzero;stroke:#000000;stroke-width:0;stroke-linecap:butt;stroke-linejoin:miter;stroke-miterlimit:10.43299961;stroke-dasharray:none;stroke-dashoffset:0;stroke-opacity:1"
         id="polygon96" />
      <path
         d="M 0.72113515,0.67362034 L 0.72113515,0.67392801 L 0.72113515,0.67423567 L 0.72107362,0.6744818 L 0.72101209,0.67478946 L 0.72095055,0.67509712 L 0.72088902,0.67534325 L 0.72076596,0.67558938 L 0.72070442,0.67589704 L 0.72058136,0.67614317 L 0.72045829,0.6763893 L 0.72033523,0.67663543 L 0.72015063,0.67688156 L 0.72002757,0.67712769 L 0.71984297,0.67731229 L 0.71965837,0.67755842 L 0.71947378,0.67774302 L 0.71928918,0.67792761 L 0.71904305,0.67811221 L 0.71885845,0.67829681 L 0.71861232,0.67848141 L 0.71842773,0.67860447 L 0.7181816,0.67872754 L 0.71793547,0.6788506 L 0.71768934,0.67897366 L 0.71744321,0.67909673 L 0.71719708,0.67921979 L 0.71688942,0.67928133 L 0.71664329,0.67934286 L 0.71633562,0.67940439 L 0.71608949,0.67940439 L 0.71578183,0.67946592 L 0.7155357,0.67946592 C 0.71245908,0.67946592 0.70987472,0.67682003 0.70987472,0.67362034 C 0.70987472,0.67042066 0.71245908,0.66783629 0.7155357,0.66783629 C 0.71861232,0.66783629 0.72113515,0.67042066 0.72113515,0.67362034 z "
         style="font-style:normal;font-variant:normal;font-weight:normal;font-stretch:normal;letter-spacing:normal;word-spacing:normal;text-anchor:start;fill:#000000;fill-opacity:1;fill-rule:nonzero;stroke:#000000;stroke-width:0;stroke-linecap:butt;stroke-linejoin:miter;stroke-miterlimit:10.43299961;stroke-dasharray:none;stroke-dashoffset:0;stroke-opacity:1"
         id="path98" />
      <path
         d="M 0.73719511,0.68863426 L 0.73725664,0.68863426 C 0.73959487,0.68512691 0.74236383,0.68389626 0.7463019,0.68389626 C 0.75387039,0.68389626 0.75694701,0.68888039 0.75694701,0.69601815 L 0.75694701,0.71417022 L 0.74691723,0.71417022 L 0.74691723,0.69983316 C 0.74691723,0.6970642 0.74734795,0.69214161 0.74236383,0.69214161 C 0.73830269,0.69214161 0.73719511,0.69527976 0.73719511,0.69897171 L 0.73719511,0.71417022 L 0.72710379,0.71417022 L 0.72710379,0.68488078 L 0.73719511,0.68488078 L 0.73719511,0.68863426 z "
         style="font-style:normal;font-variant:normal;font-weight:normal;font-stretch:normal;letter-spacing:normal;word-spacing:normal;text-anchor:start;fill:#000000;fill-opacity:1;fill-rule:nonzero;stroke:#000000;stroke-width:0;stroke-linecap:butt;stroke-linejoin:miter;stroke-miterlimit:10.43299961;stroke-dasharray:none;stroke-dashoffset:0;stroke-opacity:1"
         id="path100" />
      <polygon
         points="135.16,708.07 136.79,708.07 136.79,712.83 135.16,712.83 135.16,708.07 "
         transform="matrix(6.1532403e-3,0,0,-6.1532433e-3,-6.8140982e-2,5.0710972)"
         style="font-style:normal;font-variant:normal;font-weight:normal;font-stretch:normal;letter-spacing:normal;word-spacing:normal;text-anchor:start;fill:#000000;fill-opacity:1;fill-rule:nonzero;stroke:#000000;stroke-width:0;stroke-linecap:butt;stroke-linejoin:miter;stroke-miterlimit:10.43299961;stroke-dasharray:none;stroke-dashoffset:0;stroke-opacity:1"
         id="polygon102" />
      <path
         d="M 0.77417608,0.67362034 L 0.77417608,0.67392801 L 0.77411455,0.67423567 L 0.77411455,0.6744818 L 0.77405302,0.67478946 L 0.77399149,0.67509712 L 0.77392995,0.67534325 L 0.77380689,0.67558938 L 0.77374536,0.67589704 L 0.77362229,0.67614317 L 0.77349923,0.6763893 L 0.77331463,0.67663543 L 0.77319156,0.67688156 L 0.7730685,0.67712769 L 0.7728839,0.67731229 L 0.7726993,0.67755842 L 0.77251471,0.67774302 L 0.77233011,0.67792761 L 0.77208398,0.67811221 L 0.77189938,0.67829681 L 0.77165325,0.67848141 L 0.77146866,0.67860447 L 0.77122253,0.67872754 L 0.7709764,0.6788506 L 0.77073027,0.67897366 L 0.77048414,0.67909673 L 0.77017648,0.67921979 L 0.76993035,0.67928133 L 0.76968422,0.67934286 L 0.76937656,0.67940439 L 0.76913043,0.67940439 L 0.76882276,0.67946592 L 0.7685151,0.67946592 C 0.76543848,0.67946592 0.76291565,0.67682003 0.76291565,0.67362034 C 0.76291565,0.67042066 0.76543848,0.66783629 0.7685151,0.66783629 C 0.77165325,0.66783629 0.77417608,0.67042066 0.77417608,0.67362034 z "
         style="font-style:normal;font-variant:normal;font-weight:normal;font-stretch:normal;letter-spacing:normal;word-spacing:normal;text-anchor:start;fill:#000000;fill-opacity:1;fill-rule:nonzero;stroke:#000000;stroke-width:0;stroke-linecap:butt;stroke-linejoin:miter;stroke-miterlimit:10.43299961;stroke-dasharray:none;stroke-dashoffset:0;stroke-opacity:1"
         id="path104" />
      <path
         d="M 0.79885058,0.69244927 L 0.79854291,0.69226467 L 0.79823525,0.69208007 L 0.79792759,0.69195701 L 0.7975584,0.69183394 L 0.79725073,0.69171088 L 0.79688154,0.69158781 L 0.79657388,0.69146475 L 0.79620468,0.69134168 L 0.79583549,0.69128015 L 0.79546629,0.69121862 L 0.79515863,0.69115709 L 0.79478944,0.69109555 L 0.79442024,0.69103402 L 0.79411258,0.69097249 L 0.79374339,0.69097249 L 0.79362032,0.69097249 L 0.79343572,0.69097249 C 0.79226661,0.69097249 0.79029757,0.69146475 0.79029757,0.69294153 C 0.79029757,0.6949721 0.79343572,0.69521823 0.79478944,0.69552589 C 0.7994659,0.69651041 0.80303478,0.69878711 0.80303478,0.70420196 C 0.80303478,0.71195505 0.79626622,0.7150932 0.78968225,0.7150932 C 0.78568264,0.7150932 0.78168304,0.71392409 0.77829875,0.71170892 L 0.78192917,0.70450962 C 0.78395973,0.7059864 0.78740555,0.70746318 0.78986685,0.70746318 C 0.79115903,0.70746318 0.793005,0.70684786 0.793005,0.70524801 C 0.793005,0.70297131 0.78986685,0.70284825 0.78672869,0.70198679 C 0.78359054,0.70112534 0.78045239,0.6995255 0.78045239,0.69429524 C 0.78045239,0.68709595 0.78672869,0.68389626 0.79288193,0.68389626 C 0.79608162,0.68389626 0.7992813,0.68438852 0.80217333,0.68580376 L 0.79885058,0.69244927 z "
         style="font-style:normal;font-variant:normal;font-weight:normal;font-stretch:normal;letter-spacing:normal;word-spacing:normal;text-anchor:start;fill:#000000;fill-opacity:1;fill-rule:nonzero;stroke:#000000;stroke-width:0;stroke-linecap:butt;stroke-linejoin:miter;stroke-miterlimit:10.43299961;stroke-dasharray:none;stroke-dashoffset:0;stroke-opacity:1"
         id="path106" />
      <polygon
         points="144.23,708.07 142.6,708.07 142.6,711.44 142.08,711.44 142.08,712.83 142.6,712.83 142.6,714.26 144.23,714.26 144.23,712.83 145.16,712.83 145.16,711.44 144.23,711.44 144.23,708.07 "
         transform="matrix(6.1532403e-3,0,0,-6.1532433e-3,-6.8140982e-2,5.0710972)"
         style="font-style:normal;font-variant:normal;font-weight:normal;font-stretch:normal;letter-spacing:normal;word-spacing:normal;text-anchor:start;fill:#000000;fill-opacity:1;fill-rule:nonzero;stroke:#000000;stroke-width:0;stroke-linecap:butt;stroke-linejoin:miter;stroke-miterlimit:10.43299961;stroke-dasharray:none;stroke-dashoffset:0;stroke-opacity:1"
         id="polygon108" />
      <path
         d="M 0.83823131,0.68968031 L 0.83835438,0.68968031 C 0.84032342,0.68604989 0.84358463,0.68445005 0.84752271,0.68445005 L 0.84943021,0.68445005 L 0.84943021,0.69447984 C 0.8480765,0.69361838 0.84672279,0.69349532 0.84518448,0.69349532 C 0.83964656,0.69349532 0.83823131,0.69731033 0.83823131,0.70229446 L 0.83823131,0.71417022 L 0.82826306,0.71417022 L 0.82826306,0.68488078 L 0.83823131,0.68488078 L 0.83823131,0.68968031 z "
         style="font-style:normal;font-variant:normal;font-weight:normal;font-stretch:normal;letter-spacing:normal;word-spacing:normal;text-anchor:start;fill:#000000;fill-opacity:1;fill-rule:nonzero;stroke:#000000;stroke-width:0;stroke-linecap:butt;stroke-linejoin:miter;stroke-miterlimit:10.43299961;stroke-dasharray:none;stroke-dashoffset:0;stroke-opacity:1"
         id="path110" />
      <path
         d="M 0.88407295,0.68488078 L 0.87404317,0.68488078 L 0.87404317,0.68771127 C 0.87195107,0.68518844 0.86856679,0.68389626 0.86530557,0.68389626 C 0.85693716,0.68389626 0.85115312,0.69109555 0.85115312,0.69946397 C 0.85115312,0.70789391 0.8569987,0.7150932 0.8653671,0.7150932 C 0.86868985,0.7150932 0.8721972,0.71380102 0.87392011,0.710909 L 0.87404317,0.710909 L 0.87404317,0.71417022 L 0.88407295,0.71417022 L 0.88407295,0.68488078 z M 0.86795146,0.69294153 L 0.86832066,0.69294153 L 0.86868985,0.69294153 L 0.86905905,0.69300306 L 0.86936671,0.69306459 L 0.8697359,0.69312612 L 0.87004357,0.69324919 L 0.87035123,0.69331072 L 0.87065889,0.69343379 L 0.87096655,0.69355685 L 0.87121268,0.69374145 L 0.87152034,0.69386451 L 0.87176647,0.69404911 L 0.8720126,0.69423371 L 0.87225873,0.69441831 L 0.87250486,0.69466444 L 0.87268946,0.69484903 L 0.87287406,0.69509516 L 0.87305865,0.69534129 L 0.87324325,0.69558742 L 0.87342785,0.69583355 L 0.87355091,0.69614121 L 0.87373551,0.69638734 L 0.87385858,0.69669501 L 0.87398164,0.69700267 L 0.87404317,0.6972488 L 0.87416624,0.69755646 L 0.87422777,0.69792565 L 0.8742893,0.69823332 L 0.87435083,0.69854098 L 0.87435083,0.69884864 L 0.87435083,0.69921784 L 0.87441237,0.6995255 C 0.87441237,0.70327898 0.8720126,0.70610947 0.86795146,0.70610947 C 0.86382879,0.70610947 0.86149056,0.70327898 0.86149056,0.6995255 C 0.86149056,0.69595662 0.86382879,0.69294153 0.86795146,0.69294153 z "
         style="font-style:normal;font-variant:normal;font-weight:normal;font-stretch:normal;letter-spacing:normal;word-spacing:normal;text-anchor:start;fill:#000000;fill-opacity:1;fill-rule:nonzero;stroke:#000000;stroke-width:0;stroke-linecap:butt;stroke-linejoin:miter;stroke-miterlimit:10.43299961;stroke-dashoffset:0;stroke-opacity:1"
         id="path114" />
      <polygon
         points="157.61,708.07 155.98,708.07 155.98,711.44 155.46,711.44 155.46,712.83 155.98,712.83 155.98,714.26 157.61,714.26 157.61,712.83 158.54,712.83 158.54,711.44 157.61,711.44 157.61,708.07 "
         transform="matrix(6.1532403e-3,0,0,-6.1532433e-3,-6.8140982e-2,5.0710972)"
         style="font-style:normal;font-variant:normal;font-weight:normal;font-stretch:normal;letter-spacing:normal;word-spacing:normal;text-anchor:start;fill:#000000;fill-opacity:1;fill-rule:nonzero;stroke:#000000;stroke-width:0;stroke-linecap:butt;stroke-linejoin:miter;stroke-miterlimit:10.43299961;stroke-dasharray:none;stroke-dashoffset:0;stroke-opacity:1"
         id="polygon116" />
      <polygon
         points="159.05,708.07 160.68,708.07 160.68,712.83 159.05,712.83 159.05,708.07 "
         transform="matrix(6.1532403e-3,0,0,-6.1532433e-3,-6.8140982e-2,5.0710972)"
         style="font-style:normal;font-variant:normal;font-weight:normal;font-stretch:normal;letter-spacing:normal;word-spacing:normal;text-anchor:start;fill:#000000;fill-opacity:1;fill-rule:nonzero;stroke:#000000;stroke-width:0;stroke-linecap:butt;stroke-linejoin:miter;stroke-miterlimit:10.43299961;stroke-dasharray:none;stroke-dashoffset:0;stroke-opacity:1"
         id="polygon118" />
      <path
         d="M 0.92117699,0.67362034 L 0.92117699,0.67392801 L 0.92117699,0.67423567 L 0.92111546,0.6744818 L 0.92105393,0.67478946 L 0.9209924,0.67509712 L 0.92093086,0.67534325 L 0.92086933,0.67558938 L 0.92074627,0.67589704 L 0.9206232,0.67614317 L 0.92050014,0.6763893 L 0.92037707,0.67663543 L 0.92019247,0.67688156 L 0.92006941,0.67712769 L 0.91988481,0.67731229 L 0.91970022,0.67755842 L 0.91951562,0.67774302 L 0.91933102,0.67792761 L 0.91914642,0.67811221 L 0.91890029,0.67829681 L 0.9187157,0.67848141 L 0.91846957,0.67860447 L 0.91822344,0.67872754 L 0.91797731,0.6788506 L 0.91773118,0.67897366 L 0.91748505,0.67909673 L 0.91723892,0.67921979 L 0.91699279,0.67928133 L 0.91668513,0.67934286 L 0.916439,0.67940439 L 0.91613134,0.67940439 L 0.91582367,0.67946592 L 0.91557754,0.67946592 C 0.91250092,0.67946592 0.9099781,0.67682003 0.9099781,0.67362034 C 0.9099781,0.67042066 0.91250092,0.66783629 0.91557754,0.66783629 C 0.91865416,0.66783629 0.92117699,0.67042066 0.92117699,0.67362034 z "
         style="font-style:normal;font-variant:normal;font-weight:normal;font-stretch:normal;letter-spacing:normal;word-spacing:normal;text-anchor:start;fill:#000000;fill-opacity:1;fill-rule:nonzero;stroke:#000000;stroke-width:0;stroke-linecap:butt;stroke-linejoin:miter;stroke-miterlimit:10.43299961;stroke-dasharray:none;stroke-dashoffset:0;stroke-opacity:1"
         id="path120" />
      <path
         d="M 0.94209801,0.68389626 L 0.94129809,0.68389626 L 0.94043664,0.68395779 L 0.93957518,0.68401932 L 0.93877526,0.68414239 L 0.93797534,0.68426545 L 0.93717542,0.68445005 L 0.9363755,0.68469618 L 0.93563711,0.68494231 L 0.93489872,0.68518844 L 0.93416033,0.6854961 L 0.93342194,0.6858653 L 0.93274509,0.68623449 L 0.93206823,0.68660369 L 0.9314529,0.68703441 L 0.93077605,0.68746514 L 0.93022226,0.6879574 L 0.92960693,0.68851119 L 0.92911467,0.68900345 L 0.92856088,0.68961878 L 0.92806862,0.69017257 L 0.9276379,0.69084942 L 0.92720717,0.69146475 L 0.92683797,0.69214161 L 0.92646878,0.69287999 L 0.92616112,0.69361838 L 0.92591499,0.69435677 L 0.92566886,0.69515669 L 0.92548426,0.69601815 L 0.92529966,0.69681807 L 0.9251766,0.69774106 L 0.92511507,0.69860251 L 0.92511507,0.6995255 C 0.92511507,0.70955528 0.93305275,0.7150932 0.94209801,0.7150932 C 0.95120481,0.7150932 0.95914249,0.70943222 0.95914249,0.6995255 C 0.95914249,0.68955724 0.95120481,0.68389626 0.94209801,0.68389626 z M 0.94209801,0.69294153 L 0.94252874,0.69294153 L 0.9428364,0.69294153 L 0.94320559,0.69300306 L 0.94357479,0.69306459 L 0.94388245,0.69312612 L 0.94425164,0.69324919 L 0.94455931,0.69331072 L 0.94486697,0.69343379 L 0.9451131,0.69355685 L 0.94542076,0.69374145 L 0.94566689,0.69386451 L 0.94591302,0.69404911 L 0.94615915,0.69423371 L 0.94640528,0.69441831 L 0.94665141,0.69466444 L 0.94683601,0.69484903 L 0.94708214,0.69509516 L 0.94726673,0.69534129 L 0.9473898,0.69558742 L 0.94757439,0.69583355 L 0.94775899,0.69614121 L 0.94788206,0.69638734 L 0.94800512,0.69669501 L 0.94812819,0.69700267 L 0.94818972,0.6972488 L 0.94831278,0.69755646 L 0.94837432,0.69792565 L 0.94843585,0.69823332 L 0.94849738,0.69854098 L 0.94849738,0.69884864 L 0.94855891,0.69921784 L 0.94855891,0.6995255 C 0.94855891,0.70327898 0.94615915,0.70610947 0.94209801,0.70610947 C 0.93803687,0.70610947 0.93569864,0.70327898 0.93569864,0.6995255 C 0.93569864,0.69595662 0.93803687,0.69294153 0.94209801,0.69294153 z "
         style="font-style:normal;font-variant:normal;font-weight:normal;font-stretch:normal;letter-spacing:normal;word-spacing:normal;text-anchor:start;fill:#000000;fill-opacity:1;fill-rule:nonzero;stroke:#000000;stroke-width:0;stroke-linecap:butt;stroke-linejoin:miter;stroke-miterlimit:10.43299961;stroke-dashoffset:0;stroke-opacity:1"
         id="path124" />
      <path
         d="M 0.97366413,0.68863426 L 0.9737872,0.68863426 C 0.9760639,0.68512691 0.97889439,0.68389626 0.98283246,0.68389626 C 0.99040095,0.68389626 0.99341603,0.68888039 0.99341603,0.69601815 L 0.99341603,0.71417022 L 0.98344779,0.71417022 L 0.98344779,0.69983316 C 0.98344779,0.6970642 0.98381698,0.69214161 0.97889439,0.69214161 C 0.97483325,0.69214161 0.97366413,0.69527976 0.97366413,0.69897171 L 0.97366413,0.71417022 L 0.96363435,0.71417022 L 0.96363435,0.68488078 L 0.97366413,0.68488078 L 0.97366413,0.68863426 z "
         style="font-style:normal;font-variant:normal;font-weight:normal;font-stretch:normal;letter-spacing:normal;word-spacing:normal;text-anchor:start;fill:#000000;fill-opacity:1;fill-rule:nonzero;stroke:#000000;stroke-width:0;stroke-linecap:butt;stroke-linejoin:miter;stroke-miterlimit:10.43299961;stroke-dasharray:none;stroke-dashoffset:0;stroke-opacity:1"
         id="path126" />
      <path
         d="M 0.69842969,0.51111319 L 0.75023998,0.40010868 L 0.75510104,0.40010868 L 0.78832854,0.46779435 L 0.79958897,0.49074595 L 0.82032538,0.5329572 L 0.83521623,0.56261583 C 0.83521623,0.56261583 0.8410618,0.57473772 0.84296931,0.57935266 C 0.84604593,0.58716727 0.84758424,0.59295132 0.84758424,0.59682787 C 0.84758424,0.60525781 0.84456915,0.6105496 0.83853898,0.6126417 C 0.8325088,0.61467227 0.81989466,0.61602599 0.80075808,0.61670284 L 0.80075808,0.62913239 L 0.99686185,0.62913239 L 0.99686185,0.61670284 C 0.98344779,0.6170105 0.96738783,0.61294936 0.960127,0.60458095 C 0.95286618,0.59621254 0.94185188,0.57756822 0.92714564,0.5487095 L 0.79589702,0.2912578 L 0.7795294,0.2912578 L 0.64883458,0.55947768 C 0.63849713,0.58070637 0.63062099,0.5944281 0.62502154,0.60064288 C 0.616407,0.6105496 0.60502351,0.61590292 0.59087105,0.61670284 L 0.59087105,0.62913239 L 0.71092077,0.62913239 L 0.71092077,0.61670284 C 0.69750671,0.61651825 0.68741539,0.61553373 0.68070836,0.61381082 C 0.66944793,0.61061113 0.66378695,0.60550394 0.66378695,0.59848924 C 0.66378695,0.59276673 0.66637131,0.58359839 0.67154003,0.57098424 C 0.67332447,0.56673851 0.67677029,0.55886236 0.68181595,0.54747886 L 0.69842969,0.51111319 z "
         style="font-style:normal;font-variant:normal;font-weight:normal;font-stretch:normal;letter-spacing:normal;word-spacing:normal;text-anchor:start;fill:#ffffff;fill-opacity:1;fill-rule:nonzero;stroke:#ffffff;stroke-width:0;stroke-linecap:butt;stroke-linejoin:miter;stroke-miterlimit:10.43299961;stroke-dasharray:none;stroke-dashoffset:0;stroke-opacity:1"
         id="path128" />
      <path
         d="M 0.79589702,0.28805812 L 0.77749883,0.28805812 L 0.64600409,0.55812397 C 0.63585124,0.57898346 0.62797509,0.59258213 0.62268331,0.59855077 C 0.6144995,0.6079037 0.60410052,0.61276477 0.59068646,0.61350316 L 0.5877329,0.61368775 L 0.5877329,0.63227055 L 0.71405892,0.63227055 L 0.71405892,0.61350316 L 0.71092077,0.61350316 C 0.69781437,0.61338009 0.68796919,0.6124571 0.68156982,0.6107342 C 0.67190923,0.60802677 0.66698664,0.6039041 0.66698664,0.59848924 C 0.66698664,0.59319745 0.66950947,0.58433678 0.67449359,0.57215336 L 0.68464644,0.54877104 C 0.68464644,0.54877104 0.70126019,0.5124669 0.70126019,0.51240537 C 0.70132172,0.51240537 0.75060917,0.40681571 0.75220901,0.40330837 C 0.75270127,0.40330837 0.75270127,0.40330837 0.753132,0.40330837 C 0.75479338,0.40663112 0.81743336,0.53431091 0.81743336,0.53431091 L 0.83238574,0.56403108 C 0.83238574,0.56409261 0.83816978,0.57609144 0.84001575,0.5805833 C 0.84290778,0.58790566 0.84438455,0.59338205 0.84438455,0.59682787 C 0.84438455,0.6061808 0.84044648,0.60858056 0.83749293,0.60962661 C 0.83177041,0.61159565 0.8194024,0.61288783 0.80069655,0.61350316 L 0.79761993,0.61362622 L 0.79761993,0.63227055 L 1,0.63227055 L 1,0.61344162 L 0.99680032,0.61350316 C 0.98510916,0.61374929 0.9694184,0.61048807 0.96252677,0.60248885 C 0.95545054,0.59436657 0.94449777,0.57578377 0.92991459,0.54729426 L 0.79780453,0.28805812 L 0.79589702,0.28805812 z "
         style="font-style:normal;font-variant:normal;font-weight:normal;font-stretch:normal;letter-spacing:normal;word-spacing:normal;text-anchor:start;fill:#000000;fill-opacity:1;fill-rule:nonzero;stroke:#000000;stroke-width:0;stroke-linecap:butt;stroke-linejoin:miter;stroke-miterlimit:10.43299961;stroke-dasharray:none;stroke-dashoffset:0;stroke-opacity:1"
         id="path130" />
      <path
         d="M 0.79392798,0.29445749 L 0.79411258,0.29476515 L 0.79448178,0.29544201 L 0.79497403,0.29648806 L 0.79571242,0.29784177 L 0.79657388,0.29956468 L 0.7975584,0.30153372 L 0.79872751,0.30381042 L 0.80001969,0.30639478 L 0.80149647,0.30922527 L 0.80309631,0.31236343 L 0.80475769,0.31568618 L 0.80660366,0.31931659 L 0.8085727,0.3231316 L 0.81060327,0.32713121 L 0.8127569,0.33137695 L 0.8150336,0.33580729 L 0.81983313,0.34522175 L 0.82494032,0.35525153 L 0.83035517,0.36583511 L 0.83595462,0.37684942 L 0.84173866,0.38823292 L 0.8477073,0.39986255 L 0.85976766,0.42355254 L 0.86579783,0.43548983 L 0.87182801,0.44724252 L 0.87773512,0.45887215 L 0.88351916,0.47013259 L 0.88905708,0.48108536 L 0.8944104,0.49154587 L 0.89945606,0.5014526 L 0.90419405,0.51068246 L 0.90640922,0.51505126 L 0.90850132,0.51917394 L 0.91053189,0.52311201 L 0.91237786,0.52686549 L 0.9141623,0.53037284 L 0.91582367,0.53357253 L 0.91736198,0.53658761 L 0.91877723,0.53929504 L 0.92000788,0.54175634 L 0.92111546,0.54390997 L 0.92203845,0.54575595 L 0.92283837,0.54735579 L 0.92345369,0.54858644 L 0.92394595,0.54944789 L 0.92419208,0.55000169 L 0.92431515,0.55018628 C 0.93926752,0.57953725 0.95022029,0.59799698 0.95772724,0.60667306 C 0.96535726,0.61547219 0.98074036,0.6194718 0.9937237,0.61977946 C 0.9937237,0.6221177 0.9937237,0.62365601 0.9937237,0.62593271 C 0.98769352,0.62593271 0.80998794,0.62593271 0.80395777,0.62593271 C 0.80395777,0.62359448 0.80395777,0.62199463 0.80395777,0.61971793 C 0.82180216,0.61904108 0.83355485,0.61768736 0.83958503,0.61559526 C 0.84463068,0.61381082 0.85072239,0.60913435 0.85072239,0.59682787 C 0.85072239,0.5925206 0.84918408,0.58649042 0.84592286,0.57818354 C 0.84395383,0.57350707 0.83835438,0.56175438 0.83810825,0.56120059 L 0.82309434,0.53148042 L 0.75707007,0.39697052 L 0.74820941,0.39697052 L 0.69553767,0.50975947 L 0.67892392,0.54618667 C 0.67886239,0.54618667 0.66864801,0.5697536 0.66864801,0.5697536 C 0.66323316,0.58286 0.6606488,0.59227447 0.6606488,0.59848924 C 0.6606488,0.60710378 0.6671097,0.61325703 0.67990844,0.61682591 C 0.68636934,0.61854882 0.6955992,0.6194718 0.70772109,0.61977946 C 0.70772109,0.62205616 0.70772109,0.62359448 0.70772109,0.62593271 C 0.70187551,0.62593271 0.59991632,0.62593271 0.59400921,0.62593271 C 0.59400921,0.62353294 0.59400921,0.62181003 0.59400921,0.61953333 C 0.60760787,0.61811809 0.6188683,0.61251864 0.6274213,0.60273498 C 0.63320535,0.59627407 0.64114303,0.58255234 0.6517266,0.56089293 C 0.6517266,0.56089293 0.77977553,0.29790331 0.78149844,0.29445749 C 0.78414433,0.29445749 0.79134362,0.29445749 0.79392798,0.29445749 z "
         style="font-style:normal;font-variant:normal;font-weight:normal;font-stretch:normal;letter-spacing:normal;word-spacing:normal;text-anchor:start;fill:#000000;fill-opacity:1;fill-rule:nonzero;stroke:#000000;stroke-width:0;stroke-linecap:butt;stroke-linejoin:miter;stroke-miterlimit:10.43299961;stroke-dasharray:none;stroke-dashoffset:0;stroke-opacity:1"
         id="path132" />
    </g>
  </g>
</svg>
