<?xml version="1.0" encoding="UTF-8" standalone="no"?>
<svg xmlns:rdf="http://www.w3.org/1999/02/22-rdf-syntax-ns#" xmlns="http://www.w3.org/2000/svg" height="362" width="358.85" version="1.1" preserveAspectRatio="none" xmlns:cc="http://creativecommons.org/ns#" xmlns:dc="http://purl.org/dc/elements/1.1/" viewBox="0 0 0.49839994 0.50277766">
 <g transform="matrix(.5 0 0 .5 -.0011692 .0018633)" stroke-miterlimit="10.433" stroke-width="0">
  <path d="m351.5 0.0058594c-12.47 0.35191-19.71 8.0928-19.46 17.494 0.65359 22.674 30.115 16.943 30.518 32.176 0.25135 7.8931-5.3288 11.614-12.568 11.865-3.7706 0.10051-10.86-1.6581-12.871-5.3281-1.3075-2.5137-2.5645-6.2854-3.3184-10.961l-2.9668 0.80469 1.4082 14.68c4.5247 3.117 12.266 4.3232 18.35 4.2227 12.971-0.45247 20.16-8.4949 19.959-19.807-0.55-17.898-30.11-12.922-30.56-29.965-0.2-6.7875 4.42-10.96 11.06-11.161 7.4406-0.25137 10.508 5.2788 12.066 11.814l3.0156-0.45312-1.6582-13.824c-4.3236-0.30165-8.6471-1.6591-12.971-1.5586zm37.504 2.5645-0.40234 2.9648 8.3965 2.7656-7.8418 52.586-8.8496 0.20117-0.45117 3.0176 44.793 6.6367 5.8828-14.43-3.2168-0.50195-4.9785 9.0488-24.482-3.6699 3.6699-23.98 16.289 2.4121 0.55274 6.9883 2.6133 0.45312c0.252-4.8766 1.4577-13.172 2.7148-17.848l-2.5625-0.30274-2.666 6.2852-16.289-2.4121 3.4707-22.674 19.455 2.8652 1.1055 8.9492 2.666 0.45117 0.75391-13.725-40.623-6.082zm85.23 18.961c-12.78 0.10071-22.214 7.4134-27.309 20.855-8.3456 22.121 3.0671 36.4 22.121 43.488 5.4296 2.111 11.514 3.5691 18.15 4.2227l10.305-9-1.457-2.4141c-7.2898 5.9832-15.836 7.1908-24.584 3.873-15.485-5.7313-21.367-23.681-14.932-40.824 5.8821-15.485 17.395-19.054 32.326-13.373 16.038 5.9827 17.796 14.279 15.836 22.223l2.8652 1.1055 4.7266-15.385c-5.9324-4.3236-15.586-9.2997-21.568-11.512-5.967-2.2341-11.479-3.2992-16.48-3.2598zm-234.14 0.94727-24.684 8.9492 1.1055 2.916 8.5957-1.5586 18.15 49.871-7.7422 4.4746 1.1055 2.8652 41.627-15.082-2.2129-17.797-2.7637 1.0059-0.75391 13.021-21.367 7.791-17.697-49.168 7.5918-4.4238-0.95508-2.8652zm290.79 21.115-1.6094 2.5625 6.2852 6.084-19.959 29.561c-7.9433 11.211-6.7369 24.031 8.8984 34.488 16.591 11.211 29.21 5.23 38.963-9.1484l16.69-24.685 8.09 3.67 1.76-2.564-20.36-13.825-1.76 2.514 6.39 6.234-17.15 25.236c-2.6646 4.0722-7.0893 10.508-12.268 12.066-6.5357 1.9606-13.424-0.65407-17.043-3.1172-11.312-7.6416-10.759-17.797-3.1172-28.656l18.15-26.896 8.0938 3.6191 1.6582-2.4121-21.719-14.73zm-361.52 11.512-3.8711 2.4629 11.715 62.291-5.5312 5.3301 1.5586 2.6641 18.904-11.965-1.6094-2.5644-8.2441 3.3184-4.3242-19.105 19.205-12.066 16.338 11.613-6.5352 5.832 1.5586 2.5644 21.82-13.725-1.5606-2.5137-7.2891 2.7656-52.135-36.902zm2.66 12.52 21.12 15.031-16.04 10.106-5.08-25.137zm-42.934 17.193-19.506 17.445 2.0098 2.2129 7.541-4.627 35.494 39.467-5.5293 6.9883 2.1113 2.2109 19.506-17.445-2.0098-2.2617-7.541 4.6758-35.545-39.516 5.5801-6.9883-2.1113-2.1621zm474.94 11.916-2.2109 1.959 5.0781 7.793-39.014 36.047h-0.002l-7.4394-5.7324-2.2129 2.1133 18.049 19.605 2.3125-2.1602-4.875-7.3906 16.037-14.832c2.363 2.5639 4.5742 4.7777 6.7363 6.7383-2.3126 9.7533-4.2737 20.259-5.6309 30.666 0 0.80424 1.7106 3.8719 2.666 5.7324l3.3164 6.082 2.5645-1.0547c-2.1113-5.7816-0.5531-12.619 0.40234-18.049l3.5703-18.854c7.1893 1.7093 15.484 1.0064 21.064-4.1719 7.8428-7.1893 5.3801-16.49-0.55274-23.025l-19.86-21.476zm9.3027 15.734c1.2067 0.75456 2.4612 1.8616 3.668 3.2188 6.8874 7.3903 6.0847 14.931-1.2051 21.668-9.2002 8.4965-13.173 4.977-20.613-3.1172l-0.30078-0.35156-0.35352-0.40234-0.15039-0.15235-0.20117-0.19922-0.15039-0.15234-0.15039-0.20117-0.15039-0.15039-0.15234-0.20118-0.15039-0.15039-0.1504-0.20117-0.15039-0.15039-0.15234-0.15039-0.0996-0.15234-0.0996-0.15039 20.562-19.004zm-515.92 3.6211c-5.8821 4.4241-13.474 12.066-17.445 17.043-14.227 17.697-12.416 34.639 3.2695 47.057 18.601 14.68 35.643 8.2944 48.262-7.6426 3.5693-4.5247 6.7376-9.8542 9.4023-15.938l-5.3281-12.617-2.7656 0.65234c3.469 8.7478 2.0105 17.194-3.7207 24.584-10.306 12.971-29.108 13.072-43.486 1.6602-12.971-10.306-12.771-22.372-2.8672-34.891 10.608-13.373 19.105-12.569 25.992-8.1445l1.9609-2.4629-13.273-9.3008zm555.33 36.348-2.5644 1.6094 3.5703 8.1934-44.393 29.211-6.084-6.3848-2.5625 1.6074 14.529 21.971 2.5625-1.6602-3.5684-8.1934 44.24-29.211v0.002l6.084 6.3848 2.5644-1.6602-14.379-21.869zm-191.08 4.9258c-37.659-0.35671-49.381 14.279-49.381 14.279h0.002l-1.0059 2.4141-0.95507 2.3613-0.95508 2.2637-0.95508 2.2617-0.95508 2.1621-0.90625 2.1621-0.95508 2.0098-0.95508 2.0117-0.95507 1.9609-0.95703 1.8594-0.95508 1.7598-0.95508 1.7598-1.0059 1.6602-1.0059 1.5586-1.0547 1.5078-1.0566 1.4082-1.1055 1.3574-1.1055 1.3066-1.1563 1.1562-1.207 1.1055-1.207 1.0059-1.2578 0.95508-1.3066 0.85547-1.3574 0.75391-1.457 0.65234-1.459 0.55273-1.5078 0.50391-1.5586 0.35156-1.6582 0.30078-1.6602 0.15235-1.7598 0.0996-1.8594-0.0508c-37.756-1.7597-43.588-24.131-43.939-27.197-0.55302-4.3236 7.4395-9 7.4395-9-2.1118 0-18.3 1.0071-38.762-5.0762-28.304-8.1947-28.404 11.211-28.404 11.211s-34.791-9.1009-39.416 8.5957c-2.2118 8.2953-0.25 20.16-0.25 20.16s25.237-13.423 44.643 2.5137c16.591 13.825 20.01 25.239 43.891 52.588 12.217 13.825 43.085 59.322 82.148 38.811 0 0-5.3292-10.255-31.422-27.65-11.412-7.5411-28.908-15.284-40.068-24.232-10.407-8.4461-14.631-11.814-35.395-35.744-8.7478-10.055-35.343-23.579-50.727-18.451-1.4076 0.50275-1.6585 1.7606-2.8652 2.6152 0 0-0.45276-6.738 0.55274-9.4023 1.458-3.7706 17.044-4.8759 35.746 0.45312 0 0-3.6192-14.832 11.061-12.268 14.831 2.6143 29.36 7.6415 33.885 6.3848 0 0 0.3002 34.187 54.094 37.656 26.444 1.6589 37.305-27.148 43.941-38.158 2.011-3.2681 6.6361-9.6533 11.412-10.91 34.74-9.2505 98.587-8.5963 137.45 57.213 16.138 27.701 41.275 85.114 51.883 103.16 26.344 45.146 46.053 36.951 62.895 21.467 0 0-24.937 13.877-47.158-37.303-10.055-23.227-44.593-98.939-70.635-122.37-13.021-11.865-31.976-29.864-66.363-37.053-14.924-3.1013-27.5-4.3767-38.045-4.4766zm-222.06 7.332c-31.792 0.61828-56.405 16.534-78.439 36.408-28.656 25.891-46.703 71.389-63.947 108.24-16.641 35.393-23.48 40.118-38.109 48.111l-0.60352 0.35351-0.55273 0.30079-0.60352 0.25195-0.60156 0.25-0.55469 0.25195-0.60352 0.25195-0.55274 0.20118-0.55273 0.20117-1.1055 0.35156-1.0566 0.30078-1.0547 0.25196-1.0566 0.20117-1.0059 0.10156-0.95508 0.0996-0.95508 0.0508-0.9043 0.0508h-0.85547l-0.80273-0.0508-0.80469-0.10156-0.80469-0.0996-0.70312-0.10156-0.70508-0.15039-0.65234-0.0996-0.60352-0.20118-0.55469-0.15234-0.50195-0.15039-0.50195-0.15039-0.45312-0.20117-0.35156-0.15039-0.35156-0.15039-0.30273-0.10157-0.20117-0.15039-0.20117-0.10156-0.15039-0.0488-0.09961-0.0508s12.267 13.826 23.428 13.373c30.667-1.1061 52.838-51.934 60.982-68.625 10.759-22.171 29.913-71.591 61.787-99.191 27.751-23.881 56.558-30.165 65.607-30.969 18.903-1.4076 19.506-5.2793 19.506-5.2793-10.129-2.4744-19.592-3.4993-28.494-3.3262zm43.98 22.783v0.0508h0.0488v0.0488l0.0508 0.0508 0.0508 0.0508 0.0508 0.0996 0.0488 0.0508 0.10156 0.15039 0.0996 0.15234 0.15039 0.20117 0.15235 0.20118 0.15039 0.19922 0.15039 0.25195 0.15039 0.25195 0.15234 0.30078 0.20117 0.30274 0.1504 0.30078 0.20117 0.30273 0.20117 0.35157 0.15039 0.30078 0.20117 0.40234 0.15039 0.35156 0.15039 0.35352 0.15235 0.40039 0.15039 0.35351 0.15039 0.40235 0.0996 0.40234 0.10156 0.40039 0.0996 0.40235 0.10156 0.40234 0.0508 0.40234 0.0488 0.40235v0.40234 0.40234s5.2298-4.4242 16.391-4.2226c0 0-15.132-4.2232-20.109-4.877zm391.84 0.65429-14.73 4.5742 1.3574 2.8652 10.256-1.2559c1.3572 2.4633 2.6643 5.1266 4.0215 7.9922l4.5254 10.055-48.012 21.568-5.5312-8.3945-2.8144 1.207 11.764 26.041 2.7656-1.2559-2.6641-9.6035 48.012-21.568 4.6758 10.258c1.3075 3.1172 2.5137 6.0818 3.5195 8.7969l-8.1953 5.9316 1.3574 3.0176 13.623-6.9883-23.93-53.24zm-211 0.37305c-15.033 0.0953-25.395 2.8457-25.395 2.8457-1.0051 0.55296-3.5196 1.911-4.5254 3.5195-3.7706 6.4351-8.9492 16.842-8.9492 16.842 78.679 3.8711 94.516 99.846 94.516 99.846l1.7109 0.80469 1.709 0.80274 1.6582 0.80468 1.6094 0.85547 1.5586 0.80274 1.5586 0.85547 1.457 0.85546 1.459 0.80274 1.4082 0.80469 1.3555 0.85546 1.3086 0.80274 1.2578 0.75391 1.2559 0.80468 1.1562 0.75391 1.1055 0.70508 1.0566 0.75195 1.0059 0.6543 0.95508 0.70312 0.9043 0.60352 0.80468 0.60351 0.80469 0.55274 0.70313 0.55469 0.65429 0.50195 0.55274 0.45312 0.55273 0.40235 0.45313 0.35156 0.40234 0.30078 0.30078 0.25195 0.25196 0.20118 0.20117 0.15039 0.0996 0.10156 0.0508 0.0488c-0.003-0.0101-18.402-59.977-41.074-90.34-19.909-26.545-51.129-35.695-51.129-35.695 44.493-2.564 58.77 16.239 74.154 37.605 15.937 21.819 40.068 97.733 55.352 113.07 11.111 11.311 29.311 13.424 29.311 13.424-4.3236-5.8821-22.373-35.092-36.752-71.139-17.24-43.73-38.15-78.92-56-91.44-20.75-14.58-43.79-17.88-60.83-17.77zm-404.4 2.7129c-11.881-0.0964-22.239 6.3861-28.771 20.592-8.1947 17.697-1.3565 33.986 17.145 42.482 16.239 7.4406 33.331 3.2679 42.732-17.445l0.70312-1.6094 0.6543-1.6582 0.55274-1.6074 0.45312-1.6094 0.40234-1.6094 0.30078-1.6074 0.25195-1.5586 0.15039-1.5586 0.10156-1.5586v-1.5098l-0.10156-1.5078-0.09961-1.457-0.25195-1.459-0.30274-1.457-0.35156-1.4082-0.40234-1.3574-0.55273-1.3574-0.55273-1.3066-0.6543-1.2578-0.70312-1.2559-0.80469-1.207-0.85352-1.207-0.90625-1.1055-1.0059-1.1055-1.0547-1.0566-1.1055-1.0059-1.207-1.0059-1.2578-0.9043-1.3066-0.85547-1.3574-0.85351-1.457-0.75391-1.459-0.7539v-0.002c-5.808-2.64-11.522-4.05-16.923-4.09zm160.21 7.7715-0.0996 0.0508-0.25196 0.0488-0.5039 0.15235-0.70313 0.25-0.80469 0.30273-1.0547 0.40235-1.1562 0.50195-1.3574 0.6543-1.459 0.7539-1.6074 0.9043-1.7598 1.0059-1.9102 1.207-1.9609 1.3574-2.1113 1.5078-2.2129 1.7598-2.3125 1.9102-2.4121 2.1113-2.4629 2.3125-2.5644 2.5645-2.6152 2.7656-2.6641 3.0156-2.7148 3.3184-2.8164 3.5195-2.8144 3.8203-2.8145 4.0723-2.916 4.4258-1.4082 2.3125-1.457 2.3633-1.459 2.4629-1.457 2.5625-1.459 2.6152-1.4082 2.6641-1.457 2.8164-1.459 2.8652-1.457 2.9668-1.4082 3.0156-1.457 3.1172-1.4082 3.2188-0.002-0.002c-34.89 79.785-55.451 95.17-55.451 95.17 35.393 0 55.753-44.392 65.959-70.686 29.41-76.92 56.107-83.004 56.107-83.004-1.3577-4.5247-1.2578-19.154-1.2578-19.154zm-163.34 1.0488c4.7727-0.0218 9.9573 1.0571 15.283 3.4766l1.207 0.60352 1.2051 0.60352 1.1562 0.60351 1.1582 0.65235 1.1055 0.70507 1.1055 0.70313 1.0547 0.70508 1.0059 0.75195 1.0059 0.80469 0.90625 0.80468 0.9043 0.85547 0.85547 0.85352 0.80469 0.90625 0.75195 0.9043 0.6543 0.95507 0.6543 0.95508 0.60352 1.0059 0.50195 1.0059 0.45312 1.0566 0.40234 1.1055 0.30078 1.1055 0.25195 1.1055 0.20117 1.1562 0.09961 1.207v1.207l-0.05078 1.2578-0.15039 1.2559-0.25 1.2578-0.30273 1.3574-0.40234 1.3066-0.50195 1.4082-0.60352 1.4062c-6.4351 14.026-21.82 17.144-39.768 8.9492-14.724-6.78-19.902-18.39-14.271-30.41 3.663-8.16 12.174-13.53 22.674-13.58zm363.53 20.219c-2.5137 5.5302-12.166 17.545-12.166 17.545 58.469 26.495 58.67 62.24 58.67 62.24l0.85352-0.0996h0.85546 0.9043 0.95703l1.0059 0.0488 1.0059 0.10156 1.0547 0.0508 1.0547 0.15039 1.0566 0.0996 1.0547 0.15235 2.1621 0.35156 2.1133 0.40234 1.0547 0.20117 1.0059 0.20117 1.0059 0.20118 0.95508 0.19922 0.9043 0.20117 0.90429 0.20117 0.85547 0.20117 0.80469 0.20117 0.70312 0.20118 0.70508 0.15039 0.60157 0.15234 0.55468 0.15039 0.25 0.0996 0.25196 0.0508 0.20117 0.0508 0.20117 0.0508 0.15039 0.0488 0.15039 0.0508h0.15235l0.0996 0.0508h0.10157l0.0488 0.0508h0.0508c-8.7477-62.29-72.295-83.758-72.295-83.758zm-163.97 1.0352c-0.49765 0.004-1.0085 0.0263-1.5332 0.0703-7.7925 0.65355-37.303 8.145-63.295 67.469l-1.1562 2.6133-1.1055 2.4629-1.0566 2.4141-1.0059 2.2617-1.0039 2.2129-0.90625 2.1113-0.9043 2.0117-0.85546 1.9102-0.85352 1.8594-0.75391 1.709-0.7539 1.709-0.70508 1.5606-0.65234 1.457-0.60352 1.4082-0.60352 1.3574-0.55273 1.2051-0.50391 1.1582-0.50195 1.1055-0.45312 0.95507-0.40235 0.95508-0.35156 0.80469-0.35156 0.7539-0.30078 0.70313-0.30274 0.60352-0.20117 0.55273-0.20117 0.45312-0.20117 0.35157-0.15039 0.35156-0.0996 0.20117-0.0508 0.20117-0.0508 0.10157v0.0488 0.002c10.055-7.0384 30.062-13.676 30.062-13.676 25.69-78.227 64.201-89.287 64.201-89.287-0.00001 0-4.3751-4.1978-11.84-4.1426zm23.354 15.1-3.3184 1.9609-3.2168 2.1113-3.1172 2.2637-2.9668 2.4121-2.8652 2.5645-2.7656 2.6641-2.6641 2.7148-2.5644 2.8164-2.4121 2.916-2.3633 2.916-2.2129 2.9668-2.1113 3.0156-2.0117 2.9668-1.9102 2.9668-1.8086 2.9668-1.709 2.916-1.5606 2.8144-1.5078 2.8145-1.3574 2.666-1.3066 2.5625-1.1562 2.4648-1.0547 2.3613-1.0059 2.1621-0.85547 2.0117-0.7539 1.8613-0.65235 1.6074-0.55469 1.459-0.45117 1.2051-0.20117 0.50391-0.15039 0.45313-0.15234 0.40039-0.0996 0.30273-0.10157 0.25195-0.0488 0.20118-0.0508 0.0996v0.0488c6.8876-2.1118 22.02-3.8711 22.02-3.8711 11.764-33.533 41.074-56.559 41.074-56.559l-10.055-10.961zm114.32 12.27-0.25 0.30273-0.25196 0.30078-0.55273 0.55274-0.6543 0.50391-0.6543 0.50195-0.75195 0.5039-0.75391 0.45118-0.85546 0.45312-0.85547 0.40235-0.85352 0.40234-0.90625 0.40234-0.95508 0.35157-0.95507 0.35156-0.95508 0.30078-0.9043 0.35352-0.95703 0.25-0.95508 0.30273-0.95508 0.25195-0.90429 0.19922-0.85547 0.20117-0.85547 0.20117-0.80274 0.20118-0.80468 0.15234-0.70313 0.15039-0.6543 0.15039-0.65429 0.10156-0.50195 0.0996-0.25196 0.0508-0.25195 0.0488h-0.20117l-0.19922 0.0508h-0.15235l-0.20117 0.0508h-0.0996l-0.10156 0.0508h-0.0996-0.0508-0.0488c38.209 20.814 50.123 43.838 50.123 43.838 8.0942-2.1113 24.584-2.2109 24.584-2.2109-12.619-31.773-52.336-50.275-52.336-50.275zm309.09 4.0215-3.0156 0.60352 0.45312 8.8984-26.545 25.59-21.166 4.7266-3.7715-9.8555-2.9648 0.55469 6.5352 29.008 2.8652-0.65429-0.75391-10.508 21.014-4.7754 34.842 10.961 3.0156 6.6348 2.9668-0.65235-4.8262-21.568-2.916 0.60352 0.45313 8.8984-28.355-8.1953 21.719-21.365 3.418 8.2949 2.916-0.65429-5.8828-26.545zm-401.49 10.811s-19.357 13.523-29.764 41.174c0 0 7.9432-0.10083 11.613 0.55273 3.6194 0.80424 9.3008 0.9043 9.3008 0.9043h0.004l0.25-1.2559 0.35157-1.2578 0.40234-1.3066 0.5039-1.2578 0.55274-1.3066 0.55273-1.3066 0.6543-1.2559 0.65234-1.3066 0.70508-1.2578 0.75391-1.2578 0.7539-1.2559 0.80274-1.207 0.80469-1.207 0.80468-1.1562 0.80469-1.1055 0.80274-1.1074 0.80468-1.0547 0.80469-1.0547 0.75391-0.95703 0.7539-0.9043 0.70313-0.85547 0.70508-0.85351 0.65234-0.75391 0.60352-0.65429 0.55273-0.65235 0.50391-0.5039 0.40234-0.50196 0.20117-0.20117 0.15039-0.20117 0.20117-0.15039 0.0996-0.15235 0.15235-0.15039 0.0996-0.0996 0.0508-0.0508 0.0488-0.0508 0.0508-0.0488-9.6016-12.971zm-289.63 4.5742c-1.4579 4.0722-3.8705 7.944-4.7754 12.268-2.7651 12.166 3.0157 21.116 12.316 23.127 22.02 4.9772 23.78-25.087 38.611-21.77 7.6417 1.6088 10.054 7.9436 8.3945 15.133-0.7541 3.7706-4.2227 10.205-8.2949 11.16-2.7651 0.80439-6.7357 0.90661-11.512 0.55469l0.09961 3.1152 14.631 2.2129c4.0723-3.67 7.189-10.859 8.4961-16.842 2.9159-12.719-3.3175-21.67-14.277-24.133-17.445-3.9214-19.909 26.043-36.5 22.373-6.6362-1.5585-9.603-7.0896-8.1953-13.475 1.659-7.4403 7.7422-8.998 14.529-8.998l0.20117-2.9668-13.725-1.7598zm640.76 148.06l-6.9883 21.316 2.916 1.0059 4.0723-7.8418 41.828 13.422-59.525 26.898-4.9766 15.484 2.8652 0.95507 4.2227-7.8438 50.525 16.139-1.1562 8.8476 2.8652 0.9043 6.9375-21.92-2.8652-0.85352-4.2227 8.1953-44.443-14.279c13.172-6.0831 55.454-25.238 63.648-28.908l1.3066-4.2226-55.352-17.646 1.207-8.7969-2.8652-0.85547zm-646.83 1.67-3.0156 0.75l5.5801 21.518 2.9668-0.80469-0.75391-8.8476 19.656 1.7598 5.6816 21.92-16.088 12.066-3.6211-8.0938-3.0156 0.75391 6.4355 24.936 3.0156-0.7539-0.45117-7.6426 50.977-38.561-1.0547-4.4238-62.994-7.5918-3.3184-6.9883zm394.76 6.2852-0.15039 182.85 19.305-4.4746 0.10156-178.37h-19.256zm37.807 0 0.35157 173.65 19.055-5.5293-0.10157-168.12h-19.305zm39.867 0v161.13s19.256 0.55284 19.256-28.305v-132.82h-19.256zm-232.62 0.35157v132.77c0 28.556 19.154 28.355 19.154 28.355v-161.13h-19.154zm39.867 0v168.87l19.205 4.5234v-173.39h-19.205zm37.807 0 0.0996 178.37 19.154 4.7754v-183.15h-19.254zm37.654 0v187.22l9.6035 10.006 9.5527-9.8047 0.0996-187.42h-19.256zm-325.93 8.3965 25.438 2.7637-20.764 15.637-4.6738-18.4zm44.393 30.566-2.666 1.3066 2.5137 8.5469-47.207 24.082-5.3281-7.1387-2.7656 1.4062 14.479 28.557c9.2002 18.048 24.936 28.103 45.951 17.395 20.009-10.105 18.601-27.903 10.055-44.594l-15.031-29.561zm4.5234 17.246c1.9606 3.2178 3.7708 6.4362 5.4297 9.7539 8.3958 16.49 6.084 30.969-12.316 40.27-15.133 7.7422-27.854 2.6634-34.842-10.961l-0.45117-0.95508-0.45312-0.9043-0.40234-0.90625-0.40234-0.95507-0.40234-0.9043-0.35156-0.90625-0.35156-0.9043-0.35156-0.90429-0.6543-1.8106-0.30078-0.95508-0.35352-0.90625-0.30078-0.95508-0.30078-0.95508-0.35352-1.0059-0.30078-1.0039 47.459-24.131zm552.96 20.713c-9.9834 0.23898-19.232 5.6521-26.336 17.145-10.256 16.591-5.6303 33.532 11.664 44.291 15.283 9.4013 32.628 7.3908 44.693-11.965l0.9043-1.5586 0.80468-1.5586 0.75391-1.5098 0.6543-1.5586 0.60351-1.5586 0.50196-1.5078 0.40234-1.5586 0.35156-1.5098 0.25196-1.5078 0.20117-1.5078 0.15039-1.5078v-1.459l-0.0508-1.5078-0.0996-1.459-0.20117-1.4062-0.25196-1.4082-0.35156-1.4082-0.40234-1.4062-0.45313-1.3574-0.55273-1.3066-0.65235-1.3086-0.70507-1.2559-0.75391-1.2578-0.85352-1.207-0.90625-1.1562-1.0059-1.1562-1.0059-1.1055-1.1562-1.1055-1.1562-1.0059-1.2559-1.0059-1.3066-0.95508-1.4082-0.90625v0.004c-7.0667-4.3912-14.242-6.6498-21.072-6.4863zm-3.5312 8.457c5.9117-0.13154 12.407 1.5633 18.82 5.5664l1.1562 0.7539 1.1074 0.70508 1.1055 0.80274 1.0547 0.7539 1.0059 0.80469 1.0058 0.85547 0.95508 0.85351 0.90625 0.85547 0.9043 0.9043 0.80469 0.95703 0.80468 0.9043 0.70313 0.95508 0.70313 1.0059 0.65429 1.0059 0.55274 1.0058 0.5039 1.0547 0.45117 1.0566 0.40235 1.0547 0.30273 1.1074 0.25 1.1055 0.20117 1.1562 0.10157 1.1562v1.1562l-0.0508 1.207-0.0996 1.207-0.20118 1.2051-0.30273 1.207-0.40234 1.2578-0.50196 1.2578-0.55273 1.3066-0.70508 1.3066-0.75391 1.3066c-8.1947 13.272-23.78 14.377-40.471 3.9707-13.826-8.5466-17.596-20.663-10.508-31.975 4.0596-6.5074 11.452-10.603 20.092-10.795zm-520.77 18.99-2.3125 2.1113 5.1797 8.043-43.137 31.322-6.2344-4.625-2.3125 2.1113 14.078 15.584 2.2109-2.0098-4.3223-7.1894 39.162-28.908 0.15234-0.0508 0.0996 0.0508-24.232 52.035 0.6543 0.9043 55.1-19.154 0.20117-0.10156 0.15234 0.10156-34.086 36.75-6.9902-5.4297-2.2109 2.0117 17.145 19.104 2.2109-1.9609-4.4238-7.1894 36.096-39.414h0.002l7.1894 5.7305 2.2109-2.0606-12.719-14.178-46.957 16.188 21.066-45.297-12.973-14.479zm478.96 17.947-17.244 19.658 2.2109 2.0098 6.9375-5.5293 39.969 35.092-4.625 7.4902 2.1621 2.0117 17.395-19.709-2.3125-2.0098-6.8867 5.5801-39.918-34.99 4.5234-7.6426-2.2109-1.9609zm-23.127 25.742-45.396 36.75 8.0938 13.07 2.4629-2.0098-3.7715-9.7539c2.011-1.7597 4.1736-3.7699 6.6367-5.7305l8.6465-6.9883 33.082 40.973-6.7871 7.3906 2.0117 2.3633 22.121-17.949-1.8613-2.3125-8.6465 4.9277-33.182-40.924 8.8476-7.0879c2.5638-2.111 5.178-3.972 7.541-5.6309l7.8438 6.4356 2.5137-2.1113-10.156-11.412zm-397.87 18.4-1.7598 2.3125 6.082 6.5352-31.873 42.482-7.9434-3.9727-1.7598 2.3125 20.914 15.838 1.8613-2.4648-6.084-6.4844 31.873-42.533h0.002l7.8418 4.0723 1.9102-2.4121-21.064-15.686zm26.594 20.361-1.3574 2.7637 7.2402 5.0781-23.277 47.811v0.002l-8.4961-2.4648-1.3066 2.7656 20.662 9.9551 1.3066-2.6152-7.4902-5.3281 20.461-42.029c4.0722 13.926 17.044 58.419 19.457 67.016l3.9707 2.0098 25.59-52.334 8.4961 2.4629 1.2578-2.7656-20.262-9.8535-1.3555 2.7656 7.2383 5.0762-19.254 39.617-18.15-62.844-14.73-7.0879zm303.36 10.406-4.123 2.1602 7.2891 62.994-5.9316 4.877 1.4082 2.6641 19.707-10.406-1.457-2.7656-8.3965 2.8672-3.0176-19.457h0.002l20.059-10.758 15.484 12.719-6.9883 5.5312 1.3574 2.6641 22.775-12.166-1.4082-2.666-7.4414 2.2129-49.318-40.471zm1.709 12.719 20.059 16.439-16.842 9-3.2168-25.439zm-51.838 9.2969c-2.1249 0.0134-4.3056 0.36879-6.4297 1.0098l-28.004 8.2949 0.7539 2.8652 9.3008-1.1055 15.082 50.877-8.4453 4.123 0.90625 2.8652 25.539-7.4902-0.85547-2.916-8.748 1.0059-6.2324-20.914c3.2175-1.0051 6.3333-2.0113 8.998-3.1172 7.7422 6.4351 16.24 12.719 25.088 18.602 0.70344 0.45247 4.1207 0.20066 6.2324 0.15039l6.9394-0.25195 0.0996-2.916c-5.9324-0.60328-11.462-4.9761-15.887-8.2441l-15.434-11.412c4.7758-5.7816 7.7914-13.525 5.6797-20.814-2.3378-7.6166-8.2094-10.651-14.584-10.611zm-178.97 1.5117-0.80468 3.0176 8.0938 3.6191-13.473 51.48-8.8984-0.75391-0.7539 2.8652 25.439 6.6367 0.80273-2.8652-8.0938-3.6699 13.523-51.43 8.748 0.75195 0.7539-3.0156-25.338-6.6367zm172.31 3.6133c6.8745-0.25054 11.611 3.7684 13.857 11.57 3.5192 11.966-1.3578 13.926-11.865 17.043l-0.25 0.0508-0.20118 0.0996-0.25195 0.0508-0.25195 0.0508-0.50196 0.15039-0.20117 0.0508-0.25195 0.0996-0.25 0.0508-0.20117 0.0508-0.20117 0.0996-0.25196 0.0508-0.20117 0.0508-0.10156 0.0488h-0.0996l-0.0508 0.0508h-0.0996l-0.10156 0.0508h-0.0996l-7.9434-26.896c1.2067-0.70416 2.765-1.3083 4.4238-1.8613 1.8099-0.51847 3.5093-0.80351 5.0957-0.86133zm-33.35 5.2871-58.068 4.1719-0.75391 15.283 2.9668-0.25195 2.5137-10.055c2.7147-0.30201 5.682-0.7545 8.7988-1.0059l11.061-0.75391 3.7695 52.588-9.7539 2.2109 0.20117 2.9668 28.457-1.9609-0.25195-3.1172-9.9551-0.80273-3.8711-52.537 11.412-0.80469c3.2175-0.20108 6.4352-0.30078 9.3008-0.30078l2.8652 9.7031 3.3184-0.20118-2.0098-15.133zm-88.752 1.4473c-9.8882 0.35465-16.36 6.4633-17.328 14.689-2.6646 22.473 27.451 21.116 25.641 36.299-1.0055 7.742-6.9895 10.759-14.279 9.8535-3.8712-0.45216-10.506-3.2179-12.064-7.1894-0.85464-2.564-1.5094-6.5356-1.6602-11.262l-2.9648 0.30078-0.75391 14.832c3.9717 3.6202 11.462 6.0828 17.545 6.7363 12.971 1.5585 21.266-5.4289 22.623-16.59 2.0613-17.948-27.902-17.245-25.941-34.188 0.80439-6.6365 5.9841-10.205 12.52-9.4004 7.5411 0.85464 9.8532 6.8364 10.406 13.473l3.0156-0.0996 0.45312-13.826c-4.2231-0.90504-8.4459-3.0158-12.77-3.418-1.5459-0.19482-3.0288-0.26161-4.4414-0.21094z" transform="scale(.0013889)" fill="#336"/>
  <path d="m368.73 324.36c-2.1156-0.0392-10.997 0.14773-17.684 5.6465 0 0-10.708 7.5417-10.959 19.809 0 0 1.5578 15.383 12.518 21.014 0 0 0.45234 1.4578 16.842 8.8984 0 0 10.86 3.0683 10.709 10.811 0 0 1.6591 9.9528-11.613 10.305 0 0-10.86 1.4584-16.691-8.0938-4.8766-7.8428-3.7712-14.478-4.123-15.785l-8.8477 6.5352-0.0996 19.656s12.719 8.1953 26.896 7.9941c0 0 16.139 0.10165 23.881-7.6406 0 0 8.6455-5.0785 8.5449-19.256-0.10055-13.825-5.2272-20.462-17.494-25.992 0 0-9.5029-3.1165-13.475-4.0215 0 0-9.2001-3.0676-8.8984-10.156 0.25138-3.0165 1.7102-10.507 12.871-10.406 15.585 0.2011 14.379 17.144 14.379 18.4l9.1992-5.8828-1.5586-18.953s-5.0767 0.80517-13.07-1.8594l-0.20117-0.0508-0.20117-0.0488-0.25195-0.10156-0.25196-0.0508-0.25-0.0488-0.30273-0.0508-0.30078-0.0508-0.30274-0.0508-0.35156-0.0488-0.35156-0.0508-0.35156-0.0508-0.35352-0.0508-0.35156-0.0488h-0.40235l-0.7539-0.10156-0.75391-0.0508-0.80469-0.0488-0.7539-0.0508-0.80469-0.0508h-0.35156-0.35156-0.40235-0.35156-0.35156-0.30274-0.30078-0.35156s-0.16456-0.01-0.4668-0.0156zm76.83 1.89-28.94 73.03c-5.2201 0.69788-8.6562 1.8125-8.6562 1.8125h0.0937v9.1562h33.219v-9.1562s-3.2321-1.0815-8.2812-1.7812l4.0625-9.875h26.344l3.9688 9.8438c-4.1533 0.75655-6.9955 1.5985-7.1875 1.6562h-0.0937v0.0312 9.2812h37.062v-9.1562h-0.0312c-0.11203-0.0378-4.3583-1.4576-10.125-2.3125l-27.156-72.531h-14.281zm-170.44 1-38.344 0.15625v9.25h0.125s3.9378 1.1736 9.2188 2.0625c-0.0424 5.693-0.31091 45.801 1 49.312 1.4579 3.4187 1.8244 8.5772 7.6562 13.906 0.00001-0.00001 11.393 10.705 28.688 9.75-0.00001 0 18.357 0.65411 27.406-10.406 0.00001 0 8.0027-6.2616 8.6562-19.031v-43.75c5.6508-0.66942 9.4063-1.8438 9.4062-1.8438h-0.0937v-9.4062h-33.344v9.4062s3.0828 0.97212 7.875 1.6562v44.094c0-0.00001 1.4168 17.872-18.844 19.531-0.00001-0.00001-17.344 1.0255-17.344-19.688v-43.656c4.6357-0.87273 7.875-1.9375 7.875-1.9375h0.0625v-9.4062zm174.88 28.19l8.75 22.719h-17.344l8.59-22.72z" transform="scale(.0013889)" fill="#c33"/>
 </g>
</svg>
