<?xml version="1.0" encoding="UTF-8" standalone="no"?>
<svg xmlns:rdf="http://www.w3.org/1999/02/22-rdf-syntax-ns#" xmlns="http://www.w3.org/2000/svg" height="500.04" width="500" version="1.1" preserveAspectRatio="none" xmlns:cc="http://creativecommons.org/ns#" xmlns:dc="http://purl.org/dc/elements/1.1/" viewBox="0 0 0.69444445 0.69449926">
 <g transform="matrix(.68889 0 0 .68894 .0025254 .0030301)">
  <g stroke-miterlimit="10.433">
   <path d="m0.49995 0.99769 0.025639-0.0006456 0.02527-0.001937 0.024901-0.003136 0.02444-0.004427 0.024163-0.005534 0.02361-0.006732 0.023056-0.007839 0.022595-0.008854 0.022042-0.00996 0.021488-0.011067 0.020843-0.011897 0.020197-0.013004 0.019552-0.013834 0.018814-0.014756 0.017984-0.015678 0.017338-0.016508 0.016416-0.017246 0.015678-0.018076 0.014756-0.018814 0.013926-0.01946 0.012912-0.020197 0.011989-0.020843 0.010975-0.021489 0.00996-0.022042 0.008946-0.022595 0.007839-0.023149 0.006732-0.02361 0.005534-0.024071 0.004335-0.024532 0.003228-0.024901 0.001844-0.02527 0.0007378-0.025639c0-0.27483-0.22291-0.49765-0.49774-0.49765s-0.49765 0.22282-0.49765 0.49765c0 0.27492 0.22282 0.49774 0.49765 0.49774z" stroke="#005a9c" stroke-width=".0046117" fill="#005a9c"/>
   <path d="m0.23942 0.59725 0.01715-0.21239c-0.00157-0.08319-0.02914-0.09112-0.02914-0.09112l0.10818-0.06521c0.10265 0.059209 0.16352-0.018445 0.16352-0.018445 0.091026 0.087153 0.16803 0.020105 0.16803 0.020105l0.11279 0.06438c-0.03624 0.03919-0.03053 0.06788-0.03053 0.06788l0.00932 0.23203-0.25657-0.18878-0.26275 0.19155z" stroke="#efd763" stroke-width=".0064931" fill="#efd763"/>
   <path d="m0.5018 0.8458 0.0000922-0.00009228 0.0001845-0.00036884 0.00046113-0.00055336 0.00064555-0.00073783 0.00083005-0.001014 0.00092225-0.001107 0.001291-0.001291 0.001383-0.001476 0.00166-0.00166 0.001845-0.001752 0.002029-0.001937 0.002306-0.002029 0.002582-0.002121 0.002767-0.002213 0.003043-0.002306 0.00332-0.002306 0.003597-0.00249 0.003781-0.00249 0.00415-0.00249 0.004335-0.002582 0.004703-0.002582 0.00498-0.002582 0.005257-0.002582 0.005626-0.00249 0.00581-0.002582 0.006271-0.00249 0.006456-0.00249 0.006917-0.002398 0.007194-0.002306 0.00747-0.002213 0.007931-0.002213 0.008208-0.002029s0.061883-0.002121 0.11648-0.087061l-0.23573-0.16684-0.23167 0.16434c0.057918 0.085401 0.12008 0.087153 0.12008 0.087153 0.095177 0.032556 0.11279 0.064373 0.11279 0.064373z" stroke="#efd763" stroke-width=".0046113" fill="#efd763"/>
   <path d="m358.17 178.62-5.6445 38.713-13.348-11.82-83.666 17.598s-15.671 22.577-30.678-0.86328l-10.027 2.125s1.1304 16.866 19.988 26.627l0.53515 0.0137c-1.193 1.2046-1.9297 2.8675-1.9297 4.6992 0 1.5833 0.53194 3.0207 1.4219 4.1504l-35.553 62.916s33.466 58.301 79.416 3.0547l-33.566-66.09 0.0351-0.0469 0.19922-0.26563 0.13281-0.26562 0.19922-0.26563 0.13282-0.26562 0.13281-0.33203 0.13281-0.26563 0.0645-0.33203 0.13477-0.33203 0.0644-0.26562 0.0664-0.33204v-0.33203l0.0664-0.33203v-0.39844c0-1.7222-0.65573-3.2909-1.7188-4.4746l1.1875 0.0274s14.676-2.1917 18.527-16.602l85.193-0.33204h0.13281l-1.2617 29.35c2.988 10.292 11.355 9.2969 11.355 9.2969 10.093 0.99576 11.156-9.4297 11.156-9.4297l-3.5195-28.885h84.994c3.7188 14.409 18.594 17.73 18.594 17.73l1.623-0.0195c-1.2046 1.2067-1.9551 2.8828-1.9551 4.7324 0 1.7827 0.67706 3.3937 1.7715 4.5918l0.48828-0.93945 9.0293-0.33203 0.41016 0.73828 0.0547-0.0742 0.19921-0.26563 0.13282-0.26562 0.19921-0.26562 0.13282-0.26563 0.13281-0.33203 0.13281-0.26563 0.0664-0.33203 0.13281-0.33203 0.0664-0.33203 0.0664-0.33203v-0.33203l0.0664-0.33203v-0.33203c0-1.9058-0.79992-3.6259-2.0801-4.8398l0.48633-0.006c18.925-9.6283 20.188-26.496 20.188-26.496l-9.9609-2.1895c-15.272 23.374-30.678 0.59766-30.678 0.59766l-83.537-18.262-14.607 11.422-5.1797-37.717-0.33203-0.99609zm114.39 83.078c-0.00031-0.00034-0.002 0.00034-0.002 0l-34.041 65.662c45.486 55.712 79.416-2.3242 79.416-2.3242l-35.447-63.871-0.14453 0.19141-0.19922 0.26562-0.19921 0.19922-0.26563 0.19922-0.19922 0.26562-0.26562 0.19922-0.26563 0.13281-0.26562 0.19922-0.26563 0.13281-0.26562 0.19922-0.33203 0.13282-0.26563 0.0664-0.33203 0.13282-0.26563 0.0664-0.33203 0.0664-0.33203 0.0664-0.33203 0.0664h-0.33203l-0.33008 0.0664c-1.8665 0-3.5484-0.8148-4.7363-2.1152zm-111.01 33.592-191.3 138.65 0.0664 2.123 0.0664 2.1914 0.13281 2.1914 0.19922 2.1914 0.26563 2.1914 0.26562 2.2578 0.79688 4.4473 0.92968 4.3828 1.0625 4.4492 1.3281 4.3828 1.3945 4.3164 1.5938 4.25 1.7266 4.1172 1.793 4.1172 1.9922 3.916 1.9922 3.7852 2.125 3.6524 2.2578 3.5195 2.2578 3.3203 167.93-121.32 170.98 123.25c12.284-17.132 16.732-45.884 16.732-68.926l-186.58-137.46zm94.426 167.27c-17.796 0.0664-22.512 12.882-23.309 31.143l-0.19922-0.19922s-6.4397 1.0623-7.834-4.1836c0 0-1.3284 4.5822-7.3047 4.3828l-113 0.1211c-2.2284-2.8714-5.6311-4.7031-9.4473-4.7031-3.8628 0-7.2883 1.841-9.5234 4.7246l-53.691 0.0566c-11.421 9.2299 0.0664 16.533 0.0664 16.533h9.0977v26.098h20.85v-20.918h-8.3008l0.13282 4.9141h-4.7148v-9.7598h29.484l-0.0664 9.7598h-4.3164l-0.19922-4.9141-8.3672-0.0664-0.0664 20.918 20.982 0.26563v-25.766h0.20312c2.1895 2.173 5.1502 3.5215 8.4297 3.5215h0.59765l0.59766-0.0664 0.66406-0.0664 0.59766-0.13282 0.59766-0.13281 0.53125-0.19922 0.59765-0.19922 0.53125-0.19922 0.53125-0.26562 0.53125-0.26563 0.53125-0.33203 0.46485-0.33203 0.46484-0.33203 0.46484-0.39844 0.46485-0.39843 0.22656-0.22657 115.64-0.17383c4.5151 0.19924 6.2422 5.3789 6.2422 5.3789 1.1952-6.1092 7.5039-5.3789 7.5039-5.3789v0.002l0.13282 1.5918 0.19922 1.5937 0.19921 1.5938 0.19922 1.5273 0.26563 1.5273 0.26562 1.4609 0.33203 1.4609 0.39844 1.3945 0.39844 1.3945 0.39844 1.3281 0.46484 1.3301 0.53125 1.2598 0.53125 1.1934 0.59766 1.1309 0.59765 1.1289 0.66407 1.0625 0.73046 1.0645 0.73047 0.92968 0.79688 0.92774 0.86328 0.86328 0.92969 0.79883 0.92968 0.72851 0.99414 0.66407 1.0645 0.59765 1.0625 0.53125 1.1289 0.53125 1.2617 0.39844 1.2598 0.33203 1.2617 0.26563 1.3945 0.19921 1.3945 0.13282 1.5273 0.0664c19.522 0.0664 22.576-19.189 22.576-41.102s-3.7843-38.182-22.775-38.115v-0.002z" transform="scale(.0013889)" stroke="#3197d4" stroke-width="1.67" fill="#3197d4"/>
  </g>
  <g stroke="#fff" stroke-miterlimit="10.433" fill="none">
   <path d="m381.03 279.88h0.7v0.42m3.39-0.42h0.58v1.89" transform="matrix(.0092225 0 0 -.0092225 -3.1643 3.3126)" stroke-width=".46935"/>
   <line y2=".69003" x2=".57290" y1=".69003" x1=".42903" stroke-width=".0032436"/>
   <path d="m0.62003 0.64917-0.00082996 0.00064559-0.00083005 0.00064552-0.00083003 0.00064563-0.00073784 0.00073783-0.0007378 0.00082998-0.0007378 0.00073783-0.00064554 0.00082998-0.00073784 0.00092227-0.00055336 0.00083006-0.00064553 0.001014-0.00064555 0.0009222-0.00055338 0.001015-0.00055334 0.001014-0.00046114 0.001107-0.00046111 0.001107-0.00046117 0.001107-0.0004611 0.001107-0.00046117 0.001199-0.00036887 0.001199-0.00036893 0.001291-0.00036888 0.001199-0.00027664 0.001291-0.00036895 0.001383-0.00027665 0.001291-0.00018445 0.001383-0.00027671 0.001383-0.00018443 0.001383-0.00018447 0.001476-0.00018442 0.001383-0.00018445 0.001476-0.0000923 0.001568-0.0000922 0.001476c-0.00092223 0.016139 0 0.029051 0.003136 0.040579 0.003873 0.014295 0.014018 0.020566 0.014018 0.020566m0.032371-0.080052c0.004611 0.009684-0.00166 0.024163-0.00166 0.024163m0.001199 0.015309c0.00581 0.011344 0 0.027483 0 0.027483m-0.3167-0.022688v0.032371m-0.014572-0.052661h0.066586" stroke-width=".0043286"/>
   <polyline transform="matrix(.0092225 0 0 -.0092225 -3.1643 3.3126)" points="379.64 323.32 379.71 323.33 379.79 323.35 379.86 323.36 379.93 323.38 380 323.4 380.07 323.41 380.2 323.46 380.33 323.5 380.45 323.56 380.57 323.61 380.68 323.68 380.78 323.74 380.88 323.81 380.98 323.88 381.07 323.95 381.15 324.02 381.23 324.09 381.31 324.17 381.38 324.24 381.44 324.32 381.5 324.39 381.56 324.46 381.61 324.53 381.66 324.59 381.7 324.66 381.74 324.72 381.77 324.77 381.8 324.82 381.83 324.87 381.85 324.91 381.86 324.94 381.88 324.97 381.88 324.98 381.89 324.99 381.89 324.99 381.89 325 381.89 325 381.89 325 393.95 327.78 394.37 327.31" stroke-width=".58638"/>
   <polygon transform="matrix(.0092225 0 0 -.0092225 -3.1643 3.3126)" points="375.97 325.11 376.34 324.06 376.28 325.21" stroke-width=".35170"/>
   <polyline transform="matrix(.0092225 0 0 -.0092225 -3.1643 3.3126)" points="398.93 326.47 400.09 327.52 401.35 327.31" stroke-width=".78220"/>
   <path d="m0.4911 0.32639-0.00092226 0.037259c-0.00046119 0.007747 0.008208 0.009684 0.008208 0.009684" stroke-width=".0072144"/>
  </g>
  <path d="m0.64207 0.69667 0.00046117 0.00036891 0.00055334 0.00036885 0.00046112 0.00036898 0.00046111 0.00046108 0.00036891 0.00036895 0.0004611 0.00046108 0.00046117 0.00046121 0.00036889 0.00055332 0.00046115 0.00046111 0.00036887 0.00055337 0.0003689 0.00055333 0.00036895 0.00055335 0.00036884 0.00055335 0.00036895 0.0006456 0.00036888 0.0005533 0.00027663 0.00064562 0.00027672 0.00064556 0.00027668 0.00064556 0.00027666 0.0006456 0.00027672 0.00073778 0.00027667 0.00064561 0.00018444 0.00073781 0.00027662 0.00064557 0.00018453 0.00073778 0.00018442 0.00073781 0.00018445 0.00083004 0.00009223 0.00073782 0.00018442 0.00073778 0.00009221 0.00083003 0.00009223 0.0007378 0.00009226 0.00083002v0.00083006c0.0007378 0.01328-0.006456 0.024901-0.01614 0.025915-0.009684 0.001015-0.018168-0.008946-0.018906-0.022226-0.00055335-0.00913 0.002767-0.017523 0.008024-0.022226l0.00092224-0.00083005c-0.005257-0.003781-0.008946-0.011067-0.009315-0.019828-0.00064554-0.01328 0.00664-0.024809 0.016416-0.025639 0.009684-0.00092223 0.018076 0.009223 0.01863 0.022503 0.0004611 0.009223-0.002859 0.017523-0.008208 0.022134l-0.00092227 0.00055334z" fill="#efd763"/>
  <g stroke-miterlimit="10.433">
   <path d="m240.97 257.44-0.13281 66.004 33.6-0.26562-33.467-65.738zm-3.3867 2.7226-35.459 62.949h35.525l-0.0664-62.949zm241.71 1.1289 0.26562 63.414h35.127l-35.393-63.414zm-2.9219 0.33203-33.6 63.215h33.4l0.19921-63.215z" transform="scale(.0013889)" stroke="#3197d4" stroke-width="3.32" fill="#efd763"/>
   <path d="m0.5006 0.98441 0.024809-0.00064551 0.02444-0.001845 0.024163-0.003043 0.023794-0.004242 0.023333-0.005441 0.022872-0.006456 0.022411-0.007563 0.02195-0.008669 0.021304-0.009684 0.020843-0.010606 0.020197-0.01162 0.019552-0.012543 0.018906-0.013465 0.018261-0.014295 0.017431-0.015217 0.016785-0.015955 0.015955-0.016785 0.015217-0.017523 0.014295-0.018168 0.013465-0.018906 0.012543-0.019552 0.01162-0.02029 0.010606-0.020751 0.009684-0.021396 0.008669-0.021857 0.007562-0.022411 0.006456-0.022964 0.005441-0.023333 0.004242-0.023702 0.003043-0.024163 0.001844-0.024532 0.00064559-0.024809c0-0.26635-0.21599-0.48234-0.48234-0.48234-0.26644 0-0.48243 0.21599-0.48243 0.48234 0 0.26644 0.21599 0.48243 0.48243 0.48243zm0-0.1163 0.018814-0.00046114 0.01863-0.001476 0.018261-0.002306 0.018076-0.003228 0.017707-0.004058 0.017338-0.00498 0.017062-0.005718 0.016601-0.006548 0.016232-0.007378 0.01577-0.008024 0.01531-0.008854 0.014848-0.009499 0.014387-0.010237 0.013834-0.010883 0.01328-0.011436 0.012727-0.012174 0.012082-0.012727 0.011528-0.01328 0.010883-0.013834 0.010145-0.014295 0.009591-0.014848 0.008761-0.015402 0.008116-0.015771 0.007286-0.016232 0.006548-0.0166 0.00581-0.016969 0.004888-0.017431 0.00415-0.017707 0.003136-0.017984 0.002398-0.018353 0.001383-0.01863 0.0004612-0.018814c0-0.20216-0.16388-0.36604-0.36604-0.36604-0.20225 0-0.36613 0.16388-0.36613 0.36604s0.16388 0.36613 0.36613 0.36613z" stroke="#fff" stroke-width=".0086573" fill="none"/>
   <path d="m350.27 38.248-37.65 4.1172 0.86328 11.422 1.5938-0.19922c0.66405-7.4371 2.3227-8.8985 9.6934-9.6953l3.5859-0.39844 3.6523 33.4c0.53136 4.9134 0.46483 6.508-5.5781 7.4375l-0.13281 1.2617 19.523-2.125 0.13281-1.2617c-5.6441 0.39816-6.5742-0.79738-7.1055-5.3125l-3.6504-34.131 3.584-0.39844c7.3045-0.79684 9.3637 0.19968 11.555 7.3711l1.5938-0.13281-1.6602-11.355zm38.908 0.79688-0.99609 0.06641-0.9961 0.06641-1.0625 0.19922-0.99609 0.19922-0.99414 0.19922-0.9961 0.33203-0.99609 0.33203-0.92969 0.33203-0.99609 0.46484-0.92969 0.46484-0.86328 0.53125-0.86328 0.59766-0.86328 0.59766-0.86328 0.66406-0.79688 0.73047-0.73047 0.73047-0.72851 0.86328-0.73047 0.86328-0.66406 0.86328-0.59766 0.99609-0.59766 0.99609-0.53125 1.0625-0.46484 1.1289-0.46484 1.1953-0.39844 1.1953-0.33203 1.2617-0.26563 1.3262-0.26562 1.3281-0.19922 1.4609h-0.002c-1.4608 14.276 6.8386 23.907 19.521 25.168 12.152 1.2616 22.775-6.5086 24.236-20.785 1.5273-15.339-8.5651-24.17-19.521-25.299l-0.99609-0.13281h-1.0625-1.0625zm1.6309 2.4512c0.43444 0.0024 0.86551 0.02661 1.293 0.07227l0.59765 0.06641 0.66407 0.13281 0.59765 0.13281 0.66407 0.19922 0.59765 0.19922 0.59766 0.26562 0.66406 0.26562 0.59766 0.33203 0.53125 0.33203 0.59765 0.39844 0.53125 0.46484 0.59766 0.46484 0.46484 0.53125 0.53125 0.53125 0.46485 0.59766 0.46484 0.66406 0.46485 0.66406 0.39843 0.73047 0.33203 0.79688 0.39844 0.79688 0.33203 0.86328 0.26563 0.92773 0.26562 0.92969 0.19922 0.99609 0.19922 1.0625 0.13281 1.1289 0.0664 1.1289 0.0664 1.1953 0.0664 1.2617-0.0664 1.2617-0.0664 1.3945-0.13281 1.3945c-1.4608 14.675-8.8989 19.92-16.336 19.189-7.437-0.73042-13.611-7.37-12.15-22.111 1.494-14.318 8.5908-19.297 15.107-19.262zm-81.975 1.7988-15.207 4.1172 0.33203 1.2617c4.515-0.86318 6.4415-0.86285 8.5 6.5742l5.8438 21.713h-0.13281l-33.268-24.502-11.09 2.9883 0.33203 1.2617c2.5896-0.73044 3.7189-0.66582 7.2383 1.8574l7.7031 28.621c1.9253 7.0388 0.79698 8.3651-4.0508 10.025l0.13282 1.1953 15.205-4.1172-0.0664-1.2598c-4.7811 1.1285-6.5744 0.06618-8.3672-6.6406l-6.8379-25.301h0.13281l38.115 27.824 1.1289-0.26562-9.1641-34.131-0.13281-0.33203-0.0664-0.33203-0.0664-0.33203-0.0664-0.33203-0.13281-0.33203v-0.33203l-0.0664-0.26562-0.0664-0.26562-0.0664-0.33203-0.0664-0.26562v-0.26562l-0.0664-0.19922v-0.26562-0.26562-0.19922l-0.0664-0.19922v-0.26562-0.19922-0.19922l0.0664-0.19922v-0.19922-0.13281l0.0664-0.39844 0.0664-0.26562 0.13281-0.33203 0.0664-0.26562 0.13281-0.26562 0.13281-0.26562 0.19922-0.19922 0.19922-0.26562 0.19922-0.19922 0.19922-0.13281 0.19921-0.19922 0.26563-0.19922 0.26562-0.13281 0.26563-0.13281 0.26562-0.13281 0.33204-0.19922 0.33203-0.13281 0.33203-0.13281 0.33203-0.13281 0.33203-0.13281 0.39844-0.13281-0.39844-1.2617zm112.35 0.59766-0.26562 1.2617c3.9842 1.3281 5.4449 2.1253 4.1172 7.2383l-7.1719 28.221c-1.4 5.311-2.46 6.108-7.37 5.113l-0.33203 1.2598 18.193 4.6484 0.33203-1.1953c-4.5818-1.3948-5.6442-2.5215-4.3828-7.4355l3.5859-14.211 9.4297 2.5234 0.46485 0.13281 0.39843 0.13281 0.46485 0.13281 0.33203 0.13281 0.39844 0.06641 0.33203 0.13281 0.33203 0.13281 0.33203 0.13281 0.26562 0.19922 0.26563 0.13281 0.26562 0.13281 0.26563 0.19922 0.19922 0.13281 0.19922 0.19922 0.19922 0.19922 0.19921 0.19922 0.13282 0.19922 0.13281 0.26562 0.13281 0.19922 0.13281 0.26562 0.0664 0.33203 0.0664 0.26562 0.0664 0.33203 0.0664 0.33203v0.33203l0.0664 0.39844v0.39844 0.39844l-0.0664 0.46484v0.46484l-0.0664 0.46484v0.26563l-0.0664 0.26562 1.5273 0.39844 3.8496-15.141-1.5273-0.39844c-1.8594 4.7809-3.3851 5.7109-8.6973 4.3828l-9.4297-2.457 3.6524-14.408c0.53136-1.9921 1.0629-2.125 2.6562-1.7266l8.8965 2.3242c7.2378 1.7929 8.6325 3.3183 8.1016 9.3613l1.6602 0.39844 2.1914-9.3613-34.596-8.832zm-169.19 13.877-32.54 14.542l0.46485 1.1289c4.0505-1.3939 5.7113-1.7263 7.3047 3.4531l12.152 27.225c2.6561 4.4488 1.4608 5.6445-2.3242 7.6367l0.53125 1.1289 33.135-14.742-1.9258-11.619-1.6621 0.79687c0.0664 7.3704-2.1899 10.557-9.8926 14.01-9.0971 4.05-9.164 3.984-10.293 1.5273l-6.7734-15.271 9.4961-4.0508c5.1133-2.2579 6.4415-1.795 9.3633 2.7871l1.3945-0.66406-6.3086-14.209-1.4609 0.66406c1.3277 4.6482 1.3274 6.3734-4.1172 8.8301l-9.4941 4.1836-6.043-13.611c-0.92952-2.0584-0.19894-2.3907 1.0625-2.9883l8.33-3.656c6.8396-3.0545 8.8969-2.7887 12.217 2.2578l1.5273-0.66406-4.1172-8.6992zm226.63 3.1211-5.3105 10.16 1.5273 0.66406c4.449-5.9762 6.6387-6.3748 13.279-3.1875l3.3203 1.5938-14.408 30.346c-2.1913 4.4489-2.9889 5.7771-8.6992 3.3867l-0.53125 1.1289 17.729 8.4336 0.59766-1.1289c-5.0465-2.5898-5.178-4.1174-3.252-8.2344l14.74-31.01 3.2539 1.5938c6.7061 3.1209 7.9026 5.0454 5.9766 12.35l1.4609 0.66406 4.5137-10.49-34.197-16.27zm-269.59 15.936-11.088 7.5039 6.707 36.455-31.873-19.455-11.023 7.4355 0.73047 1.0645c4.2499-2.5898 5.7112-2.9237 8.6992 1.459l15.205 22.578c4.7147 7.0384 3.652 7.5022-0.53124 10.756l0.66406 1.0644 13.148-8.832-0.73047-0.99609c-4.1834 2.5236-6.1762 2.1249-10.094-3.6524l-15.006-22.178 0.13281-0.0664 34.396 21.049 0.79688-0.59766-7.2383-41.168 0.0664-0.13281 16.865 25.033c3.1212 4.5819 2.9897 5.91-1.2598 9.0312l0.72852 1.0625 15.605-10.559-0.73047-1.0625c-3.7186 2.2572-5.3125 2.59-8.7656-1.3945l-16.732-24.701-0.0664-0.26563-0.13281-0.19922-0.0664-0.19922-0.13282-0.19922-0.0664-0.19922-0.0664-0.19922-0.13281-0.19922-0.0664-0.19922-0.13281-0.33203-0.13281-0.33203-0.0664-0.33203-0.0664-0.33203-0.0664-0.26562-0.0664-0.33203v-0.26562-0.26562-0.26562-0.19922l0.0664-0.26562 0.0664-0.26562 0.0664-0.19922 0.13281-0.19922 0.0664-0.26562 0.13281-0.19922 0.19922-0.19922 0.13281-0.19922 0.19922-0.19922 0.19922-0.26562 0.19922-0.19922 0.19922-0.19922 0.26562-0.19922 0.19922-0.26563 0.26563-0.19922 0.33203-0.19922 0.26562-0.26562 0.33008-0.26562-0.73047-1.0645zm310.3 3.7188-0.73047 1.0645c3.9175 3.1206 4.3159 4.1819 1.5274 8.2988l-16.467 24.039-0.19922 0.39843-0.26562 0.33203-0.26563 0.33204-0.26562 0.33203-0.19922 0.33203-0.19922 0.26562-0.26563 0.26563-0.19922 0.26562-0.19921 0.26368-0.19922 0.19921-0.26563 0.19922-0.19922 0.13281-0.19922 0.13477-0.19921 0.13086-0.26563 0.13281-0.19922 0.0664-0.26562 0.0664-0.19922 0.0664h-0.26563l-0.26562 0.0664-0.26563-0.0664h-0.26562l-0.26563-0.0664-0.33203-0.0664-0.26562-0.13281-0.19922-0.0664-0.13281-0.0664-0.19922-0.0644-0.19922-0.0684-0.13281-0.13086-0.19922-0.0684-0.19922-0.0664-0.19922-0.13282-0.19922-0.0644-0.19922-0.13476-0.19922-0.13086-0.19922-0.13282-0.19921-0.13281-0.26563-0.13281-0.73047 1.0625 15.473 10.557 0.73047-1.0625c-4.1832-3.254-3.984-4.6464-1.5274-8.3652l7.834-11.355 16.801 11.422-7.3711 10.889c-2.8552 4.117-3.9184 5.1794-8.6992 2.1914l-0.72852 1.1289 15.404 10.492 0.73047-1.0625c-4.1832-3.1875-3.9845-4.6489-1.4609-8.3008l16.799-24.635c2.7224-3.9182 3.8519-4.25 8.3008-1.6602l0.73047-1.0644-15.406-10.557-0.72852 1.0625c3.8513 3.1206 4.2495 4.2501 1.4609 8.3008l-7.3711 10.822-16.801-11.553 7.3711-10.758c2.7224-3.9182 3.8519-4.1838 8.3008-1.6602l0.73047-0.99609-15.473-10.559zm-362.96 30.613-27.291 26.361 7.7031 8.5 1.1289-1.1953c-4.0507-6.2418-3.5856-8.4342 1.7266-13.547l2.9219-2.1914 23.307 24.105c3.1871 3.3202 4.1166 4.514-0.13282 8.9629l0.92969 0.92968 14.076-13.611-0.86328-0.92969c-4.1832 3.7846-5.7089 3.3865-8.8301 0.13281l-24.438-24.369 3.123-2.8574c5.3786-5.179 7.5685-5.5762 13.678-1.2598l1.1953-1.0625-8.2344-7.9688zm408.91 2.6562-0.86328 0.92969c2.855 3.1209 3.7182 4.5141 0.0664 8.4316l-20.385 21.715c-3.5196 3.7848-5.0473 3.1872-8.3672 0.46485l-0.86329 0.92969 26.428 24.768 9.959-6.1758-1.3262-1.2617c-6.8394 2.9218-10.625 2.0585-16.801-3.7188-7.3044-6.8394-7.2385-6.84-5.3125-8.8984l11.355-12.15 7.5039 7.1699c3.9838 3.9176 4.0484 5.2466 0.99415 9.7617l1.1289 1.0625 10.691-11.42-1.1953-1.0625c-3.7852 2.9879-5.3791 3.7187-9.7617-0.33204l-7.502-7.1055 10.225-10.891c1.5278-1.6599 2.1253-1.1286 3.1211-0.13281l6.6406 6.1758c5.4454 5.1129 5.976 7.1059 2.5898 12.152l1.2617 1.1289 6.4414-7.1719-26.029-24.369zm-441.77 39.029c-5.8486-0.218-10.941 5.1106-13.68 8.6465l-11.289 14.742 0.99609 0.73047c3.2538-3.3866 4.317-3.8517 8.5664-0.46484l23.107 17.662c3.7181 2.7888 4.648 3.8521 1.5938 8.3672l0.99609 0.79688 11.355-14.742-0.99609-0.79687c-3.5193 4.117-4.9144 3.8512-8.5 1.1289l-10.492-8.0996 1.9258-3.0547 26.164-0.0664 6.8379-8.5664-0.99414-0.79687c-1.7928 2.1247-3.7852 2.6563-6.1094 2.7226l-21.914 0.59766c1.5941-3.1209 5.6439-11.022-1.5273-16.467-2.0585-1.5771-4.0915-2.2672-6.041-2.3398zm483.34 3.2012-9.4961 6.3086 0.92969 1.3281c6.8392-3.0542 8.8965-2.3235 13.213 3.7188l2.125 2.9219-27.424 19.521c-3.9838 2.8555-5.379 3.5853-9.1641-1.2617l-0.9961 0.79688 11.355 15.938 1.0625-0.73047c-3.1205-4.7144-2.5899-6.1096 1.1289-8.7656l28.021-19.92 2.0586 2.9883c4.3157 5.9762 4.3828 8.2331-0.79688 13.678l0.92969 1.3281 9.0976-6.9726-22.045-30.877zm-486.88 2.8027c1.5418 0.0902 3.2179 0.68376 4.9941 2.0449l0.33203 0.26562 0.33203 0.26563 0.33203 0.26562 0.26563 0.26563 0.26562 0.33203 0.26563 0.26562 0.26562 0.33204 0.19922 0.26562 0.19922 0.26563 0.19922 0.33203 0.13281 0.33203 0.19922 0.26562 0.13281 0.33203 0.0664 0.26563 0.13281 0.33203 0.0664 0.33203 0.13281 0.26563 0.0664 0.33203 0.0664 0.59765 0.0664 0.66407-0.0664 0.59765v0.66407l-0.13281 0.59765-0.13281 0.66406-0.13281 0.59766-0.19922 0.59766-0.26563 0.66406-0.26562 0.59766-0.26563 0.59765-0.26562 0.59766-0.33203 0.53125-0.33203 0.59765-0.33204 0.59766-0.33203 0.53125-0.39843 0.53125-0.33204 0.53125-0.33203 0.46484-0.39843 0.53125-0.33204 0.46485-0.33203 0.46484-0.33203 0.39649-13.08-10.025c-1.594-1.1952-1.594-1.9927 0.59766-4.7812 1.245-1.6432 4.6559-5.9016 9.2812-5.6309zm513.44 32.324-1.1289 0.59765c1.7266 4.4493 1.5936 5.578-2.7891 7.8359l-25.963 13.215c-4.4491 2.2579-5.8442 2.656-8.6328-2.0586l-1.1289 0.59766 8.4336 16.6 1.1289-0.59765c-2.191-4.9136-1.3282-6.0431 2.6562-8.1016l11.818-6.041 1.793 3.3184-11.156 23.641 4.9141 9.627 1.1289-0.59766c-1.1286-2.5229-0.79671-4.4477 0.13281-6.6387l8.8984-20.055c2.1249 2.7893 7.5689 9.8281 15.604 5.7774 9.2297-4.7146 5.445-15.272 2.7227-20.584l-8.4316-16.535zm1.668 14.609c1.0086-0.12454 1.719 0.64738 2.9141 2.9883 1.2614 2.4569 5.0464 10.424-2.8555 14.475l-0.39844 0.19922-0.39843 0.19922-0.39844 0.13281-0.39844 0.13281-0.33203 0.13282-0.39844 0.0664-0.39843 0.13281-0.33204 0.0664-0.33203 0.0664h-0.39843-0.33204l-0.33203 0.0664-0.33203-0.0664h-0.33203-0.33203l-0.33203-0.0664-0.26563-0.0664-0.33203-0.0664-0.59765-0.19922-0.59766-0.26563-0.53125-0.26562-0.53125-0.33203-0.53125-0.33203-0.53125-0.39844-0.46484-0.39844-0.53125-0.46484-0.39844-0.46485-0.46485-0.46484-0.39843-0.53125-0.46485-0.53125-0.39843-0.53125-0.33204-0.53125-0.39843-0.59766-0.33203-0.53125-0.33204-0.53125-0.33203-0.59765-0.26562-0.53125-0.33203-0.53125-0.26563-0.46485-0.26562-0.52929-0.26563-0.46485v-0.002l14.742-7.502c0.43164-0.21582 0.80051-0.35693 1.1367-0.39844zm-556.59 0.46484-0.59766 1.1289 22.445 27.955c2.2579 2.8555 5.4453 7.0392 6.043 8.832 0.53141 1.7266 0.13281 2.7892-0.26562 3.7188l1.0625 0.59766 6.3066-11.688-1.0625-0.59766c-0.73008 1.2614-2.1893 3.9839-4.7129 2.6562-0.66384-0.33192-1.3946-0.93008-1.9258-1.6602l-5.5117-6.4414 8.3672-15.537 6.9707 0.66406c0.99576 0.0662 3.1214 0.39844 4.1172 0.86328 2.1247 1.1952 1.3946 3.186 0.26562 5.377l1.0625 0.59766 8.168-15.139-1.1289-0.59766c-1.5935 2.5234-2.6568 2.9882-8.0352 2.5898l-41.568-3.3203zm8.834 8.166 19.986 1.9258-7.3691 13.68-12.617-15.605zm-12.816 14.488c-5.9275 0.3608-10.48 6.069-13.016 13.137l-5.9746 16.732 1.1934 0.39844c2.0585-4.4489 3.1213-4.8479 7.9023-2.9219l27.424 9.8281c4.2496 1.2619 5.6445 1.7929 4.1836 7.2383l1.6602-0.0664 6.3086-17.664h-1.6602c-1.8593 4.847-3.1881 5.5783-8.0352 3.918l-11.555-4.1172c0.93024-1.4609 1.3946-2.6565 1.9258-4.1836 2.3904-6.6402 2.7223-11.088 1.1289-14.74-0.66384-1.3939-2.2559-5.1134-7.1699-6.9062-1.5065-0.53537-2.9485-0.7356-4.3164-0.65234zm-1.9062 6.9375c1.1479-0.0262 2.421 0.17911 3.832 0.6875 9.6286 3.453 6.6406 11.885 5.7773 14.209l-0.19922 0.53124-0.13281 0.46485-0.19922 0.46484-0.19922 0.46485-0.19922 0.46484-0.19922 0.46484-0.19922 0.46485-0.19922 0.46484-16.469-5.9082c-2.1249-0.7308-1.8593-1.4627-1.1953-3.3887 0.84039-2.3532 3.3836-9.2431 9.582-9.3848zm586.45 2.082-1.1953 0.39844c1.0627 4.1171 1.1948 5.7752-3.918 7.4356l-28.287 9.4297c-4.9137 1.6603-5.977 0.39855-7.5703-3.5859l-1.1953 0.39843 11.488 34.396 11.686-0.73047-0.59766-1.793c-7.3708-0.66398-10.293-3.1861-13.016-11.154-3.1208-9.4955-3.0547-9.4961-0.46484-10.359l15.805-5.3125 3.1211 9.8945c1.7266 5.3119 1.1947 6.5746-3.6524 9.0312l0.46485 1.4609 14.809-4.9805-0.53125-1.4609c-4.7149 0.86328-6.4412 0.72985-8.3672-4.9805l-3.2539-9.8281 14.145-4.7148c2.1915-0.73008 2.3906 0.0661 2.8555 1.3945l2.8555 8.6328c2.3904 7.0389 1.9253 9.0312-3.4531 11.887l0.53125 1.5938 9.0293-3.1875-11.287-33.865zm-609.11 33.068-7.3711 34.928 1.2617 0.26562c1.1953-4.1167 1.9261-5.5783 7.1719-4.5156l29.15 6.1758c5.0466 1.062 5.3125 2.6568 4.7148 6.9062l1.7266-0.19922 7.502-35.459v-0.002l-11.023-4.8477-0.33203 1.8594c5.9763 4.3162 7.3047 7.9693 5.5781 16.203-2.0585 9.7611-2.1253 9.7598-4.8477 9.2285l-16.268-3.1211 2.2578-10.424c1.1952-5.4449 2.3246-6.2422 7.7031-5.9102l0.33203-1.5273-15.273-3.1875-0.26562 1.4609c4.5154 1.7266 5.9764 2.7229 4.7148 8.5664l-2.125 10.158-14.607-3.0527c-2.2576-0.46512-2.0586-1.3278-1.793-2.6562l1.842-8.92c1.5937-7.3045 2.9886-8.7656 9.0312-8.5664l0.33203-1.5918-9.4277-1.793zm580.55 19.057-1.2617 0.19922 2.1914 13.08 1.2598-0.19922c-0.19944-1.3946-0.72997-4.4473 2.0586-4.9785 0.7308-0.0664 1.6603-0.0664 2.5898 0.13282l8.3008 1.7266 2.8555 17.396-5.9102 3.7852c-0.86328 0.53136-2.9203 1.7929-3.916 1.9258-2.5229 0.46512-2.9219-1.727-3.3203-4.1836l-1.2617 0.19922 2.7891 16.865 1.2598-0.19922c-0.26568-2.921 0.33237-3.9825 4.7812-6.9043l34.861-22.777-0.19922-1.3262-34.795-8.3672c-3.1872-0.79704-8.3656-1.9925-10.225-3.2539-1.4608-0.99648-1.793-2.1253-2.0586-3.1211zm19.59 10.623 19.455 4.6484-16.932 10.691-2.5234-15.34zm-587.72 13.971c-14.104-0.10936-21.484 9.9759-22.32 25.607l-0.99609 18.127 1.3281 0.0664c0.66406-5.1132 1.3284-5.8437 6.375-5.2461l29.814 1.5273h0.39844 0.46484l0.33203 0.0664h0.39844 0.33203l0.33203 0.0664h0.26563l0.33203 0.0664 0.26562 0.0664 0.26562 0.0664 0.19922 0.0664 0.26562 0.13281 0.19922 0.0664 0.19922 0.13281 0.13281 0.13281 0.19922 0.19922 0.13281 0.13282 0.13281 0.19921 0.13281 0.19922 0.13281 0.19922 0.06641 0.26563 0.06641 0.19922 0.13281 0.33203 0.06641 0.26562 0.06641 0.33203v0.33203l0.06641 0.33204v0.39843l0.06641 0.33203v0.26563 0.19922 0.19922 0.19922 0.26562 0.19922l1.2617 0.0664 1.0625-18.99c1.0624-20.585-11.821-26.561-20.785-27.025-0.46897-0.0249-0.9298-0.0394-1.3848-0.043zm-0.98828 7.3027c0.69956-0.0132 1.4019 0.001 2.1074 0.043 19.522 0.99604 18.66 17.531 18.395 21.848v0.26367 0.26563l-0.06641 0.26562v0.26563 0.26562l-0.06641 0.19922v0.26563l-0.06641 0.19922-0.06641 0.13281v0.19922l-0.06641 0.19922-0.06641 0.13281-0.06641 0.13281-0.06641 0.13281-0.06641 0.13282-0.06641 0.13281-0.06641 0.0664-0.13281 0.13282-0.06641 0.0664-0.13281 0.0664-0.06641 0.0664-0.13281 0.0664-0.13281 0.0664-0.13281 0.0664h-0.13281l-0.19922 0.0664h-0.13281-0.19922-0.13281-0.19922-0.19922-0.19922v0.002l-34.131-1.793c-1.328-0.0662-2.5899-0.1327-2.457-3.2539 0.46476-8.4993 2.4572-12.153 5.5117-15.207 3.8928-3.8934 8.5992-5.3957 13.496-5.4883zm590.03 15.314-14.211 2.2578v1.4609c1.0627 0 2.2578 0.66395 2.2578 2.0586 0.0662 2.0585-2.125 5.3795-2.0586 10.492 0.13284 9.5618 6.7076 14.012 12.418 13.945 13.745-0.2656 14.674-22.711 24.768-22.91 4.1839-0.0662 6.3086 3.3202 6.375 6.707 0.13277 7.0387-5.8419 11.422-11.354 12.684l0.0664 1.6602 14.275-1.7266v-1.3945c-0.79704-0.1332-2.3242-0.39893-2.3906-2.3242 0-1.66 2.2578-5.3126 2.125-9.3633-0.0664-6.0427-3.9848-12.086-11.621-11.953-6.6405 0.13284-9.4941 4.4497-12.947 10.691-5.6446 9.9604-7.9025 11.09-11.688 11.156-3.6518 0.0664-7.5039-2.524-7.6367-7.9024-0.13284-9.0968 8.4999-12.617 11.621-14.012v-1.5273zm30.545 35.857c-0.99576 4.9803-1.8594 5.8437-6.7734 5.2461l-20.783-2.7227c-4.0505-0.53122-16.998-2.1904-19.123 14.344-2.2577 17.264 10.225 18.857 15.537 19.521l17.465 2.2578 0.26562 0.0664 0.33203 0.0664h0.33008l0.26563 0.0664 0.33203 0.0664h0.26562l0.26563 0.0664 0.26562 0.0664 0.26563 0.0664h0.26562l0.46485 0.13281 0.39843 0.13281 0.46485 0.13282 0.33203 0.0664 0.39844 0.13282 0.33203 0.19921 0.26562 0.13282 0.33203 0.13281 0.19922 0.19922 0.26563 0.19922 0.19922 0.19922 0.19922 0.19921 0.19921 0.19922 0.13282 0.26563 0.13281 0.26562 0.13281 0.26563 0.0664 0.26562 0.0664 0.26563 0.0664 0.33203 0.0664 0.33203 0.0664 0.33203 0.0664 0.39844v0.39844 0.39843 0.39844 0.46485 0.46484l1.2617 0.19922 1.9922-15.471-1.2617-0.13282c-0.86321 4.5815-2.1901 6.0408-9.3613 5.1113l-17.996-2.3242c-5.3784-0.66384-7.5017-1.658-8.8301-2.7207-2.9218-2.324-4.5156-6.375-3.8516-11.555 1.52-11.61 10.74-10.42 15.06-9.89l21.316 2.7891c4.7142 0.5976 5.4434 1.5277 5.1777 6.8398l1.2617 0.13281 2.457-18.859-1.2617-0.13281zm-611.63 1.3301 0.26563 1.8594c7.1715 1.8593 9.6958 4.8481 11.023 13.148 1.5941 9.8939 1.4603 9.9586-1.2617 10.357l-16.402 2.5898-1.5273-10.225c-0.79682-5.5118 0.000295-6.6405 5.1797-8.3008l-0.26562-1.5274-15.404 2.457 0.26562 1.5274c4.8474 0 6.5059 0.39688 7.4355 6.3066l1.6602 10.227-14.74 2.3242c-2.2576 0.33192-2.3906-0.3985-2.5898-1.8594l-1.4609-8.8965c-1.1289-7.3707-0.39809-9.2974 5.3789-11.223l-0.26562-1.6602-9.4297 1.7266 5.5781 35.193 1.2617-0.19922c-0.33199-4.2502-0.19895-5.9102 5.1133-6.375l29.482-4.7148c5.0465-1.129 5.8439 0.33242 6.7734 4.5156l1.2598-0.19922-5.6426-35.791h-0.002l-11.686-1.2617zm562.69 38.846-5.3125 17.795 1.1953 0.39844c1.7926-5.0465 3.1877-5.3792 7.5703-4.0508l12.615 3.7852-0.92969 3.6523-24.436 9.3613-3.1211 10.359 1.2617 0.39844c0.92952-2.5898 2.5239-3.7853 4.7148-4.7148l20.252-8.3652c-0.33199 3.4529-1.3276 12.283 7.3047 14.939 9.8941 2.9218 14.476-7.3053 16.137-13.016l5.377-17.729-1.1934-0.39844c-1.8595 4.3828-2.7231 5.1796-7.5039 3.7188l-27.822-8.3672c-4.8476-1.4609-6.1093-2.057-4.9141-7.3691l-1.1953-0.39844zm-545.7 1-1.193 0.46c1.3284 5.0466 0.26523 6.0409-3.918 7.4356l-28.42 9.1641c-4.5154 1.5271-5.5782 0.99581-7.5703-3.7188l-1.1953 0.39844 5.7773 17.797 1.1953-0.46484c-1.1288-4.8473-0.79659-5.9104 3.7188-7.4375l12.35-4.0508 6.5078 19.389-12.352 3.9844c-4.5817 1.4609-5.6427 0.99581-7.5684-3.7188l-1.2617 0.39844 5.7754 17.73 1.1953-0.39844c-1.1289-4.8472-0.79659-5.9104 3.918-7.4375l27.689-9.0312 0.46484-0.13281 0.39844-0.13281 0.39844-0.0664 0.39844-0.13281 0.39844-0.13281 0.33203-0.0664 0.33203-0.0664 0.33203-0.0664 0.33203-0.0664h0.26562l0.26562-0.0664h0.26562 0.26562l0.26562 0.0664 0.26562 0.0664 0.19922 0.0664 0.26562 0.0664 0.19922 0.13281 0.19922 0.13281 0.19922 0.13282 0.19922 0.19922 0.19922 0.19922 0.19922 0.19921 0.19922 0.26563 0.19922 0.26562 0.06641 0.13282 0.13281 0.13281 0.06641 0.19922 0.06641 0.13281 0.13281 0.19922 0.06641 0.19922 0.06641 0.19922 0.13281 0.19922 0.06641 0.19921 0.13281 0.19922 0.0664 0.19922 0.0664 0.26563 0.13281 0.19922 0.0664 0.26562 1.1953-0.39844-5.7111-17.795-1.2617 0.39844c1.3284 5.1131 0.33354 6.1756-3.584 7.8359l-13.148 4.25-6.6406-19.656 12.484-4.0508c4.7809-1.5271 6.3066-1.7926 8.2988 3.5195l1.1953-0.39844-5.7773-17.795zm564.15 17.662 15.869 4.7148s2.1266 1.3287 1.1309 4.7148c-0.79683 2.6559-3.52 11.021-12.086 8.4316l-0.46484-0.13281-0.39844-0.13281-0.39844-0.13281-0.33203-0.19922-0.39844-0.13282-0.33203-0.19921-0.33203-0.19922-0.26563-0.19922-0.33203-0.19922-0.26562-0.19922-0.26563-0.19922-0.26562-0.26562-0.19922-0.19922-0.19922-0.26563-0.26562-0.26562-0.19922-0.26563-0.13282-0.26562-0.19922-0.26563-0.33203-0.53125-0.19921-0.59765-0.26563-0.59766-0.13281-0.59766-0.13282-0.59765-0.13281-0.66406-0.0664-0.59571v-0.66406-0.66406-0.66406l0.0664-0.66407 0.0664-0.66406 0.0664-0.66406 0.13282-0.66406 0.0664-0.59766 0.13282-0.66406 0.13281-0.59766 0.19922-0.66406 0.13281-0.59766 0.13281-0.59765 0.19922-0.53125 0.13281-0.53125 0.13282-0.53125zm-33.135 30.678-9.0312 18.459 1.1953 0.53125c2.6558-5.3784 4.1172-5.6442 8.4336-3.5195l11.754 5.7109 9.2285 15.605 0.19922 0.33203 0.19922 0.33203 0.19921 0.33203 0.19922 0.33203 0.13282 0.26563 0.19922 0.33203 0.13281 0.26563 0.19922 0.33203 0.13281 0.26562 0.13281 0.26563 0.26563 0.53125 0.19922 0.53125 0.19921 0.46484 0.19922 0.46484 0.19922 0.39844 0.13281 0.46485 0.13282 0.39843 0.13281 0.33203 0.0664 0.39844 0.0664 0.33008 0.0664 0.33203v0.33203l0.0664 0.26563v0.33203 0.26562 0.26563 0.26562l-0.0664 0.26563v0.19922l-0.0664 0.26562-0.0664 0.19922-0.13282 0.46485-0.13281 0.39843-0.13281 0.46485 1.1289 0.53125 6.4414-13.213-1.1289-0.53125c-0.92952 1.8598-2.1917 4.117-4.0508 3.1875-0.86328-0.39888-1.3282-1.1977-1.793-1.9277l-9.4297-15.338 17.73-2.3906c1.0627-0.13283 2.457-0.0664 3.1211 0.26562 1.7268 0.79704 1.0622 2.3911-0.19922 5.1797l1.1289 0.53125 8.3008-16.865-1.1953-0.53125c-1.5273 2.5891-2.1921 3.3848-14.211 5.1113l-15.471 2.2578-10.492-5.1113c-4.6483-2.2578-5.9097-3.1217-3.1211-9.0977l-1.1953-0.53125zm-513.89 4.4492-1.1289 0.59766c2.3904 5.1134 1.5937 6.4396-2.7227 8.498l-30.611 15.539-1.3945-3.2539c-3.3201-6.5742-3.1207-8.8322 2.8555-13.48l-0.73047-1.3945-10.027 5.5117 17.131 33.799 10.359-4.7793-0.73047-1.4609c-7.1715 1.9922-9.1625 0.92907-12.482-5.6445l-1.3281-2.9219 29.947-15.141c4.1172-2.5891 5.5786-3.1206 8.6328 2.2578l1.1289-0.59765-8.8984-17.529zm323.99 164.71c-0.99188-0.0005-1.9937 0.11667-2.998 0.35742-8.566 1.9257-12.152 10.227-10.094 18.926 1.1952 5.3789 6.0435 12.283 14.809 10.225 3.2535-0.7308 6.4395-2.7226 8.7637-5.8438l0.13281 0.13281v0.19922 0.26563 0.33203 0.46484l-0.0664 0.46485-0.0664 0.53125v0.59765l-0.13281 0.66407-0.0664 0.73046-0.13281 0.73047-0.19922 0.79688-0.19922 0.79687-0.19922 0.86328-0.26562 0.86328-0.33204 0.92969-0.33203 0.86328-0.39843 0.92969-0.39844 0.9961-0.46484 0.92968-0.59766 0.92969-0.53125 0.92773-0.66406 0.92969-0.72852 0.92969-0.79687 0.92969-0.79883 0.86328-0.92774 0.86328-0.99609 0.79687-0.53125 0.39844-0.53125 0.39844-0.53125 0.39844-0.59766 0.39843-0.59765 0.33204-0.59766 0.39843-0.66406 0.33203-0.66406 0.33204-0.66407 0.26562-0.73047 0.33203 0.53125 1.2637c16.401-4.9138 23.041-19.522 19.854-33.4-2.266-9.5866-8.6506-15.362-15.594-15.365zm-123.58 1.3535-13.146 3.3203-0.26562 0.92968c4.05-0.66397 4.0487-0.66402 4.8457-0.46484 2.1911 0.4644 1.7929 2.1894 1.5273 3.584l-6.6406 29.682-0.0664 0.26562-0.0664 0.19922-0.0664 0.19922-0.0664 0.19922v0.19922l-0.0664 0.19921-0.0664 0.13282-0.0664 0.19922-0.0664 0.19921-0.0664 0.13282-0.0664 0.13281-0.13282 0.13281-0.0664 0.19922-0.0664 0.13281-0.0664 0.0664-0.0664 0.13281-0.13281 0.13281-0.0664 0.13282-0.13281 0.19922-0.19922 0.13281-0.19922 0.19922-0.19922 0.13281-0.19922 0.13281-0.26562 0.0664-0.19922 0.13281-0.26563 0.0664-0.19922 0.0664h-0.26562-0.26563l-0.26562 0.0664h-0.26563-0.26562l-0.33203-0.0664h-0.26563l-0.33203-0.0664h-0.33203l-0.26562-0.0664-0.33204-0.0664-0.39843-0.0664-0.33203-0.0664-0.33204-0.0664 0.002 0.002-0.19922 0.99414 18.061 4.0508 0.19921-0.99414c-4.9138-1.0627-6.0426-2.1249-5.3125-5.2461l8.7656-39.311-0.46484-0.26563zm121.45 0.79688h0.39844 0.33203 0.39844 0.33203l0.33203 0.0664 0.39844 0.0664 0.33203 0.13281 0.26563 0.0664 0.33203 0.13281 0.33203 0.13282 0.26562 0.13281 0.33204 0.19922 0.26562 0.13281 0.26563 0.19922 0.33203 0.19922 0.46484 0.46484 0.53125 0.46484 0.46484 0.53125 0.46485 0.53125 0.39844 0.59766 0.39843 0.59766 0.39844 0.66406 0.33203 0.59766 0.33203 0.66406 0.33203 0.66406 0.26563 0.72852 0.26562 0.66406 0.26563 0.66406 0.19922 0.66406 0.26562 0.66407 0.19922 0.59765 0.13281 0.59766 0.19922 0.59766 0.13282 0.53124 0.13281 0.53126 0.0664 0.46484 0.13282 0.46484 0.0664 0.39844 0.59766 2.5234c0.3317 1.1952 0.26561 1.9922-0.39844 2.8555-1.129 1.4609-3.5864 3.2539-5.7773 3.7852-6.9057 1.5936-10.16-5.7112-11.289-10.691-1.2614-5.3786-1.1952-11.819 4.3164-13.08l0.39844-0.0664 0.39844-0.0664 0.39843-0.0664zm-94.426 4.7129-1.3262 2.8555-3.3203 6.707 1.0625 0.59766c2.4571-3.3199 3.7853-5.1797 8.168-4.8477l14.541 0.99609-16.068 39.045 4.3828 0.26562 17.264-42.83 0.0664-1.0625-24.77-1.7266zm53.51 0.20898c-0.44899 0.001-0.9097 0.0193-1.3828 0.0566-5.777 0.4649-12.217 4.5824-11.686 11.355v0.53125l0.0664 0.46485 0.0664 0.46484 0.13281 0.46484 0.0664 0.39844 0.13281 0.39844 0.13282 0.39844 0.19921 0.39844 0.13282 0.39843 0.19922 0.39844 0.19921 0.33203 0.19922 0.33203 0.19922 0.39844 0.26563 0.33203 0.26562 0.33203 0.26563 0.33203 0.33203 0.33204 0.26562 0.33203 0.33203 0.33203 0.33008 0.33203 0.39844 0.26562 0.33203 0.33203 0.39844 0.39844 0.46484 0.33203 0.39844 0.33203 0.46484 0.33204 0.46485 0.39843 0.46484 0.33203 0.53125 0.39844 0.46485 0.39844 0.53124 0.39844 0.59766 0.39844c-5.6444 4.9802-8.2324 7.303-7.7676 13.146 0.39838 5.2458 5.2446 10.359 13.611 9.6953 11.089-0.86328 12.75-8.5002 12.484-12.02-0.39838-4.5154-2.1256-8.2325-11.621-14.01 3.5192-2.1913 8.6328-5.4457 8.168-11.621-0.37354-4.7311-4.3667-8.6447-11.102-8.623zm0.0898 1.3535c4.5604 0.0576 6.9112 3.2519 7.1602 6.7383v0.53125 0.53125 0.53125 0.46484l-0.0664 0.46485-0.0664 0.46484-0.0664 0.46485-0.13281 0.39843-0.13281 0.39844-0.13282 0.39844-0.13281 0.39844-0.19922 0.39843-0.13281 0.33204-0.19922 0.33203-0.19922 0.33203-0.19922 0.33203-0.26562 0.26562-0.19922 0.33203-0.19922 0.26563-0.26562 0.26563-0.26563 0.26562-0.19922 0.26562-0.26562 0.26563-0.26563 0.19922-0.46484 0.46484-0.53125 0.39844-0.46485 0.39844-0.46484 0.33203c-2.5231-1.328-8.7657-4.6486-9.2305-9.8945-0.26496-3.1873 1.6604-6.9063 6.6406-7.3047 0.3237-0.0249 0.63737-0.0351 0.9414-0.0312zm-1.207 22.676c8.1014 4.9136 11.09 6.7051 11.488 11.619 0.33192 4.7149-2.5904 7.7696-6.8398 8.1016h-0.46485-0.53124-0.46485l-0.46484-0.0664-0.46485-0.0664-0.39843-0.0664-0.46485-0.13282-0.39844-0.13281-0.39843-0.19922-0.39844-0.13281-0.39844-0.19922-0.33203-0.26562-0.33203-0.19922-0.33203-0.26563-0.33203-0.33203-0.33203-0.26562-0.26563-0.33204-0.26562-0.33203-0.26563-0.33203-0.26562-0.33203-0.19922-0.39844-0.19922-0.39843-0.19922-0.39844-0.19922-0.39844-0.13281-0.39844-0.19922-0.46484-0.13281-0.39844-0.0664-0.46484-0.13281-0.46485-0.0664-0.46484-0.0664-0.46484-0.0664-0.46485c-0.4644-6.1092 2.5236-8.9627 4.582-10.889z" transform="scale(.0013889)" stroke="#fff" stroke-width="1.66" fill="#fff"/>
  </g>
  <path d="m494.3 225.77v0.0664h-0.0664v0.0664l-0.0664 0.13281-0.0664 0.0664-0.0664 0.13281-0.0664 0.13281-0.0664 0.13282-0.0664 0.13281-0.26562 0.33203-0.26563 0.39844-0.26562 0.39844-0.33203 0.46484-0.39844 0.53125-0.39844 0.46484-0.39843 0.53125-0.53125 0.53125-0.46485 0.59766-0.59765 0.53125-0.53125 0.53125-0.66407 0.59766-0.66406 0.53125-0.66406 0.46484-0.73047 0.46484-0.73047 0.46485-0.79687 0.46484-0.79688 0.33203-0.86328 0.39844-0.86328 0.26562-0.46485 0.13282-0.46484 0.0664-0.46484 0.13282-0.46485 0.0664-0.46484 0.0664h-0.46484l-0.53125 0.0664h-0.46485-0.53125l-0.53125-0.0664-0.53125-0.0664-0.53125-0.0664-0.53125-0.0664-0.53125-0.13281s15.872 6.9717 24.238-9.0312l-5.5781-1.2617zm-134.2 97.08-2.3906 9.2949-9.5625 0.59765 8.1016 5.1797-2.3906 9.2305 7.3691-6.1094 8.1016 5.1133-3.5195-8.8984 7.3711-6.1094-9.5625 0.59766-3.5176-8.8965zm-139.85 3.6523v0.0664 0.0664l0.0664 0.0664v0.13281 0.19922l0.0664 0.13281v0.19922l0.0664 0.26563 0.0664 0.19921 0.0664 0.26563 0.13281 0.26563 0.0664 0.33203 0.13281 0.26562 0.13281 0.33203 0.13282 0.33203 0.13281 0.33203 0.19922 0.33204 0.19922 0.33203 0.19922 0.39843 0.19921 0.33204 0.26563 0.33203 0.26562 0.39843 0.33204 0.33204 0.33203 0.33203 0.33203 0.39843 0.33203 0.33204 0.39844 0.33203 0.46484 0.33203 0.46484 0.33203 0.19922 0.13281 0.26563 0.13282 0.26562 0.13281 0.19922 0.19922s-2.5236-4.2501-0.86328-6.3086h39.111s0.92898 5.3133-5.3789 11.953c0 0 9.3635-5.9106 11.156-14.078l-50.01-0.12zm225.97 1.793v0.0664h0.0664v0.13281l0.0664 0.0664 0.0664 0.19922 0.0664 0.13281 0.0664 0.19922 0.0664 0.26563 0.13282 0.19922 0.13281 0.33203 0.13281 0.26562 0.19922 0.33204 0.13281 0.33203 0.19922 0.33203 0.19922 0.33203 0.26562 0.39844 0.19922 0.39843 0.26563 0.39844 0.26562 0.39844 0.33203 0.39844 0.26563 0.39843 0.33203 0.39844 0.39844 0.46485 0.33203 0.39843 0.39844 0.39844 0.39843 0.46484 0.46485 0.39844 0.39844 0.39844 0.46484 0.39844 0.53125 0.39843 0.53125 0.39844 0.53125 0.39844s-1.0627-4.7148 0.59766-7.3047h39.045s-0.59825 3.9829-7.1719 12.416c0 0 9.7621-4.5143 11.621-14.939l-51.994-0.26562zm-111.49 12.947-2.3242 9.2969-9.5606 0.66406 8.0996 5.0469-2.3906 9.2949 7.3711-6.1074 8.1016 5.1113-3.5195-8.8965 7.3711-6.1094-9.5625 0.59765-3.5859-8.8984zm51.729 0.79688-2.3906 9.2969-9.5625 0.66407 8.1016 5.1133-2.3242 9.2949 7.3047-6.1738 8.166 5.1113-3.584-8.8301 7.3691-6.1758-9.5606 0.59766-3.5195-8.8984zm-78.289 19.125-2.3906 9.2285-9.5625 0.66407 8.1016 5.1133-2.3906 9.2969 7.3711-6.1758 8.1016 5.1133-3.5195-8.8984 7.3711-6.1094-9.5625 0.66406-3.5195-8.8965zm106.04 0.0664-2.3906 9.2949-9.4961 0.59765 8.0352 5.1133-2.3906 9.2969 7.4375-6.1094 8.1016 5.0469-3.5859-8.832 7.3691-6.1758-9.5606 0.66406-3.5195-8.8965zm-132.74 19.787-2.3242 9.2969-9.5625 0.59766 8.1016 5.1133-2.3906 9.2949 7.3711-6.1094 8.1016 5.1133-3.5195-8.8965 7.3711-6.1094-9.5625 0.59765-3.5859-8.8984zm159.37 3.5859-2.3242 9.2969-9.5625 0.59765 8.1016 5.1113-2.3906 9.2969 7.3711-6.1758 8.1016 5.1797-3.5859-8.9648 7.4375-6.041-9.5625 0.59766-3.5859-8.8984zm-187.32 16.4-2.3906 9.2305-9.5625 0.66406 8.1016 5.1133-2.3242 9.2969 7.3047-6.1758 8.0996 5.1133-3.5176-8.8984 7.3691-6.1094-9.5606 0.66406-3.5195-8.8984zm215.08 2.7227-2.3242 9.2969-9.5605 0.59766 8.0996 5.1133-2.3906 9.2969 7.3711-6.1094 8.1016 5.1133-3.5195-8.8984 7.3711-6.1094-9.6289 0.59766-3.5195-8.8984zm-244.49 17.332-2.3906 9.2949-9.5625 0.59766 8.168 5.1133-2.3906 9.2969 7.3711-6.1094 8.0996 5.1133-3.5859-8.8984 7.3711-6.1738-9.5605 0.6621-3.5195-8.8965zm272.25 1.793-2.3242 9.2949-9.5605 0.59766 8.0996 5.1133-2.3887 9.2969 7.3691-6.1094 8.1016 5.1133-3.5195-8.8984 7.3711-6.1758-9.5625 0.66406-3.5859-8.8965zm-301.4 21.713-2.3906 9.2969-9.4961 0.59765 8.0352 5.1133-2.3242 9.2949 7.3711-6.1094 8.0996 5.1133-3.5195-8.8965 7.3711-6.1094-9.6289 0.59766-3.5176-8.8984zm330.95 2.8555-2.3887 9.2969-9.5625 0.66407 8.1016 5.1113-2.3242 9.2969 7.3691-6.1758 8.1016 5.1133-3.5859-8.8965 7.3711-6.1094-9.5625 0.66406-3.5195-8.9648z" transform="scale(.0013889)" fill="#fff"/>
 </g>
</svg>