<?xml version="1.0" standalone="no"?>
<!DOCTYPE svg PUBLIC "-//W3C//DTD SVG 1.1//EN" "http://www.w3.org/Graphics/SVG/1.1/DTD/svg11.dtd" >
<svg xmlns="http://www.w3.org/2000/svg">
<metadata></metadata>
<defs>
<font id="tt_lakesmedium" horiz-adv-x="1198" >
<font-face units-per-em="2048" ascent="1638" descent="-410" />
<missing-glyph horiz-adv-x="409" />
<glyph horiz-adv-x="0" />
<glyph horiz-adv-x="0" />
<glyph horiz-adv-x="682" />
<glyph unicode="&#xd;" horiz-adv-x="0" />
<glyph unicode=" "  horiz-adv-x="409" />
<glyph unicode="&#x09;" horiz-adv-x="409" />
<glyph unicode="&#xa0;" horiz-adv-x="409" />
<glyph unicode="!" horiz-adv-x="593" d="M338 410h-82q-28 0 -31 30l-20 318v645q0 31 31 31h122q31 0 31 -31v-645l-20 -318q-3 -30 -31 -30zM358 0h-122q-31 0 -31 31v123q0 30 31 30h122q31 0 31 -30v-123q0 -31 -31 -31z" />
<glyph unicode="&#x22;" horiz-adv-x="778" d="M266 963h-92q-31 0 -31 30v410q0 31 31 31h92q31 0 31 -31v-410q0 -30 -31 -30zM604 963h-92q-31 0 -31 30v410q0 31 31 31h92q31 0 31 -31v-410q0 -30 -31 -30z" />
<glyph unicode="#" horiz-adv-x="1433" d="M492 512h337l113 410h-338zM788 348h-337l-95 -317q-9 -31 -37 -31h-135q-29 0 -20 31l92 317h-164q-31 0 -31 31v102q0 31 31 31h205l113 410h-174q-31 0 -31 30v103q0 30 31 30h215l92 318q9 31 41 31h133q29 0 20 -31l-92 -318h338l94 318q9 31 37 31h135q30 0 21 -31 l-92 -318h163q31 0 31 -30v-103q0 -30 -31 -30h-204l-113 -410h174q31 0 31 -31v-102q0 -31 -31 -31h-215l-92 -317q-9 -31 -41 -31h-133q-30 0 -21 31z" />
<glyph unicode="$" horiz-adv-x="1454" d="M840 -20v-154q0 -31 -31 -31h-133q-31 0 -31 31v154h-133q-369 0 -369 358v82q0 31 31 31h133q31 0 31 -31v-82q0 -85 44.5 -129.5t129.5 -44.5h410q85 0 129.5 44.5t44.5 129.5v92q0 52 -28.5 83.5t-84.5 49.5l-614 195q-205 65 -205 266v72q0 358 368 358h113v154 q0 30 31 30h133q31 0 31 -30v-154h61q369 0 369 -358v-82q0 -31 -31 -31h-133q-31 0 -31 31v82q0 85 -44.5 129.5t-129.5 44.5h-369q-85 0 -129.5 -44.5t-44.5 -129.5v-52q0 -52 28.5 -83.5t84.5 -49.5l614 -194q205 -65 205 -266v-113q0 -358 -368 -358h-82z" />
<glyph unicode="%" horiz-adv-x="1617" d="M696 1178v-144q0 -139 -60 -197.5t-206 -58.5h-61q-146 0 -206.5 58.5t-60.5 197.5v144q0 139 60.5 197.5t206.5 58.5h61q146 0 206 -58.5t60 -197.5zM256 1178v-144q0 -54 29.5 -83t83.5 -29h61q54 0 83.5 29t29.5 83v144q0 54 -29.5 83t-83.5 29h-61q-54 0 -83.5 -29 t-29.5 -83zM1516 399v-143q0 -139 -60.5 -197.5t-206.5 -58.5h-61q-146 0 -206 58.5t-60 197.5v143q0 139 60 197.5t206 58.5h61q146 0 206.5 -58.5t60.5 -197.5zM1075 399v-143q0 -54 29.5 -83.5t83.5 -29.5h61q54 0 83.5 29.5t29.5 83.5v143q0 54 -29.5 83.5t-83.5 29.5 h-61q-54 0 -83.5 -29.5t-29.5 -83.5zM1219 1403l-635 -1372q-16 -31 -41 -31h-123q-16 0 -22 8t1 23l635 1372q16 31 41 31h123q16 0 22 -8t-1 -23z" />
<glyph unicode="&#x26;" horiz-adv-x="1409" d="M1167 553l103 -92q16 -15 0 -31l-123 -133l276 -266q9 -9 2 -20t-22 -11h-176q-29 0 -60 31l-143 133q-6 -7 -18 -19.5t-50.5 -44.5t-80 -56t-104.5 -44t-126 -20h-133q-369 0 -369 360v111q0 54 13.5 100.5t35.5 77t48 55t52 38t48 22t36 11.5l13 3v20q-5 3 -13.5 9.5 t-29.5 29.5t-37 49.5t-29.5 69t-13.5 88.5v72q0 358 369 358h113q368 0 368 -358v-21q0 -31 -31 -31h-133q-30 0 -30 31v21q0 85 -44.5 129.5t-129.5 44.5h-113q-85 0 -129.5 -44.5t-44.5 -129.5v-72q0 -40 28 -86t56 -72l28 -26l441 -420l123 133q15 15 30 0zM512 164h133 q40 0 80 13.5t68.5 33t51.5 39.5t35 34l11 13l-348 328h-31q-85 0 -129.5 -44.5t-44.5 -129.5v-111q0 -86 44.5 -131t129.5 -45z" />
<glyph unicode="'" horiz-adv-x="440" d="M174 1434h92q31 0 31 -31v-410q0 -30 -31 -30h-92q-31 0 -31 30v410q0 31 31 31z" />
<glyph unicode="(" horiz-adv-x="737" d="M184 51v1045q0 193 105.5 296t304.5 103h51q31 0 31 -31v-123q0 -30 -31 -30h-51q-100 0 -157.5 -57.5t-57.5 -157.5v-1045q0 -100 57.5 -157.5t157.5 -57.5h51q31 0 31 -31v-122q0 -31 -31 -31h-51q-199 0 -304.5 103t-105.5 296z" />
<glyph unicode=")" horiz-adv-x="737" d="M553 1096v-1045q0 -193 -105.5 -296t-304.5 -103h-51q-31 0 -31 31v122q0 31 31 31h51q100 0 157.5 57.5t57.5 157.5v1045q0 100 -57.5 157.5t-157.5 57.5h-51q-31 0 -31 30v123q0 31 31 31h51q199 0 304.5 -103t105.5 -296z" />
<glyph unicode="*" horiz-adv-x="757" d="M522 817l-143 176l-143 -176q-6 -7 -18.5 -7t-22.5 7l-60 51q-9 6 -9 19.5t9 23.5l141 164h-184q-31 0 -31 31v72q0 30 31 30h215v195q0 31 31 31h82q31 0 31 -31v-195h215q30 0 30 -30v-72q0 -31 -30 -31h-185l142 -164q9 -10 9 -23.5t-9 -19.5l-60 -51q-11 -7 -23 -7 t-18 7z" />
<glyph unicode="+" horiz-adv-x="931" d="M870 696v-123q0 -30 -30 -30h-277v-307q0 -31 -31 -31h-133q-30 0 -30 31v307h-277q-31 0 -31 30v123q0 31 31 31h277v307q0 31 30 31h133q31 0 31 -31v-307h277q30 0 30 -31z" />
<glyph unicode="," horiz-adv-x="339" d="M258 154v-113q0 -14 -5 -29t-10 -24l-5 -8l-82 -164q-13 -21 -31 -21h-51q-7 0 -10.5 6.5t-0.5 14.5l93 184h-52q-30 0 -30 31v123q0 30 30 30h123q31 0 31 -30z" />
<glyph unicode="-" horiz-adv-x="890" d="M829 696v-123q0 -30 -30 -30h-707q-31 0 -31 30v123q0 31 31 31h707q30 0 30 -31z" />
<glyph unicode="." horiz-adv-x="348" d="M236 0h-123q-31 0 -31 31v123q0 30 31 30h123q30 0 30 -30v-123q0 -31 -30 -31z" />
<glyph unicode="/" horiz-adv-x="786" d="M741 1403l-501 -1372q-12 -31 -41 -31h-133q-33 0 -21 31l502 1372q12 31 41 31h133q32 0 20 -31z" />
<glyph unicode="0" horiz-adv-x="1515" d="M1331 1096v-758q0 -358 -368 -358h-410q-369 0 -369 358v758q0 358 369 358h410q368 0 368 -358zM379 1096v-758q0 -85 44.5 -129.5t129.5 -44.5h410q85 0 129.5 44.5t44.5 129.5v758q0 85 -44.5 129.5t-129.5 44.5h-410q-85 0 -129.5 -44.5t-44.5 -129.5z" />
<glyph unicode="1" horiz-adv-x="768" d="M563 1403v-1372q0 -31 -31 -31h-133q-30 0 -30 31v1218h-297q-31 0 -31 31v123q0 31 31 31h460q31 0 31 -31z" />
<glyph unicode="2" horiz-adv-x="1351" d="M1188 1004q0 -96 -42 -162t-112 -125l-604 -522v-11h727q31 0 31 -30v-123q0 -31 -31 -31h-983q-31 0 -31 31v112q0 22 7 34.5t24 27.5l727 635q53 46 72.5 76.5t19.5 87.5v92q0 85 -44.5 129.5t-129.5 44.5h-307q-85 0 -129.5 -44.5t-44.5 -129.5v-82q0 -31 -31 -31 h-133q-31 0 -31 31v82q0 358 369 358h307q369 0 369 -358v-92z" />
<glyph unicode="3" horiz-adv-x="1351" d="M727 860h92q369 0 369 -358v-164q0 -358 -369 -358h-327q-369 0 -369 358v82q0 31 31 31h133q30 0 30 -31v-82q0 -85 45 -129.5t130 -44.5h327q85 0 129.5 44.5t44.5 129.5v164q0 85 -44.5 129.5t-129.5 44.5h-358q-31 0 -31 31v81q0 31 41 72l399 379v10h-675 q-31 0 -31 31v123q0 31 31 31h942q30 0 30 -31v-82q0 -31 -41 -72l-399 -379v-10z" />
<glyph unicode="4" horiz-adv-x="1280" d="M1219 502v-123q0 -31 -31 -31h-154v-317q0 -31 -30 -31h-134q-30 0 -30 31v317h-768q-31 0 -31 31v84q0 28 6 42t25 38l686 860q14 18 26 24.5t35 6.5h185q30 0 30 -31v-871h154q31 0 31 -30zM829 1208l-532 -665v-11h543v676h-11z" />
<glyph unicode="5" horiz-adv-x="1351" d="M399 881h441q368 0 368 -359v-184q0 -358 -368 -358h-328q-369 0 -369 358v82q0 31 31 31h133q31 0 31 -31v-82q0 -85 44.5 -129.5t129.5 -44.5h328q85 0 129.5 44.5t44.5 129.5v184q0 85 -44.5 129.5t-129.5 44.5h-604q-31 0 -31 31v676q0 31 31 31h890q31 0 31 -31 v-123q0 -31 -31 -31h-727v-368z" />
<glyph unicode="6" horiz-adv-x="1413" d="M881 676h-502v-338q0 -85 44.5 -129.5t129.5 -44.5h328q85 0 129.5 45t44.5 131v160q0 86 -44.5 131t-129.5 45zM379 1096v-236h502q368 0 368 -358v-164q0 -358 -368 -358h-328q-369 0 -369 358v758q0 358 369 358h287q368 0 368 -358v-62q0 -30 -30 -30h-134 q-30 0 -30 30v62q0 85 -44.5 129.5t-129.5 44.5h-287q-85 0 -129.5 -44.5t-44.5 -129.5z" />
<glyph unicode="7" horiz-adv-x="1146" d="M1085 1403v-84q0 -19 -2.5 -33t-5 -20t-12.5 -27l-553 -1208q-16 -31 -51 -31h-133q-16 0 -22 8t1 23l553 1208v10h-768q-31 0 -31 31v123q0 31 31 31h963q30 0 30 -31z" />
<glyph unicode="8" horiz-adv-x="1433" d="M901 -20h-369q-368 0 -368 358v133q0 48 11.5 89.5t29.5 69t39.5 49.5t43.5 34.5t40 20.5t30 11l11 3v10q-8 2 -20 6t-44 22t-56.5 42.5t-44.5 71.5t-20 104v92q0 358 369 358h328q368 0 368 -358v-92q0 -57 -19 -103.5t-46 -72t-54 -42.5t-46 -22l-19 -6v-10q8 -2 22 -6 t49.5 -24t62.5 -47.5t49 -80.5t22 -119v-133q0 -358 -369 -358zM532 164h369q85 0 129.5 44.5t44.5 129.5v133q0 85 -44.5 129.5t-129.5 44.5h-369q-85 0 -129.5 -44.5t-44.5 -129.5v-133q0 -85 44.5 -129.5t129.5 -44.5zM881 1270h-328q-85 0 -129.5 -44.5t-44.5 -129.5 v-92q0 -85 44.5 -130t129.5 -45h328q85 0 129.5 45t44.5 130v92q0 85 -44.5 129.5t-129.5 44.5z" />
<glyph unicode="9" horiz-adv-x="1413" d="M532 758h502v338q0 85 -44.5 129.5t-129.5 44.5h-328q-85 0 -129.5 -45t-44.5 -131v-160q0 -86 44.5 -131t129.5 -45zM1034 338v235h-502q-368 0 -368 359v164q0 358 368 358h328q369 0 369 -358v-758q0 -358 -369 -358h-287q-368 0 -368 358v61q0 31 31 31h133 q30 0 30 -31v-61q0 -85 44.5 -129.5t129.5 -44.5h287q85 0 129.5 44.5t44.5 129.5z" />
<glyph unicode=":" horiz-adv-x="389" d="M256 0h-123q-31 0 -31 31v123q0 30 31 30h123q31 0 31 -30v-123q0 -31 -31 -31zM256 860h-123q-31 0 -31 31v123q0 30 31 30h123q31 0 31 -30v-123q0 -31 -31 -31z" />
<glyph unicode=";" horiz-adv-x="380" d="M248 860h-123q-31 0 -31 31v123q0 30 31 30h123q31 0 31 -30v-123q0 -31 -31 -31zM279 154v-113q0 -14 -5.5 -29t-10.5 -24l-5 -8l-82 -164q-13 -21 -31 -21h-51q-7 0 -10 6.5t0 14.5l92 184h-51q-31 0 -31 31v123q0 30 31 30h123q31 0 31 -30z" />
<glyph unicode="&#x3c;" horiz-adv-x="1064" d="M82 461v92q0 25 31 41l839 379q31 12 31 -21v-112q0 -22 -7.5 -33t-23.5 -19l-635 -276v-10l635 -277q31 -12 31 -51v-113q0 -32 -31 -20l-839 379q-31 12 -31 41z" />
<glyph unicode="=" horiz-adv-x="911" d="M829 891v-123q0 -31 -30 -31h-686q-31 0 -31 31v123q0 31 31 31h686q30 0 30 -31zM829 461v-123q0 -31 -30 -31h-686q-31 0 -31 31v123q0 31 31 31h686q30 0 30 -31z" />
<glyph unicode="&#x3e;" horiz-adv-x="1064" d="M983 553v-92q0 -29 -31 -41l-839 -379q-31 -12 -31 20v113q0 39 31 51l635 277v10l-635 276q-16 8 -23.5 19t-7.5 33v112q0 33 31 21l839 -379q31 -16 31 -41z" />
<glyph unicode="?" horiz-adv-x="1249" d="M758 553h-82l-21 -113q-3 -16 -9.5 -23t-20.5 -7h-82q-28 0 -31 30l-31 267q0 30 31 30h246q85 0 129.5 44.5t44.5 129.5v185q0 85 -44.5 129.5t-129.5 44.5h-307q-85 0 -130 -44.5t-45 -129.5v-62q0 -30 -30 -30h-133q-31 0 -31 30v62q0 358 369 358h307q368 0 368 -358 v-185q0 -358 -368 -358zM645 0h-123q-30 0 -30 31v123q0 30 30 30h123q31 0 31 -30v-123q0 -31 -31 -31z" />
<glyph unicode="@" horiz-adv-x="2027" d="M840 707v-349q0 -38 16.5 -54.5t54.5 -16.5h185q92 0 92 92v307q0 92 -92 92h-185q-38 0 -54.5 -16.5t-16.5 -54.5zM1679 471v573q0 85 -44.5 130t-129.5 45h-962q-85 0 -129.5 -45t-44.5 -130v-1024q0 -85 44.5 -129.5t129.5 -44.5h1116q31 0 31 -30v-113q0 -31 -31 -31 h-1116q-176 0 -267.5 89.5t-91.5 258.5v1024q0 170 91.5 259.5t267.5 89.5h962q176 0 267.5 -89.5t91.5 -259.5v-573q0 -177 -87.5 -262.5t-271.5 -85.5h-286q-31 0 -31 31v30h-10q-1 -3 -4 -8.5t-14 -20t-24.5 -25t-38 -19.5t-53.5 -9h-133q-130 0 -198 66t-68 190v349 q0 124 68 190t198 66h133q29 0 53 -8.5t38.5 -20.5t24.5 -24t14 -20l4 -9h10v30q0 31 31 31h133q30 0 30 -31v-614h123q85 0 129.5 44.5t44.5 129.5z" />
<glyph unicode="A" horiz-adv-x="1359" d="M434 553h492l-242 655h-8zM997 369h-635l-122 -338q-12 -31 -52 -31h-143q-32 0 -20 31l532 1372q15 31 51 31h144q36 0 51 -31l532 -1372q12 -31 -20 -31h-144q-39 0 -51 31z" />
<glyph unicode="B" horiz-adv-x="1495" d="M1075 1034v41q0 85 -44.5 129.5t-129.5 44.5h-502v-389h502q85 0 129.5 44.5t44.5 129.5zM1352 502v-144q0 -358 -369 -358h-747q-31 0 -31 31v1372q0 31 28 31h668q369 0 369 -359v-41q0 -57 -16 -103.5t-38.5 -72t-45 -42.5t-38.5 -22l-16 -6v-10q5 -1 13.5 -3 t33 -10.5t47 -20.5t49.5 -34.5t46.5 -49.5t33 -68.5t13.5 -89.5zM1157 358v144q0 85 -44.5 129.5t-129.5 44.5h-584v-492h584q85 0 129.5 44.5t44.5 129.5z" />
<glyph unicode="C" horiz-adv-x="1536" d="M184 338v758q0 358 369 358h471q369 0 369 -358v-82q0 -31 -31 -31h-133q-31 0 -31 31v82q0 85 -44.5 129.5t-129.5 44.5h-471q-85 0 -129.5 -44.5t-44.5 -129.5v-758q0 -85 44.5 -129.5t129.5 -44.5h471q85 0 129.5 44.5t44.5 129.5v82q0 31 31 31h133q31 0 31 -31v-82 q0 -358 -369 -358h-471q-369 0 -369 358z" />
<glyph unicode="D" horiz-adv-x="1597" d="M236 1434h808q369 0 369 -359v-717q0 -358 -369 -358h-675h-133q-31 0 -31 31v1372q0 31 31 31zM1044 1249h-645v-1065h645q85 0 130 44.5t45 129.5v717q0 85 -45 129.5t-130 44.5z" />
<glyph unicode="E" horiz-adv-x="1392" d="M399 184h881q31 0 31 -30v-123q0 -31 -29 -31h-1046q-31 0 -31 31v1370q0 33 31 33h1024q30 0 30 -31v-123q0 -31 -28 -31h-863v-430h676q31 0 31 -31v-122q0 -31 -29 -31h-678v-451z" />
<glyph unicode="F" horiz-adv-x="1331" d="M399 573v-542q0 -31 -30 -31h-133q-31 0 -31 31v1370q0 33 31 33h1024q30 0 30 -31v-123q0 -31 -28 -31h-863v-491h594q31 0 31 -31v-123q0 -31 -29 -31h-596z" />
<glyph unicode="G" horiz-adv-x="1576" d="M184 338v758q0 358 369 358h471q369 0 369 -358v-82q0 -31 -31 -31h-133q-31 0 -31 31v82q0 85 -44.5 129.5t-129.5 44.5h-471q-85 0 -129.5 -44.5t-44.5 -129.5v-758q0 -85 44.5 -129.5t129.5 -44.5h471q85 0 129.5 44.5t44.5 129.5v235h-307q-31 0 -31 31v123 q0 31 31 31h471q31 0 31 -33v-387q0 -358 -369 -358h-471q-369 0 -369 358z" />
<glyph unicode="H" horiz-adv-x="1556" d="M1157 819v584q0 31 31 31h133q31 0 31 -31v-1372q0 -31 -31 -31h-133q-31 0 -31 29v606h-758v-604q0 -31 -30 -31h-133q-31 0 -31 31v1372q0 31 31 31h133q30 0 30 -31v-584h758z" />
<glyph unicode="I" horiz-adv-x="604" d="M205 31v1372q0 31 31 31h133q30 0 30 -31v-1372q0 -31 -30 -31h-133q-31 0 -31 31z" />
<glyph unicode="J" horiz-adv-x="1351" d="M1147 1403v-1065q0 -358 -369 -358h-327q-369 0 -369 358v123q0 31 31 31h133q30 0 30 -31v-123q0 -85 45 -129.5t130 -44.5h327q85 0 129.5 44.5t44.5 129.5v1065q0 31 31 31h133q31 0 31 -31z" />
<glyph unicode="K" horiz-adv-x="1417" d="M399 655v-624q0 -31 -30 -31h-133q-31 0 -31 31v1372q0 31 31 31h133q30 0 30 -31v-563h389l308 563q8 17 18.5 24t32.5 7h143q16 0 22 -8t-1 -23l-359 -645l400 -727q7 -15 1 -23t-22 -8h-143q-36 0 -51 31l-338 624h-400z" />
<glyph unicode="L" horiz-adv-x="1310" d="M399 1403v-1219h840q31 0 31 -30v-123q0 -31 -31 -31h-1003q-31 0 -31 33v1370q0 31 31 31h133q30 0 30 -31z" />
<glyph unicode="M" horiz-adv-x="1986" d="M1024 0h-61q-29 0 -41.5 7t-20.5 24l-491 1034h-11v-1034q0 -31 -30 -31h-133q-31 0 -31 31v1372q0 31 31 31h153q29 0 41.5 -7t20.5 -24l538 -1137h8l539 1137q8 17 20 24t41 7h154q31 0 31 -31v-1372q0 -31 -31 -31h-133q-31 0 -31 31v1034h-10l-492 -1034 q-8 -17 -20 -24t-41 -7z" />
<glyph unicode="N" horiz-adv-x="1597" d="M1208 0q-42 0 -61 31l-737 1106h-11v-1106q0 -31 -30 -31h-133q-31 0 -31 31v1372q0 31 31 31h153q43 0 62 -31l737 -1106h10v1106q0 31 31 31h133q31 0 31 -31v-1372q0 -31 -31 -31h-154z" />
<glyph unicode="O" horiz-adv-x="1617" d="M184 338v758q0 358 369 358h512q369 0 369 -358v-758q0 -358 -369 -358h-512q-369 0 -369 358zM1239 338v758q0 85 -44.5 129.5t-129.5 44.5h-512q-85 0 -129.5 -44.5t-44.5 -129.5v-758q0 -85 44.5 -129.5t129.5 -44.5h512q85 0 129.5 44.5t44.5 129.5z" />
<glyph unicode="P" horiz-adv-x="1495" d="M399 635h584q85 0 129.5 44.5t44.5 129.5v266q0 85 -44.5 129.5t-129.5 44.5h-584v-614zM983 451h-584v-420q0 -31 -30 -31h-133q-31 0 -31 31v1372q0 31 31 31h747q369 0 369 -359v-266q0 -358 -369 -358z" />
<glyph unicode="Q" horiz-adv-x="1615" d="M1434 1096v-758q0 -50 -10 -96t-20 -67l-11 -21l174 -195q7 -7 7 -20t-7 -21l-92 -82q-9 -8 -21 -8t-20 8l-164 184q-82 -40 -205 -40h-512q-369 0 -369 358v758q0 358 369 358h512q369 0 369 -358zM1239 317v779q0 85 -44.5 129.5t-129.5 44.5h-512q-85 0 -129.5 -44.5 t-44.5 -129.5v-758q0 -85 44.5 -129.5t129.5 -44.5h512q18 0 33.5 2.5t21.5 5.5l6 2l-102 113q-8 7 -8 20t8 21l92 82q9 8 21.5 8t19.5 -8z" />
<glyph unicode="R" horiz-adv-x="1509" d="M1096 512l266 -481q7 -15 1 -23t-22 -8h-143q-36 0 -51 31l-246 461h-502v-461q0 -31 -30 -31h-133q-31 0 -31 31v1372q0 31 31 31h727q368 0 368 -359v-225q0 -63 -13 -115.5t-33.5 -86t-45.5 -60t-50.5 -40.5t-46 -22.5t-33.5 -11.5zM399 676h564q85 0 129.5 44.5 t44.5 129.5v225q0 85 -44.5 129.5t-129.5 44.5h-564v-573z" />
<glyph unicode="S" horiz-adv-x="1454" d="M1096 430q0 52 -28.5 83.5t-84.5 49.5l-614 195q-205 65 -205 266v72q0 358 368 358h369q369 0 369 -358v-82q0 -31 -31 -31h-133q-31 0 -31 31v82q0 85 -44.5 129.5t-129.5 44.5h-369q-85 0 -129.5 -44.5t-44.5 -129.5v-52q0 -52 28.5 -83.5t84.5 -49.5l614 -194 q205 -65 205 -266v-113q0 -358 -368 -358h-410q-369 0 -369 358v82q0 31 31 31h133q31 0 31 -31v-82q0 -85 44.5 -129.5t129.5 -44.5h410q85 0 129.5 44.5t44.5 129.5v92z" />
<glyph unicode="T" d="M696 1249v-1218q0 -31 -30 -31h-134q-30 0 -30 31v1218h-451q-31 0 -31 31v123q0 31 31 31h1096q31 0 31 -31v-123q0 -31 -31 -31h-451z" />
<glyph unicode="U" horiz-adv-x="1597" d="M1393 1403v-1065q0 -358 -369 -358h-451q-368 0 -368 358v1065q0 31 31 31h133q30 0 30 -31v-1065q0 -85 44.5 -129.5t129.5 -44.5h451q85 0 129.5 44.5t44.5 129.5v1065q0 31 31 31h133q31 0 31 -31z" />
<glyph unicode="V" horiz-adv-x="1349" d="M731 0h-113q-23 0 -33 6.5t-18 24.5l-522 1372q-12 31 21 31h143q39 0 51 -31l410 -1108h10l410 1108q12 31 51 31h143q33 0 21 -31l-523 -1372q-8 -18 -18 -24.5t-33 -6.5z" />
<glyph unicode="W" horiz-adv-x="1892" d="M885 1434h123q32 0 41 -31l297 -1075h10l297 1075q9 31 41 31h133q29 0 20 -31l-379 -1372q-9 -31 -41 -31h-122q-29 0 -41 31l-314 1136h-8l-313 -1136q-12 -31 -41 -31h-123q-32 0 -41 31l-379 1372q-9 31 21 31h133q32 0 41 -31l297 -1075h10l297 1075q10 31 41 31z " />
<glyph unicode="X" horiz-adv-x="1323" d="M662 911l327 492q22 31 51 31h164q15 0 22.5 -9.5t-1.5 -21.5l-441 -645l492 -727q8 -13 1.5 -22t-22.5 -9h-163q-30 0 -52 31l-378 573l-379 -573q-22 -31 -52 -31h-163q-16 0 -22.5 9t1.5 22l492 727l-441 645q-9 12 -1.5 21.5t22.5 9.5h164q29 0 51 -31z" />
<glyph unicode="Y" horiz-adv-x="1318" d="M250 1403l409 -696l410 696q10 17 20 24t31 7h154q15 0 21 -9t-1 -22l-542 -901v-473q0 -29 -31 -29h-123q-31 0 -31 29v473l-542 901q-7 13 -1 22t21 9h154q21 0 31 -7t20 -24z" />
<glyph unicode="Z" horiz-adv-x="1290" d="M82 164q0 41 20 61l861 1014v10h-830q-31 0 -31 31v123q0 31 31 31h1045q30 0 30 -31v-133q0 -42 -20 -62l-860 -1013v-11h850q30 0 30 -30v-123q0 -31 -30 -31h-1065q-31 0 -31 31v133z" />
<glyph unicode="[" horiz-adv-x="737" d="M399 -164h246q31 0 31 -31v-122q0 -31 -31 -31h-409q-31 0 -31 31v1781q0 31 31 31h409q31 0 31 -31v-123q0 -30 -31 -30h-246v-1475z" />
<glyph unicode="\" horiz-adv-x="786" d="M547 31l-502 1372q-12 31 21 31h133q29 0 41 -31l501 -1372q12 -31 -20 -31h-133q-29 0 -41 31z" />
<glyph unicode="]" horiz-adv-x="737" d="M92 -164h246v1475h-246q-31 0 -31 30v123q0 31 31 31h410q30 0 30 -31v-1781q0 -31 -30 -31h-410q-31 0 -31 31v122q0 31 31 31z" />
<glyph unicode="^" horiz-adv-x="1001" d="M455 1434h92q22 0 32.5 -7t18.5 -24l338 -655q13 -31 -21 -31h-122q-37 0 -52 31l-235 460h-10l-236 -460q-8 -17 -18.5 -24t-32.5 -7h-123q-33 0 -20 31l337 655q15 31 52 31z" />
<glyph unicode="_" horiz-adv-x="768" d="M768 -256v-123q0 -31 -31 -31h-706q-31 0 -31 31v123q0 31 31 31h706q31 0 31 -31z" />
<glyph unicode="`" horiz-adv-x="460" d="M252 1126l-184 277q-8 13 -2 22t22 9h143q25 0 41 -31l123 -277q12 -30 -20 -30h-82q-23 0 -41 30z" />
<glyph unicode="a" horiz-adv-x="1146" d="M123 276v41q0 297 307 297h379v134q0 69 -42.5 111t-111.5 42h-143q-69 0 -111.5 -42t-42.5 -111q0 -31 -30 -31h-113q-31 0 -31 31q0 154 83.5 235.5t244.5 81.5h143q161 0 244.5 -81.5t83.5 -235.5v-717q0 -31 -31 -31h-112q-31 0 -31 31v71h-10q-2 -5 -6.5 -13 t-23 -29t-41.5 -37.5t-64.5 -29.5t-90.5 -13h-143q-307 0 -307 296zM297 317v-41q0 -62 35.5 -97.5t97.5 -35.5h164q92 0 153.5 61.5t61.5 153.5v93h-379q-61 0 -97 -36t-36 -98z" />
<glyph unicode="b" d="M727 164q69 0 111.5 42t42.5 111v410q0 69 -42.5 111.5t-111.5 42.5h-389v-717h389zM727 0h-532q-31 0 -31 31v1372q0 31 31 31h112q31 0 31 -31v-359h389q161 0 244.5 -81.5t83.5 -235.5v-410q0 -154 -83.5 -235.5t-244.5 -81.5z" />
<glyph unicode="c" horiz-adv-x="1157" d="M317 748v-451q0 -69 42.5 -111.5t111.5 -42.5h236q69 0 111 42.5t42 111.5v51q0 31 31 31h113q30 0 30 -31v-51q0 -154 -83 -235.5t-244 -81.5h-236q-161 0 -244.5 81.5t-83.5 235.5v451q0 154 83.5 235.5t244.5 81.5h236q161 0 244 -81.5t83 -235.5v-52q0 -30 -30 -30 h-113q-31 0 -31 30v52q0 69 -42 111t-111 42h-236q-69 0 -111.5 -42t-42.5 -111z" />
<glyph unicode="d" d="M860 881h-389q-69 0 -111.5 -42.5t-42.5 -111.5v-430q0 -69 42.5 -111.5t111.5 -42.5h174q92 0 153.5 61.5t61.5 153.5v523zM471 1044h389v359q0 31 31 31h113q30 0 30 -31v-1372q0 -31 -30 -31h-113q-31 0 -31 31v71h-10q-2 -5 -6.5 -13t-22.5 -29t-41.5 -37.5 t-64.5 -29.5t-90 -13h-154q-161 0 -244.5 81.5t-83.5 235.5v430q0 154 83.5 235.5t244.5 81.5z" />
<glyph unicode="e" horiz-adv-x="1187" d="M317 614h553v134q0 69 -42 111t-111 42h-246q-69 0 -111.5 -42t-42.5 -111v-134zM1014 451h-697v-154q0 -69 42.5 -111.5t111.5 -42.5h246q69 0 111 42.5t42 111.5v10q0 31 31 31h113q30 0 30 -31v-10q0 -154 -83 -235.5t-244 -81.5h-246q-161 0 -244.5 81.5t-83.5 235.5 v451q0 154 83.5 235.5t244.5 81.5h246q161 0 244 -81.5t83 -235.5v-267q0 -30 -30 -30z" />
<glyph unicode="f" horiz-adv-x="716" d="M246 819h-154q-31 0 -31 31v102q0 31 31 31h154v143q0 147 82 227.5t235 80.5h123q31 0 31 -31v-103q0 -30 -31 -30h-123q-61 0 -102 -41t-41 -103v-143h205q30 0 30 -31v-102q0 -31 -30 -31h-205v-788q0 -31 -31 -31h-113q-30 0 -30 31v788z" />
<glyph unicode="g" d="M860 82h-389q-161 0 -244.5 81.5t-83.5 235.5v349q0 154 83.5 235.5t244.5 81.5h154q49 0 90 -12.5t65 -30.5t40.5 -36.5t23.5 -31.5l6 -12h10v72q0 30 31 30h113q30 0 30 -30v-1106q0 -155 -83.5 -236.5t-243.5 -81.5h-215q-161 0 -244.5 82t-83.5 236v31q0 30 31 30 h112q31 0 31 -30v-31q0 -69 42.5 -111.5t111.5 -42.5h215q69 0 111 42.5t42 111.5v174zM471 246h389v440q0 92 -61.5 153.5t-153.5 61.5h-174q-69 0 -111.5 -42t-42.5 -111v-349q0 -69 42.5 -111t111.5 -42z" />
<glyph unicode="h" horiz-adv-x="1218" d="M881 31v696q0 69 -42.5 111.5t-111.5 42.5h-389v-850q0 -31 -31 -31h-112q-31 0 -31 31v1372q0 31 31 31h112q31 0 31 -31v-359h389q161 0 244.5 -81.5t83.5 -235.5v-696q0 -31 -31 -31h-113q-30 0 -30 31z" />
<glyph unicode="i" horiz-adv-x="501" d="M195 1434h112q31 0 31 -31v-113q0 -30 -31 -30h-112q-31 0 -31 30v113q0 31 31 31zM307 0h-112q-31 0 -31 31v983q0 30 31 30h112q31 0 31 -30v-983q0 -31 -31 -31z" />
<glyph unicode="j" horiz-adv-x="501" d="M338 1014v-1116q0 -147 -82.5 -227.5t-235.5 -80.5h-112q-31 0 -31 31v103q0 30 31 30h112q62 0 103 41t41 103v1116q0 30 31 30h112q31 0 31 -30zM195 1434h112q31 0 31 -31v-113q0 -30 -31 -30h-112q-31 0 -31 30v113q0 31 31 31z" />
<glyph unicode="k" horiz-adv-x="1069" d="M829 31l-235 440h-256v-440q0 -31 -31 -31h-112q-31 0 -31 31v1372q0 31 31 31h112q31 0 31 -31v-768h256l205 379q8 16 18.5 23t32.5 7h123q35 0 20 -30l-256 -461l287 -522q7 -15 1.5 -23t-21.5 -8h-123q-37 0 -52 31z" />
<glyph unicode="l" horiz-adv-x="501" d="M307 0h-112q-31 0 -31 31v1372q0 31 31 31h112q31 0 31 -31v-1372q0 -31 -31 -31z" />
<glyph unicode="m" horiz-adv-x="1730" d="M952 748v-717q0 -31 -30 -31h-113q-31 0 -31 31v717q0 69 -42 111t-111 42h-72q-92 0 -153.5 -61.5t-61.5 -153.5v-655q0 -31 -31 -31h-112q-31 0 -31 31v983q0 30 31 30h112q31 0 31 -30v-72h10q2 5 6.5 13.5t22.5 29.5t41.5 37t64.5 29.5t90 13.5h52q52 0 95 -12.5 t67.5 -30.5t42 -36.5t24.5 -31.5l6 -12h10q2 5 6.5 13.5t23.5 29.5t43 37t67.5 29.5t95.5 13.5h133q161 0 244.5 -81.5t83.5 -235.5v-717q0 -31 -31 -31h-113q-30 0 -30 31v717q0 69 -42.5 111t-111.5 42h-133q-69 0 -111.5 -42t-42.5 -111z" />
<glyph unicode="n" horiz-adv-x="1218" d="M573 1065h154q161 0 244.5 -81.5t83.5 -235.5v-717q0 -31 -31 -31h-113q-30 0 -30 31v717q0 69 -42.5 111t-111.5 42h-174q-92 0 -153.5 -61.5t-61.5 -153.5v-655q0 -31 -31 -31h-112q-31 0 -31 31v983q0 30 31 30h112q31 0 31 -30v-72h10q2 5 6.5 13.5t22.5 29.5 t41.5 37t64.5 29.5t90 13.5z" />
<glyph unicode="o" d="M881 297v451q0 69 -42.5 111t-111.5 42h-256q-69 0 -111.5 -42t-42.5 -111v-451q0 -69 42.5 -111.5t111.5 -42.5h256q69 0 111.5 42.5t42.5 111.5zM1055 748v-451q0 -154 -83.5 -235.5t-244.5 -81.5h-256q-161 0 -244.5 81.5t-83.5 235.5v451q0 154 83.5 235.5 t244.5 81.5h256q161 0 244.5 -81.5t83.5 -235.5z" />
<glyph unicode="p" d="M338 164h389q69 0 111.5 42t42.5 111v431q0 69 -42.5 111t-111.5 42h-174q-92 0 -153.5 -61.5t-61.5 -153.5v-522zM727 0h-389v-358q0 -31 -31 -31h-112q-31 0 -31 31v1372q0 30 31 30h112q31 0 31 -30v-72h10q2 5 6.5 13.5t22.5 29.5t41.5 37t64.5 29.5t90 13.5h154 q161 0 244.5 -81.5t83.5 -235.5v-431q0 -154 -83.5 -235.5t-244.5 -81.5z" />
<glyph unicode="q" d="M471 881q-69 0 -111.5 -42.5t-42.5 -111.5v-410q0 -69 42.5 -111t111.5 -42h389v717h-389zM471 1044h533q30 0 30 -30v-1372q0 -31 -30 -31h-113q-31 0 -31 31v358h-389q-161 0 -244.5 81.5t-83.5 235.5v410q0 154 83.5 235.5t244.5 81.5z" />
<glyph unicode="r" horiz-adv-x="737" d="M164 31v983q0 30 31 30h112q31 0 31 -30v-72h10q2 5 6.5 13.5t22.5 29.5t41.5 37t64.5 29.5t90 13.5h113q31 0 31 -31v-102q0 -31 -31 -31h-133q-92 0 -153.5 -61.5t-61.5 -153.5v-655q0 -31 -31 -31h-112q-31 0 -31 31z" />
<glyph unicode="s" horiz-adv-x="1105" d="M123 748v20q0 297 307 297h205q161 0 244.5 -81.5t83.5 -235.5v-21q0 -31 -31 -31h-113q-31 0 -31 31v21q0 69 -42 111t-111 42h-205q-62 0 -97.5 -35.5t-35.5 -97.5v-10q0 -30 20 -51.5t52 -30.5l450 -144q74 -23 119 -80t45 -145v-31q0 -296 -307 -296h-246 q-161 0 -244.5 81.5t-83.5 235.5v20q0 31 31 31h113q30 0 30 -31v-20q0 -69 42.5 -111.5t111.5 -42.5h246q62 0 97.5 35.5t35.5 97.5v21q0 30 -20 51.5t-52 30.5l-450 143q-74 23 -119 80.5t-45 145.5z" />
<glyph unicode="t" horiz-adv-x="819" d="M92 1044h154v216q0 30 30 30h113q31 0 31 -30v-216h205q30 0 30 -30v-103q0 -30 -30 -30h-205v-574q0 -61 41 -102t102 -41h123q31 0 31 -31v-102q0 -31 -31 -31h-123q-153 0 -235 80t-82 227v574h-154q-31 0 -31 30v103q0 30 31 30z" />
<glyph unicode="u" horiz-adv-x="1218" d="M645 -20h-153q-161 0 -244.5 81.5t-83.5 235.5v717q0 30 31 30h112q31 0 31 -30v-717q0 -69 42.5 -111.5t111.5 -42.5h174q92 0 153.5 61.5t61.5 153.5v656q0 30 30 30h113q31 0 31 -30v-983q0 -31 -31 -31h-113q-30 0 -30 31v71h-11q-2 -5 -6.5 -13t-22.5 -29 t-41.5 -37.5t-64.5 -29.5t-90 -13z" />
<glyph unicode="v" horiz-adv-x="1042" d="M567 0h-92q-39 0 -51 31l-389 983q-12 30 20 30h123q39 0 51 -30l287 -758h10l287 758q12 30 51 30h123q33 0 21 -30l-390 -983q-12 -31 -51 -31z" />
<glyph unicode="w" horiz-adv-x="1452" d="M680 1044h92q42 0 51 -30l195 -707h10l195 707q9 30 51 30h112q30 0 21 -30l-277 -983q-9 -31 -51 -31h-92q-42 0 -51 31l-205 737h-10l-205 -737q-9 -31 -51 -31h-92q-42 0 -51 31l-277 983q-9 30 21 30h112q42 0 51 -30l195 -707h10l195 707q9 30 51 30z" />
<glyph unicode="x" horiz-adv-x="974" d="M262 1014l225 -348l226 348q10 17 19.5 23.5t31.5 6.5h123q16 0 22 -7.5t-2 -22.5l-307 -471l338 -512q8 -13 2 -22t-22 -9h-123q-22 0 -32 7t-20 24l-256 389l-256 -389q-10 -17 -20 -24t-31 -7h-123q-16 0 -22 9t2 22l338 512l-307 471q-8 15 -2 22.5t22 7.5h123 q22 0 31.5 -6.5t19.5 -23.5z" />
<glyph unicode="y" horiz-adv-x="1042" d="M526 246l287 768q12 30 51 30h123q33 0 21 -30l-400 -1014q-85 -216 -173.5 -302.5t-225.5 -86.5h-41q-31 0 -31 31v102q0 31 31 31h41q77 0 128 51t97 174l-399 1014q-12 30 20 30h123q39 0 51 -30l287 -768h10z" />
<glyph unicode="z" horiz-adv-x="962" d="M686 870v11h-573q-31 0 -31 30v103q0 30 31 30h757q31 0 31 -30v-113q0 -41 -20 -61l-605 -666v-10h594q31 0 31 -31v-102q0 -31 -31 -31h-778q-31 0 -31 31v112q0 41 21 62z" />
<glyph unicode="{" horiz-adv-x="829" d="M369 580v-13q6 -1 16.5 -5t37 -21.5t46.5 -42.5t36.5 -73t16.5 -108v-307q0 -85 44.5 -129.5t129.5 -44.5h41q31 0 31 -31v-122q0 -31 -31 -31h-41q-368 0 -368 358v307q0 85 -44.5 130t-129.5 45h-21q-31 0 -31 30v103q0 30 31 30h21q85 0 129.5 44.5t44.5 129.5v308 q0 358 368 358h41q31 0 31 -31v-123q0 -30 -31 -30h-41q-85 0 -129.5 -44.5t-44.5 -129.5v-308q0 -60 -16 -108t-38 -73t-44.5 -41.5t-38.5 -21.5z" />
<glyph unicode="|" horiz-adv-x="686" d="M440 1403v-1761q0 -31 -30 -31h-134q-30 0 -30 31v1761q0 31 30 31h134q30 0 30 -31z" />
<glyph unicode="}" horiz-adv-x="829" d="M461 567v13q-6 1 -16.5 5t-37 21t-47 42t-37 73t-16.5 108v308q0 85 -44.5 129.5t-129.5 44.5h-41q-31 0 -31 30v123q0 31 31 31h41q369 0 369 -358v-308q0 -85 44.5 -129.5t129.5 -44.5h20q31 0 31 -30v-103q0 -30 -31 -30h-20q-85 0 -129.5 -45t-44.5 -130v-307 q0 -358 -369 -358h-41q-31 0 -31 31v122q0 31 31 31h41q85 0 129.5 44.5t44.5 129.5v307q0 60 16 108t38.5 73.5t45 42t38.5 21.5z" />
<glyph unicode="~" horiz-adv-x="860" d="M614 471q-46 0 -91 21t-79.5 51.5t-66 60.5t-60.5 51t-51 21q-15 0 -28 -13t-13 -28v-123q0 -23 -8.5 -32t-30.5 -9h-84q-23 0 -32 9t-9 32v123q0 91 53.5 148t131.5 57q46 0 91 -21t79.5 -51t66 -60.5t60.5 -51.5t51 -21q15 0 28 13t13 28v123q0 23 8.5 32t30.5 9h84 q23 0 32 -9t9 -32v-123q0 -91 -53.5 -148t-131.5 -57z" />
<glyph unicode="&#xa1;" horiz-adv-x="593" d="M256 635h82q28 0 31 -31l20 -317v-645q0 -31 -31 -31h-122q-31 0 -31 31v645l20 317q3 31 31 31zM236 1044h122q31 0 31 -30v-123q0 -31 -31 -31h-122q-31 0 -31 31v123q0 30 31 30z" />
<glyph unicode="&#xa2;" horiz-adv-x="1157" d="M543 1229h112q31 0 31 -31v-133h21q161 0 244 -81.5t83 -235.5v-52q0 -30 -30 -30h-113q-31 0 -31 30v52q0 69 -42 111t-111 42h-236q-69 0 -111.5 -42t-42.5 -111v-451q0 -69 42.5 -111.5t111.5 -42.5h236q69 0 111 42.5t42 111.5v51q0 31 31 31h113q30 0 30 -31v-51 q0 -154 -83 -235.5t-244 -81.5h-21v-134q0 -30 -31 -30h-112q-31 0 -31 30v134h-41q-161 0 -244.5 81.5t-83.5 235.5v451q0 154 83.5 235.5t244.5 81.5h41v133q0 31 31 31z" />
<glyph unicode="&#xa3;" horiz-adv-x="1105" d="M1075 0h-1003q-31 0 -31 31v123q0 30 31 30h235v451h-133q-31 0 -31 31v122q0 31 31 31h133v256q0 359 369 359h153q31 0 31 -31v-123q0 -31 -31 -31h-153q-85 0 -129.5 -44.5t-44.5 -129.5v-256h246q30 0 30 -31v-122q0 -31 -30 -31h-246v-451h573q31 0 31 -30v-123 q0 -31 -31 -31z" />
<glyph unicode="&#xa4;" horiz-adv-x="1433" d="M1126 420v-123q0 -31 -30 -31h-635v-235q0 -31 -31 -31h-133q-31 0 -31 31v235h-133q-31 0 -31 31v123q0 31 31 31h133v143h-133q-31 0 -31 31v123q0 30 31 30h133v625q0 31 31 31h645q369 0 369 -359v-123q0 -358 -369 -358h-481v-143h635q30 0 30 -31zM461 778h481 q85 0 129.5 44.5t44.5 129.5v123q0 85 -44.5 129.5t-129.5 44.5h-481v-471z" />
<glyph unicode="&#xa5;" horiz-adv-x="1318" d="M1038 205h-286v-176q0 -29 -31 -29h-123q-31 0 -31 29v176h-286q-31 0 -31 31v102q0 31 31 31h286v112h-286q-31 0 -31 31v102q0 31 31 31h204l-460 758q-7 13 -1 22t21 9h154q21 0 31 -7t20 -24l409 -696l410 696q10 17 20 24t31 7h154q15 0 21 -9t-1 -22l-460 -758h204 q31 0 31 -31v-102q0 -31 -31 -31h-286v-112h286q31 0 31 -31v-102q0 -31 -31 -31z" />
<glyph unicode="&#xa6;" horiz-adv-x="686" d="M440 1403v-676q0 -31 -30 -31h-134q-30 0 -30 31v676q0 31 30 31h134q30 0 30 -31zM440 317v-675q0 -31 -30 -31h-134q-30 0 -30 31v675q0 31 30 31h134q30 0 30 -31z" />
<glyph unicode="&#xa7;" horiz-adv-x="1187" d="M799 676l-328 102q-6 -1 -16.5 -4t-37 -17t-47 -33.5t-37 -56.5t-16.5 -83v-123q0 -71 72 -92l328 -103q6 1 16.5 4t37 17.5t46.5 34t36.5 56.5t16.5 83v123q0 68 -71 92zM164 1075v41q0 154 83.5 236t244.5 82h204q161 0 244.5 -82t83.5 -236v-20q0 -31 -31 -31h-112 q-31 0 -31 31v20q0 69 -42.5 111.5t-111.5 42.5h-204q-69 0 -111.5 -42.5t-42.5 -111.5v-41q0 -67 72 -92l471 -154q78 -26 120.5 -81.5t42.5 -163.5v-123q0 -55 -17 -99t-41 -68.5t-47.5 -41t-40.5 -22.5l-17 -5v-20q6 -2 15.5 -6t34 -21.5t43.5 -41t34.5 -68t15.5 -99.5 v-61q0 -154 -83.5 -236t-244.5 -82h-204q-161 0 -244.5 82t-83.5 236v20q0 31 31 31h112q31 0 31 -31v-20q0 -69 42.5 -111.5t111.5 -42.5h204q69 0 111.5 42.5t42.5 111.5v61q0 67 -72 92l-471 154q-78 26 -121 82t-43 164v123q0 55 17 99t41 68.5t48 40.5t41 22l17 5v21 q-6 2 -15.5 5.5t-34 21t-43.5 41t-34.5 68t-15.5 99.5z" />
<glyph unicode="&#xa8;" horiz-adv-x="675" d="M215 1249h-123q-31 0 -31 31v123q0 31 31 31h123q31 0 31 -31v-123q0 -31 -31 -31zM584 1249h-123q-31 0 -31 31v123q0 31 31 31h123q30 0 30 -31v-123q0 -31 -30 -31z" />
<glyph unicode="&#xa9;" horiz-adv-x="1822" d="M184 358v717q0 359 369 359h717q368 0 368 -359v-717q0 -358 -368 -358h-717q-369 0 -369 358zM1444 358v717q0 85 -44.5 129.5t-129.5 44.5h-717q-85 0 -129.5 -44.5t-44.5 -129.5v-717q0 -85 44.5 -129.5t129.5 -44.5h717q85 0 129.5 44.5t44.5 129.5zM768 860v-287 q0 -23 14 -37t37 -14h185q23 0 37 14t14 37v31q0 9 6 15t14 6h113q8 0 14 -6t6 -15v-31q0 -100 -52 -152t-152 -52h-185q-100 0 -152.5 52t-52.5 152v287q0 100 52.5 152.5t152.5 52.5h185q100 0 152 -52.5t52 -152.5v-31q0 -9 -6 -14.5t-14 -5.5h-113q-8 0 -14 5.5t-6 14.5 v31q0 23 -14 37t-37 14h-185q-23 0 -37 -14t-14 -37z" />
<glyph unicode="&#xaa;" horiz-adv-x="768" d="M532 1014v30h-245q-23 0 -37 -14t-14 -37v-30q0 -23 14 -37.5t37 -14.5h143q46 0 74 28.5t28 74.5zM256 1229q0 -21 -20 -21h-113q-21 0 -21 21q0 205 226 205h112q137 0 191.5 -52.5t54.5 -183.5v-379q0 -20 -20 -20h-113q-21 0 -21 20v37h-10q-1 -3 -4 -8.5t-13.5 -19 t-24.5 -23.5t-38 -18.5t-53 -8.5h-82q-113 0 -169 49t-56 136v20q0 86 53.5 135t151.5 49h245v31q0 92 -92 92h-112q-30 0 -51 -18.5t-21 -42.5z" />
<glyph unicode="&#xab;" horiz-adv-x="1009" d="M532 922l-256 -400l256 -399q8 -15 2 -23t-22 -8h-123q-21 0 -30.5 7t-20.5 24l-256 399l256 400q8 11 12 16t14 9.5t25 4.5h123q16 0 22 -7.5t-2 -22.5zM922 922l-256 -400l256 -399q8 -15 1.5 -23t-22.5 -8h-123q-21 0 -30.5 7t-20.5 24l-256 399l256 400q8 11 12 16 t14 9.5t25 4.5h123q16 0 22.5 -7.5t-1.5 -22.5z" />
<glyph unicode="&#xac;" horiz-adv-x="911" d="M61 686v123q0 31 31 31h727q31 0 31 -31v-348q0 -31 -31 -31h-112q-31 0 -31 31v194h-584q-31 0 -31 31z" />
<glyph unicode="&#xad;" horiz-adv-x="890" d="M829 696v-123q0 -30 -30 -30h-707q-31 0 -31 30v123q0 31 31 31h707q30 0 30 -31z" />
<glyph unicode="&#xae;" horiz-adv-x="1822" d="M1055 860q0 23 -14 37t-37 14h-236v-174h236q23 0 37 14t14 37v72zM1063 389l-111 195h-184v-195q0 -7 -6 -13.5t-14 -6.5h-113q-8 0 -14.5 6.5t-6.5 13.5v655q0 8 7 14.5t14 6.5h369q100 0 152 -52.5t52 -152.5v-72q0 -43 -11.5 -77t-28 -51.5t-33 -28.5t-27.5 -14 l-12 -3l133 -225q4 -7 1 -13.5t-11 -6.5h-123q-8 0 -18.5 6.5t-14.5 13.5zM184 358v717q0 359 369 359h717q368 0 368 -359v-717q0 -358 -368 -358h-717q-369 0 -369 358zM1444 358v717q0 85 -44.5 129.5t-129.5 44.5h-717q-85 0 -129.5 -44.5t-44.5 -129.5v-717 q0 -85 44.5 -129.5t129.5 -44.5h717q85 0 129.5 44.5t44.5 129.5z" />
<glyph unicode="&#xaf;" horiz-adv-x="696" d="M635 1403v-82q0 -31 -31 -31h-512q-31 0 -31 31v82q0 31 31 31h512q31 0 31 -31z" />
<glyph unicode="&#xb0;" horiz-adv-x="819" d="M369 922h82q46 0 79 33t33 79v144q0 46 -33 79t-79 33h-82q-46 0 -79.5 -33t-33.5 -79v-144q0 -46 33.5 -79t79.5 -33zM451 778h-82q-138 0 -202.5 62.5t-64.5 193.5v144q0 131 64.5 193.5t202.5 62.5h82q137 0 201.5 -62.5t64.5 -193.5v-144q0 -131 -64.5 -193.5 t-201.5 -62.5z" />
<glyph unicode="&#xb1;" horiz-adv-x="972" d="M389 348v307h-276q-31 0 -31 31v123q0 31 31 31h276v307q0 31 31 31h133q31 0 31 -31v-307h276q31 0 31 -31v-123q0 -31 -31 -31h-276v-307h266q31 0 31 -31v-122q0 -31 -31 -31h-727q-31 0 -31 31v122q0 31 31 31h266z" />
<glyph unicode="&#xb2;" horiz-adv-x="665" d="M604 1423q0 -97 -92 -153l-236 -133v-11h287q21 0 21 -20v-102q0 -21 -21 -21h-481q-21 0 -21 21v122q0 22 7.5 33t23.5 19l297 174q7 3 17.5 9.5t27.5 25t17 36.5v11q0 61 -62 61h-102q-30 0 -51 -18.5t-21 -42.5q0 -21 -20 -21h-113q-21 0 -21 21q0 204 226 204h102 q123 0 169 -44t46 -160v-11z" />
<glyph unicode="&#xb3;" horiz-adv-x="665" d="M225 1403l133 82v10h-266q-20 0 -20 21v102q0 20 20 20h481q21 0 21 -20v-102q0 -26 -31 -41l-133 -82v-11q91 0 132.5 -37.5t41.5 -115.5v-41q0 -116 -46 -160.5t-169 -44.5h-102q-226 0 -226 205q0 20 21 20h113q20 0 20 -20q0 -24 21 -43t51 -19h102q62 0 62 62v41 q0 61 -62 61h-174q-7 0 -13.5 6.5t-6.5 14.5v51q0 26 30 41z" />
<glyph unicode="&#xb4;" horiz-adv-x="460" d="M393 1403l-184 -277q-18 -30 -41 -30h-82q-32 0 -20 30l122 277q16 31 41 31h144q16 0 22 -9t-2 -22z" />
<glyph unicode="&#xb5;" horiz-adv-x="1218" d="M645 -20h-153q-45 0 -83.5 18t-54.5 36l-16 17v-409q0 -31 -31 -31h-112q-31 0 -31 31v1372q0 27 22 30h9h112q18 0 25 -10q6 -9 6 -20v-717q0 -69 42.5 -111.5t111.5 -42.5h174q92 0 153.5 61.5t61.5 153.5v656q0 30 30 30h113q31 0 31 -30v-983q0 -31 -31 -31h-113 q-30 0 -30 31v71h-11q-2 -5 -6.5 -13t-22.5 -29t-41.5 -37.5t-64.5 -29.5t-90 -13z" />
<glyph unicode="&#xb6;" horiz-adv-x="1331" d="M471 676q-169 0 -258.5 89.5t-89.5 258.5v61q0 170 91 259.5t267 89.5h615q30 0 30 -31v-1454q0 -359 -368 -359h-420q-31 0 -31 31v113q0 30 31 30h102q31 0 31 31v881zM655 -236h103q184 0 184 185v1311h-287v-1496z" />
<glyph unicode="&#xb7;" horiz-adv-x="409" d="M266 522h-123q-30 0 -30 31v123q0 31 30 31h123q31 0 31 -31v-123q0 -31 -31 -31z" />
<glyph unicode="&#xb8;" horiz-adv-x="501" d="M92 -410h154q31 0 51 20.5t20 51.5v21q0 31 -20 51t-51 20h-133q-31 0 -31 31v72q0 18 5 33.5t10 21.5l5 6l52 82h112l-71 -123h51q85 0 139.5 -54.5t54.5 -139.5v-21q0 -85 -54.5 -139.5t-139.5 -54.5h-154q-31 0 -31 30v62q0 30 31 30z" />
<glyph unicode="&#xb9;" horiz-adv-x="481" d="M246 1495h-164q-21 0 -21 21v102q0 20 21 20h297q20 0 20 -20v-614q0 -21 -20 -21h-113q-20 0 -20 21v491z" />
<glyph unicode="&#xba;" horiz-adv-x="716" d="M655 1178v-144q0 -139 -60 -197.5t-206 -58.5h-61q-146 0 -206.5 58.5t-60.5 197.5v144q0 139 60.5 197.5t206.5 58.5h61q146 0 206 -58.5t60 -197.5zM215 1178v-144q0 -54 29.5 -83t83.5 -29h61q54 0 83.5 29t29.5 83v144q0 54 -29.5 83t-83.5 29h-61q-54 0 -83.5 -29 t-29.5 -83z" />
<glyph unicode="&#xbb;" horiz-adv-x="1009" d="M733 522l-256 400q-8 15 -1.5 22.5t22.5 7.5h123q21 0 30.5 -7t20.5 -23l256 -400l-256 -399q-8 -12 -12 -17t-14 -9.5t-25 -4.5h-123q-16 0 -22.5 8t1.5 23zM344 522l-256 400q-8 15 -1.5 22.5t22.5 7.5h122q15 0 25 -4t15 -9.5t12 -16.5l256 -400l-256 -399 q-8 -11 -12.5 -16.5t-14.5 -10t-25 -4.5h-122q-16 0 -22.5 8t1.5 23z" />
<glyph unicode="&#xbc;" horiz-adv-x="1464" d="M256 31l645 1372q15 31 41 31h143q16 0 22 -8t-1 -23l-645 -1372q-15 -31 -41 -31h-144q-16 0 -21.5 8t1.5 23zM225 1290h-164q-20 0 -20 21v102q0 21 20 21h297q21 0 21 -21v-614q0 -21 -21 -21h-112q-21 0 -21 21v491zM1290 635v-369h72q20 0 20 -20v-82q0 -21 -20 -21 h-72v-123q0 -20 -20 -20h-113q-20 0 -20 20v123h-328q-21 0 -21 21v72q0 9 5 21.5t11 20.5l5 9l256 348q16 20 41 20h164q20 0 20 -20zM952 266h185v246h-11l-174 -236v-10z" />
<glyph unicode="&#xbd;" horiz-adv-x="1495" d="M256 31l645 1372q15 31 41 31h143q16 0 22 -8t-1 -23l-645 -1372q-15 -31 -41 -31h-144q-16 0 -21.5 8t1.5 23zM225 1290h-164q-20 0 -20 21v102q0 21 20 21h297q21 0 21 -21v-614q0 -21 -21 -21h-112q-21 0 -21 21v491zM1413 440q0 -97 -92 -153l-236 -133v-11h287 q21 0 21 -20v-103q0 -20 -21 -20h-481q-21 0 -21 20v123q0 37 31 52l297 174q7 3 17.5 9.5t27.5 25t17 36.5v11q0 61 -62 61h-102q-30 0 -51 -18.5t-21 -42.5q0 -21 -20 -21h-113q-21 0 -21 21q0 204 226 204h102q123 0 169 -44t46 -160v-11z" />
<glyph unicode="&#xbe;" horiz-adv-x="1576" d="M369 31l645 1372q16 31 41 31h143q16 0 22 -8t-1 -23l-646 -1372q-15 -31 -41 -31h-143q-16 0 -21.5 8t1.5 23zM1403 635v-369h72q20 0 20 -20v-82q0 -21 -20 -21h-72v-123q0 -20 -21 -20h-112q-21 0 -21 20v123h-327q-21 0 -21 21v72q0 9 5.5 21.5t10.5 20.5l5 9 l256 348q16 20 41 20h163q21 0 21 -20zM1065 266h184v246h-10l-174 -236v-10zM205 1198l133 82v10h-266q-21 0 -21 21v102q0 21 21 21h481q20 0 20 -21v-102q0 -26 -30 -41l-133 -82v-10q83 0 128.5 -42t45.5 -112v-41q0 -116 -46 -160.5t-169 -44.5h-103q-225 0 -225 205 q0 21 20 21h113q21 0 21 -21q0 -24 20.5 -42.5t50.5 -18.5h103q61 0 61 61v41q0 61 -61 61h-174q-7 0 -14 6.5t-7 14.5v51q0 25 31 41z" />
<glyph unicode="&#xbf;" horiz-adv-x="1187" d="M492 492h81l21 112q6 31 31 31h82q27 0 30 -31l31 -266q0 -31 -31 -31h-245q-85 0 -130 -44.5t-45 -129.5v-184q0 -85 45 -129.5t130 -44.5h307q85 0 129.5 44.5t44.5 129.5v61q0 31 31 31h133q30 0 30 -31v-61q0 -359 -368 -359h-307q-369 0 -369 359v184q0 359 369 359 zM604 1044h123q31 0 31 -30v-123q0 -31 -31 -31h-123q-31 0 -31 31v123q0 30 31 30z" />
<glyph unicode="&#xc0;" horiz-adv-x="1359" d="M434 553h492l-242 655h-8zM997 369h-635l-122 -338q-12 -31 -52 -31h-143q-32 0 -20 31l532 1372q15 31 51 31h144q36 0 51 -31l532 -1372q12 -31 -20 -31h-144q-39 0 -51 31zM578 1628l-185 277q-8 13 -1.5 21.5t22.5 8.5h143q26 0 41 -30l123 -277q12 -31 -21 -31h-82 q-14 0 -22 7t-18 24z" />
<glyph unicode="&#xc1;" horiz-adv-x="1359" d="M434 553h492l-242 655h-8zM997 369h-635l-122 -338q-12 -31 -52 -31h-143q-32 0 -20 31l532 1372q15 31 51 31h144q36 0 51 -31l532 -1372q12 -31 -20 -31h-144q-39 0 -51 31zM967 1905l-185 -277q-10 -17 -18.5 -24t-22.5 -7h-82q-32 0 -20 31l123 277q15 30 41 30h143 q16 0 22.5 -8.5t-1.5 -21.5z" />
<glyph unicode="&#xc2;" horiz-adv-x="1359" d="M434 553h492l-242 655h-8zM997 369h-635l-122 -338q-12 -31 -52 -31h-143q-32 0 -20 31l532 1372q15 31 51 31h144q36 0 51 -31l532 -1372q12 -31 -20 -31h-144q-39 0 -51 31zM633 1956h92q26 0 51 -31l225 -297q10 -14 3 -22.5t-23 -8.5h-113q-19 0 -41 31l-143 195h-10 l-144 -195q-22 -31 -41 -31h-112q-16 0 -23 8.5t2 22.5l226 297q25 31 51 31z" />
<glyph unicode="&#xc3;" horiz-adv-x="1359" d="M434 553h492l-242 655h-8zM997 369h-635l-122 -338q-12 -31 -52 -31h-143q-32 0 -20 31l532 1372q15 31 51 31h144q36 0 51 -31l532 -1372q12 -31 -20 -31h-144q-39 0 -51 31zM819 1597q-49 0 -89.5 25.5t-62.5 56.5t-44.5 56.5t-38.5 25.5q-15 0 -28 -13t-13 -28v-92 q0 -31 -31 -31h-72q-30 0 -30 31v123q0 61 41 102t102 41q49 0 89.5 -25.5t62.5 -56t44.5 -56t38.5 -25.5q15 0 28 13t13 28v92q0 30 31 30h72q31 0 31 -30v-123q0 -61 -41.5 -102.5t-102.5 -41.5z" />
<glyph unicode="&#xc4;" horiz-adv-x="1359" d="M434 553h492l-242 655h-8zM997 369h-635l-122 -338q-12 -31 -52 -31h-143q-32 0 -20 31l532 1372q15 31 51 31h144q36 0 51 -31l532 -1372q12 -31 -20 -31h-144q-39 0 -51 31zM563 1638h-123q-30 0 -30 31v123q0 31 30 31h123q31 0 31 -31v-123q0 -31 -31 -31zM932 1638 h-123q-31 0 -31 31v123q0 31 31 31h123q31 0 31 -31v-123q0 -31 -31 -31z" />
<glyph unicode="&#xc5;" horiz-adv-x="1359" d="M434 553h492l-242 655h-8zM997 369h-635l-122 -338q-12 -31 -52 -31h-143q-32 0 -20 31l532 1372q15 31 51 31h144q36 0 51 -31l532 -1372q12 -31 -20 -31h-144q-39 0 -51 31zM573 1823v-51q0 -38 22 -60t60 -22h41q38 0 60 22t22 60v51q0 38 -22 60t-60 22h-41 q-38 0 -60 -22t-22 -60zM451 1772v51q0 85 56 139.5t148 54.5h41q92 0 148.5 -54.5t56.5 -139.5v-51q0 -85 -56.5 -140t-148.5 -55h-41q-91 0 -147.5 54.5t-56.5 140.5z" />
<glyph unicode="&#xc6;" horiz-adv-x="2146" d="M1235 184h799q30 0 30 -30v-123q0 -31 -28 -31h-965q-31 0 -31 31v338h-706l-133 -338q-15 -31 -51 -31h-123q-16 0 -22.5 8t-0.5 23l535 1372q15 31 49 31h1425q31 0 31 -31v-123q0 -31 -29 -31h-780v-430h594q31 0 31 -31v-122q0 -31 -29 -31h-596v-451zM1040 553v696 h-368l-266 -696h634z" />
<glyph unicode="&#xc7;" horiz-adv-x="1536" d="M670 -410h153q31 0 51.5 20.5t20.5 51.5v21q0 31 -20.5 51t-51.5 20h-133q-31 0 -31 31v72q0 18 5.5 33.5t10.5 21.5l5 6l37 62h-164q-369 0 -369 358v758q0 358 369 358h471q369 0 369 -358v-82q0 -31 -31 -31h-133q-31 0 -31 31v82q0 85 -44.5 129.5t-129.5 44.5h-471 q-85 0 -129.5 -44.5t-44.5 -129.5v-758q0 -85 44.5 -129.5t129.5 -44.5h471q85 0 129.5 44.5t44.5 129.5v82q0 31 31 31h133q31 0 31 -31v-82q0 -358 -369 -358h-195l-57 -103h51q85 0 140 -54.5t55 -139.5v-21q0 -85 -55 -139.5t-140 -54.5h-153q-31 0 -31 30v62 q0 30 31 30z" />
<glyph unicode="&#xc8;" horiz-adv-x="1392" d="M399 184h881q31 0 31 -30v-123q0 -31 -29 -31h-1046q-31 0 -31 31v1370q0 33 31 33h1024q30 0 30 -31v-123q0 -31 -28 -31h-863v-430h676q31 0 31 -31v-122q0 -31 -29 -31h-678v-451zM692 1628l-184 277q-8 13 -2 21.5t22 8.5h144q26 0 41 -30l123 -277q12 -31 -21 -31 h-82q-14 0 -22.5 7t-18.5 24z" />
<glyph unicode="&#xc9;" horiz-adv-x="1392" d="M399 184h881q31 0 31 -30v-123q0 -31 -29 -31h-1046q-31 0 -31 31v1370q0 33 31 33h1024q30 0 30 -31v-123q0 -31 -28 -31h-863v-430h676q31 0 31 -31v-122q0 -31 -29 -31h-678v-451zM1006 1905l-185 -277q-10 -17 -18.5 -24t-22.5 -7h-82q-32 0 -20 31l123 277 q15 30 41 30h143q16 0 22.5 -8.5t-1.5 -21.5z" />
<glyph unicode="&#xca;" horiz-adv-x="1392" d="M399 184h881q31 0 31 -30v-123q0 -31 -29 -31h-1046q-31 0 -31 31v1370q0 33 31 33h1024q30 0 30 -31v-123q0 -31 -28 -31h-863v-430h676q31 0 31 -31v-122q0 -31 -29 -31h-678v-451zM713 1956h92q26 0 51 -31l225 -297q10 -14 3 -22.5t-23 -8.5h-113q-19 0 -41 31 l-143 195h-10l-144 -195q-22 -31 -41 -31h-112q-16 0 -23 8.5t2 22.5l226 297q25 31 51 31z" />
<glyph unicode="&#xcb;" horiz-adv-x="1392" d="M399 184h881q31 0 31 -30v-123q0 -31 -29 -31h-1046q-31 0 -31 31v1370q0 33 31 33h1024q30 0 30 -31v-123q0 -31 -28 -31h-863v-430h676q31 0 31 -31v-122q0 -31 -29 -31h-678v-451zM625 1659h-123q-31 0 -31 31v122q0 31 31 31h123q30 0 30 -31v-122q0 -31 -30 -31z M993 1659h-123q-30 0 -30 31v122q0 31 30 31h123q31 0 31 -31v-122q0 -31 -31 -31z" />
<glyph unicode="&#xcc;" horiz-adv-x="593" d="M195 31v1372q0 31 30 31h133q31 0 31 -31v-1372q0 -31 -31 -31h-133q-30 0 -30 31zM211 1628l-184 277q-8 13 -2 21.5t22 8.5h143q26 0 41 -30l123 -277q12 -31 -20 -31h-82q-14 0 -22.5 7t-18.5 24z" />
<glyph unicode="&#xcd;" horiz-adv-x="604" d="M205 31v1372q0 31 31 31h133q30 0 30 -31v-1372q0 -31 -30 -31h-133q-31 0 -31 31zM578 1905l-185 -277q-10 -17 -18.5 -24t-22.5 -7h-82q-32 0 -20 31l123 277q15 30 41 30h143q16 0 22.5 -8.5t-1.5 -21.5z" />
<glyph unicode="&#xce;" horiz-adv-x="616" d="M205 31v1372q0 31 31 31h133q30 0 30 -31v-1372q0 -31 -30 -31h-133q-31 0 -31 31zM262 1956h92q27 0 52 -31l225 -297q9 -14 2 -22.5t-23 -8.5h-112q-19 0 -41 31l-144 195h-10l-143 -195q-22 -31 -41 -31h-113q-16 0 -23 8.5t3 22.5l225 297q25 31 51 31z" />
<glyph unicode="&#xcf;" horiz-adv-x="593" d="M195 31v1372q0 31 30 31h133q31 0 31 -31v-1372q0 -31 -31 -31h-133q-30 0 -30 31zM174 1638h-123q-31 0 -31 31v123q0 31 31 31h123q31 0 31 -31v-123q0 -31 -31 -31zM543 1638h-123q-31 0 -31 31v123q0 31 31 31h123q30 0 30 -31v-123q0 -31 -30 -31z" />
<glyph unicode="&#xd0;" horiz-adv-x="1648" d="M287 1434h809q368 0 368 -359v-717q0 -358 -368 -358h-809q-31 0 -31 31v583h-143q-31 0 -31 31v123q0 31 31 31h143v604q0 31 31 31zM799 768v-123q0 -31 -31 -31h-317v-430h645q85 0 129.5 44.5t44.5 129.5v717q0 85 -44.5 129.5t-129.5 44.5h-645v-450h317 q31 0 31 -31z" />
<glyph unicode="&#xd1;" horiz-adv-x="1597" d="M1208 0q-42 0 -61 31l-737 1106h-11v-1106q0 -31 -30 -31h-133q-31 0 -31 31v1372q0 31 31 31h153q43 0 62 -31l737 -1106h10v1106q0 31 31 31h133q31 0 31 -31v-1372q0 -31 -31 -31h-154zM942 1597q-49 0 -89.5 25.5t-62.5 56.5t-44.5 56.5t-38.5 25.5q-15 0 -28 -13 t-13 -28v-92q0 -31 -31 -31h-72q-31 0 -31 31v123q0 61 41 102t103 41q49 0 89.5 -25.5t62.5 -56t44.5 -56t38.5 -25.5q15 0 28 13t13 28v92q0 30 31 30h72q30 0 30 -30v-123q0 -62 -41 -103t-102 -41z" />
<glyph unicode="&#xd2;" horiz-adv-x="1617" d="M184 338v758q0 358 369 358h512q369 0 369 -358v-758q0 -358 -369 -358h-512q-369 0 -369 358zM1239 338v758q0 85 -44.5 129.5t-129.5 44.5h-512q-85 0 -129.5 -44.5t-44.5 -129.5v-758q0 -85 44.5 -129.5t129.5 -44.5h512q85 0 129.5 44.5t44.5 129.5zM733 1649 l-184 276q-8 13 -2 22t22 9h144q25 0 41 -31l123 -276q12 -31 -21 -31h-82q-14 0 -22.5 7t-18.5 24z" />
<glyph unicode="&#xd3;" horiz-adv-x="1617" d="M184 338v758q0 358 369 358h512q369 0 369 -358v-758q0 -358 -369 -358h-512q-369 0 -369 358zM1239 338v758q0 85 -44.5 129.5t-129.5 44.5h-512q-85 0 -129.5 -44.5t-44.5 -129.5v-758q0 -85 44.5 -129.5t129.5 -44.5h512q85 0 129.5 44.5t44.5 129.5zM1090 1925 l-185 -276q-10 -17 -18.5 -24t-22.5 -7h-82q-32 0 -20 31l123 276q15 31 41 31h143q16 0 22.5 -9t-1.5 -22z" />
<glyph unicode="&#xd4;" horiz-adv-x="1617" d="M184 338v758q0 358 369 358h512q369 0 369 -358v-758q0 -358 -369 -358h-512q-369 0 -369 358zM1239 338v758q0 85 -44.5 129.5t-129.5 44.5h-512q-85 0 -129.5 -44.5t-44.5 -129.5v-758q0 -85 44.5 -129.5t129.5 -44.5h512q85 0 129.5 44.5t44.5 129.5zM764 1976h92 q27 0 51 -30l226 -297q9 -13 2 -22t-23 -9h-113q-19 0 -41 31l-143 194h-10l-143 -194q-22 -31 -41 -31h-113q-16 0 -23 9t2 22l226 297q24 30 51 30z" />
<glyph unicode="&#xd5;" horiz-adv-x="1617" d="M184 338v758q0 358 369 358h512q369 0 369 -358v-758q0 -358 -369 -358h-512q-369 0 -369 358zM1239 338v758q0 85 -44.5 129.5t-129.5 44.5h-512q-85 0 -129.5 -44.5t-44.5 -129.5v-758q0 -85 44.5 -129.5t129.5 -44.5h512q85 0 129.5 44.5t44.5 129.5zM942 1597 q-49 0 -89.5 25.5t-62.5 56.5t-44.5 56.5t-38.5 25.5q-15 0 -28 -13t-13 -28v-92q0 -31 -31 -31h-72q-31 0 -31 31v123q0 61 41 102t103 41q49 0 89.5 -25.5t62.5 -56t44.5 -56t38.5 -25.5q15 0 28 13t13 28v92q0 30 31 30h72q30 0 30 -30v-123q0 -62 -41 -103t-102 -41z " />
<glyph unicode="&#xd6;" horiz-adv-x="1617" d="M184 338v758q0 358 369 358h512q369 0 369 -358v-758q0 -358 -369 -358h-512q-369 0 -369 358zM1239 338v758q0 85 -44.5 129.5t-129.5 44.5h-512q-85 0 -129.5 -44.5t-44.5 -129.5v-758q0 -85 44.5 -129.5t129.5 -44.5h512q85 0 129.5 44.5t44.5 129.5zM686 1679h-123 q-31 0 -31 31v123q0 31 31 31h123q31 0 31 -31v-123q0 -31 -31 -31zM1055 1679h-123q-31 0 -31 31v123q0 31 31 31h123q30 0 30 -31v-123q0 -31 -30 -31z" />
<glyph unicode="&#xd7;" horiz-adv-x="856" d="M766 850l-215 -215l215 -215q8 -8 8 -21t-8 -20l-82 -82q-8 -7 -21 -7t-20 7l-215 215l-215 -215q-7 -7 -20 -7t-21 7l-82 82q-8 7 -8 20t8 21l215 215l-215 215q-8 8 -8 21t8 20l82 82q8 7 21 7t20 -7l215 -215l215 215q7 7 20 7t21 -7l82 -82q8 -7 8 -20t-8 -21z" />
<glyph unicode="&#xd8;" horiz-adv-x="1617" d="M1239 1096q0 18 -2.5 33.5t-4.5 21.5l-3 6l-737 -983q30 -10 61 -10h512q85 0 129.5 44.5t44.5 129.5v758zM379 1096v-758q0 -18 2.5 -33.5t4.5 -22.5l3 -6l737 984q-30 10 -61 10h-512q-85 0 -129.5 -44.5t-44.5 -129.5zM184 338v758q0 358 369 358h512q369 0 369 -358 v-758q0 -358 -369 -358h-512q-369 0 -369 358z" />
<glyph unicode="&#xd9;" horiz-adv-x="1597" d="M1393 1403v-1065q0 -358 -369 -358h-451q-368 0 -368 358v1065q0 31 31 31h133q30 0 30 -31v-1065q0 -85 44.5 -129.5t129.5 -44.5h451q85 0 129.5 44.5t44.5 129.5v1065q0 31 31 31h133q31 0 31 -31zM735 1628l-184 277q-8 13 -2 21.5t22 8.5h144q26 0 41 -30l123 -277 q12 -31 -21 -31h-82q-14 0 -22.5 7t-18.5 24z" />
<glyph unicode="&#xda;" horiz-adv-x="1597" d="M1393 1403v-1065q0 -358 -369 -358h-451q-368 0 -368 358v1065q0 31 31 31h133q30 0 30 -31v-1065q0 -85 44.5 -129.5t129.5 -44.5h451q85 0 129.5 44.5t44.5 129.5v1065q0 31 31 31h133q31 0 31 -31zM1047 1905l-185 -277q-10 -17 -18.5 -24t-22.5 -7h-82q-32 0 -20 31 l123 277q15 30 41 30h143q16 0 22.5 -8.5t-1.5 -21.5z" />
<glyph unicode="&#xdb;" horiz-adv-x="1597" d="M1393 1403v-1065q0 -358 -369 -358h-451q-368 0 -368 358v1065q0 31 31 31h133q30 0 30 -31v-1065q0 -85 44.5 -129.5t129.5 -44.5h451q85 0 129.5 44.5t44.5 129.5v1065q0 31 31 31h133q31 0 31 -31zM754 1976h92q27 0 51 -30l225 -297q10 -13 3 -22t-23 -9h-113 q-19 0 -41 31l-143 194h-10l-144 -194q-22 -31 -41 -31h-112q-16 0 -23 9t2 22l225 297q24 30 52 30z" />
<glyph unicode="&#xdc;" horiz-adv-x="1597" d="M1393 1403v-1065q0 -358 -369 -358h-451q-368 0 -368 358v1065q0 31 31 31h133q30 0 30 -31v-1065q0 -85 44.5 -129.5t129.5 -44.5h451q85 0 129.5 44.5t44.5 129.5v1065q0 31 31 31h133q31 0 31 -31zM666 1679h-123q-31 0 -31 31v123q0 31 31 31h123q30 0 30 -31v-123 q0 -31 -30 -31zM1034 1679h-123q-30 0 -30 31v123q0 31 30 31h123q31 0 31 -31v-123q0 -31 -31 -31z" />
<glyph unicode="&#xdd;" horiz-adv-x="1318" d="M250 1403l409 -696l410 696q10 17 20 24t31 7h154q15 0 21 -9t-1 -22l-542 -901v-473q0 -29 -31 -29h-123q-31 0 -31 29v473l-542 901q-7 13 -1 22t21 9h154q21 0 31 -7t20 -24zM944 1905l-184 -277q-10 -17 -18.5 -24t-22.5 -7h-82q-33 0 -21 31l123 277q15 30 41 30 h144q16 0 22 -8.5t-2 -21.5z" />
<glyph unicode="&#xde;" horiz-adv-x="1566" d="M236 1434h133q30 0 30 -31v-154h635q369 0 369 -358v-348q0 -359 -369 -359h-635v-153q0 -31 -30 -31h-133q-31 0 -31 31v1372q0 31 31 31zM1208 543v348q0 85 -44.5 129.5t-129.5 44.5h-635v-696h635q85 0 129.5 44.5t44.5 129.5z" />
<glyph unicode="&#xdf;" horiz-adv-x="1218" d="M338 1116v-1085q0 -31 -31 -31h-112q-31 0 -31 31v1085q0 154 83.5 236t244.5 82h174q160 0 243.5 -81.5t83.5 -236.5v-174q0 -43 -10.5 -78t-25.5 -54t-30 -31.5t-25 -16.5l-11 -4v-10q4 -1 11.5 -2.5t29 -8.5t40.5 -17t43 -29t41 -42.5t28.5 -59t11.5 -77.5v-195 q0 -154 -83.5 -235.5t-244.5 -81.5h-102q-31 0 -31 31v102q0 31 31 31h100q70 0 113 42t43 111v195q0 61 -36 97t-98 36h-153q-31 0 -31 31v102q0 31 31 31h51q62 0 97.5 35.5t35.5 97.5v174q0 69 -42 111.5t-111 42.5h-174q-69 0 -111.5 -42.5t-42.5 -111.5z" />
<glyph unicode="&#xe0;" horiz-adv-x="1146" d="M123 276v41q0 297 307 297h379v134q0 69 -42.5 111t-111.5 42h-143q-69 0 -111.5 -42t-42.5 -111q0 -31 -30 -31h-113q-31 0 -31 31q0 154 83.5 235.5t244.5 81.5h143q161 0 244.5 -81.5t83.5 -235.5v-717q0 -31 -31 -31h-112q-31 0 -31 31v71h-10q-2 -5 -6.5 -13 t-23 -29t-41.5 -37.5t-64.5 -29.5t-90.5 -13h-143q-307 0 -307 296zM297 317v-41q0 -62 35.5 -97.5t97.5 -35.5h164q92 0 153.5 61.5t61.5 153.5v93h-379q-61 0 -97 -36t-36 -98zM528 1239l-184 277q-8 14 -1.5 22t22.5 8h143q26 0 41 -30l123 -277q12 -31 -21 -31h-82 q-14 0 -22.5 7t-18.5 24z" />
<glyph unicode="&#xe1;" horiz-adv-x="1146" d="M123 276v41q0 297 307 297h379v134q0 69 -42.5 111t-111.5 42h-143q-69 0 -111.5 -42t-42.5 -111q0 -31 -30 -31h-113q-31 0 -31 31q0 154 83.5 235.5t244.5 81.5h143q161 0 244.5 -81.5t83.5 -235.5v-717q0 -31 -31 -31h-112q-31 0 -31 31v71h-10q-2 -5 -6.5 -13 t-23 -29t-41.5 -37.5t-64.5 -29.5t-90.5 -13h-143q-307 0 -307 296zM297 317v-41q0 -62 35.5 -97.5t97.5 -35.5h164q92 0 153.5 61.5t61.5 153.5v93h-379q-61 0 -97 -36t-36 -98zM864 1516l-184 -277q-10 -17 -18.5 -24t-22.5 -7h-82q-32 0 -20 31l122 277q15 30 41 30h144 q16 0 22 -8t-2 -22z" />
<glyph unicode="&#xe2;" horiz-adv-x="1146" d="M123 276v41q0 297 307 297h379v134q0 69 -42.5 111t-111.5 42h-143q-69 0 -111.5 -42t-42.5 -111q0 -31 -30 -31h-113q-31 0 -31 31q0 154 83.5 235.5t244.5 81.5h143q161 0 244.5 -81.5t83.5 -235.5v-717q0 -31 -31 -31h-112q-31 0 -31 31v71h-10q-2 -5 -6.5 -13 t-23 -29t-41.5 -37.5t-64.5 -29.5t-90.5 -13h-143q-307 0 -307 296zM297 317v-41q0 -62 35.5 -97.5t97.5 -35.5h164q92 0 153.5 61.5t61.5 153.5v93h-379q-61 0 -97 -36t-36 -98zM547 1567h92q26 0 51 -31l225 -297q10 -13 3 -22t-23 -9h-113q-19 0 -41 31l-143 195h-10 l-144 -195q-22 -31 -41 -31h-112q-16 0 -23 9t2 22l226 297q25 31 51 31z" />
<glyph unicode="&#xe3;" horiz-adv-x="1146" d="M123 276v41q0 297 307 297h379v134q0 69 -42.5 111t-111.5 42h-143q-69 0 -111.5 -42t-42.5 -111q0 -31 -30 -31h-113q-31 0 -31 31q0 154 83.5 235.5t244.5 81.5h143q161 0 244.5 -81.5t83.5 -235.5v-717q0 -31 -31 -31h-112q-31 0 -31 31v71h-10q-2 -5 -6.5 -13 t-23 -29t-41.5 -37.5t-64.5 -29.5t-90.5 -13h-143q-307 0 -307 296zM297 317v-41q0 -62 35.5 -97.5t97.5 -35.5h164q92 0 153.5 61.5t61.5 153.5v93h-379q-61 0 -97 -36t-36 -98zM707 1188q-40 0 -74 17t-56.5 41t-41 48t-34.5 41t-30 17q-15 0 -28 -13t-13 -28v-92 q0 -31 -31 -31h-71q-31 0 -31 31v122q0 62 41 103t102 41q40 0 74 -17t56.5 -41t41 -48t34.5 -41t30 -17q15 0 28 13t13 28v92q0 31 31 31h71q31 0 31 -31v-123q0 -61 -41 -102t-102 -41z" />
<glyph unicode="&#xe4;" horiz-adv-x="1146" d="M123 276v41q0 297 307 297h379v134q0 69 -42.5 111t-111.5 42h-143q-69 0 -111.5 -42t-42.5 -111q0 -31 -30 -31h-113q-31 0 -31 31q0 154 83.5 235.5t244.5 81.5h143q161 0 244.5 -81.5t83.5 -235.5v-717q0 -31 -31 -31h-112q-31 0 -31 31v71h-10q-2 -5 -6.5 -13 t-23 -29t-41.5 -37.5t-64.5 -29.5t-90.5 -13h-143q-307 0 -307 296zM297 317v-41q0 -62 35.5 -97.5t97.5 -35.5h164q92 0 153.5 61.5t61.5 153.5v93h-379q-61 0 -97 -36t-36 -98zM461 1270h-123q-31 0 -31 30v123q0 31 31 31h123q31 0 31 -31v-123q0 -30 -31 -30zM829 1270 h-122q-31 0 -31 30v123q0 31 31 31h122q31 0 31 -31v-123q0 -30 -31 -30z" />
<glyph unicode="&#xe5;" horiz-adv-x="1146" d="M123 276v41q0 297 307 297h379v134q0 69 -42.5 111t-111.5 42h-143q-69 0 -111.5 -42t-42.5 -111q0 -31 -30 -31h-113q-31 0 -31 31q0 154 83.5 235.5t244.5 81.5h143q161 0 244.5 -81.5t83.5 -235.5v-717q0 -31 -31 -31h-112q-31 0 -31 31v71h-10q-2 -5 -6.5 -13 t-23 -29t-41.5 -37.5t-64.5 -29.5t-90.5 -13h-143q-307 0 -307 296zM297 317v-41q0 -62 35.5 -97.5t97.5 -35.5h164q92 0 153.5 61.5t61.5 153.5v93h-379q-61 0 -97 -36t-36 -98zM492 1434v-52q0 -38 21.5 -60t59.5 -22h41q38 0 60 22t22 60v52q0 38 -22 60t-60 22h-41 q-38 0 -59.5 -22t-21.5 -60zM369 1382v52q0 85 56 139.5t148 54.5h41q92 0 148.5 -54.5t56.5 -139.5v-52q0 -85 -56.5 -139.5t-148.5 -54.5h-41q-92 0 -148 54.5t-56 139.5z" />
<glyph unicode="&#xe6;" horiz-adv-x="1802" d="M1628 451h-645v-154q0 -69 42.5 -111.5t111.5 -42.5h194q69 0 111.5 42.5t42.5 111.5v10q0 31 31 31h112q31 0 31 -31v-10q0 -154 -83.5 -235.5t-244.5 -81.5h-194q-36 0 -68.5 6.5t-56.5 17.5t-44.5 24t-34 26t-23 24t-14.5 18l-5 6h-10q-3 -5 -9 -13t-30 -29t-54 -37.5 t-82 -29.5t-112 -13h-164q-307 0 -307 296v41q0 297 307 297h379v134q0 69 -42.5 111t-111.5 42h-143q-69 0 -111.5 -42t-42.5 -111q0 -31 -30 -31h-113q-31 0 -31 31q0 154 83.5 235.5t244.5 81.5h143q49 0 92 -12.5t70 -30.5t47 -36.5t28 -31.5l9 -12h10q3 5 8.5 13.5 t26.5 29.5t45 37t63.5 29.5t82.5 13.5h194q161 0 244.5 -81.5t83.5 -235.5v-267q0 -30 -31 -30zM297 317v-41q0 -62 35.5 -97.5t97.5 -35.5h164q92 0 153.5 61.5t61.5 153.5v93h-379q-61 0 -97 -36t-36 -98zM983 614h502v134q0 69 -42.5 111t-111.5 42h-194 q-69 0 -111.5 -42t-42.5 -111v-134z" />
<glyph unicode="&#xe7;" horiz-adv-x="1157" d="M481 -410h154q31 0 51.5 20.5t20.5 51.5v21q0 31 -20.5 51t-51.5 20h-133q-31 0 -31 31v72q0 18 5.5 33.5t10.5 21.5l5 6l40 62h-61q-161 0 -244.5 81.5t-83.5 235.5v451q0 154 83.5 235.5t244.5 81.5h236q161 0 244 -81.5t83 -235.5v-52q0 -30 -30 -30h-113 q-31 0 -31 30v52q0 69 -42 111t-111 42h-236q-69 0 -111.5 -42t-42.5 -111v-451q0 -69 42.5 -111.5t111.5 -42.5h236q69 0 111 42.5t42 111.5v51q0 31 31 31h113q30 0 30 -31v-51q0 -154 -83 -235.5t-244 -81.5h-62l-61 -103h51q85 0 139.5 -54.5t54.5 -139.5v-21 q0 -85 -54.5 -139.5t-139.5 -54.5h-154q-30 0 -30 30v62q0 30 30 30z" />
<glyph unicode="&#xe8;" horiz-adv-x="1187" d="M317 614h553v134q0 69 -42 111t-111 42h-246q-69 0 -111.5 -42t-42.5 -111v-134zM1014 451h-697v-154q0 -69 42.5 -111.5t111.5 -42.5h246q69 0 111 42.5t42 111.5v10q0 31 31 31h113q30 0 30 -31v-10q0 -154 -83 -235.5t-244 -81.5h-246q-161 0 -244.5 81.5t-83.5 235.5 v451q0 154 83.5 235.5t244.5 81.5h246q161 0 244 -81.5t83 -235.5v-267q0 -30 -30 -30zM528 1239l-184 277q-8 14 -1.5 22t22.5 8h143q26 0 41 -30l123 -277q12 -31 -21 -31h-82q-14 0 -22.5 7t-18.5 24z" />
<glyph unicode="&#xe9;" horiz-adv-x="1187" d="M317 614h553v134q0 69 -42 111t-111 42h-246q-69 0 -111.5 -42t-42.5 -111v-134zM1014 451h-697v-154q0 -69 42.5 -111.5t111.5 -42.5h246q69 0 111 42.5t42 111.5v10q0 31 31 31h113q30 0 30 -31v-10q0 -154 -83 -235.5t-244 -81.5h-246q-161 0 -244.5 81.5t-83.5 235.5 v451q0 154 83.5 235.5t244.5 81.5h246q161 0 244 -81.5t83 -235.5v-267q0 -30 -30 -30zM854 1516l-184 -277q-10 -17 -18.5 -24t-22.5 -7h-82q-33 0 -21 31l123 277q15 30 41 30h144q16 0 22 -8t-2 -22z" />
<glyph unicode="&#xea;" horiz-adv-x="1187" d="M317 614h553v134q0 69 -42 111t-111 42h-246q-69 0 -111.5 -42t-42.5 -111v-134zM1014 451h-697v-154q0 -69 42.5 -111.5t111.5 -42.5h246q69 0 111 42.5t42 111.5v10q0 31 31 31h113q30 0 30 -31v-10q0 -154 -83 -235.5t-244 -81.5h-246q-161 0 -244.5 81.5t-83.5 235.5 v451q0 154 83.5 235.5t244.5 81.5h246q161 0 244 -81.5t83 -235.5v-267q0 -30 -30 -30zM549 1567h92q26 0 51 -31l226 -297q9 -13 2 -22t-23 -9h-113q-19 0 -41 31l-143 195h-10l-144 -195q-22 -31 -40 -31h-113q-16 0 -23 9t2 22l226 297q25 31 51 31z" />
<glyph unicode="&#xeb;" horiz-adv-x="1187" d="M317 614h553v134q0 69 -42 111t-111 42h-246q-69 0 -111.5 -42t-42.5 -111v-134zM1014 451h-697v-154q0 -69 42.5 -111.5t111.5 -42.5h246q69 0 111 42.5t42 111.5v10q0 31 31 31h113q30 0 30 -31v-10q0 -154 -83 -235.5t-244 -81.5h-246q-161 0 -244.5 81.5t-83.5 235.5 v451q0 154 83.5 235.5t244.5 81.5h246q161 0 244 -81.5t83 -235.5v-267q0 -30 -30 -30zM471 1270h-123q-31 0 -31 30v123q0 31 31 31h123q31 0 31 -31v-123q0 -30 -31 -30zM840 1270h-123q-31 0 -31 30v123q0 31 31 31h123q30 0 30 -31v-123q0 -30 -30 -30z" />
<glyph unicode="&#xec;" horiz-adv-x="501" d="M307 0h-112q-31 0 -31 31v983q0 30 31 30h112q31 0 31 -30v-983q0 -31 -31 -31zM170 1239l-184 277q-8 14 -2 22t22 8h144q25 0 40 -30l123 -277q12 -31 -20 -31h-82q-14 0 -22.5 7t-18.5 24z" />
<glyph unicode="&#xed;" horiz-adv-x="512" d="M307 0h-112q-31 0 -31 31v983q0 30 31 30h112q31 0 31 -30v-983q0 -31 -31 -31zM526 1516l-184 -277q-10 -17 -18.5 -24t-22.5 -7h-82q-32 0 -20 31l123 277q15 30 40 30h144q16 0 22 -8t-2 -22z" />
<glyph unicode="&#xee;" horiz-adv-x="534" d="M328 0h-113q-31 0 -31 31v983q0 30 31 30h113q30 0 30 -30v-983q0 -31 -30 -31zM221 1567h92q27 0 52 -31l225 -297q9 -13 2 -22t-23 -9h-112q-19 0 -41 31l-144 195h-10l-143 -195q-22 -31 -41 -31h-113q-16 0 -23 9t3 22l225 297q25 31 51 31z" />
<glyph unicode="&#xef;" horiz-adv-x="512" d="M317 0h-112q-31 0 -31 31v983q0 30 31 30h112q31 0 31 -30v-983q0 -31 -31 -31zM133 1270h-123q-30 0 -30 30v123q0 31 30 31h123q31 0 31 -31v-123q0 -30 -31 -30zM502 1270h-123q-31 0 -31 30v123q0 31 31 31h123q30 0 30 -31v-123q0 -30 -30 -30z" />
<glyph unicode="&#xf0;" horiz-adv-x="1146" d="M389 1096l41 112l-154 52q-32 10 -20 40l41 103q8 20 41 10l154 -51l40 113q10 33 41 20l103 -31q31 -12 20 -41l-41 -112l93 -31q256 -84 256 -338v-645q0 -154 -83.5 -235.5t-244.5 -81.5h-225q-161 0 -244.5 81.5t-83.5 235.5v225q0 154 83.5 236t244.5 82h378v102 q0 126 -153 184l-82 31l-41 -113q-12 -29 -41 -20l-102 31q-32 8 -21 41zM451 143h225q69 0 111 42.5t42 111.5v379h-378q-69 0 -111.5 -42.5t-42.5 -111.5v-225q0 -69 42.5 -111.5t111.5 -42.5z" />
<glyph unicode="&#xf1;" horiz-adv-x="1218" d="M573 1065h154q161 0 244.5 -81.5t83.5 -235.5v-717q0 -31 -31 -31h-113q-30 0 -30 31v717q0 69 -42.5 111t-111.5 42h-174q-92 0 -153.5 -61.5t-61.5 -153.5v-655q0 -31 -31 -31h-112q-31 0 -31 31v983q0 30 31 30h112q31 0 31 -30v-72h10q2 5 6.5 13.5t22.5 29.5 t41.5 37t64.5 29.5t90 13.5zM737 1208q-49 0 -89.5 25.5t-62.5 56.5t-44.5 56.5t-38.5 25.5q-15 0 -28 -13t-13 -28v-92q0 -31 -31 -31h-72q-30 0 -30 31v123q0 62 41 102.5t102 40.5q40 0 74 -17t56.5 -41t41 -48t34.5 -41t30 -17q15 0 28 13t13 28v93q0 30 30 30h72 q31 0 31 -30v-123q0 -62 -41.5 -103t-102.5 -41z" />
<glyph unicode="&#xf2;" d="M881 297v451q0 69 -42.5 111t-111.5 42h-256q-69 0 -111.5 -42t-42.5 -111v-451q0 -69 42.5 -111.5t111.5 -42.5h256q69 0 111.5 42.5t42.5 111.5zM1055 748v-451q0 -154 -83.5 -235.5t-244.5 -81.5h-256q-161 0 -244.5 81.5t-83.5 235.5v451q0 154 83.5 235.5 t244.5 81.5h256q161 0 244.5 -81.5t83.5 -235.5zM528 1239l-184 277q-8 14 -1.5 22t22.5 8h143q26 0 41 -30l123 -277q12 -31 -21 -31h-82q-14 0 -22.5 7t-18.5 24z" />
<glyph unicode="&#xf3;" d="M881 297v451q0 69 -42.5 111t-111.5 42h-256q-69 0 -111.5 -42t-42.5 -111v-451q0 -69 42.5 -111.5t111.5 -42.5h256q69 0 111.5 42.5t42.5 111.5zM1055 748v-451q0 -154 -83.5 -235.5t-244.5 -81.5h-256q-161 0 -244.5 81.5t-83.5 235.5v451q0 154 83.5 235.5 t244.5 81.5h256q161 0 244.5 -81.5t83.5 -235.5zM862 1516l-184 -277q-10 -17 -18.5 -24t-22.5 -7h-82q-32 0 -20 31l122 277q15 30 41 30h144q16 0 22 -8t-2 -22z" />
<glyph unicode="&#xf4;" d="M881 297v451q0 69 -42.5 111t-111.5 42h-256q-69 0 -111.5 -42t-42.5 -111v-451q0 -69 42.5 -111.5t111.5 -42.5h256q69 0 111.5 42.5t42.5 111.5zM1055 748v-451q0 -154 -83.5 -235.5t-244.5 -81.5h-256q-161 0 -244.5 81.5t-83.5 235.5v451q0 154 83.5 235.5 t244.5 81.5h256q161 0 244.5 -81.5t83.5 -235.5zM549 1567h92q26 0 51 -31l226 -297q9 -13 2 -22t-23 -9h-113q-19 0 -41 31l-143 195h-10l-144 -195q-22 -31 -40 -31h-113q-16 0 -23 9t2 22l226 297q25 31 51 31z" />
<glyph unicode="&#xf5;" d="M881 297v451q0 69 -42.5 111t-111.5 42h-256q-69 0 -111.5 -42t-42.5 -111v-451q0 -69 42.5 -111.5t111.5 -42.5h256q69 0 111.5 42.5t42.5 111.5zM1055 748v-451q0 -154 -83.5 -235.5t-244.5 -81.5h-256q-161 0 -244.5 81.5t-83.5 235.5v451q0 154 83.5 235.5 t244.5 81.5h256q161 0 244.5 -81.5t83.5 -235.5zM737 1208q-49 0 -89.5 25.5t-62.5 56.5t-44.5 56.5t-38.5 25.5q-15 0 -28 -13t-13 -28v-92q0 -31 -31 -31h-72q-30 0 -30 31v123q0 62 41 102.5t102 40.5q40 0 74 -17t56.5 -41t41 -48t34.5 -41t30 -17q15 0 28 13t13 28v93 q0 30 30 30h72q31 0 31 -30v-123q0 -62 -41.5 -103t-102.5 -41z" />
<glyph unicode="&#xf6;" d="M881 297v451q0 69 -42.5 111t-111.5 42h-256q-69 0 -111.5 -42t-42.5 -111v-451q0 -69 42.5 -111.5t111.5 -42.5h256q69 0 111.5 42.5t42.5 111.5zM1055 748v-451q0 -154 -83.5 -235.5t-244.5 -81.5h-256q-161 0 -244.5 81.5t-83.5 235.5v451q0 154 83.5 235.5 t244.5 81.5h256q161 0 244.5 -81.5t83.5 -235.5zM481 1290h-123q-30 0 -30 31v123q0 31 30 31h123q31 0 31 -31v-123q0 -31 -31 -31zM850 1290h-123q-31 0 -31 31v123q0 31 31 31h123q31 0 31 -31v-123q0 -31 -31 -31z" />
<glyph unicode="&#xf7;" horiz-adv-x="880" d="M819 696v-123q0 -30 -31 -30h-696q-31 0 -31 30v123q0 31 31 31h696q31 0 31 -31zM502 143h-123q-31 0 -31 31v123q0 31 31 31h123q30 0 30 -31v-123q0 -31 -30 -31zM502 942h-123q-31 0 -31 31v123q0 30 31 30h123q30 0 30 -30v-123q0 -31 -30 -31z" />
<glyph unicode="&#xf8;" d="M1055 748v-451q0 -154 -83.5 -235.5t-244.5 -81.5h-256q-161 0 -244.5 81.5t-83.5 235.5v451q0 154 83.5 235.5t244.5 81.5h256q161 0 244.5 -81.5t83.5 -235.5zM881 297v451q0 14 -2.5 26.5t-5.5 18.5l-3 6l-471 -645q31 -11 72 -11h256q69 0 111.5 42.5t42.5 111.5z M317 297q0 -14 2.5 -26.5t5.5 -18.5l3 -6l471 645q-31 10 -72 10h-256q-69 0 -111.5 -42t-42.5 -111v-451z" />
<glyph unicode="&#xf9;" horiz-adv-x="1218" d="M645 -20h-153q-161 0 -244.5 81.5t-83.5 235.5v717q0 30 31 30h112q31 0 31 -30v-717q0 -69 42.5 -111.5t111.5 -42.5h174q92 0 153.5 61.5t61.5 153.5v656q0 30 30 30h113q31 0 31 -30v-983q0 -31 -31 -31h-113q-30 0 -30 31v71h-11q-2 -5 -6.5 -13t-22.5 -29 t-41.5 -37.5t-64.5 -29.5t-90 -13zM549 1219l-184 276q-8 13 -2 22t22 9h143q26 0 41 -31l123 -276q12 -31 -20 -31h-82q-14 0 -22.5 7t-18.5 24z" />
<glyph unicode="&#xfa;" horiz-adv-x="1218" d="M645 -20h-153q-161 0 -244.5 81.5t-83.5 235.5v717q0 30 31 30h112q31 0 31 -30v-717q0 -69 42.5 -111.5t111.5 -42.5h174q92 0 153.5 61.5t61.5 153.5v656q0 30 30 30h113q31 0 31 -30v-983q0 -31 -31 -31h-113q-30 0 -30 31v71h-11q-2 -5 -6.5 -13t-22.5 -29 t-41.5 -37.5t-64.5 -29.5t-90 -13zM862 1495l-184 -276q-10 -17 -18.5 -24t-22.5 -7h-82q-32 0 -20 31l122 276q15 31 41 31h144q16 0 22 -9t-2 -22z" />
<glyph unicode="&#xfb;" horiz-adv-x="1218" d="M645 -20h-153q-161 0 -244.5 81.5t-83.5 235.5v717q0 30 31 30h112q31 0 31 -30v-717q0 -69 42.5 -111.5t111.5 -42.5h174q92 0 153.5 61.5t61.5 153.5v656q0 30 30 30h113q31 0 31 -30v-983q0 -31 -31 -31h-113q-30 0 -30 31v71h-11q-2 -5 -6.5 -13t-22.5 -29 t-41.5 -37.5t-64.5 -29.5t-90 -13zM567 1546h92q28 0 52 -30l225 -297q9 -13 2 -22t-23 -9h-112q-19 0 -41 31l-144 194h-10l-143 -194q-22 -31 -41 -31h-113q-16 0 -23 9t3 22l225 297q24 30 51 30z" />
<glyph unicode="&#xfc;" horiz-adv-x="1218" d="M645 -20h-153q-161 0 -244.5 81.5t-83.5 235.5v717q0 30 31 30h112q31 0 31 -30v-717q0 -69 42.5 -111.5t111.5 -42.5h174q92 0 153.5 61.5t61.5 153.5v656q0 30 30 30h113q31 0 31 -30v-983q0 -31 -31 -31h-113q-30 0 -30 31v71h-11q-2 -5 -6.5 -13t-22.5 -29 t-41.5 -37.5t-64.5 -29.5t-90 -13zM492 1249h-123q-31 0 -31 31v123q0 31 31 31h123q30 0 30 -31v-123q0 -31 -30 -31zM860 1249h-123q-30 0 -30 31v123q0 31 30 31h123q31 0 31 -31v-123q0 -31 -31 -31z" />
<glyph unicode="&#xfd;" horiz-adv-x="1042" d="M526 246l287 768q12 30 51 30h123q33 0 21 -30l-400 -1014q-85 -216 -173.5 -302.5t-225.5 -86.5h-41q-31 0 -31 31v102q0 31 31 31h41q77 0 128 51t97 174l-399 1014q-12 30 20 30h123q39 0 51 -30l287 -768h10zM791 1516l-185 -277q-10 -17 -18.5 -24t-22.5 -7h-82 q-32 0 -20 31l123 277q15 30 41 30h143q16 0 22.5 -8t-1.5 -22z" />
<glyph unicode="&#xfe;" horiz-adv-x="1187" d="M164 -358v1761q0 31 31 31h112q31 0 31 -31v-359h379q161 0 244 -81.5t83 -235.5v-410q0 -154 -83 -235.5t-244 -81.5h-379v-358q0 -31 -31 -31h-112q-31 0 -31 31zM338 164h379q69 0 111 42t42 111v410q0 69 -42 111.5t-111 42.5h-379v-717z" />
<glyph unicode="&#xff;" horiz-adv-x="1042" d="M526 246l287 768q12 30 51 30h123q33 0 21 -30l-400 -1014q-85 -216 -173.5 -302.5t-225.5 -86.5h-41q-31 0 -31 31v102q0 31 31 31h41q77 0 128 51t97 174l-399 1014q-12 30 20 30h123q39 0 51 -30l287 -768h10zM389 1290h-123q-30 0 -30 31v123q0 31 30 31h123 q31 0 31 -31v-123q0 -31 -31 -31zM758 1290h-123q-31 0 -31 31v123q0 31 31 31h123q30 0 30 -31v-123q0 -31 -30 -31z" />
<glyph unicode="&#x152;" horiz-adv-x="2191" d="M1280 184h799q30 0 30 -30v-123q0 -31 -28 -31h-1528q-369 0 -369 358v717q0 359 369 359h1505q31 0 31 -31v-123q0 -31 -29 -31h-780v-430h594q31 0 31 -31v-122q0 -31 -29 -31h-596v-451zM379 358q0 -85 44.5 -129.5t129.5 -44.5h532v1065h-532q-85 0 -129.5 -44.5 t-44.5 -129.5v-717z" />
<glyph unicode="&#x153;" horiz-adv-x="1822" d="M829 297v451q0 69 -42 111t-111 42h-205q-69 0 -111.5 -42t-42.5 -111v-451q0 -69 42.5 -111.5t111.5 -42.5h205q69 0 111 42.5t42 111.5zM1004 614h501v134q0 69 -42 111t-111 42h-195q-69 0 -111 -42t-42 -111v-134zM676 -20h-205q-161 0 -244.5 81.5t-83.5 235.5v451 q0 154 83.5 235.5t244.5 81.5h205q49 0 92 -12.5t70 -30.5t47 -36.5t29 -31.5l8 -12h10q3 5 8.5 13.5t26 29.5t44.5 37t63.5 29.5t82.5 13.5h195q161 0 244 -81.5t83 -235.5v-267q0 -30 -30 -30h-645v-154q0 -69 42 -111.5t111 -42.5h195q69 0 111 42.5t42 111.5v10 q0 31 31 31h113q30 0 30 -31v-10q0 -154 -83 -235.5t-244 -81.5h-195q-43 0 -82 12.5t-64 30.5t-44 36t-27 31l-8 12h-10q-3 -5 -9 -13t-28 -29t-48 -37.5t-69.5 -29.5t-91.5 -13z" />
<glyph unicode="&#x178;" horiz-adv-x="1318" d="M250 1403l409 -696l410 696q10 17 20 24t31 7h154q15 0 21 -9t-1 -22l-542 -901v-473q0 -29 -31 -29h-123q-31 0 -31 29v473l-542 901q-7 13 -1 22t21 9h154q21 0 31 -7t20 -24zM532 1659h-122q-31 0 -31 31v122q0 31 31 31h122q31 0 31 -31v-122q0 -31 -31 -31z M901 1659h-123q-30 0 -30 31v122q0 31 30 31h123q31 0 31 -31v-122q0 -31 -31 -31z" />
<glyph unicode="&#x2c6;" horiz-adv-x="780" d="M344 1434h92q26 0 51 -31l226 -297q9 -14 2 -22.5t-23 -8.5h-112q-19 0 -41 31l-144 194h-10l-143 -194q-22 -31 -41 -31h-113q-16 0 -23 8.5t3 22.5l225 297q25 31 51 31z" />
<glyph unicode="&#x2dc;" horiz-adv-x="675" d="M471 1137q-49 0 -89.5 25.5t-62.5 56t-44.5 56t-38.5 25.5q-15 0 -28 -12.5t-13 -27.5v-93q0 -30 -31 -30h-72q-31 0 -31 30v123q0 62 41.5 103t102.5 41q49 0 89.5 -25.5t62.5 -56.5t44.5 -56.5t38.5 -25.5q15 0 28 13t13 28v92q0 31 31 31h72q30 0 30 -31v-123 q0 -62 -41 -102.5t-102 -40.5z" />
<glyph unicode="&#x2000;" horiz-adv-x="1008" />
<glyph unicode="&#x2001;" horiz-adv-x="2017" />
<glyph unicode="&#x2002;" horiz-adv-x="1008" />
<glyph unicode="&#x2003;" horiz-adv-x="2017" />
<glyph unicode="&#x2004;" horiz-adv-x="672" />
<glyph unicode="&#x2005;" horiz-adv-x="504" />
<glyph unicode="&#x2006;" horiz-adv-x="336" />
<glyph unicode="&#x2007;" horiz-adv-x="336" />
<glyph unicode="&#x2008;" horiz-adv-x="252" />
<glyph unicode="&#x2009;" horiz-adv-x="403" />
<glyph unicode="&#x200a;" horiz-adv-x="112" />
<glyph unicode="&#x2010;" horiz-adv-x="890" d="M829 696v-123q0 -30 -30 -30h-707q-31 0 -31 30v123q0 31 31 31h707q30 0 30 -31z" />
<glyph unicode="&#x2011;" horiz-adv-x="890" d="M829 696v-123q0 -30 -30 -30h-707q-31 0 -31 30v123q0 31 31 31h707q30 0 30 -31z" />
<glyph unicode="&#x2012;" horiz-adv-x="890" d="M829 696v-123q0 -30 -30 -30h-707q-31 0 -31 30v123q0 31 31 31h707q30 0 30 -31z" />
<glyph unicode="&#x2013;" horiz-adv-x="1208" d="M1147 686v-123q0 -31 -31 -31h-1024q-31 0 -31 31v123q0 31 31 31h1024q31 0 31 -31z" />
<glyph unicode="&#x2014;" horiz-adv-x="1597" d="M61 563v123q0 31 31 31h1413q31 0 31 -31v-123q0 -31 -31 -31h-1413q-31 0 -31 31z" />
<glyph unicode="&#x2018;" horiz-adv-x="339" d="M82 1075v113q0 14 5 29t10 23l5 9l82 164q13 21 31 21h51q7 0 10 -7t0 -14l-92 -184h52q30 0 30 -31v-123q0 -31 -30 -31h-123q-31 0 -31 31z" />
<glyph unicode="&#x2019;" horiz-adv-x="339" d="M258 1403v-113q0 -14 -5 -29t-10 -23l-5 -9l-82 -164q-13 -21 -31 -21h-51q-7 0 -10.5 6.5t-0.5 14.5l93 184h-52q-30 0 -30 31v123q0 31 30 31h123q31 0 31 -31z" />
<glyph unicode="&#x201a;" horiz-adv-x="339" d="M258 154v-113q0 -14 -5 -29t-10 -24l-5 -8l-82 -164q-13 -21 -31 -21h-51q-7 0 -10.5 6.5t-0.5 14.5l93 184h-52q-30 0 -30 31v123q0 30 30 30h123q31 0 31 -30z" />
<glyph unicode="&#x201c;" horiz-adv-x="647" d="M389 1075v113q0 14 5.5 29t10.5 23l5 9l82 164q13 21 30 21h51q7 0 10.5 -6.5t0.5 -14.5l-92 -184h51q30 0 30 -31v-123q0 -31 -30 -31h-123q-31 0 -31 31zM82 1075v113q0 14 5 29t10 23l5 9l82 164q13 21 31 21h51q7 0 10 -7t0 -14l-92 -184h52q30 0 30 -31v-123 q0 -31 -30 -31h-123q-31 0 -31 31z" />
<glyph unicode="&#x201d;" horiz-adv-x="647" d="M258 1403v-113q0 -14 -5 -29t-10 -23l-5 -9l-82 -164q-13 -21 -31 -21h-51q-7 0 -10.5 6.5t-0.5 14.5l93 184h-52q-30 0 -30 31v123q0 31 30 31h123q31 0 31 -31zM565 1403v-113q0 -14 -5 -29t-10 -23l-5 -9l-82 -164q-13 -21 -31 -21h-51q-7 0 -10 7t0 14l92 184h-51 q-31 0 -31 31v123q0 31 31 31h123q30 0 30 -31z" />
<glyph unicode="&#x201e;" horiz-adv-x="647" d="M258 154v-113q0 -14 -5 -29t-10 -24l-5 -8l-82 -164q-13 -21 -31 -21h-51q-7 0 -10.5 6.5t-0.5 14.5l93 184h-52q-30 0 -30 31v123q0 30 30 30h123q31 0 31 -30zM565 154v-113q0 -14 -5 -29t-10 -24l-5 -8l-82 -164q-13 -21 -31 -21h-51q-7 0 -10 6.5t0 14.5l92 184h-51 q-31 0 -31 31v123q0 30 31 30h123q30 0 30 -30z" />
<glyph unicode="&#x2022;" horiz-adv-x="716" d="M328 788h61q54 0 88.5 -34t34.5 -88v-52q0 -54 -34.5 -88t-88.5 -34h-61q-54 0 -88.5 34t-34.5 88v52q0 54 34.5 88t88.5 34z" />
<glyph unicode="&#x2026;" horiz-adv-x="1167" d="M1055 0h-123q-31 0 -31 31v123q0 30 31 30h123q30 0 30 -30v-123q0 -31 -30 -31zM645 0h-123q-30 0 -30 31v123q0 30 30 30h123q31 0 31 -30v-123q0 -31 -31 -31zM236 0h-123q-31 0 -31 31v123q0 30 31 30h123q30 0 30 -30v-123q0 -31 -30 -31z" />
<glyph unicode="&#x202f;" horiz-adv-x="403" />
<glyph unicode="&#x2039;" horiz-adv-x="641" d="M553 952l-277 -430l277 -430q8 -15 1.5 -23t-22.5 -8h-122q-15 0 -25 4.5t-14.5 10t-12.5 16.5l-276 430l276 430q8 11 12.5 16.5t14.5 10t25 4.5h122q16 0 22.5 -8t-1.5 -23z" />
<glyph unicode="&#x203a;" horiz-adv-x="641" d="M365 522l-277 430q-8 15 -1.5 23t22.5 8h122q22 0 32 -7t20 -24l276 -430l-276 -430q-10 -17 -20 -24t-32 -7h-122q-16 0 -22.5 8t1.5 23z" />
<glyph unicode="&#x205f;" horiz-adv-x="504" />
<glyph unicode="&#x20ac;" horiz-adv-x="1587" d="M963 625v-93q0 -30 -31 -30h-502v-164q0 -85 44.5 -129.5t129.5 -44.5h471q85 0 129.5 44.5t44.5 129.5v82q0 31 31 31h133q31 0 31 -31v-82q0 -358 -369 -358h-471q-368 0 -368 358v164h-103q-31 0 -31 30v93q0 30 31 30h103v123h-103q-31 0 -31 31v92q0 31 31 31h103 v164q0 358 368 358h471q369 0 369 -358v-82q0 -31 -31 -31h-133q-31 0 -31 31v82q0 85 -44.5 129.5t-129.5 44.5h-471q-85 0 -129.5 -44.5t-44.5 -129.5v-164h502q31 0 31 -31v-92q0 -31 -31 -31h-502v-123h502q31 0 31 -30z" />
<glyph unicode="&#x2122;" horiz-adv-x="1587" d="M236 1290h-195q-7 0 -14 7t-7 14v102q0 7 7 14t14 7h543q7 0 13.5 -6.5t6.5 -14.5v-102q0 -8 -6.5 -14.5t-13.5 -6.5h-195v-512q0 -8 -6.5 -14t-13.5 -6h-113q-8 0 -14 6t-6 14v512zM1081 942h9l200 471q8 21 41 21h133q8 0 14.5 -7t6.5 -14v-635q0 -7 -6.5 -13.5 t-14.5 -6.5h-112q-8 0 -14.5 6.5t-6.5 13.5v389h-8l-166 -389q-8 -20 -41 -20h-61q-33 0 -41 20l-166 389h-8v-389q0 -7 -6.5 -13.5t-14.5 -6.5h-112q-8 0 -14.5 6.5t-6.5 13.5v635q0 7 7 14t14 7h133q33 0 41 -21z" />
<glyph unicode="&#x25fc;" horiz-adv-x="1044" d="M0 1044h1044v-1044h-1044v1044z" />
</font>
</defs>
</svg>
