<svg id="Layer_1" data-name="Layer 1" xmlns="http://www.w3.org/2000/svg" viewBox="0 0 1002 193.9"><defs><style>.cls-1{fill:#485567;}.cls-2{fill:#0ac0bb;}</style></defs><title>code-gov</title><path class="cls-1" d="M73,113.49q0-5.11,5.19-5.11H90.61q5.19,0,5.19,5.15v4.12q0,33-33.21,33h-28q-33.21,0-33.21-32.9V74.53q0-32.9,33.21-32.9h28q33.21,0,33.21,32.95V78.7q0,5.15-5.19,5.15H78.16Q73,83.85,73,78.74V75.67q0-6.13-3.63-9.71t-9.86-3.58H37.68q-6.23,0-9.86,3.58t-3.63,9.71v40.88q0,6.13,3.63,9.71t9.86,3.58H59.48q6.23,0,9.86-3.58T73,116.56Z"/><path class="cls-1" d="M120.71,74.53q0-32.9,33.21-32.9H184q33.21,0,33.21,32.9v43.18q0,32.89-33.21,32.9h-30.1q-33.21,0-33.21-32.9Zm22.83,42q0,6.13,3.63,9.71t9.86,3.58H180.9q6.23,0,9.86-3.58t3.63-9.71V75.68q0-6.13-3.63-9.71t-9.86-3.58H157q-6.23,0-9.86,3.58t-3.63,9.71Z"/><path class="cls-1" d="M315.81,42.67V9.33q0-5.05,5.19-5.05h12.45q5.19,0,5.19,5.19V144.38q0,5.19-5.19,5.19H321q-5.19,0-5.19-5.43V138.7h-1a19.33,19.33,0,0,1-4.57,6,28.11,28.11,0,0,1-6.43,4.07A22.58,22.58,0,0,1,294,150.6H277.41q-33.21,0-33.21-33.21V75.88q0-33.2,33.21-33.21Zm0,20.76H280.52q-6.23,0-9.86,3.63T267,76.92v39.44q0,6.23,3.63,9.86t9.86,3.63h17.64q7.88,0,12.77-4.88t4.88-12.77Z"/><path class="cls-1" d="M439.3,118.43q0-5.19,5.19-5.19h12.45q5.19,0,5.19,5.19,0,15.57-8.41,23.87t-24.8,8.3h-28q-33.21,0-33.21-32.9V74.53q0-32.9,33.21-32.9h28q33.21,0,33.21,32.66V98.8q0,5.11-5.19,5.11H390.53v12.45q0,6.23,3.63,9.86t9.86,3.63h23.87Q439.3,129.85,439.3,118.43ZM390.53,84.19H439.3V75.27q0-5.95-3.63-9.41t-9.86-3.47H404q-6.23,0-9.86,3.47t-3.63,9.41Z"/><path class="cls-2" d="M507.8,144.38q0,5.19-5.19,5.19H489.12q-5.19,0-5.19-5.19V130.89q0-5.19,5.19-5.19h13.49q5.19,0,5.19,5.19Z"/><path class="cls-1" d="M554.5,155.79q0,6.23,3.63,9.86t9.86,3.63h19.72q6.23,0,9.86-3.63t3.63-9.86V140.23H562.8q-33.21,0-33.21-32.86V74.5q0-32.86,33.21-32.86H579.4a21.72,21.72,0,0,1,9.76,2,28.21,28.21,0,0,1,6.43,4.26,20.2,20.2,0,0,1,4.57,6.22h1V48.9q0-5.19,5.19-5.19h12.45q5.19,0,5.19,5.16v108.2q0,33-33.21,33H564.87q-33.21,0-33.21-33.21v-2.08q0-5.19,5.19-5.19h12.45q5.19,0,5.19,5.19Zm46.7-76.07q0-7.75-4.88-12.54t-12.77-4.79H565.91q-6.23,0-9.86,3.57t-3.63,9.68v30.58q0,6.12,3.63,9.68t9.86,3.57H601.2Z"/><path class="cls-1" d="M652,74.53q0-32.9,33.21-32.9h30.1q33.21,0,33.21,32.9v43.18q0,32.89-33.21,32.9h-30.1q-33.21,0-33.21-32.9Zm22.83,42q0,6.13,3.63,9.71t9.86,3.58h23.87q6.23,0,9.86-3.58t3.63-9.71V75.68q0-6.13-3.63-9.71t-9.86-3.58H688.37q-6.23,0-9.86,3.58t-3.63,9.71Z"/><path class="cls-1" d="M807.3,149.57q-4.16,0-6.23-5.19L762.68,48.9q-2.08-5.19,3.11-5.19h16.61q4.15,0,6.23,5.19l24.91,65.38h1L839.47,48.9q2.07-5.19,6.23-5.19H862.3q5.19,0,3.11,5.19L827,144.38q-2.08,5.19-6.23,5.19Z"/><rect class="cls-2" x="874.14" y="125.41" width="127.23" height="24.13" rx="3" ry="3"/></svg>