<?xml version="1.0" encoding="utf-8"?>
<!DOCTYPE svg PUBLIC "-//W3C//DTD SVG 1.1//EN" "http://www.w3.org/Graphics/SVG/1.1/DTD/svg11.dtd">
<svg version="1.1" xmlns="http://www.w3.org/2000/svg" width="360" height="359" viewBox="-0.469 -0.067 360 359">
<circle fill="#FFFFFF" cx="178.755" cy="179.102" r="176.553"/>
<path fill="#003865" d="M293.496,194.116l-8.784,2.705l1.987,0.811l-3.076,1.948c0.327-1.792,0.645-3.589,0.894-5.405l4.814-4.023
	l0.112,2.119l5.42-7.407l-8.35,3.833l2.056,0.537l-3.838,3.213c0.273-2.217,0.464-4.448,0.61-6.694l4.741-5.249l0.4,2.09
	l4.38-8.066l-7.778,4.912l2.139,0.239l-3.784,4.077c0.034-1.411,0.078-2.808,0.078-4.219c0-10.581-1.558-20.796-4.443-30.449
	c-4.8,0.444-9.614-1.089-11.924-1.533c6.147,3.604,8.276,7.5,9.189,11.978c-4.917,1.099-11.494-0.513-15.098-3.33
	c3.525,3.076,5.747,7.92,5.903,12.915c-5.073,0.254-9.756-2.119-13.198-5.576c2.207,2.466,5,8.701,4.346,13.14
	c-4.243-0.454-9.214-3.232-11.934-6.543c2.251,4.961,3.32,8.984,3.047,13.428c-4.204-0.796-7.397-1.987-11.167-5.591
	c1.816,4.531,2.485,9.092,2.075,12.832c-4.858-1.719-8.091-3.667-10.83-8.242c1.46,4.043,2.407,9.341,1.401,12.441
	c-4.116-1.235-6.841-3.716-8.975-7.92c2.114,4.463,1.846,9.648,1.143,12.334c-1.729-0.337-3.984-1.533-5.161-2.856
	c-0.073,0.815-0.132,1.597-0.166,2.358c-0.22,3.018-0.811,5.845-1.797,8.438c0.342,0.371,1.157,1.323,1.182,1.362
	c2.163,2.324,5.127,4.536,7.461,5.278c-1.011,0.146-2.393,1.011-3.784,1.172c1.543,1.748,4.688,2.139,6.631,4.126
	c-1.509,0.181-1.865,1.274-3.706,1.069c3.506,2.71,6.719,2.798,8.511,3.013c0.728,0.078,3.086,0.303,4.58,0.068
	c2.114-0.322,4.292,0.728,5.137,1.216c1.299,0.762,1.23,2.549,0.972,3.457c-0.156,0.537-0.386,1.182-1.362,1.685
	c-0.557,0.166-0.923,0.215-0.356-0.205c0.508-0.371,0.972-2.637-0.2-3.525c-0.859-0.625-2.07-1.143-3.496-1.069
	c-1.582,0.073-3.999,0.205-5.171,0.098c-1.069-0.122-1.743,1.289-1.895,1.885c-0.381,1.411-0.82,3.154-2.856,2.29
	c-2.505-1.436-6.064-1.313-10.156-2.969c0.576,1.255,0.332,2.349,0.957,3.755c-3.647-0.898-4.57-2.754-8.047-3.975
	c0.581,1.265,0.41,2.256,1.196,3.447c-2.925-0.508-5.654-3.145-9.722-4.229c-0.132,0.039-0.244,0.093-0.366,0.117
	c-1.479,0.444-2.842,0.864-4.077,1.26c2.881,3.262,5.264,7.266,6.377,12.109c0,0-2.031,0.059-5.034-0.986
	c0.859,2.646,1.387,5.483,1.436,8.521c0,0-2.28-0.42-5.41-2.363c0.288,2.876,0.186,5.869-0.415,8.94c0,0-2.637-1.089-5.752-4.253
	c-0.361,2.969-1.099,5.962-2.373,8.95c0,0-2.417-1.636-4.883-5.449c-1.016,2.974-2.446,5.894-4.404,8.682
	c0,0-2.627-2.764-4.409-8.33c-2.373,3.569-4.634,5.098-4.634,5.098c-1.274-2.988-2.021-5.981-2.383-8.965
	c-3.11,3.179-5.747,4.268-5.747,4.268c-0.61-3.071-0.708-6.064-0.43-8.94c-3.12,1.943-5.42,2.363-5.42,2.363
	c0.054-3.037,0.581-5.874,1.46-8.521c-3.022,1.045-5.049,0.986-5.049,0.986c1.147-4.941,4.385-10.024,6.563-12.305
	c-1.069-0.342-2.212-0.684-3.457-1.064c-0.117-0.024-0.229-0.078-0.371-0.117c-4.063,1.084-6.782,3.721-9.722,4.229
	c0.776-1.191,0.625-2.183,1.196-3.447c-3.462,1.221-4.399,3.076-8.027,3.975c0.605-1.406,0.361-2.5,0.957-3.755
	c-3.384,1.655-8.008,2.803-10.054,3.242c-2.271,0.469-2.402-2.905-3.145-3.652c-0.317-0.322-2.144-0.454-2.905-0.337
	c-1.128,0.19-3.311,0.093-4.941,0.063c-1.641-0.034-2.769,0.449-3.613,1.104c-1.206,0.869-0.635,3.228-0.117,3.613
	c0.562,0.405,0.215,0.352-0.347,0.2c-0.967-0.498-1.216-1.152-1.372-1.689c-0.239-0.889-0.332-2.686,0.986-3.428
	c0.83-0.513,3.022-1.558,5.142-1.23c1.484,0.229,3.838,0,4.551-0.083c0.718-0.083,6.006-1.035,9.497-3.745
	c-1.831,0.205-2.188-0.889-3.711-1.069c1.963-1.987,5.103-2.378,6.641-4.126c-1.377-0.161-2.598-1.265-3.608-1.421
	c3.081-1.709,5.122-2.705,7.295-5.029c0.024-0.039,0.835-0.952,1.157-1.328c-0.981-2.593-1.587-5.454-1.797-8.472
	c-0.049-0.737-0.098-1.494-0.151-2.271c-0.752,0.835-2.305,1.675-4.824,2.583c-1.177-2.861-0.615-8.198,0.889-12.334
	c-2.153,4.209-4.57,6.948-8.696,8.179c-1.006-3.086-0.4-8.472,1.04-12.515c-2.734,4.575-5.659,6.899-10.532,8.618
	c-0.41-3.735-0.02-8.677,1.782-13.208c-3.76,3.604-6.958,4.795-11.172,5.591c-0.259-4.443,0.815-8.467,3.047-13.428
	c-2.695,3.311-8.306,5.576-12.549,6.03c0.327-3.853,3.027-9.121,4.6-12.207c-3.989,2.861-8.237,4.912-12.832,5.156
	c0.576-4.37,2.529-9.097,5.898-12.915c-3.96,2.935-10,4.517-14.551,3.896c1.099-4.795,4.053-9.468,8.032-11.978
	c-2.31,0.459-6.494,1.411-11.313,0.967c-2.837,9.502-4.39,19.556-4.429,29.961c-2.407-1.89-4.087-2.368-5.732-3.999
	c0.303,2.256,0.601,3.486,0.845,6.27c0.444,5.02,2.354,7.891,5.503,9.692c0.142,1.426,0.327,2.837,0.537,4.253
	c-2.329-1.489-5.459-2.417-9.58-2.368c2.505,8.169,6.094,8.779,10.898,9.546c0.166,0.752,0.347,1.494,0.522,2.236
	c-2.559-0.669-5.64-0.679-9.136,0.288c2.417,3.755,5.771,6.016,11.123,6.821c0.01,0.034,0.024,0.059,0.044,0.093
	c-3.296-0.264-6.86,0.225-9.712,1.67c4.063,3.496,8.057,4.829,11.86,4.424c0.195,0.508,0.391,1.006,0.596,1.504
	c-3.008,0.796-5.664,2.354-7.148,3.809c3.169,1.001,6.421,1.533,9.36,1.23c0.02,0.073,0.063,0.142,0.088,0.215
	c-1.719,1.318-3.213,3.447-4.15,6.772c2.261-0.562,4.58-0.718,6.89-1.377c0.459,0.864,0.933,1.704,1.426,2.539
	c-1.221,2.319-1.646,5.229-0.933,8.462c1.943-0.459,3.54-1.211,4.868-2.183c0.454,0.674,0.913,1.333,1.392,2.007
	c-0.488,3.701,0.366,7.422,2.563,9.902c1.03-1.157,1.855-2.271,2.515-3.335c19.453,23.306,48.721,38.13,81.445,38.13
	c45.659,0,84.575-28.848,99.541-69.292l4.819-2.09l-0.366,2.109l6.953-6.016l-9.004,1.865l1.895,0.977l-3.706,1.528
	c0.649-1.86,1.26-3.765,1.812-5.669l5.278-2.925l-0.186,2.144l6.387-6.631l-8.794,2.661l1.982,0.83l-4.229,2.319
	c0.566-2.065,1.079-4.17,1.514-6.274l4.019-2.549l-0.171,2.124L293.496,194.116"/>
<path fill="#A6192E" d="M288.423,114.966c-2.012,0.688-4.019,1.24-5.967,1.67c11.172,18.291,17.598,39.78,17.598,62.783
	c0,66.616-54.009,120.62-120.61,120.62c-66.626,0-120.62-54.004-120.62-120.62c0-24.014,7.007-46.382,19.097-65.181
	c-1.914-0.547-3.799-1.279-5.679-2.178c-12.285,19.507-19.399,42.607-19.399,67.358c0,69.907,56.689,126.597,126.602,126.597
	c69.902,0,126.587-56.689,126.587-126.597C306.03,155.879,299.614,133.843,288.423,114.966"/>
<path fill="#A6192E" d="M109.302,81.265c19.771-14.146,43.979-22.48,70.142-22.48c29.204,0,56.001,10.396,76.875,27.681
	c2.349-0.669,4.644-1.279,6.992-1.875c-22.339-19.766-51.704-31.768-83.867-31.768c-28.848,0-55.444,9.653-76.729,25.898
	c1.006,0.366,2.021,0.732,3.052,1.128C106.978,80.317,108.169,80.786,109.302,81.265"/>
<path fill="#999999" d="M179.409,347.725c-92.939,0-168.291-75.366-168.291-168.306c0-92.949,75.352-168.296,168.291-168.296
	c92.949,0,168.301,75.347,168.301,168.296C347.71,272.358,272.358,347.725,179.409,347.725 M179.409,0
	C80.327,0,0,80.337,0,179.419c0,99.087,80.327,179.414,179.409,179.414c99.092,0,179.419-80.327,179.419-179.414
	C358.828,80.337,278.501,0,179.409,0z"/>
<path fill="#003865" d="M136.118,143.452c-2.544-1.309-4.775-2.827-7.178-5.015c-7.695-7.021-9.521-14.39-7.236-22.856
	c1.348-5.059,3.408-7.588,2.705-12.856c-0.405-3.008-2.544-5.439-4.673-7.485c-5.146-4.941-11.25-7.993-20.264-11.04
	c-5.576-1.87-21.768-6.899-28.906-13.364c-1.631,4.756,1.821,11.074,5.952,11.914c-3.652,0.371-6.758,2.271-8.208,4.336
	c2.754,3.188,8.242,6.504,12.773,6.597c-2.09,1.396-4.658,4.37-5.503,6.04c3.921,2.09,10.181,3.843,14.99,3.496
	c-2.026,1.621-3.779,3.682-4.917,5.566c3.242,1.484,9.575,3.628,15.596,4.077c-2.222,1.094-5.386,4.883-7.021,7.217
	c3.389,1.509,10.723,2.422,15.273,2.886c-3.257,1.709-6.665,5.122-8.54,8.213c3.301,1.582,9.507,3.35,14.575,3.179
	c-2.505,2.407-4.15,5.317-5.093,8.13c3.833,0.791,7.861,0.806,12.544,0.176c-2.837,3.599-3.975,8.354-4.37,11.738
	c3.799-0.098,8.843-0.972,12.402-3.101c-0.771,2.905-0.605,6.841,0.654,9.614c1.494-0.342,3.228-0.962,5.117-1.978
	C136.528,153.525,136.284,148.003,136.118,143.452"/>
<path fill="#003865" d="M290.732,79.556c-7.153,6.475-18.584,8.208-30.581,12.173c-9.038,2.974-14.648,4.722-22.739,11.172
	c-2.31,1.841-4.512,4.546-4.263,9.194c0.273,5.161,1.108,7.388,1.255,14.604c0.093,5.151-1.685,9.302-3.853,11.738
	c-2.28,2.593-5.244,4.839-7.91,6.23c-0.151,4.385-0.352,8.804-0.596,13.931c1.88,1.025,4.282,1.973,5.781,2.314
	c1.24-2.773,1.416-6.709,0.64-9.614c3.564,2.129,8.618,3.003,12.412,3.101c-0.405-3.384-1.538-8.14-4.375-11.738
	c4.668,0.63,8.706,0.615,12.544-0.176c-0.957-2.813-2.607-5.723-5.107-8.13c5.083,0.171,11.274-1.597,14.58-3.179
	c-1.875-3.091-5.273-6.504-8.53-8.213c4.546-0.464,12.085-1.348,15.469-2.861c-1.636-2.324-5.02-6.147-7.217-7.241
	c6.016-0.449,12.334-2.593,15.601-4.077c-1.147-1.885-2.905-3.945-4.907-5.566c5.64-0.366,11.05-1.406,14.966-3.496
	c-0.85-1.67-3.403-4.644-5.493-6.04C290.508,90.308,290.708,84.272,290.732,79.556"/>
<path fill="#003865" d="M239.868,92.329c-17.148-11.904-37.983-18.901-60.459-18.901c-20.469,0-39.609,5.825-55.82,15.869
	c4.204,3.271,6.699,6.733,7.319,10.322c0.522,3.14,0.884,6.934-0.928,12.466c-1.924,5.869-2.983,11.899,1.357,18.022
	c4.307,6.099,9.912,8.726,14.546,9.614c6.084-1.064,12.813-1.934,19.531-2.471c0.864-2.847,3.447-5.313,6.055-7.324
	c3.765-2.939,2.939-5.498,2.051-7.49c-0.708-1.563-2.051-2.822-3.994-3.828c-1.694-0.874-7.91-1.533-7.734,2.451
	c-1.021-1.445-1.841-3.389-1.24-5.874c0.83-3.472,6.499-4.346,7.91-4.248c-1.094-0.923-0.42-2.407,2.061-3.101
	c3.018-0.835,5.869-0.962,8.638-0.889c5.679,0.137,6.567,1.533,9.453,4.087c3.472,3.091,8.076,4.165,9.883,2.3
	c-1.304,2.959-5.43,4.531-8.081,4.077c1.294,4.092,1.758,7.646,2.217,11.948c0.215,1.953,0.625,5.234,1.152,7.915
	c7.603,0.63,15.259,1.675,21.919,2.954c2.759-0.801,5.625-2.417,8.179-5.386c2.446-2.813,4.688-6.392,3.76-15.381
	c-0.264-2.534-1.523-9.004-1.348-12.041C226.689,100.508,231.816,96.006,239.868,92.329"/>
<path fill="#003865" d="M169.414,111.265c1.045,0.796,1.66,0.903,2.007,0.82c0.034,0.2,0.396,0.439,0.464,0.522
	c0.225,0.195,0.352,0.381,0.405,0.596c0.474-0.2,1.743-0.718,2.905-1.118c1.162-0.439,2.778-0.903,2.778-0.903
	C172.959,110.117,172.197,111.646,169.414,111.265"/>
<path fill="#003865" d="M319.844,131.958c6.255-2.739,9.082-9.727,6.44-15.752c-2.637-6.03-9.678-8.633-15.928-5.889
	c-6.255,2.734-9.136,9.692-6.494,15.728C306.494,132.065,313.594,134.697,319.844,131.958 M312.388,114.932
	c4.941-2.173,10.601-1.177,12.031,2.095c1.455,3.311-1.646,8.145-6.602,10.308c-4.966,2.178-10.649,1.196-12.1-2.114
	C304.297,121.953,307.393,117.114,312.388,114.932z"/>
<polyline fill="#003865" points="311.104,148.257 308.721,138.823 310.171,138.442 310.845,141.084 330.806,136.021 
	330.122,133.384 331.587,133.018 335.21,147.3 336.182,147.046 336.65,148.926 331.133,150.322 330.669,148.486 333.169,147.852 
	331.338,140.649 323.159,142.729 324.58,148.271 326.934,147.671 327.432,149.531 320.615,151.26 320.107,149.395 
	322.529,148.784 321.123,143.242 311.978,145.566 312.559,147.876 311.104,148.257 		"/>
<path fill="#003865" d="M32.007,122.944l-0.859,2.881l12.881,3.838c3.882,1.162,5.913,3.232,6.416,6.543
	c0.234,1.704,0.103,3.506-0.41,5.283c-1.665,5.542-5.786,8.228-10.518,6.831l-13.828-4.131l-0.786,2.603l-1.445-0.435l2.866-9.58
	l1.431,0.425l-0.757,2.573l12.773,3.813c3.467,1.025,5.22,0.879,6.675-0.591c0.645-0.703,1.191-1.631,1.489-2.661
	c1.235-4.106-0.479-7.222-4.673-8.477l-12.744-3.809l-0.845,2.852l-1.479-0.43l2.378-7.949L32.007,122.944"/>
<path fill="#003865" d="M54.663,128.525c-0.527,1.206-1.919,1.777-3.149,1.279c-1.211-0.513-1.792-1.924-1.279-3.14
	c0.513-1.221,1.929-1.802,3.135-1.294C54.595,125.884,55.166,127.285,54.663,128.525"/>
<path fill="#003865" d="M59.106,118.315l-0.952,1.709l-5.61-3.159l0.967-1.704l2.3,1.299c1.904-0.781,2.905-1.602,3.774-3.13
	c1.079-1.934,0.708-3.984-0.898-4.897c-1.416-0.791-2.9-0.439-6.406,1.406c-3.657,1.963-4.175,2.163-5.566,2.451
	c-1.343,0.264-2.813-0.024-4.189-0.796c-3.433-1.943-4.292-5.742-2.144-9.536c0.688-1.221,1.416-2.085,2.568-2.983l-0.923-0.527
	l0.942-1.675l5.327,2.988l-0.947,1.685l-2.158-1.211c-1.563,0.845-2.349,1.504-2.988,2.661c-0.913,1.616-0.469,3.506,0.986,4.331
	c1.26,0.708,2.427,0.425,6.025-1.499c1.738-0.913,2.803-1.494,3.247-1.689c0.908-0.449,1.948-0.708,3.091-0.767
	c1.304-0.054,2.48,0.254,3.696,0.923c3.555,1.997,4.595,5.991,2.549,9.639c-1.021,1.802-2.129,2.91-3.784,3.867L59.106,118.315"/>
<path fill="#003865" d="M68.486,102.119c0,1.309-1.04,2.349-2.344,2.349s-2.329-1.04-2.329-2.349c0-1.294,1.025-2.334,2.329-2.334
	S68.486,100.825,68.486,102.119"/>
<polyline fill="#003865" points="123.794,56.138 108.657,63.936 107.983,62.588 110.396,61.353 100.962,43.052 98.55,44.292 
	97.866,42.954 110.962,36.211 110.503,35.327 112.207,34.443 114.819,39.487 113.135,40.352 111.958,38.071 105.347,41.47 
	109.204,48.975 114.297,46.353 113.169,44.194 114.883,43.281 118.105,49.551 116.406,50.454 115.264,48.232 110.171,50.85 
	114.219,58.701 121.118,55.146 119.912,52.798 121.606,51.924 123.794,56.138 		"/>
<path fill="#003865" d="M138.359,50.874l-9.834,3.271l-0.483-1.431l2.583-0.854l-6.489-19.546l-2.573,0.854l-0.474-1.431
	l10.288-3.398c4.199-1.406,7.798,0.234,9.087,4.141c1.24,3.696-1.016,7.832-4.99,9.141c-0.576,0.2-0.962,0.288-1.899,0.42
	l-0.547-1.675c0.469-0.044,0.649-0.107,0.947-0.19c2.31-0.767,3.052-2.871,2.041-5.884c-1.045-3.193-2.861-4.448-5.308-3.628
	l-2.036,0.679l6.333,19.072l2.871-0.957L138.359,50.874"/>
<path fill="#003865" d="M167.412,42.939l-1.489,0.249l-12.642-20.986l-2.139,0.376l-5.186,24.087l-2.192,0.376l0.264,1.475
	l7.29-1.265l-0.259-1.479l-2.817,0.493l1.304-6.099l8.56-1.484l3.179,5.322l-2.48,0.42l0.259,1.484l8.599-1.489L167.412,42.939
	 M150.02,37.866l2.026-9.429l4.873,8.232L150.02,37.866z"/>
<path fill="#003865" d="M192.104,42.954h-1.484c-0.708,0-1.138-0.322-1.973-1.577l-5.039-7.813
	c3.359-1.035,5.005-3.086,5.015-6.313c0-1.899-0.557-3.433-1.733-4.629c-1.279-1.279-3.008-1.753-6.069-1.768l-10.552-0.01v1.494
	l2.71,0.015l-0.034,20.586l-2.734-0.005l-0.015,1.489l10.029,0.024v-1.494h-2.69l0.024-9.019l0.972,0.024l5.342,8.403
	c1.216,1.89,1.567,2.104,3.677,2.109l4.536,0.015L192.104,42.954 M177.598,22.866h2.231c2.549,0.005,4.028,1.646,4.019,4.521
	c0,2.808-1.709,4.78-4.175,4.78l-2.104-0.024L177.598,22.866z"/>
<polyline fill="#003865" points="208.276,47.319 196.914,45.4 197.173,43.931 200.581,44.492 203.916,24.795 197.827,23.77 
	197.324,26.694 195.381,26.362 196.396,20.371 198.345,20.693 198.179,21.685 214.868,24.507 215.054,23.525 216.982,23.843 
	215.972,29.834 214.019,29.517 214.531,26.597 208.462,25.562 205.132,45.264 208.516,45.835 208.276,47.319 		"/>
<polyline fill="#003865" points="241.685,58.604 231.768,54.756 232.31,53.359 235.117,54.468 240.703,40.054 227.119,53.34 
	225.229,34.395 219.751,48.501 222.563,49.575 222.017,50.986 214.307,48.003 214.854,46.597 217.646,47.676 225.103,28.481 
	222.305,27.397 222.842,25.986 228.74,28.286 230.63,46.841 243.623,34.048 250.195,36.597 249.663,38.013 246.86,36.929 
	239.424,56.123 242.236,57.202 241.685,58.604 		"/>
<polyline fill="#003865" points="259.087,69.995 244.746,60.83 245.562,59.565 247.837,61.03 258.931,43.662 256.646,42.222 
	257.437,40.942 269.858,48.872 270.386,48.027 272.017,49.063 268.97,53.867 267.368,52.842 268.755,50.679 262.49,46.665 
	257.949,53.779 262.769,56.865 264.072,54.814 265.723,55.815 261.924,61.758 260.288,60.747 261.621,58.628 256.812,55.562 
	252.061,62.998 258.584,67.173 260.015,64.951 261.655,65.986 259.087,69.995 		"/>
<path fill="#003865" d="M95.918,70.986l-2.334,1.699L81.973,56.88l2.437-1.807c3.379-2.471,8.916-0.962,12.026,3.276
	C99.771,62.876,99.551,68.32,95.918,70.986 M100.503,55.361c-3.916-5.327-11.191-6.362-16.641-2.358L74.873,59.6l0.884,1.216
	l2.192-1.616l12.168,16.567c0.576,0.229,1.157,0.435,1.724,0.649l5.952-4.38c2.822-2.07,4.307-4.351,4.844-7.422
	C103.203,61.289,102.446,58.013,100.503,55.361z"/>
<path fill="#003865" d="M289.526,65.093l-1.006,1.118l2.09,1.885l-10.103,11.089l2.549-19.985l-5.249-4.8l-1.016,1.113
	l1.909,1.733l-0.396,2.114l-12.646,13.867l-2.183-2.002l-1.025,1.108l5.972,5.449l1.016-1.113l-2.08-1.904l10.522-11.543
	l-2.261,18.34c2.188-0.576,4.531-1.187,7.036-1.89c0.225-0.063,0.405-0.127,0.615-0.171l8.989-9.878l2.236,2.017l1.011-1.099
	L289.526,65.093"/>
<path fill="#003865" d="M313.594,91.089l-0.791,0.601l-10.288-13.462l0.796-0.615l-1.191-1.567l-4.834,3.701l1.191,1.567
	l2.363-1.807l3.75,4.917l-15.879,12.144l-0.815-1.084c-0.464,0.254-0.918,0.483-1.392,0.674l5.894,7.7l1.201-0.913l-2.08-2.715
	l15.874-12.153l3.735,4.902l-2.358,1.802l1.187,1.553l4.829-3.687L313.594,91.089"/>
<path fill="#003865" d="M209.077,336.567l-1.919,0.42l-1.382-6.279l1.924-0.425l0.557,2.583c1.851,0.898,3.135,1.104,4.863,0.728
	c2.158-0.474,3.442-2.104,3.042-3.921c-0.342-1.567-1.602-2.476-5.308-3.867c-3.896-1.401-4.395-1.66-5.532-2.515
	c-1.099-0.82-1.86-2.104-2.197-3.647c-0.84-3.843,1.436-7.017,5.703-7.954c1.353-0.298,2.49-0.313,3.94-0.059l-0.234-1.05
	l1.885-0.405l1.309,5.977l-1.885,0.415l-0.532-2.397c-1.68-0.64-2.686-0.781-3.979-0.503c-1.812,0.405-2.939,2.012-2.583,3.643
	c0.317,1.392,1.309,2.09,5.127,3.506c1.846,0.674,2.988,1.079,3.433,1.274c0.928,0.391,1.831,0.991,2.622,1.807
	c0.913,0.947,1.475,2.021,1.777,3.394c0.864,3.979-1.421,7.402-5.518,8.301c-2.017,0.435-3.579,0.337-5.381-0.254L209.077,336.567
	"/>
<polyline fill="#003865" points="245.42,325.132 229.58,331.357 229.033,329.956 231.558,328.955 224.033,309.79 221.499,310.796 
	220.962,309.399 234.678,304.004 234.302,303.066 236.099,302.363 238.179,307.656 236.411,308.35 235.483,305.957 
	228.53,308.677 231.631,316.533 236.953,314.434 236.074,312.178 237.876,311.436 240.43,317.988 238.652,318.745 237.72,316.406 
	232.407,318.486 235.635,326.709 242.847,323.872 241.885,321.421 243.691,320.718 245.42,325.132 		"/>
<path fill="#003865" d="M269.248,310.625c-2.017,2.524-3.433,3.848-5.757,5.249c-6.44,3.906-13.672,2.358-17.358-3.721
	c-3.657-6.025-1.782-13.296,4.36-17.031c1.973-1.206,3.506-1.768,5.757-2.085l-0.781-1.274l1.685-1.025l3.311,5.479l-1.675,1.021
	l-1.191-1.963c-2.49-0.151-3.677,0.103-5.283,1.074c-4.248,2.583-5.068,7.925-1.982,13.003c3.003,4.946,8.599,6.826,12.822,4.268
	c1.523-0.938,2.427-1.934,3.325-3.696l-1.416-2.314l1.714-1.035L269.248,310.625"/>
<path fill="#003865" d="M280.01,273.73l-2.227,2.021l9.058,9.932c2.729,2.988,3.403,5.796,2.124,8.892
	c-0.674,1.592-1.709,3.071-3.076,4.312c-4.277,3.921-9.194,4.082-12.524,0.459l-9.736-10.674l-2.007,1.821l-1.001-1.104
	l7.383-6.743l1.016,1.108l-1.982,1.797l8.994,9.863c2.427,2.661,4.014,3.442,6.006,2.935c0.933-0.273,1.865-0.771,2.656-1.509
	c3.174-2.881,3.306-6.455,0.356-9.678l-8.96-9.819l-2.188,2.002l-1.03-1.143l6.108-5.586L280.01,273.73"/>
<polyline fill="#003865" points="320.156,252.876 315.396,261.675 314.067,260.957 315.366,258.56 297.256,248.76 
	295.947,251.152 294.658,250.43 299.409,241.631 300.728,242.354 299.438,244.697 317.563,254.507 318.833,252.158 
	320.156,252.876 		"/>
<polyline fill="#003865" points="329.297,231.475 325.234,242.251 323.838,241.714 325.054,238.472 306.353,231.431 
	304.16,237.212 306.953,238.257 306.25,240.107 300.566,237.959 301.245,236.123 302.202,236.47 308.169,220.62 307.231,220.269 
	307.925,218.418 313.613,220.566 312.92,222.412 310.142,221.357 307.974,227.109 326.68,234.155 327.886,230.947 
	329.297,231.475 		"/>
<polyline fill="#003865" points="335.625,205.171 333.706,214.995 332.222,214.707 332.744,212.08 323.071,210.181 
	311.172,215.073 310.742,217.29 309.268,216.982 311.191,207.163 312.661,207.461 312.148,210.059 320.801,206.592 
	314.043,200.405 313.452,203.384 311.987,203.101 313.584,194.917 315.044,195.21 314.561,197.739 323.032,205.469 
	333.628,207.549 334.15,204.888 335.625,205.171 		"/>
<path fill="#003865" d="M286.772,265.488l1.338-1.812c1.509-2.051,3.716-2.231,6.006-0.527c2.261,1.689,2.852,4.199,1.372,6.182
	l-1.25,1.689L286.772,265.488 M311.563,265.752l-0.884,1.187c-0.43,0.571-0.942,0.737-2.446,0.64l-9.287-0.576
	c1.182-3.306,0.488-5.874-2.085-7.793c-1.528-1.123-3.105-1.587-4.756-1.343c-1.807,0.269-3.188,1.367-5.029,3.848l-6.279,8.467
	l1.191,0.889l1.636-2.178l16.528,12.271l-1.616,2.178l1.201,0.898l5.972-8.042l-1.211-0.889l-1.597,2.163l-7.227-5.391
	l0.566-0.767l9.941,0.708c2.241,0.151,2.632-0.015,3.896-1.704l2.7-3.652L311.563,265.752z"/>
<polyline fill="#003865" points="28.247,227.285 25.854,217.554 27.319,217.202 27.969,219.81 37.09,217.578 34.326,206.299 
	25.2,208.521 25.84,211.128 24.39,211.475 22.012,201.763 23.457,201.406 24.116,204.048 44.121,199.16 43.481,196.514 
	44.927,196.167 47.295,205.884 45.835,206.235 45.2,203.638 36.387,205.786 39.155,217.075 47.974,214.917 47.319,212.31 
	48.799,211.963 51.167,221.68 49.712,222.041 49.063,219.409 29.058,224.287 29.717,226.938 28.247,227.285 		"/>
<path fill="#003865" d="M49.58,249.644c6.226-2.827,8.95-9.839,6.226-15.83c-2.739-5.991-9.814-8.506-16.025-5.669
	c-6.201,2.837-8.999,9.829-6.27,15.82C36.23,249.956,43.369,252.48,49.58,249.644 M41.875,232.725
	c4.917-2.241,10.586-1.333,12.065,1.929c1.499,3.281-1.538,8.164-6.445,10.41c-4.956,2.246-10.64,1.338-12.129-1.943
	C33.882,239.854,36.919,234.985,41.875,232.725z"/>
<polyline fill="#003865" points="58.662,283.613 52.432,275.015 53.638,274.136 55.405,276.567 67.905,267.495 49.287,271.279 
	57.964,254.351 45.718,263.223 47.495,265.659 46.274,266.543 41.416,259.863 42.632,258.979 44.404,261.406 61.06,249.297 
	59.297,246.875 60.518,246.001 64.224,251.108 55.762,267.744 73.604,264.014 77.773,269.746 76.548,270.625 74.785,268.198 
	58.115,280.298 59.888,282.729 58.662,283.613 		"/>
<polyline fill="#003865" points="77.266,301.899 64.741,290.366 65.767,289.272 67.769,291.094 81.724,275.962 79.727,274.111 
	80.737,273.018 91.587,282.998 92.241,282.256 93.687,283.569 89.829,287.744 88.428,286.465 90.166,284.585 84.702,279.531 
	78.984,285.732 83.188,289.604 84.844,287.817 86.279,289.106 81.504,294.287 80.073,293.008 81.753,291.157 77.554,287.29 
	71.563,293.774 77.271,299.038 79.063,297.095 80.479,298.398 77.266,301.899 		"/>
<polyline fill="#003865" points="98.55,316.494 84.541,307.07 85.391,305.83 87.646,307.354 99.136,290.254 96.885,288.745 
	97.725,287.495 106.03,293.076 105.186,294.331 102.974,292.832 91.812,309.419 98.13,313.682 99.604,311.479 101.206,312.563 
	98.55,316.494 		"/>
<path fill="#003865" d="M124.321,327.446l-1.367-0.62l1.396-24.463l-1.982-0.903l-17.861,16.973l-2.017-0.918l-0.62,1.362
	l6.729,3.066l0.635-1.362l-2.617-1.187l4.526-4.312l7.9,3.594l-0.386,6.196l-2.266-1.03l-0.635,1.357l7.939,3.613L124.321,327.446
	 M112.813,313.452l6.997-6.636l-0.615,9.541L112.813,313.452z"/>
<polyline fill="#003865" points="149.058,335.894 146.626,335.308 138.604,315.361 134.971,330.557 137.715,331.221 
	137.368,332.676 129.512,330.806 129.858,329.331 132.739,330.024 137.119,311.772 136.421,309.736 133.916,309.141 
	134.263,307.671 141.196,309.331 148.613,328.057 152.109,313.491 149.36,312.827 149.707,311.367 157.578,313.247 
	157.212,314.712 154.282,314.009 149.058,335.894 		"/>
<path fill="#003865" d="M171.382,337.651c3.501,0.127,6.069-0.737,8.398-2.803c2.515-2.28,3.955-5.293,4.077-8.584
	c0.234-6.611-4.834-11.938-11.592-12.183l-11.147-0.415l-0.044,1.514l2.715,0.088l-0.747,20.576l-2.715-0.093l-0.049,1.504
	L171.382,337.651 M168.652,316.748l3.022,0.122c4.189,0.156,7.598,4.785,7.422,10.029c-0.215,5.61-3.77,9.736-8.252,9.58
	l-2.905-0.107L168.652,316.748z"/>
<path fill="#FFFFFF" d="M179.404,232.734h-1.133c-0.571-3.569-3.164-5.771-6.938-6.929c-2.871-0.894-7.031-2.246-15.938-4.971
	c-10.327-3.174-15.596-11.484-16.309-21.914c-1.001-14.751-2.471-40.669-3.022-57.168c11.655-2.856,28.857-5.103,43.34-5.103
	c14.487,0,31.68,2.246,43.34,5.103c-0.527,16.499-2.031,42.417-3.018,57.168c-0.718,10.43-5.981,18.74-16.309,21.914
	c-8.911,2.725-13.066,4.077-15.938,4.971c-3.784,1.157-6.377,3.359-6.934,6.929H179.404"/>
<path fill="#006BA6" d="M176.455,195.078l-2.114-1.06l-1.362-3.56l-3.091-1.353l-3.486-3.11l-2.07,2.28l-3.091,0.728l-1.646,2.603
	l-2.485,2.642l-3.384,1.802l-2.339,3.96l-1.328,1.753l-2.28,1.782l-1.265-1.338l-1.353,1.289l-1.689,3.13
	c-0.889-2.339-1.426-4.15-1.694-7.891c-0.498-6.934-1.001-15.635-1.489-24.546c11.436-2.466,25.991-4.097,37.808-4.209v27.007
	C177.554,196.66,177.012,196.401,176.455,195.078"/>
<path fill="#658D1B" d="M178.096,208.086h-34.009c0.503,1.055,1.074,2.031,1.738,2.959c2.446,3.438,5.933,5.977,10.356,7.334
	c6.001,1.841,9.834,3.047,12.622,3.936l3.33,1.04c2.72,0.84,4.624,2.07,5.962,3.418V208.086"/>
<path fill="#003865" d="M214.009,194.941c0.933-0.742,2.002-1.606,3.413-2.119c0.2-3.179,0.405-6.572,0.62-10.088
	c-0.376,0.254-0.767,0.576-1.25,0.957c-1.621,1.313-3.647,2.964-7.217,2.964c-3.34,0-5.508-1.338-7.246-2.412
	c-1.411-0.874-2.549-1.558-4.214-1.558c-1.836,0-3.413,0.938-5.093,1.948c-1.812,1.074-3.857,2.3-6.362,2.3
	c-2.568,0-4.424-0.791-5.942-1.616v9.546c0.342,0.195,0.679,0.4,1.006,0.601c1.523,0.938,2.842,1.748,4.937,1.748
	c1.294,0,2.578-0.771,4.092-1.685c2.017-1.201,4.312-2.568,7.363-2.568c2.9,0,4.819,1.167,6.533,2.212
	c1.514,0.947,2.837,1.743,4.927,1.743C211.572,196.914,212.661,196.05,214.009,194.941"/>
<path fill="#003865" d="M186.66,216.704c-2.568,0-4.424-0.781-5.942-1.626v11.689c1.333-1.343,3.232-2.573,5.967-3.413l3.315-1.04
	c2.793-0.889,6.606-2.095,12.627-3.936c1.753-0.542,3.364-1.26,4.824-2.163c-2.188-0.4-3.779-1.377-5.122-2.202
	c-1.411-0.874-2.549-1.563-4.214-1.563c-1.836,0-3.413,0.952-5.093,1.953C191.211,215.474,189.165,216.704,186.66,216.704"/>
<path fill="#006BA6" d="M214.009,180.259c1.113-0.894,2.461-1.968,4.312-2.393c0.073-1.216,0.142-2.446,0.21-3.677
	c-11.436-2.466-25.977-4.097-37.813-4.209v10.2c0.342,0.205,0.679,0.396,1.006,0.605c1.523,0.928,2.842,1.753,4.937,1.753
	c1.294,0,2.578-0.791,4.092-1.689c2.017-1.221,4.312-2.583,7.363-2.583c2.9,0,4.819,1.196,6.533,2.222
	c1.514,0.942,2.837,1.748,4.927,1.748C211.572,182.236,212.661,181.367,214.009,180.259"/>
<path fill="#006BA6" d="M180.718,200v9.946c0.342,0.19,0.679,0.405,1.006,0.601c1.523,0.938,2.842,1.753,4.937,1.753
	c1.294,0,2.578-0.781,4.092-1.68c2.017-1.206,4.312-2.578,7.363-2.578c2.9,0,4.819,1.177,6.533,2.212
	c1.514,0.947,2.837,1.753,4.927,1.753c1.626,0,2.642-0.581,3.701-1.382c2.183-3.232,3.452-7.236,3.76-11.89
	c0.005-0.205,0.024-0.396,0.039-0.581c-0.093,0.063-0.186,0.146-0.283,0.22c-1.621,1.313-3.647,2.944-7.217,2.944
	c-3.34,0-5.508-1.318-7.246-2.383c-1.411-0.889-2.549-1.577-4.214-1.577c-1.836,0-3.413,0.942-5.093,1.963
	c-1.812,1.074-3.857,2.295-6.362,2.295C184.092,201.616,182.236,200.835,180.718,200"/>
<path fill="#003865" d="M140.137,171.587c-0.542-9.932-1.016-19.937-1.313-27.822c12.065-2.744,28.032-4.551,40.581-4.551
	s28.54,1.807,40.576,4.551c-0.273,7.886-0.757,17.891-1.309,27.822c-11.357-2.397-26.377-4.189-39.268-4.189
	C166.523,167.397,151.499,169.189,140.137,171.587"/>
<polyline fill="#FFFFFF" points="148.057,150.322 148.496,148.184 146.514,147.28 148.677,147.051 148.896,144.883 
	149.785,146.88 151.895,146.44 150.293,147.9 151.387,149.8 149.502,148.691 148.057,150.322 		"/>
<polyline fill="#FFFFFF" points="161.289,148.569 159.458,147.378 157.93,148.95 158.477,146.831 156.548,145.845 
	158.696,145.703 159.028,143.545 159.814,145.576 161.958,145.229 160.288,146.626 161.289,148.569 		"/>
<polyline fill="#FFFFFF" points="171.216,147.798 169.453,146.519 167.856,148.003 168.511,145.918 166.626,144.834 
	168.784,144.81 169.229,142.661 169.912,144.741 172.061,144.502 170.313,145.796 171.216,147.798 		"/>
<polyline fill="#FFFFFF" points="181.138,147.583 179.453,146.211 177.778,147.583 178.545,145.542 176.719,144.336 
	178.892,144.453 179.453,142.339 180.005,144.453 182.173,144.336 180.371,145.542 181.138,147.583 		"/>
<polyline fill="#FFFFFF" points="209.399,148.716 207.524,149.814 208.604,147.915 206.997,146.455 209.116,146.904 
	210.01,144.888 210.22,147.065 212.388,147.3 210.396,148.208 210.854,150.342 209.399,148.716 		"/>
<polyline fill="#FFFFFF" points="198.604,146.626 196.919,145.234 199.053,145.591 199.858,143.545 200.181,145.703 
	202.349,145.835 200.41,146.831 200.967,148.95 199.424,147.378 197.603,148.579 198.604,146.626 		"/>
<polyline fill="#FFFFFF" points="188.589,145.806 186.855,144.502 189.009,144.751 189.688,142.666 190.132,144.824 
	192.295,144.834 190.4,145.928 191.06,148.018 189.463,146.519 187.7,147.798 188.589,145.806 		"/>
<polyline fill="#FFFFFF" points="149.502,166.392 149.946,164.258 147.983,163.34 150.132,163.135 150.386,160.962 
	151.255,162.969 153.364,162.544 151.758,163.989 152.813,165.889 150.942,164.771 149.502,166.392 		"/>
<polyline fill="#FFFFFF" points="162.373,164.771 160.552,163.564 159.014,165.112 159.57,163.008 157.651,161.997 159.81,161.88 
	160.151,159.722 160.938,161.777 163.071,161.436 161.382,162.813 162.373,164.771 		"/>
<polyline fill="#FFFFFF" points="171.919,164.077 170.146,162.788 168.555,164.272 169.214,162.178 167.339,161.089 
	169.502,161.084 169.937,158.936 170.61,161.011 172.778,160.767 171.025,162.075 171.919,164.077 		"/>
<polyline fill="#FFFFFF" points="181.47,163.901 179.78,162.52 178.101,163.901 178.882,161.841 177.061,160.645 179.214,160.762 
	179.78,158.647 180.337,160.762 182.5,160.645 180.688,161.841 181.47,163.901 		"/>
<polyline fill="#FFFFFF" points="208.613,164.893 206.738,166.006 207.822,164.102 206.211,162.642 208.325,163.066 
	209.204,161.084 209.429,163.247 211.592,163.467 209.614,164.375 210.073,166.519 208.613,164.893 		"/>
<polyline fill="#FFFFFF" points="198.188,162.891 196.504,161.509 198.647,161.841 199.424,159.805 199.756,161.973 
	201.929,162.085 199.99,163.081 200.537,165.195 199.014,163.643 197.188,164.844 198.188,162.891 		"/>
<polyline fill="#FFFFFF" points="188.53,162.109 186.807,160.811 188.96,161.05 189.639,158.979 190.078,161.113 192.256,161.157 
	190.352,162.217 191.001,164.307 189.409,162.827 187.651,164.106 188.53,162.109 		"/>
<polyline fill="#FFFFFF" points="154.233,156.909 154.741,154.78 152.793,153.818 154.961,153.657 155.249,151.484 
	156.06,153.506 158.184,153.135 156.548,154.546 157.578,156.479 155.732,155.327 154.233,156.909 		"/>
<polyline fill="#FFFFFF" points="144.741,158.418 145.181,156.265 143.184,155.381 145.332,155.137 145.547,152.964 
	146.445,154.946 148.569,154.512 146.963,155.972 148.057,157.876 146.177,156.772 144.741,158.418 		"/>
<polyline fill="#FFFFFF" points="167.08,155.571 165.298,154.316 163.716,155.845 164.341,153.73 162.422,152.69 164.6,152.637 
	164.976,150.474 165.708,152.539 167.856,152.246 166.143,153.589 167.08,155.571 		"/>
<polyline fill="#FFFFFF" points="176.592,155.112 174.863,153.774 173.228,155.215 173.94,153.149 172.085,152.007 
	174.238,152.051 174.741,149.922 175.366,152.007 177.524,151.846 175.742,153.101 176.592,155.112 		"/>
<polyline fill="#FFFFFF" points="186.108,155.239 184.463,153.794 182.744,155.117 183.584,153.101 181.816,151.846 
	183.97,152.017 184.595,149.927 185.088,152.065 187.256,152.017 185.4,153.159 186.108,155.239 		"/>
<polyline fill="#FFFFFF" points="213.174,156.841 211.26,157.905 212.388,156.045 210.825,154.541 212.925,155.029 
	213.843,153.037 214.019,155.215 216.177,155.498 214.17,156.348 214.58,158.511 213.174,156.841 		"/>
<polyline fill="#FFFFFF" points="202.793,154.609 201.128,153.198 203.262,153.574 204.102,151.553 204.38,153.73 
	206.533,153.892 204.595,154.839 205.098,156.968 203.613,155.381 201.753,156.558 202.793,154.609 		"/>
<polyline fill="#FFFFFF" points="193.188,153.633 191.479,152.285 193.633,152.573 194.355,150.518 194.741,152.661 
	196.914,152.754 195,153.774 195.596,155.884 194.033,154.37 192.256,155.605 193.188,153.633 		"/>
<path fill="#FFFFFF" d="M82.769,203.828c3.198-4.546,9.214-5.527,6.499-17.734C82.446,189.077,79.268,197.583,82.769,203.828"/>
<path fill="#FFFFFF" d="M82.324,173.311c-2.188,0.903-5.278,3.936-6.67,7.935c2.295,2.651,3.267,5.908,3.164,8.867
	C82.993,186.289,84.443,179.692,82.324,173.311"/>
<path fill="#FFFFFF" d="M86.372,215.537c0.278,0.039,0.21,0.01-0.098-0.088c-3.208-1.787-5.474-2.407-9.878-1.812
	C80.527,213.94,83.423,214.517,86.372,215.537"/>
<path fill="#FFFFFF" d="M99.775,230.361c-0.039,0.093-0.083,0.19-0.107,0.288c-0.117,4.937,3.047,10.435-2.612,18.232
	c-0.273,0.933-0.645,2.949,2.266-0.508C105.063,241.558,100.181,235.996,99.775,230.361"/>
<path fill="#FFFFFF" d="M88.345,238.086c0.474-3.076,2.515-6.743,5.513-9.214c2.085-1.729,3.267-2.363,1.519-0.527
	C92.725,231.113,89.644,235.61,88.345,238.086"/>
<path fill="#FFFFFF" d="M94.897,246.47c-1.147-2.891-0.146-7.534,1.094-10.581c0.869-2.09,3.008-5.273,3.687-5.571
	C97.305,233.97,94.771,243.667,94.897,246.47"/>
<path fill="#FFFFFF" d="M85.283,206.138c-0.215-1.094-1.279-1.812-2.368-1.582c-1.099,0.22-1.807,1.279-1.582,2.373
	c0.22,1.099,1.294,1.802,2.373,1.592C84.8,208.301,85.518,207.236,85.283,206.138"/>
<path fill="#FFFFFF" d="M102.881,208.901c0.073-3.018-0.391-6.133-0.044-9.658c-6.011,4.395-8.066,12.095-5.571,17.471
	c-0.259-0.039-0.513-0.054-0.781,0.015c-1.133,0.229-1.86,1.328-1.636,2.471c0.225,1.118,1.333,1.855,2.476,1.626
	c1.128-0.225,1.87-1.333,1.636-2.461c-0.132-0.576-0.459-1.055-0.918-1.343c-0.996-4.761-0.176-10.713,2.319-13.218
	c-0.771,2.979-2.192,9.224-1.279,14.98c0.986-1.123,1.724-2.202,2.271-3.286c0.117,0.918,0.327,1.851,0.708,2.837
	c0.137-4.585,1.665-9.116,6.426-12.28c-3.486,4.419-5.479,9.58-5.894,13.472c2.529-3.218,8.281-4.175,8.696-16.772
	C108.374,203.638,104.883,205.757,102.881,208.901"/>
<path fill="#FFFFFF" d="M106.855,221.86c-0.249-1.201-1.387-1.968-2.573-1.724c-1.196,0.244-1.958,1.387-1.719,2.593
	c0.239,1.182,1.406,1.934,2.588,1.694C106.338,224.175,107.1,223.037,106.855,221.86"/>
<path fill="#FFFFFF" d="M106.094,228.491c-0.244-1.191-1.401-1.958-2.588-1.729c-1.172,0.244-1.948,1.392-1.704,2.578
	c0.234,1.191,1.387,1.953,2.588,1.724C105.571,230.83,106.338,229.653,106.094,228.491"/>
<path fill="#FFFFFF" d="M93.418,196.167c-4.453,3.716-5.698,8.379-5.215,12.48c-0.186-0.02-0.356-0.02-0.522,0.01
	c-0.938,0.195-1.528,1.084-1.343,2.002c0.19,0.918,1.089,1.523,1.997,1.328c0.215-0.039,0.4-0.127,0.566-0.225
	c0.415,1.187,0.981,2.275,1.621,3.213c-0.391-1.377-0.679-2.896-0.835-4.453c0.01-0.176,0.024-0.361-0.02-0.527
	c0-0.049-0.024-0.078-0.034-0.117c-0.234-3.481,0.313-7.09,2.236-9.692c-0.596,3.813-1.494,11.152-0.64,15.723
	C92.534,211.045,99.541,208.901,93.418,196.167"/>
<path fill="#FFFFFF" d="M111.211,224.819c-0.2-0.903-1.084-1.509-2.021-1.323c-0.913,0.186-1.514,1.084-1.338,1.997
	c0.21,0.928,1.094,1.523,2.017,1.338C110.796,226.636,111.387,225.732,111.211,224.819"/>
<path fill="#FFFFFF" d="M101.792,224.507c-0.176-0.85-0.991-1.401-1.846-1.23c-0.85,0.171-1.396,0.996-1.23,1.846
	c0.166,0.845,1.001,1.396,1.846,1.23S101.953,225.347,101.792,224.507"/>
<path fill="#FFFFFF" d="M80.327,202.915c-0.117-0.693-0.737-1.191-1.406-1.191c-2.207-2.988-5.381-6.182-10.669-6.719
	c2.9,1.357,7.256,4.038,10.273,6.758c-0.718,0.19-1.187,0.894-1.064,1.646c0.142,0.786,0.889,1.313,1.694,1.187
	C79.927,204.453,80.469,203.706,80.327,202.915"/>
<path fill="#FFFFFF" d="M80.396,192.896c-0.2-0.991-1.172-1.631-2.168-1.421c-0.034,0.005-0.078,0.01-0.122,0.034
	c-1.206-4.692-2.358-8.335-7.671-11.987c2.651,3.418,5.732,8.384,7.461,12.051c-0.791,0.327-1.279,1.177-1.104,2.056
	c0.195,0.996,1.167,1.636,2.168,1.44C79.946,194.863,80.591,193.896,80.396,192.896"/>
<path fill="#FFFFFF" d="M85.786,211.299c-0.132-0.776-0.869-1.313-1.675-1.182c-0.386,0.068-0.718,0.278-0.923,0.576
	c-4.697-4.16-7.935-4.185-10.415-4.297c1.494,0.532,6.87,2.08,10.293,4.502c-0.142,0.259-0.195,0.566-0.142,0.889
	c0.127,0.801,0.898,1.338,1.675,1.206C85.391,212.847,85.933,212.104,85.786,211.299"/>
<path fill="#FFFFFF" d="M89.736,217.183c-0.22-1.133-1.333-1.865-2.466-1.646c-1.123,0.229-1.86,1.333-1.636,2.471
	c0.229,1.138,1.333,1.87,2.471,1.631C89.238,219.419,89.961,218.296,89.736,217.183"/>
<path fill="#FFFFFF" d="M92.783,220.786c-0.132-0.796-0.879-1.318-1.665-1.187c-0.508,0.078-0.908,0.4-1.089,0.83
	c-4.097-0.537-8.55,0.029-12.3,2.114c4.199-0.972,8.594-1.875,12.188-1.885c0.02,0,0.02,0,0.024,0
	c-0.054,0.195-0.063,0.4-0.044,0.61c0.156,0.781,0.908,1.333,1.694,1.191C92.397,222.334,92.92,221.572,92.783,220.786"/>
<path fill="#FFFFFF" d="M96.997,223.237c-0.2-1.03-1.206-1.689-2.236-1.475c-1.011,0.186-1.685,1.187-1.484,2.207
	c-0.039,0-0.068-0.015-0.132-0.024c-3.027-0.103-8.076,0.693-11.172,4.365c3.174-1.87,8.228-3.794,11.265-4.209
	c0.02,0.01,0.054,0,0.083,0c0.254,0.952,1.211,1.558,2.192,1.367C96.533,225.259,97.192,224.263,96.997,223.237"/>
<path fill="#FFFFFF" d="M123.545,232.759c8.643,6.509,13.55,15.542,14.8,22.808c-1.084-0.796-3.125-1.621-4.375-1.387
	c-1.123-7.671-5.122-13.877-11.401-18.911C122.827,234.106,123.193,233.306,123.545,232.759"/>
<path fill="#FFFFFF" d="M116.943,239.512c2.051,0.815,3.081,0.513,3.608-0.22c1.094-1.543,0.566-3.613-0.127-3.965
	c0.156,0.63,0.127,1.289-0.02,2.041c-0.112,0.605-0.425,1.606-1.558,1.475c-0.605-0.073-1.724-0.371-2.383-0.815
	c-0.469-0.327-0.469-1.143-0.2-1.841c0.127-0.327,0.278-0.825,0.698-1.172c-0.698,0.166-1.118,0.527-1.67,0.957
	c-0.547,0.425-1.357,0.508-1.826,0.01c-0.576-0.645-0.942-1.133-1.138-1.558c-0.474-1.108,0.957-1.938,1.792-2.373
	c-1.445,0.015-1.694,0.562-2.842,0.366c-1.182-0.195-1.479-2.07-1.475-2.69c0-0.454,0.562-0.894,1.23-1.06
	c0.649-0.142,1.426-0.083,1.851-0.044c-0.068-0.283-0.103-0.645-0.098-1.016c-1.167-0.269-3.447,0.122-3.877,0.767
	c-0.542,0.83-0.4,1.255,0.034,2.72c0.43,1.411,0.762,1.914,1.675,2.051c0.249,0.034,0.742,0.098,1.289-0.107
	c-0.288,0.181-0.479,0.342-0.62,0.713c-0.161,0.371-0.415,1.001,0.708,2.344c0.962,1.167,1.914,1.611,2.705,1.177
	c0.454-0.254,0.625-0.532,0.835-0.752c-0.127,0.303-0.259,0.649-0.327,0.986C114.995,238.647,115.854,239.097,116.943,239.512"/>
<path fill="#FFFFFF" d="M115.439,230.532c0.581-0.737,2.007-0.83,2.813-0.317c-0.547,1.035-0.601,2.754-0.298,3.599
	C115.923,233.501,115.557,231.553,115.439,230.532"/>
<path fill="#FFFFFF" d="M118.628,230.415c1.196-0.088,1.646-0.688,1.855-1.274c0.215-0.566,0.854-0.923,0.874-0.049
	c0.005,0.879,0.01,1.274-0.483,1.509C120.371,230.854,119.482,230.923,118.628,230.415"/>
<path fill="#FFFFFF" d="M119.238,232.305c-0.112,0.64-0.342,1.255-0.747,1.841c-0.308,0.439-0.742,0.698-1.06,0.986
	c0.552,0.41,1.333,0.649,1.987,0.62c0.64-0.039,0.679-0.122,0.64-0.376C119.912,234.282,119.482,232.734,119.238,232.305"/>
<path fill="#FFFFFF" d="M239.644,229.473c0.557,1.03,0.596,2.769,0.293,3.599c2.051-0.322,2.402-2.261,2.529-3.276
	C241.87,229.053,240.454,228.97,239.644,229.473"/>
<path fill="#FFFFFF" d="M239.272,229.678c-1.191-0.093-1.641-0.684-1.855-1.255c-0.22-0.581-0.859-0.947-0.864-0.059
	c-0.01,0.874-0.02,1.26,0.474,1.494C237.524,230.112,238.408,230.176,239.272,229.678"/>
<path fill="#FFFFFF" d="M239.399,233.389c-0.396-0.571-0.625-1.187-0.742-1.826c-0.249,0.435-0.664,1.978-0.82,3.071
	c-0.034,0.254-0.02,0.352,0.64,0.376c0.659,0.029,1.44-0.195,1.982-0.61C240.137,234.121,239.712,233.853,239.399,233.389"/>
<path fill="#FFFFFF" d="M274.917,200.977l2.061,0.576l-31.069,24.536h0.005l-0.732,0.591c-0.034,0.005-0.088,0.005-0.127,0.024
	c0.024,0.347,0,0.698-0.059,1.016c0.435-0.024,1.035-0.024,1.553,0.112c0.674,0.186,1.216,0.63,1.196,1.079
	c0,0.625-0.347,2.495-1.528,2.666c-1.162,0.156-1.392-0.391-2.837-0.449c0.806,0.459,2.236,1.313,1.704,2.412
	c-0.2,0.439-0.566,0.908-1.172,1.533c-0.469,0.488-1.284,0.386-1.816-0.063c-0.532-0.439-0.947-0.815-1.641-1.001
	c0.42,0.356,0.552,0.854,0.664,1.196c0.244,0.684,0.229,1.509-0.244,1.821c-0.684,0.42-1.802,0.688-2.412,0.747
	c-1.123,0.107-1.421-0.908-1.519-1.509c-0.122-0.752-0.127-1.426,0.049-2.046c-0.713,0.347-1.299,2.383-0.234,3.965
	c0.488,0.742,1.504,1.055,3.579,0.332c1.104-0.396,1.992-0.815,1.797-1.973c-0.054-0.356-0.176-0.684-0.293-1.001
	c0.215,0.234,0.352,0.513,0.796,0.781c0.806,0.449,1.753,0.029,2.759-1.108c1.133-1.304,0.908-1.953,0.771-2.324
	s-0.327-0.537-0.605-0.713c0.537,0.225,1.006,0.166,1.27,0.127c0.933-0.103,1.27-0.596,1.738-1.987
	c0.488-1.455,0.63-1.88,0.107-2.72c-0.22-0.356-0.962-0.645-1.797-0.806l30.83-24.316l0.073,2.144l5.542-7.339L274.917,200.977"/>
<path fill="#FFFFFF" d="M258.35,208.521l21.89-27.72l0.581,2.065l3.672-8.418L277.168,180l2.153,0.083l-19.834,25.127
	c-1.538,2.349-3.193,4.854-4.746,7.197l0.029,0.029C255.947,211.157,257.139,209.854,258.35,208.521"/>
<path fill="#FFFFFF" d="M255.742,216.763c1.836-1.46,3.745-2.969,5.625-4.463l18.232-16.87l0.269,2.129l4.912-7.764l-8.071,4.37
	l2.095,0.405l-18.301,16.948C258.872,213.33,257.261,215.093,255.742,216.763"/>
<path fill="#FFFFFF" d="M276.001,212.783l-25.688,12.861c-0.444,0.356-0.811,0.645-1.035,0.825
	c0.181,0.142,0.322,0.303,0.444,0.483c0.054,0.078,0.088,0.156,0.127,0.229l26.67-13.34l-0.361,2.104l6.914-6.05l-8.989,1.914
	L276.001,212.783"/>
<path fill="#FFFFFF" d="M237.197,239.98c-0.391-0.127-0.728-0.317-1.016-0.576l-4.595,9.526l0.024,0.015l-1.675,0.557
	l-5.444,10.425l2.642-0.796l0.947,2.583l5.151-10.571l-0.605-1.699L237.197,239.98"/>
<path fill="#FFFFFF" d="M255.088,221.89c1.768-0.889,3.799-1.914,5.859-2.954l17.08-11.143l-0.112,2.139l6.157-6.812l-8.696,2.935
	l1.997,0.752l-18.564,12.144C257.485,219.99,256.235,220.977,255.088,221.89"/>
<path fill="#FFFFFF" d="M235.103,237.437c-0.137-0.513-0.176-1.04-0.137-1.563l-6.094,6.655l-1.802,0.146l-0.156,0.151v0.01
	l-8.481,8.481l0.4-0.024l-0.039,0.024l0.112-0.024l2.085-0.098l0.371,2.075l7.031-9.243l1.357-0.293L235.103,237.437"/>
<path fill="#FFFFFF" d="M246.343,224.175c0.742-0.581,1.821-1.436,3.11-2.456l29.976-32.754l0.41,2.095l4.292-8.12l-7.705,4.99
	l2.124,0.234l-31.372,34.321C246.88,223.101,246.606,223.667,246.343,224.175"/>
<path fill="#FFFFFF" d="M219.521,246.582l11.167-7.866c1.274-1.406,2.686-2.915,3.174-3.457l-13.945,9.209l0.01,0.01l-1.748-0.361
	l-1.016,0.64l-8.945,5.586l2.51,0.518l0.308,1.895l7.207-6.235L219.521,246.582"/>
<path fill="#FFFFFF" d="M210.278,247.607l4.473-2.788l4.165-2.837l1.426,0.269c0,0,10.171-6.27,12.642-7.886
	c0.132-0.093,0.205-0.142,0.205-0.142c0.029-0.01,0.049-0.029,0.078-0.044l-13.34,6.65l-1.704-0.527l-10.62,5.049l2.393,0.879
	L210.278,247.607"/>
<path fill="#FFFFFF" d="M260.625,185.952l2.1-0.371l-19.18,38.867c0.146,0.083,0.293,0.161,0.396,0.215
	c0.225,0.132,0.415,0.298,0.571,0.479l19.268-39.033l0.991,1.895l1.865-8.994L260.625,185.952"/>
<path fill="#FFFFFF" d="M262.915,192.5l2.144-0.112l-12.036,18.296c-1.416,2.861-2.788,5.645-3.999,8.076
	c0.063-0.068,0.122-0.132,0.176-0.205l16.855-25.503l0.732,2.002l2.964-8.706L262.915,192.5"/>
</svg>