<?xml version="1.0" encoding="UTF-8" standalone="no"?>
<!-- Generator: Adobe Illustrator 13.0.1, SVG Export Plug-In . SVG Version: 6.00 Build 14948)  -->
<svg
   xmlns:dc="http://purl.org/dc/elements/1.1/"
   xmlns:cc="http://web.resource.org/cc/"
   xmlns:rdf="http://www.w3.org/1999/02/22-rdf-syntax-ns#"
   xmlns:svg="http://www.w3.org/2000/svg"
   xmlns="http://www.w3.org/2000/svg"
   xmlns:sodipodi="http://sodipodi.sourceforge.net/DTD/sodipodi-0.dtd"
   xmlns:inkscape="http://www.inkscape.org/namespaces/inkscape"
   version="1.0"
   id="Layer_1"
   x="0px"
   y="0px"
   width="720"
   height="627"
   viewBox="0 0 70.081 60.991"
   enable-background="new 0 0 70.081 60.991"
   xml:space="preserve"
   sodipodi:version="0.32"
   inkscape:version="0.45.1"
   sodipodi:docname="BLM.svg"
   sodipodi:docbase="/Users/lindberg/Projects/Wiki/seals"
   inkscape:output_extension="org.inkscape.output.svg.inkscape"><metadata
   id="metadata140"><rdf:RDF><cc:Work
       rdf:about=""><dc:format>image/svg+xml</dc:format><dc:type
         rdf:resource="http://purl.org/dc/dcmitype/StillImage" /></cc:Work></rdf:RDF></metadata><defs
   id="defs138" /><sodipodi:namedview
   inkscape:window-height="581"
   inkscape:window-width="697"
   inkscape:pageshadow="2"
   inkscape:pageopacity="0.0"
   guidetolerance="10.0"
   gridtolerance="10.0"
   objecttolerance="10.0"
   borderopacity="1.0"
   bordercolor="#666666"
   pagecolor="#ffffff"
   id="base"
   width="720px"
   height="627px"
   inkscape:showpageshadow="false"
   inkscape:zoom="0.27389939"
   inkscape:cx="35.040501"
   inkscape:cy="321.11317"
   inkscape:window-x="58"
   inkscape:window-y="22"
   inkscape:current-layer="Layer_1" />
<g
   id="g3">
	<g
   id="g5">
		<g
   id="g7">
			<g
   id="g9">
				<g
   id="g11">
					<g
   id="g13">
						<path
   d="M 5.366,0.731 C 26.494,0.697 63.976,0.731 64.053,0.739 C 67.974,0.917 70.264,5.843 69.008,9.607 C 59.65,25.708 50.472,41.125 40.368,57.548 C 39.413,59.101 37.784,59.893 36.007,60.162 C 33.465,60.54 30.767,59.691 29.419,57.432 C 19.585,40.948 10.477,25.404 1.062,9.346 C -0.069,5.939 1.826,1.757 5.366,0.731"
   id="path15"
   style="fill:#90c1e9" />
					</g>
					<path
   d="M 60.429,22.587 C 54.833,21.021 44.584,18.579 33.98,24.417 C 26.156,19.902 16.833,19.44 9.26,21.786 L 7.466,19.126 L 34.745,13.868 L 62.492,19.192 L 60.429,22.587"
   id="path17"
   style="fill:#5f8bbb" />
					<path
   d="M 44.958,15.966 C 44.91,16.098 44.753,16.139 44.668,16.193 C 44.137,16.51 43.522,16.577 42.898,16.477 C 42.166,16.352 41.458,16.139 40.783,16.406 C 40.654,16.457 40.449,16.539 40.379,16.702 C 40.176,17.191 40.502,17.631 40.532,18.098 C 40.536,18.157 40.478,18.324 40.365,18.347 C 39.102,18.609 38.113,17.748 37.088,17.194 C 36.677,16.972 36.159,16.83 35.724,17.061 C 34.594,17.654 34.545,18.987 33.901,20.016 C 33.537,20.608 32.794,20.632 32.276,20.431 C 31.765,20.226 31.677,19.534 31.818,18.971 C 31.926,18.529 32.059,18.05 31.889,17.642 C 31.648,17.071 30.95,17.167 30.459,17.374 C 29.694,17.704 28.34,18.755 27.948,17.728 C 27.759,17.236 28.528,16.877 28.775,16.357 C 28.818,16.268 28.804,16.072 28.782,16.07 C 27.835,15.894 26.717,16.54 25.929,15.839 C 25.921,15.803 25.78,15.676 25.771,15.562 L 34.744,13.871 L 44.991,15.84 L 44.958,15.966"
   id="path19"
   style="fill:#ffffff" />
					<path
   d="M 5.446,4.341 L 5.446,5.807 C 5.446,6.143 5.431,6.479 5.173,6.728 C 4.956,6.94 4.612,7.018 4.308,7.018 C 4.003,7.018 3.661,6.94 3.444,6.728 C 3.184,6.479 3.169,6.143 3.169,5.807 L 3.169,4.341 L 3.848,4.341 L 3.848,5.715 C 3.848,6.055 3.873,6.422 4.307,6.422 C 4.744,6.422 4.768,6.055 4.768,5.715 L 4.768,4.341 L 5.446,4.341"
   id="path21"
   style="fill:#437657" />
					<path
   d="M 6.652,6.613 C 6.652,6.834 6.471,7.017 6.247,7.017 C 6.023,7.017 5.843,6.833 5.843,6.613 C 5.843,6.385 6.023,6.209 6.247,6.209 C 6.472,6.209 6.652,6.386 6.652,6.613"
   id="path23"
   style="fill:#437657" />
					<path
   d="M 8.492,5.011 C 8.367,4.906 8.21,4.838 8.043,4.838 C 7.918,4.838 7.752,4.912 7.752,5.059 C 7.752,5.208 7.935,5.268 8.053,5.307 L 8.227,5.359 C 8.589,5.465 8.869,5.646 8.869,6.07 C 8.869,6.33 8.808,6.594 8.6,6.772 C 8.395,6.947 8.124,7.018 7.86,7.018 C 7.53,7.018 7.209,6.91 6.943,6.72 L 7.234,6.173 C 7.404,6.325 7.603,6.446 7.838,6.446 C 7.995,6.446 8.165,6.362 8.165,6.178 C 8.165,5.991 7.898,5.923 7.754,5.882 C 7.328,5.762 7.048,5.652 7.048,5.147 C 7.048,4.616 7.425,4.27 7.947,4.27 C 8.212,4.27 8.531,4.355 8.764,4.488 L 8.492,5.011"
   id="path25"
   style="fill:#437657" />
					<path
   d="M 9.969,6.613 C 9.969,6.834 9.79,7.017 9.565,7.017 C 9.34,7.017 9.16,6.833 9.16,6.613 C 9.16,6.385 9.34,6.209 9.565,6.209 C 9.791,6.209 9.969,6.386 9.969,6.613"
   id="path27"
   style="fill:#437657" />
					<path
   d="M 12.24,6.378 L 12.392,6.378 C 12.798,6.378 13.145,6.152 13.145,5.644 C 13.145,5.18 12.836,4.915 12.401,4.915 L 12.24,4.915 L 12.24,6.378 M 11.564,4.341 L 12.525,4.341 C 13.252,4.341 13.85,4.912 13.85,5.644 C 13.85,6.378 13.249,6.95 12.525,6.95 L 11.564,6.95 L 11.564,4.341 z "
   id="path29"
   style="fill:#437657" />
					<polyline
   points="14.843,4.914 14.843,5.351 15.607,5.351 15.607,5.924 14.843,5.924 14.843,6.378        15.649,6.378 15.649,6.949 14.165,6.949 14.165,4.341 15.649,4.341 15.649,4.914 14.843,4.914      "
   id="polyline31"
   style="fill:#437657" />
					<path
   d="M 16.745,5.537 L 16.862,5.537 C 17.106,5.537 17.348,5.537 17.348,5.22 C 17.348,4.892 17.122,4.886 16.862,4.886 L 16.745,4.886 L 16.745,5.537 M 16.067,4.341 L 17.106,4.341 C 17.667,4.341 18.053,4.601 18.053,5.199 C 18.053,5.814 17.721,6.084 17.13,6.084 L 16.745,6.084 L 16.745,6.949 L 16.067,6.949 L 16.067,4.341 z "
   id="path33"
   style="fill:#437657" />
					<path
   d="M 19.493,5.147 L 19.486,5.147 L 19.205,5.975 L 19.768,5.975 L 19.493,5.147 M 19.018,6.499 L 18.836,6.949 L 18.117,6.949 L 19.12,4.341 L 19.862,4.341 L 20.846,6.949 L 20.12,6.949 L 19.951,6.499 L 19.018,6.499 L 19.018,6.499 z "
   id="path35"
   style="fill:#437657" />
					<path
   d="M 21.733,5.51 L 21.8,5.51 C 22.021,5.51 22.269,5.469 22.269,5.186 C 22.269,4.903 22.021,4.857 21.8,4.857 L 21.734,4.857 L 21.734,5.51 M 23.224,6.949 L 22.38,6.949 L 21.741,5.943 L 21.733,5.943 L 21.733,6.949 L 21.056,6.949 L 21.056,4.341 L 22.069,4.341 C 22.585,4.341 22.976,4.586 22.976,5.144 C 22.976,5.501 22.776,5.815 22.405,5.883 L 23.224,6.949 z "
   id="path37"
   style="fill:#437657" />
					<polyline
   points="24.446,6.949 23.768,6.949 23.768,4.914 23.206,4.914 23.206,4.341 25.007,4.341        25.007,4.914 24.446,4.914 24.446,6.949      "
   id="polyline39"
   style="fill:#437657" />
					<polyline
   points="25.539,4.341 26.208,4.341 26.737,5.734 27.296,4.341 27.971,4.341 28.366,6.949        27.686,6.949 27.496,5.449 27.49,5.449 26.865,6.949 26.593,6.949 25.994,5.449 25.987,5.449 25.772,6.949 25.095,6.949        25.539,4.341      "
   id="polyline41"
   style="fill:#437657" />
					<polyline
   points="29.331,4.914 29.331,5.351 30.095,5.351 30.095,5.924 29.331,5.924 29.331,6.378        30.136,6.378 30.136,6.949 28.652,6.949 28.652,4.341 30.136,4.341 30.136,4.914 29.331,4.914      "
   id="polyline43"
   style="fill:#437657" />
					<polyline
   points="30.556,4.341 31.233,4.341 32.474,5.934 32.481,5.934 32.481,4.341 33.161,4.341        33.161,6.949 32.481,6.949 31.24,5.351 31.233,5.351 31.233,6.949 30.556,6.949 30.556,4.341      "
   id="polyline45"
   style="fill:#437657" />
					<polyline
   points="34.64,6.949 33.963,6.949 33.963,4.914 33.402,4.914 33.402,4.341 35.202,4.341 35.202,4.914        34.64,4.914 34.64,6.949      "
   id="polyline47"
   style="fill:#437657" />
					<path
   d="M 37.208,5.602 C 37.208,6.05 37.538,6.378 37.942,6.378 C 38.348,6.378 38.68,6.05 38.68,5.602 C 38.68,5.243 38.348,4.913 37.942,4.913 C 37.538,4.912 37.208,5.242 37.208,5.602 M 39.388,5.596 C 39.388,6.443 38.781,7.035 37.942,7.035 C 37.108,7.035 36.5,6.442 36.5,5.596 C 36.5,4.806 37.192,4.253 37.942,4.253 C 38.694,4.253 39.388,4.806 39.388,5.596 z "
   id="path49"
   style="fill:#437657" />
					<polyline
   points="40.379,4.914 40.379,5.351 41.125,5.351 41.125,5.924 40.379,5.924 40.379,6.949        39.702,6.949 39.702,4.341 41.2,4.341 41.2,4.914 40.379,4.914      "
   id="polyline51"
   style="fill:#437657" />
					<polyline
   points="43.8,6.949 43.124,6.949 43.124,4.914 42.561,4.914 42.561,4.341 44.363,4.341 44.363,4.914        43.8,4.914 43.8,6.949      "
   id="polyline53"
   style="fill:#437657" />
					<polyline
   points="46.265,5.349 46.265,4.341 46.942,4.341 46.942,6.949 46.265,6.949 46.265,5.883        45.286,5.883 45.286,6.949 44.608,6.949 44.608,4.341 45.286,4.341 45.286,5.349 46.265,5.349      "
   id="polyline55"
   style="fill:#437657" />
					<polyline
   points="48.062,4.914 48.062,5.351 48.827,5.351 48.827,5.924 48.062,5.924 48.062,6.378        48.869,6.378 48.869,6.949 47.383,6.949 47.383,4.341 48.869,4.341 48.869,4.914 48.062,4.914      "
   id="polyline57"
   style="fill:#437657" />
					<polyline
   points="51.151,6.949 50.471,6.949 50.471,4.341 51.151,4.341 51.151,6.949      "
   id="polyline59"
   style="fill:#437657" />
					<polyline
   points="51.593,4.341 52.273,4.341 53.514,5.934 53.522,5.934 53.522,4.341 54.2,4.341 54.2,6.949        53.522,6.949 52.277,5.351 52.273,5.351 52.273,6.949 51.593,6.949 51.593,4.341      "
   id="polyline61"
   style="fill:#437657" />
					<polyline
   points="55.679,6.949 55.001,6.949 55.001,4.914 54.441,4.914 54.441,4.341 56.238,4.341        56.238,4.914 55.679,4.914 55.679,6.949      "
   id="polyline63"
   style="fill:#437657" />
					<polyline
   points="57.163,4.914 57.163,5.351 57.929,5.351 57.929,5.924 57.163,5.924 57.163,6.378        57.972,6.378 57.972,6.949 56.486,6.949 56.486,4.341 57.972,4.341 57.972,4.914 57.163,4.914      "
   id="polyline65"
   style="fill:#437657" />
					<path
   d="M 59.065,5.51 L 59.129,5.51 C 59.35,5.51 59.602,5.469 59.602,5.186 C 59.602,4.903 59.351,4.858 59.129,4.858 L 59.065,4.858 L 59.065,5.51 M 60.558,6.949 L 59.715,6.949 L 59.074,5.943 L 59.066,5.943 L 59.066,6.949 L 58.39,6.949 L 58.39,4.341 L 59.402,4.341 C 59.919,4.341 60.309,4.586 60.309,5.144 C 60.309,5.501 60.108,5.815 59.738,5.883 L 60.558,6.949 z "
   id="path67"
   style="fill:#437657" />
					<polyline
   points="61.418,6.949 60.741,6.949 60.741,4.341 61.418,4.341 61.418,6.949      "
   id="polyline69"
   style="fill:#437657" />
					<path
   d="M 62.436,5.602 C 62.436,6.05 62.768,6.378 63.172,6.378 C 63.578,6.378 63.91,6.05 63.91,5.602 C 63.91,5.243 63.578,4.913 63.172,4.913 C 62.768,4.912 62.436,5.242 62.436,5.602 M 64.615,5.596 C 64.615,6.443 64.01,7.035 63.171,7.035 C 62.335,7.035 61.73,6.442 61.73,5.596 C 61.73,4.806 62.421,4.253 63.171,4.253 C 63.923,4.253 64.615,4.806 64.615,5.596 z "
   id="path71"
   style="fill:#437657" />
					<path
   d="M 65.608,5.51 L 65.672,5.51 C 65.893,5.51 66.145,5.469 66.145,5.186 C 66.145,4.903 65.894,4.858 65.672,4.858 L 65.608,4.858 L 65.608,5.51 M 67.101,6.949 L 66.256,6.949 L 65.617,5.943 L 65.609,5.943 L 65.609,6.949 L 64.932,6.949 L 64.932,4.341 L 65.943,4.341 C 66.462,4.341 66.852,4.586 66.852,5.144 C 66.852,5.501 66.651,5.815 66.281,5.883 L 67.101,6.949 z "
   id="path73"
   style="fill:#437657" />
					<path
   d="M 9.221,9.273 L 9.288,9.273 C 9.448,9.273 9.612,9.245 9.612,9.052 C 9.612,8.838 9.426,8.826 9.263,8.826 L 9.221,8.826 L 9.221,9.273 M 9.221,10.215 L 9.299,10.215 C 9.476,10.215 9.776,10.225 9.776,9.969 C 9.776,9.694 9.48,9.722 9.283,9.722 L 9.221,9.722 L 9.221,10.215 z M 8.621,10.675 L 8.621,8.368 L 9.479,8.368 C 9.889,8.368 10.163,8.529 10.163,8.968 C 10.163,9.175 10.096,9.346 9.91,9.439 L 9.91,9.443 C 10.241,9.489 10.38,9.713 10.38,10.034 C 10.38,10.517 9.968,10.676 9.546,10.676 L 8.621,10.676 L 8.621,10.675 z "
   id="path75"
   style="fill:#437657" />
					<path
   d="M 12.695,8.368 L 12.695,9.666 C 12.695,9.961 12.682,10.255 12.453,10.479 C 12.261,10.668 11.956,10.737 11.688,10.737 C 11.418,10.737 11.116,10.669 10.924,10.479 C 10.693,10.254 10.681,9.96 10.681,9.666 L 10.681,8.368 L 11.282,8.368 L 11.282,9.583 C 11.282,9.885 11.304,10.211 11.688,10.211 C 12.074,10.211 12.094,9.885 12.094,9.583 L 12.094,8.368 L 12.695,8.368"
   id="path77"
   style="fill:#437657" />
					<path
   d="M 13.674,9.404 L 13.732,9.404 C 13.928,9.404 14.147,9.366 14.147,9.112 C 14.147,8.863 13.928,8.827 13.732,8.827 L 13.674,8.827 L 13.674,9.404 M 14.992,10.675 L 14.245,10.675 L 13.679,9.788 L 13.674,9.788 L 13.674,10.675 L 13.073,10.675 L 13.073,8.368 L 13.969,8.368 C 14.427,8.368 14.77,8.586 14.77,9.08 C 14.77,9.398 14.594,9.672 14.268,9.727 L 14.992,10.675 z "
   id="path79"
   style="fill:#437657" />
					<polyline
   points="15.754,8.875 15.754,9.262 16.43,9.262 16.43,9.769 15.754,9.769 15.754,10.166        16.467,10.166 16.467,10.675 15.155,10.675 15.155,8.368 16.467,8.368 16.467,8.875 15.754,8.875      "
   id="polyline81"
   style="fill:#437657" />
					<path
   d="M 17.843,9.08 L 17.838,9.08 L 17.59,9.816 L 18.09,9.816 L 17.843,9.08 M 17.425,10.274 L 17.265,10.674 L 16.628,10.674 L 17.517,8.367 L 18.172,8.367 L 19.04,10.674 L 18.401,10.674 L 18.251,10.274 L 17.425,10.274 z "
   id="path83"
   style="fill:#437657" />
					<path
   d="M 21.229,8.368 L 21.229,9.666 C 21.229,9.961 21.215,10.255 20.988,10.479 C 20.796,10.668 20.491,10.737 20.223,10.737 C 19.952,10.737 19.651,10.669 19.456,10.479 C 19.228,10.254 19.216,9.96 19.216,9.666 L 19.216,8.368 L 19.816,8.368 L 19.816,9.583 C 19.816,9.885 19.838,10.211 20.223,10.211 C 20.608,10.211 20.63,9.885 20.63,9.583 L 20.63,8.368 L 21.229,8.368"
   id="path85"
   style="fill:#437657" />
					<path
   d="M 23.164,9.482 C 23.164,9.88 23.458,10.17 23.816,10.17 C 24.175,10.17 24.468,9.881 24.468,9.482 C 24.468,9.165 24.175,8.873 23.816,8.873 C 23.458,8.873 23.164,9.165 23.164,9.482 M 25.093,9.477 C 25.093,10.225 24.558,10.756 23.816,10.756 C 23.076,10.756 22.54,10.225 22.54,9.477 C 22.54,8.78 23.152,8.292 23.816,8.292 C 24.481,8.292 25.093,8.779 25.093,9.477 z "
   id="path87"
   style="fill:#437657" />
					<polyline
   points="25.973,8.875 25.973,9.262 26.628,9.262 26.628,9.769 25.973,9.769 25.973,10.675        25.372,10.675 25.372,8.368 26.697,8.368 26.697,8.875 25.973,8.875      "
   id="polyline89"
   style="fill:#437657" />
					<polyline
   points="28.681,10.166 29.399,10.166 29.399,10.675 28.081,10.675 28.081,8.368 28.681,8.368        28.681,10.166      "
   id="polyline91"
   style="fill:#437657" />
					<path
   d="M 30.601,9.08 L 30.595,9.08 L 30.349,9.816 L 30.847,9.816 L 30.601,9.08 M 30.182,10.274 L 30.024,10.674 L 29.386,10.674 L 30.274,8.367 L 30.928,8.367 L 31.797,10.674 L 31.157,10.674 L 31.008,10.274 L 30.182,10.274 z "
   id="path93"
   style="fill:#437657" />
					<polyline
   points="31.984,8.368 32.583,8.368 33.683,9.782 33.689,9.782 33.689,8.368 34.289,8.368        34.289,10.675 33.689,10.675 32.591,9.262 32.583,9.262 32.583,10.675 31.984,10.675 31.984,8.368      "
   id="polyline95"
   style="fill:#437657" />
					<path
   d="M 35.278,10.166 L 35.415,10.166 C 35.773,10.166 36.079,9.969 36.079,9.52 C 36.079,9.108 35.806,8.874 35.422,8.874 L 35.279,8.874 L 35.279,10.166 M 34.68,8.368 L 35.532,8.368 C 36.176,8.368 36.704,8.873 36.704,9.52 C 36.704,10.169 36.171,10.674 35.532,10.674 L 34.68,10.674 L 34.68,8.368 z "
   id="path97"
   style="fill:#437657" />
					<polyline
   points="38.286,8.368 38.875,8.368 39.344,9.6 39.838,8.368 40.438,8.368 40.786,10.675        40.184,10.675 40.017,9.346 40.011,9.346 39.457,10.675 39.219,10.675 38.688,9.346 38.682,9.346 38.491,10.675 37.894,10.675        38.286,8.368      "
   id="polyline99"
   style="fill:#437657" />
					<path
   d="M 42.046,9.08 L 42.038,9.08 L 41.793,9.816 L 42.292,9.816 L 42.046,9.08 M 41.626,10.274 L 41.467,10.674 L 40.831,10.674 L 41.718,8.367 L 42.374,8.367 L 43.243,10.674 L 42.601,10.674 L 42.452,10.274 L 41.626,10.274 z "
   id="path101"
   style="fill:#437657" />
					<polyline
   points="43.43,8.368 44.029,8.368 45.127,9.782 45.135,9.782 45.135,8.368 45.734,8.368        45.734,10.675 45.135,10.675 44.033,9.262 44.029,9.262 44.029,10.675 43.43,10.675 43.43,8.368      "
   id="polyline103"
   style="fill:#437657" />
					<path
   d="M 47.131,9.08 L 47.125,9.08 L 46.88,9.816 L 47.377,9.816 L 47.131,9.08 M 46.713,10.274 L 46.554,10.674 L 45.919,10.674 L 46.804,8.367 L 47.46,8.367 L 48.329,10.674 L 47.689,10.674 L 47.54,10.274 L 46.713,10.274 z "
   id="path105"
   style="fill:#437657" />
					<path
   d="M 50.817,9.386 C 50.811,9.724 50.785,10.012 50.58,10.297 C 50.355,10.616 50.015,10.756 49.629,10.756 C 48.903,10.756 48.399,10.259 48.399,9.535 C 48.399,8.783 48.908,8.292 49.651,8.292 C 50.126,8.292 50.492,8.503 50.691,8.938 L 50.122,9.175 C 50.038,8.958 49.865,8.809 49.623,8.809 C 49.229,8.809 49.024,9.185 49.024,9.539 C 49.024,9.896 49.237,10.259 49.633,10.259 C 49.892,10.259 50.09,10.124 50.116,9.859 L 49.627,9.859 L 49.627,9.386 L 50.817,9.386"
   id="path107"
   style="fill:#437657" />
					<polyline
   points="51.69,8.875 51.69,9.262 52.368,9.262 52.368,9.769 51.69,9.769 51.69,10.166 52.406,10.166        52.406,10.675 51.091,10.675 51.091,8.368 52.406,8.368 52.406,8.875 51.69,8.875      "
   id="polyline109"
   style="fill:#437657" />
					<polyline
   points="53.029,8.368 53.62,8.368 54.087,9.6 54.582,8.368 55.181,8.368 55.53,10.675 54.927,10.675        54.76,9.346 54.754,9.346 54.2,10.675 53.962,10.675 53.433,9.346 53.427,9.346 53.234,10.675 52.637,10.675 53.029,8.368             "
   id="polyline111"
   style="fill:#437657" />
					<polyline
   points="56.383,8.875 56.383,9.262 57.059,9.262 57.059,9.769 56.383,9.769 56.383,10.166        57.095,10.166 57.095,10.675 55.784,10.675 55.784,8.368 57.095,8.368 57.095,8.875 56.383,8.875      "
   id="polyline113"
   style="fill:#437657" />
					<polyline
   points="57.465,8.368 58.064,8.368 59.162,9.782 59.17,9.782 59.17,8.368 59.771,8.368 59.771,10.675        59.17,10.675 58.072,9.262 58.064,9.262 58.064,10.675 57.465,10.675 57.465,8.368      "
   id="polyline115"
   style="fill:#437657" />
					<polyline
   points="61.08,10.675 60.481,10.675 60.481,8.875 59.984,8.875 59.984,8.368 61.577,8.368        61.577,8.875 61.08,8.875 61.08,10.675      "
   id="polyline117"
   style="fill:#437657" />
					<path
   d="M 40.361,57.569 C 39.408,59.122 37.781,59.918 36.002,60.183 C 33.46,60.565 30.763,59.716 29.415,57.453 C 23.656,47.801 15.794,34.626 10.329,25.325 L 59.83,25.46 C 54.258,34.844 46.357,47.825 40.361,57.569"
   id="path119"
   style="fill:#acce64" />
					<path
   d="M 22.004,45.674 C 26.362,45.541 28.09,44.974 29.29,44.54 C 30.761,44.009 31.352,43.546 28.558,42.416 C 26.236,41.475 18.698,40.236 26.229,36.891 C 27.425,36.36 27.904,36.328 28.657,36.026 C 28.657,36.026 28.624,35.596 27.493,34.997 C 26.362,34.394 24.099,33.168 21.77,32.697 C 21.77,32.697 21.104,32.435 20.306,32.234 C 19.508,32.033 19.708,32.033 18.576,31.836 C 17.446,31.636 17.046,30.705 19.176,29.905 C 21.304,29.106 24.481,28.177 28.673,28.027 L 27.926,28.676 C 27.926,28.676 27.792,28.575 26.628,28.738 C 24.747,29.009 22.003,30.186 21.374,30.636 C 21.139,30.805 21.438,30.97 21.838,31.034 C 22.236,31.102 28.806,31.98 33.215,34.43 C 35.612,35.761 36.569,36.071 32.35,37.225 C 30.521,37.723 28.633,39.131 29.023,39.287 C 29.689,39.553 33.448,40.316 35.113,41.25 C 36.774,42.179 40.268,43.345 33.746,48.602 C 33.746,48.602 28.425,51.598 25.963,52.128 L 22.004,45.674"
   id="path121"
   style="fill:#5f8bbb" />
					<path
   d="M 56.705,29.105 L 27.493,29.105 C 33.681,22.987 45.392,17.726 60.761,22.717 L 56.705,29.105"
   id="path123"
   style="fill:#70b466" />
					<path
   d="M 56.705,29.105 L 27.493,29.105 C 33.681,22.987 45.392,17.726 60.761,22.717 L 56.705,29.105 z "
   id="path125"
   style="fill:none;stroke:#437657;stroke-width:0.5323" />
					<path
   d="M 33.282,23.984 C 29.371,22.134 26.128,20.63 18.611,20.457 C 14.32,20.356 10.952,21.282 9.26,21.786 L 12.524,27.308 L 29.471,27.308 C 30.539,26.378 33.348,24.648 33.897,24.382 L 33.282,23.984"
   id="path127"
   style="fill:#70b466" />
					<path
   d="M 33.282,23.984 C 29.371,22.134 26.128,20.63 18.611,20.457 C 14.32,20.356 10.952,21.282 9.26,21.786 L 12.524,27.308 L 29.471,27.308 C 30.539,26.378 33.348,24.648 33.897,24.382 L 33.282,23.984 z "
   id="path129"
   style="fill:none;stroke:#437657;stroke-width:0.5323" />
					<path
   d="M 42.529,55.321 L 53.809,36.492 C 53.809,36.492 51.113,35.559 51.312,31.237 C 51.312,31.237 53.709,32.696 54.706,30.503 C 54.706,30.503 52.446,30.771 51.513,28.441 C 50.58,26.112 50.25,23.784 50.314,22.521 C 50.314,22.521 51.977,24.448 53.709,23.185 C 53.709,23.185 50.58,22.119 50.049,19.658 C 49.516,17.197 49.251,16.533 49.251,15.735 C 49.251,15.735 49.917,15.801 50.182,16.199 C 50.182,16.199 50.857,16.388 49.192,14.595 C 49.192,14.595 48.935,13.862 48.983,12.898 C 49.019,12.218 48.818,12.146 48.76,12.146 L 48.569,12.283 C 48.235,12.617 48.436,13.247 48.259,13.79 C 48.259,13.79 47.121,14.736 47.057,15.537 C 47.057,15.537 47.387,15.402 47.787,15.07 C 48.185,14.736 48.052,14.933 48.052,15.402 C 48.052,15.867 47.652,17.531 47.455,17.797 C 47.254,18.063 45.989,19.458 45.324,19.659 C 45.324,19.659 46.422,20.557 47.62,19.426 C 47.62,19.426 46.787,23.385 44.793,24.518 C 42.798,25.652 42.197,25.316 42.197,25.316 C 42.197,25.316 42.928,26.247 44.525,25.783 C 44.525,25.783 44.525,26.247 44.193,26.581 C 44.193,26.581 45.922,26.315 46.656,25.715 C 46.656,25.715 46.727,29.207 43.196,31.305 C 39.834,33.302 39.136,32.969 39.136,32.969 C 39.136,32.969 42.03,35.663 46.087,32.204 C 46.087,32.204 45.856,36.229 42.066,38.092 C 38.274,39.954 36.941,39.355 36.608,39.222 C 36.608,39.222 36.91,41.02 39.568,40.951 L 39.136,41.418 C 39.136,41.418 41.732,42.085 44.525,40.155 C 44.525,40.155 43.795,46.343 40.401,49.007 C 37.009,51.665 34.878,51.861 34.546,51.861 C 34.546,51.861 36.645,54.403 40.269,52.593 C 41.399,52.03 42.131,51.733 42.131,51.733 C 42.131,51.733 40.834,56.49 39.006,58.549 L 42.529,55.321"
   id="path131"
   style="fill:#437657" />
					<g
   id="g133">
						<path
   d="M 5.36,0.731 C 26.827,0.76 63.97,0.744 64.046,0.748 C 67.971,0.925 70.261,5.852 69.003,9.615 C 59.645,25.718 50.469,41.133 40.361,57.557 C 39.408,59.109 37.781,59.906 36.002,60.17 C 33.46,60.553 30.763,59.7 29.415,57.44 C 19.581,40.956 10.473,25.412 1.06,9.354 C -0.074,5.947 1.823,1.757 5.36,0.731 z "
   id="path135"
   style="fill:none;stroke:#437657;stroke-width:1.46379995" />
					</g>
				</g>
			</g>
		</g>
	</g>
</g>
</svg>