<?xml version="1.0" encoding="UTF-8" standalone="no"?>
<!-- Generator: Adobe Illustrator 13.0.1, SVG Export Plug-In . SVG Version: 6.00 Build 14948)  -->
<svg
   xmlns:dc="http://purl.org/dc/elements/1.1/"
   xmlns:cc="http://web.resource.org/cc/"
   xmlns:rdf="http://www.w3.org/1999/02/22-rdf-syntax-ns#"
   xmlns:svg="http://www.w3.org/2000/svg"
   xmlns="http://www.w3.org/2000/svg"
   xmlns:xlink="http://www.w3.org/1999/xlink"
   xmlns:sodipodi="http://sodipodi.sourceforge.net/DTD/sodipodi-0.dtd"
   xmlns:inkscape="http://www.inkscape.org/namespaces/inkscape"
   version="1.1"
   id="Layer_1"
   x="0px"
   y="0px"
   width="720px"
   height="153.949px"
   viewBox="0 0 720 153.949"
   enable-background="new 0 0 720 153.949"
   xml:space="preserve"
   sodipodi:version="0.32"
   inkscape:version="0.45.1"
   sodipodi:docname="NRCLogo2.svg"
   sodipodi:docbase="/Users/lindberg/Projects/Wiki/seals"
   inkscape:output_extension="org.inkscape.output.svg.inkscape"><metadata
   id="metadata54"><rdf:RDF><cc:Work
       rdf:about=""><dc:format>image/svg+xml</dc:format><dc:type
         rdf:resource="http://purl.org/dc/dcmitype/StillImage" /></cc:Work></rdf:RDF></metadata><defs
   id="defs52"><linearGradient
   inkscape:collect="always"
   id="linearGradient3262"><stop
     style="stop-color:#f1f3f8;stop-opacity:1;"
     offset="0"
     id="stop3264" /><stop
     style="stop-color:#395492;stop-opacity:1"
     offset="1"
     id="stop3266" /></linearGradient><linearGradient
   id="linearGradient3222"><stop
     style="stop-color:#f1f3f8;stop-opacity:1"
     offset="0"
     id="stop3224" /><stop
     style="stop-color:#06528e;stop-opacity:1"
     offset="1"
     id="stop3226" /></linearGradient><linearGradient
   id="linearGradient3206"><stop
     style="stop-color:#ffffff;stop-opacity:1;"
     offset="0"
     id="stop3208" /><stop
     style="stop-color:#000000;stop-opacity:0"
     offset="1"
     id="stop3210" /></linearGradient>
	<defs
   id="defs23">
		<path
   d="M 125.825,81.677 C 125.825,99.347 111.501,113.669 93.833,113.669 C 76.167,113.669 61.849,99.347 61.849,81.677 C 61.849,64.011 76.167,49.689 93.833,49.689 C 111.5,49.688 125.825,64.011 125.825,81.677"
   id="SVGID_1_" />
	</defs>
	
	
<radialGradient
   inkscape:collect="always"
   xlink:href="#linearGradient3262"
   id="radialGradient3268"
   cx="-345.05447"
   cy="77.549774"
   fx="-345.05447"
   fy="77.549774"
   r="31.989"
   gradientTransform="matrix(-2.0870016e-3,-1.1682525,1.1761054,-2.1010249e-3,-240.61619,-323.15794)"
   gradientUnits="userSpaceOnUse" /><clipPath
   clipPathUnits="userSpaceOnUse"
   id="clipPath3286"><use
     xlink:href="#SVGID_1_"
     overflow="visible"
     id="use3288"
     style="overflow:visible"
     x="0"
     y="0"
     width="720"
     height="153.94901"
     transform="translate(-223.698,0)" /></clipPath></defs><sodipodi:namedview
   inkscape:window-height="733"
   inkscape:window-width="1004"
   inkscape:pageshadow="2"
   inkscape:pageopacity="0.0"
   guidetolerance="10.0"
   gridtolerance="10.0"
   objecttolerance="10.0"
   borderopacity="1.0"
   bordercolor="#666666"
   pagecolor="#ffffff"
   id="base"
   inkscape:zoom="3.3944444"
   inkscape:cx="113.59899"
   inkscape:cy="76.974503"
   inkscape:window-x="265"
   inkscape:window-y="22"
   inkscape:current-layer="Layer_1" />
<path
   d="M289.532,42.698v3.65h-11.549v61.312c0,14.594-2.949,21.748-9.309,27.15c-6.359,5.4-16.131,7.59-30.092,7.59  c-11.018,0-18.193-3.211-24.719-7.738c-6.666-4.674-9.611-14.16-9.611-30.51V46.349h-12.418v-3.65h42.305v3.65h-13.045v53.428  c0,20.287-2.064,37.953,26.012,37.953c18.156,0,25.914-10.803,25.914-26.855V46.349h-14.283v-3.65H289.532"
   id="path3" />
<path
   d="M313.549,141.087h-2.852v-24.152h4.869c3.508,13.861,14.766,23.117,32.533,23.117c13.236,0,26.951-10.303,26.951-22.27  c0-15.238-16.027-17.268-28.594-21.064c-3.35-1.021-6.703-2.043-10.055-2.922c-15.588-4.086-25.109-12.088-25.109-25.953  c0-15.324,15.02-27.332,32.449-27.332c9.721,0,15.457,2.041,23.164,7.299l5.064-4.539h3.008v22.316h-4.053  c-1.84-13.869-17.602-21.426-27.688-21.426c-10.725,0-24.051,8.26-24.051,18.039c0,11.242,13.463,13.617,23.857,16.098  c4.186,1.023,7.527,2.047,10.383,2.773c3.348,0.879,7.535,1.898,11.061,3.357c14.074,5.84,19.305,15.293,19.305,26.576  c0,18.395-15.252,32.699-36.867,32.699c-7.877,0-19.627-4.08-25.504-8.75L313.549,141.087"
   id="path5" />
<polyline
   points="498.612,142.104 493.881,142.104 429.647,49.267 429.647,136.563 442.489,136.563 442.489,140.212   411.758,140.212 411.758,136.563 424.6,136.563 424.6,46.349 411.758,46.349 411.758,42.698 449.502,42.698 493.563,106.487   493.563,46.349 479.729,46.349 479.729,42.698 511.77,42.698 511.77,46.349 498.612,46.349 498.612,142.104 "
   id="polyline7" />
<path
   d="M552.315,136.563h14.307v3.648h-43.57v-3.648h13.002V46.349h-13.002v-3.65h50.213c17.18,0,37.676,1.896,37.676,22.189  c0,16.496-18.76,22.189-33.43,23.648v0.295c24.604,3.502,30.115,15.758,30.115,39.553c0,5.109,0.469,10.953,15.605,8.322v3.506  c-4.416,1.021-8.822,1.752-13.396,1.752c-15.928,0-24.281-7.447-24.281-22.336c0-12.113-2.203-21.172-6.299-24.381  c-4.424-3.502-13.373-5.25-18.264-5.25h-8.676V136.563 M552.315,86.347h16.836c14.199,0,20.035-6.277,20.035-19.412  c0-16.354-5.207-20.586-19.238-20.586h-17.633V86.347z"
   id="path9" />
<path
   d="M720,111.161v29.926h-3.467l-6.455-7.006c-7.102,5.693-18.977,8.32-28.273,8.32c-27.744,0-48.715-26.127-48.715-50.361  c0-18.977,10.881-36.939,28.535-46.717c6.303-3.352,14.197-4.812,21.443-4.812c8.826,0,18.797,2.334,25.74,7.592l6.303-6.131h3.471  v28.172h-4.57c-2.369-15.91-15.656-25.982-31.098-25.982c-10.098,0-15.297,2.041-20.822,9.924  c-7.404,10.516-7.121,27.439-7.121,39.266c0,8.32,0.977,19.709,3.971,29.197c3.006,9.344,10.41,15.619,22.387,16.203  c19.396,0.873,29.686-11.824,34.262-27.59H720"
   id="path11" />
<path
   d="M299.375,135.548c0,3.746-3.029,6.771-6.775,6.771c-3.734,0-6.77-3.025-6.77-6.771c0-3.736,3.035-6.768,6.77-6.768  C296.346,128.78,299.375,131.812,299.375,135.548"
   id="path13" />
<path
   d="M402.874,135.548c0,3.746-3.025,6.771-6.758,6.771c-3.75,0-6.777-3.025-6.777-6.771c0-3.736,3.027-6.768,6.777-6.768  C399.848,128.78,402.874,131.812,402.874,135.548"
   id="path15" />
<path
   d="M43.866,63.235c0,0,21.033,30.143,51.129,55.354c17.99,15.072,47.357,35.676,58.738,28.137  c11.436-7.57-13.689-43.588-13.689-43.588s28.141,36.213,16.15,48.436c-8.336,8.5-40.748-6.07-74.729-39.439  C54.852,86.003,45.786,67.562,43.866,63.235"
   id="path17" />
<path
   fill="#1B91A7"
   d="M123.901,50.47c0,0,48.281-10.143,44.439,8.002c-2.68,12.625-21.285,24.555-37.672,34.133  c-35.518,20.76-81.191,31.371-81.191,31.371s34.051-5.047,63.66-17.686c36.75-15.684,69.459-42.904,59.66-53.662  C161.879,40.64,123.901,50.47,123.901,50.47"
   id="path19" />

		<rect
   style="opacity:1;fill:url(#radialGradient3268);fill-opacity:1;fill-rule:nonzero;stroke:none;stroke-width:1.44599998;stroke-linecap:butt;stroke-linejoin:round;stroke-miterlimit:4;stroke-dasharray:none;stroke-dashoffset:0;stroke-opacity:1"
   id="rect2234"
   width="63.978001"
   height="63.979"
   x="-161.851"
   y="49.690002"
   clip-path="url(#clipPath3286)"
   transform="translate(223.698,0)" />
	
<g
   id="g43">
	<path
   fill="#98B18B"
   d="M130.36,33.712c0,0-21.068,13.686-42.592,38.594C66.67,96.728,49.69,123.153,57.936,132.425   c7.381,8.309,37.369-13.062,37.369-13.062s-31.219,25.059-41.982,14.605C40.02,121.036,78.065,77.146,85.461,69.235   C108.401,44.704,128.124,34.741,130.36,33.712"
   id="path45" />
	<path
   fill="#B97860"
   d="M175.209,65.728c0,0-42.186-11.732-95.289-7.975C26.264,61.546,3.208,76.009,0.575,84.544   c-6.955,22.488,51.533,30.871,51.533,30.871S1.202,106.442,6.915,88.22c5.777-18.428,65.186-24.895,96.076-26.521   C132.208,60.163,175.209,65.728,175.209,65.728"
   id="path47" />
	<path
   fill="#F0BA72"
   d="M90.379,40.786c0,0,13.996-46.828,31.064-40.131c16.453,6.461,12.848,62.303,9.84,84.418   c-4.303,31.674-16.299,56.738-16.299,56.738s13.529-37.83,14.607-86.723c0.959-43.52-9.227-50.436-15.072-49.971   C102.346,6.073,90.379,40.786,90.379,40.786"
   id="path49" />
</g>
</svg>